<svg xmlns="http://www.w3.org/2000/svg" xmlns:xlink="http://www.w3.org/1999/xlink" width="1374.1165771484375" height="788.7958984375" viewBox="0 0 1374.1165771484375 788.7958984375" fill="none"><g opacity="1"  transform="translate(0 0)  rotate(0)"><path id="背景绘制" fill-rule="evenodd" style="fill:#FF8200" opacity="1" d="M34.5 129.5L26 146.5L38.5 146.5L34.5 164L26 203.5L20 206.5L29 226L20 248.5L29 241.5L29 257.5L20 268L29 268L29 302.5L0 292L29 317L11.5 311L29 327L20 327L29 336L29 403C32.17 416 36.6 448.1 29 472.5C21.4 496.9 32.17 492 38.5 486.5L38.5 579L20 588.5L29 620L20 728L41 760.5L163 747.5L201.5 776.5L191 760.5L201.5 754L264 754L330.5 754L302.5 743.5L435 747.5L530 754L685.5 743.5L789.5 743.5L826.5 739L826.5 747.5L1052.5 739L1083 754L1123.5 760.5L1149.5 747.5L1149.5 765.5L1163.5 747.5L1172.5 739L1156 718L1156 670L1149.94 622.5L1149.17 616.5L1144 576L1151.03 504.5L1151.34 501.36L1156 454C1156.67 417 1155.1 335.1 1159.5 311.5C1163.9 287.9 1153 299.5 1149.5 294.5L1149.5 190L1161 150.5L1161 85L1123.5 96.5L1102 85L1075.5 90L1052 90C1037.5 92.17 1007 96.5 1001 96.5L962.5 96.5L956.5 90L877.5 90L840 96.5L726.5 85L693.5 96.5L593.5 96.5C572.33 98.17 532.8 100.5 544 96.5C555.2 92.5 413.33 87.17 341 85L324.5 90L196.5 90L98.5 96.5C80.17 94.33 42.5 90 38.5 90L17 90L29 114.5L34.5 129.5ZM1151.03 504.5L1163.5 554L1149.17 616.5L1149.94 622.5L1168 554L1151.34 501.36L1151.03 504.5ZM1144 576L1149.17 616.5L1163.5 554L1151.03 504.5L1144 576Z"></path><g opacity="1"  transform="translate(1370.0408935546875 710.29150390625)  rotate(0)"><path id="Vector" fill-rule="evenodd" style="fill:#FF8200" opacity="1" d="M-207.44 3.62505C-203.688 -11.839 -199.865 -27.2994 -196.093 -42.7652C-210.133 -26.023 -224.129 -9.25452 -238.148 7.49583C-240.362 3.26566 -242.586 -0.963623 -244.811 -5.19291C-259.705 6.23419 -274.6 17.6613 -289.495 29.0784C-263.132 5.52551 -236.679 -17.9349 -210.293 -41.4597C-223.512 -35.9045 -236.681 -30.2333 -249.877 -24.64C-250.278 -29.0317 -250.659 -33.4252 -251.06 -37.8069C-267.503 -27.8683 -283.945 -17.9197 -300.387 -7.98109C-303.282 -11.3976 -306.159 -14.8459 -309.054 -18.2624C-322.956 -4.03239 -336.804 10.243 -350.685 24.4813C-356.099 30.0839 -361.569 35.6213 -366.961 41.2421C-352.386 34.793 -337.814 28.314 -323.241 21.835C-323.143 26.9966 -323.054 32.1592 -322.976 37.3226C-315.364 31.4839 -307.763 25.6362 -300.162 19.7885C-297.054 23.2262 -293.947 26.664 -290.848 30.1226C-311.457 45.9241 -332.044 61.7438 -352.674 77.5272L-352.425 77.505C-331.076 69.3379 -309.715 61.1898 -288.365 53.0226C-287.812 59.238 -287.259 65.4434 -286.706 71.6488L-286.606 71.64C-271.495 63.3159 -256.41 54.9339 -241.298 46.6198C-238.118 49.2981 -234.929 51.9556 -231.741 54.6131C-209.465 31.836 -187.168 9.05719 -164.883 -13.7307C-161.453 -17.2691 -157.948 -20.7439 -154.564 -24.3385C-172.196 -15.0167 -189.817 -5.68587 -207.44 3.62505Z"></path></g><g opacity="1"  transform="translate(8 0)  rotate(0)"><path id="Vector" fill-rule="evenodd" style="fill:#FF8200" opacity="1" d="M45.2 55.15C30.13 50.04 15.07 44.86 0 39.73C15.43 55.2 30.89 70.63 46.33 86.08C41.92 87.91 37.51 89.75 33.1 91.59C43.16 107.44 53.22 123.29 63.27 139.14C42.15 110.79 21.13 82.36 0.04 53.99C4.4 67.65 8.88 81.27 13.28 94.91C8.87 94.92 4.46 94.91 0.06 94.92C8.5 112.18 16.95 129.44 25.39 146.7C21.73 149.28 18.04 151.84 14.38 154.42C27.32 169.53 40.31 184.59 53.26 199.68C58.36 205.57 63.39 211.51 68.51 217.38C63.38 202.29 58.22 187.2 53.06 172.11C58.21 172.47 63.36 172.84 68.51 173.22C63.37 165.12 58.22 157.03 53.07 148.94C56.77 146.15 60.47 143.36 64.19 140.58C78.1 162.51 92.03 184.42 105.92 206.37L105.92 206.12C99.68 184.13 93.46 162.13 87.22 140.14C93.46 140.14 99.69 140.14 105.92 140.14L105.92 140.04C98.97 124.25 91.96 108.48 85.02 92.69C87.97 89.76 90.9 86.82 93.83 83.88C73.12 59.67 52.41 35.44 31.69 11.22C28.47 7.49 25.32 3.69 22.04 0C29.76 18.39 37.49 36.77 45.2 55.15Z"></path></g></g></svg>