<svg xmlns="http://www.w3.org/2000/svg" xmlns:xlink="http://www.w3.org/1999/xlink" width="293" height="58" viewBox="0 0 293 58" fill="none"><g opacity="1"  transform="translate(0 0)  rotate(0)"><mask id="bg-mask-0" fill="white"><use xlink:href="#path_0"></use></mask><g mask="url(#bg-mask-0)" ><g opacity="1"  transform="translate(11.878814697265625 0.233673095703125)  rotate(0)"><path id="Vector" fill-rule="evenodd" style="fill:#FF8200" opacity="1" d="M91.2 2.88C89.43 3.35 87.68 3.84 85.94 4.41C83.35 5.27 80.62 5.61 78.05 6.54C76.27 7.21 74.35 6.78 72.51 7C70.15 7.26 67.78 7.33 65.41 7.51C63.59 7.66 61.82 7.08 60 7.09C58.54 7.08 57.05 7.11 55.61 6.8C53.15 6.25 50.61 6.8 48.14 6.27C45.85 5.77 43.48 6.1 41.19 5.63C38.85 5.19 36.48 5.62 34.12 5.38C31.44 5.1 28.79 5.83 26.11 5.82C23.54 6.24 20.97 5.34 18.41 5.88C16.3 6.3 14.14 6.57 11.99 6.28C11.79 6.43 11.39 6.75 11.18 6.91C10.56 6.94 9.94 6.99 9.31 7.04C9.29 7.41 9.24 8.15 9.21 8.51C8.71 8.09 8.2 7.66 7.7 7.23C6.17 7.79 4.57 8.09 2.94 8.09C1.94 9.46 1.82 11.17 1.43 12.77C1.59 13.29 1.9 13.8 1.84 14.37C1.63 16.49 1.18 18.57 0.74 20.64C0.76 25.69 1.05 30.77 0 35.75C2.98 39.06 6.01 42.34 9.01 45.64C10.38 47.18 10.65 49.32 10.66 51.3C11.66 51.95 12.75 52.58 13.99 52.41C17.12 52.22 20.23 52.8 23.25 53.57C24.66 53.64 26 53.03 27.41 53.04C31.33 53.32 35.29 53.54 39.11 54.53C40.77 54.79 42.42 54.09 44.09 54.37C45.92 54.7 47.73 54.2 49.56 54.18C53.31 54.34 56.73 52.1 60.49 52.5C61.52 52.6 62.4 53.18 63.37 53.48C65.02 53.79 66.71 53.81 68.38 53.67C69.91 53.56 71.45 54.04 72.95 53.61C74.9 53.26 76.78 52.2 78.8 52.62C83.74 53.33 88.59 54.6 93.45 55.71C94.07 55.71 94.65 55.5 95.22 55.3C98.12 54.17 101 52.94 103.98 52.05C106.29 51.53 108.65 51.27 111.01 51.09C112.45 50.97 113.26 49.33 114.75 49.38C116.9 49.29 118.83 50.66 121 50.44C123.53 50.42 126.37 49.25 128.63 50.92C130.72 50.44 133.02 49.95 135.06 50.82C138.66 52.13 142.21 53.76 146.08 54.07C147.75 53.99 149.41 53.79 151.09 53.86C146.1 50.33 141.43 46.36 136.54 42.67C129.23 37.03 122.04 31.22 114.63 25.7C115.66 25.75 116.68 25.83 117.69 25.98C126.39 27.31 135.09 28.65 143.79 29.93C133.88 21.5 124.02 13.02 114.15 4.54C113.48 4.11 113.75 3.21 113.63 2.55C110.09 2.95 106.84 1.1 103.4 0.67C103.24 0.5 102.93 0.17 102.78 0C101.43 0.24 100.06 0.36 98.7 0.51C96.06 0.83 93.74 2.22 91.2 2.88Z"></path><path id="Vector" fill-rule="evenodd" style="fill:#FF8200" opacity="1" d="M172.765 5.48346C170.465 6.00346 168.095 6.26346 165.735 6.45346C164.815 6.47346 164.155 7.16346 163.505 7.72346C161.935 8.22346 160.255 8.13346 158.725 7.52346C156.395 6.66346 153.925 7.32346 151.555 7.50346C150.265 7.65346 149.095 7.05346 147.895 6.70346C146.875 6.82346 145.875 7.06346 144.855 7.22346C146.415 12.0535 148.585 16.6435 150.295 21.4135C152.685 27.3635 154.855 33.3935 157.335 39.3135C151.805 38.7835 146.275 38.2235 140.765 37.5235C148.885 43.1035 157.075 48.5735 165.205 54.1235C166.045 54.7035 166.925 55.2835 167.935 55.5335C169.775 55.8835 171.485 56.7335 173.375 56.8635C173.535 57.0335 173.835 57.3635 173.985 57.5335C176.555 57.0935 179.245 57.1235 181.665 56.0435C184.725 54.6935 188.035 54.0835 191.185 53.0035C193.545 52.2435 196.005 51.9335 198.345 51.1135C199.165 50.8435 200.005 50.5935 200.865 50.5935C203.955 50.7035 207.015 50.1735 210.095 50.0935C212.755 49.7035 215.365 50.6035 218.025 50.4535C220.125 50.3435 222.155 51.1235 224.265 51.0035C227.505 50.8235 230.675 51.7835 233.915 51.6735C236.535 52.2035 239.185 52.0935 241.835 52.1035C246.175 52.5235 250.495 51.1835 254.835 51.7535C256.915 52.0635 258.955 51.4335 261.025 51.2935C262.585 51.0835 264.235 51.5635 265.695 50.8135C266.285 50.6435 266.885 50.5135 267.475 50.3435C267.585 47.7735 266.615 45.2635 266.995 42.7035C267.175 41.1935 266.555 39.7035 266.805 38.1935C267.795 34.3635 268.025 30.4035 268.295 26.4735C268.305 25.0735 267.715 23.7335 267.765 22.3235C268.535 19.3235 269.115 16.2335 268.925 13.1235C268.815 12.1135 269.205 11.1835 269.645 10.3035C268.635 10.2135 267.635 10.0935 266.635 9.97346C266.275 8.75346 266.135 7.48346 266.095 6.22346C265.195 5.69346 264.275 5.03346 263.175 5.12346C260.035 5.27346 256.895 4.86346 253.865 4.03346C252.475 3.76346 251.125 4.41346 249.745 4.48346C245.535 4.33346 241.325 3.86346 237.205 2.93346C235.695 2.90346 234.195 3.39346 232.685 3.16346C230.855 2.83346 229.035 3.32346 227.205 3.35346C223.465 3.23346 220.025 5.34346 216.265 5.02346C214.965 4.92346 213.905 3.97346 212.585 3.93346C210.345 3.55346 208.075 4.06346 205.825 3.75346C202.985 3.53346 200.375 5.56346 197.525 4.85346C192.735 4.11346 188.025 2.90346 183.305 1.82346C182.715 1.82346 182.145 2.02346 181.605 2.21346C178.675 3.34346 175.775 4.59346 172.765 5.48346Z"></path></g></g></g><defs><rect id="path_0" x="0" y="0" width="293" height="58" /></defs></svg>