<svg width="2400.000000" height="445.000000" viewBox="0 0 2400 445" fill="none" xmlns="http://www.w3.org/2000/svg" xmlns:xlink="http://www.w3.org/1999/xlink">
	<desc>
			Created with Pixso.
	</desc>
	<defs>
		<clipPath id="clip104_3074">
			<rect id="stock-fill" width="234.432251" height="239.999985" transform="translate(554.000000 103.000000)" fill="white"/>
		</clipPath>
		<linearGradient id="paint_linear_104_3070_0" x1="2400.000000" y1="222.500000" x2="0.000000" y2="222.500000" gradientUnits="userSpaceOnUse">
			<stop stop-color="#820704"/>
			<stop offset="0.786260" stop-color="#140100"/>
		</linearGradient>
	</defs>
	<rect id="矩形 23" x="0.250000" y="0.250000" rx="20.000000" width="2399.500000" height="444.500000" fill="url(#paint_linear_104_3070_0)"/>
	<rect id="矩形 23" x="0.250000" y="0.250000" rx="20.000000" width="2399.500000" height="444.500000" stroke="#FF9F9F" stroke-width="0.500000"/>
	<path id="前往数据构建应用" d="M912.289 245.039L912.289 237.246L932.328 237.246L932.328 245.039L912.289 245.039ZM932.328 219.229L932.328 226.67L912.289 226.67L912.289 219.229L932.328 219.229ZM946.127 207.246L898.725 207.246L898.725 279.727L912.289 279.727L912.289 255.469L932.328 255.469L932.328 266.162C932.328 267.598 931.83 268.066 930.395 268.066C928.842 268.213 924.037 268.213 919.584 267.949C921.4 271.201 923.451 276.475 924.154 280.078C931.479 280.078 936.986 279.844 940.824 277.793C944.926 275.771 946.127 272.402 946.127 266.279L946.127 207.246ZM980.316 264.492C980.316 266.162 979.73 266.631 977.797 266.631C975.746 266.748 969.506 266.748 963.412 266.514C965.551 270.234 967.836 276.123 968.568 279.961C977.211 280.078 983.686 279.727 988.227 277.559C993.031 275.273 994.35 271.787 994.35 264.727L994.35 205.078L980.316 205.078L980.316 264.492ZM969.506 208.447L956.439 208.447L956.439 257.402L969.506 257.402L969.506 208.447ZM976.361 186.123C979.35 181.934 982.602 177.246 985.473 172.559L970.004 167.988C967.602 173.525 963.764 180.586 960.16 186.123L926.791 186.123L933.412 183.838C931.361 179.268 926.557 172.793 922.25 168.252L908.686 172.91C912.025 176.895 915.512 182.051 917.68 186.123L892.133 186.123L892.133 198.955L1000.71 198.955L1000.71 186.123L976.361 186.123ZM1033.96 168.604C1029.39 176.514 1019.69 186.24 1010.93 192.012C1013.19 195 1016.56 200.889 1018.23 204.111C1028.8 196.787 1040.2 184.922 1047.52 173.76L1033.96 168.604ZM1025.32 280.547L1039.96 280.547L1039.96 214.805C1043.69 209.883 1046.91 204.844 1049.69 199.922L1037.06 194.883C1030.59 206.396 1019.43 218.291 1009.47 225.732C1011.63 229.189 1015.24 237.246 1016.32 240.469C1019.31 237.949 1022.33 235.078 1025.32 232.09L1025.32 280.547ZM1092.52 263.408L1092.52 238.916L1115.2 238.916L1115.2 225.352L1092.52 225.352L1092.52 204.229L1118.8 204.229L1118.8 190.693L1082.91 190.693L1094.54 186.475C1092.88 181.318 1088.69 173.525 1085.08 167.871L1071.87 172.324C1075.24 178.066 1078.84 185.654 1080.28 190.693L1049.69 190.693L1049.69 204.229L1077.64 204.229L1077.64 225.352L1053.76 225.352L1053.76 238.916L1077.64 238.916L1077.64 263.408L1046.09 263.408L1046.09 276.973L1121.91 276.973L1121.91 263.408L1092.52 263.408ZM1177.48 169.922C1175.55 174.346 1172.33 180.85 1169.54 185.039L1178.69 189.111C1181.79 185.391 1185.51 180 1189.47 174.609L1177.48 169.922ZM1154.69 222.246L1167.88 222.246L1167.88 209.15C1172.45 212.754 1177.13 216.709 1179.77 219.229L1187.21 209.268C1185.16 207.832 1178.45 203.877 1173.03 200.771L1190.55 200.771L1190.55 189.492L1167.88 189.492L1167.88 168.369L1154.69 168.369L1154.69 189.492L1142.56 189.492L1152.29 185.156C1151.32 181.084 1148.3 174.844 1145.08 170.391L1135 174.609C1137.64 179.268 1140.39 185.391 1141.36 189.492L1131.99 189.492L1131.99 200.771L1149.77 200.771C1144.12 206.631 1136.56 211.934 1129.47 214.805C1132.13 217.441 1135.24 222.129 1136.79 225.234C1142.8 222.012 1149.15 216.973 1154.69 211.436L1154.69 222.246ZM1171.6 241.318C1169.43 245.508 1166.56 249.229 1163.19 252.598C1160.08 250.928 1156.71 249.229 1153.49 247.676C1154.69 245.771 1155.89 243.604 1157.06 241.318L1171.6 241.318ZM1182.41 263.76C1180 262.09 1177.13 260.273 1173.88 258.486C1180 251.514 1184.81 242.871 1187.68 232.324L1180 229.453L1177.84 229.805L1162.6 229.805C1163.3 228.252 1164.04 226.67 1164.65 225.117L1152.03 222.832C1151.21 225.117 1150.24 227.402 1149.15 229.805L1134.15 229.805L1134.15 241.318L1143.27 241.318C1140.89 245.391 1138.61 249.111 1136.44 252.246C1141.83 254.531 1147.84 257.285 1153.49 260.273C1146.63 264.492 1138.61 267.598 1129.96 269.531C1132.37 271.934 1135.12 276.973 1136.44 280.195C1147.25 277.207 1156.83 272.871 1164.89 266.748C1168.49 268.916 1171.6 271.084 1174 272.871L1182.41 263.76ZM1220.43 203.643C1219.23 213.838 1217.33 222.832 1214.54 231.006C1211.44 222.48 1209.04 213.252 1207.25 203.643L1220.43 203.643ZM1241.21 203.643L1241.21 190.43L1209.27 190.43C1210.71 184.072 1211.91 177.363 1212.88 170.654L1199.93 168.721C1197.17 190.078 1191.87 210.469 1182.29 222.949C1185.16 225 1190.55 229.688 1192.48 232.09C1194.77 228.838 1196.91 225.234 1198.84 221.396C1201.24 230.508 1203.88 238.916 1207.37 246.475C1201.24 256.436 1192.37 263.994 1180.24 269.414C1182.76 272.168 1186.48 278.174 1187.8 281.045C1198.96 275.391 1207.6 268.213 1214.43 259.072C1219.85 267.48 1226.44 274.307 1234.73 279.492C1236.63 275.889 1240.82 270.732 1243.96 268.213C1234.96 263.291 1227.64 255.732 1222.13 246.24C1227.76 234.492 1231.36 220.43 1233.65 203.643L1241.21 203.643ZM1287.41 219.111L1276.83 222.012L1276.83 204.229L1288.84 204.229L1288.84 191.045L1276.83 191.045L1276.83 168.369L1263.88 168.369L1263.88 191.045L1251.28 191.045L1251.28 204.229L1263.88 204.229L1263.88 225.352C1258.37 226.787 1253.57 227.988 1249.35 228.955L1252.6 242.754L1263.88 239.531L1263.88 263.76C1263.88 265.312 1263.27 265.811 1261.83 265.811C1260.39 265.928 1256.32 265.928 1251.99 265.811C1253.69 269.531 1255.24 275.391 1255.59 278.877C1263.27 278.994 1268.57 278.525 1272.17 276.123C1275.75 273.955 1276.83 270.469 1276.83 263.877L1276.83 235.693C1280.93 234.492 1285.12 233.174 1289.08 231.973L1287.41 219.111ZM1306.13 218.408C1306.24 215.273 1306.24 212.52 1306.24 209.766L1306.24 207.832L1323.88 207.832L1323.88 218.408L1306.13 218.408ZM1344.77 185.273L1344.77 195.586L1306.24 195.586L1306.24 185.273L1344.77 185.273ZM1345.97 265.693L1316.91 265.693L1316.91 253.682L1345.97 253.682L1345.97 265.693ZM1361.56 230.391L1361.56 218.408L1337.21 218.408L1337.21 207.832L1358.19 207.832L1358.19 173.174L1292.33 173.174L1292.33 209.766C1292.33 228.486 1291.36 254.766 1279.58 272.402C1282.6 273.955 1288.61 278.291 1291.13 280.811C1300.24 267.246 1304.08 247.91 1305.39 230.391L1323.88 230.391L1323.88 241.934L1304.69 241.934L1304.69 280.43L1316.91 280.43L1316.91 276.973L1345.97 276.973L1345.97 280.312L1358.8 280.312L1358.8 241.934L1337.21 241.934L1337.21 230.391L1361.56 230.391ZM1460.67 251.514C1458.76 244.307 1453.96 232.559 1450 223.916L1439.43 227.637C1440.89 230.771 1442.33 234.346 1443.53 237.949L1430.55 240.234C1435.47 231.006 1440.39 220.312 1443.65 210L1430.2 206.162C1427.21 219.229 1420.97 233.408 1418.92 237.129C1416.99 240.967 1415.08 243.252 1412.91 243.838C1414.35 247.324 1416.63 253.682 1417.25 256.084C1419.89 254.648 1424.08 253.33 1447.37 248.643C1448.19 251.396 1448.92 253.916 1449.39 255.967L1460.67 251.514ZM1435.59 187.324C1437.52 182.168 1439.31 176.895 1440.75 171.475L1426.83 168.369C1423.84 180.85 1418.92 193.33 1412.56 202.793L1412.56 190.693L1401.17 190.693L1401.17 168.369L1387.25 168.369L1387.25 190.693L1371.52 190.693L1371.52 203.877L1386.4 203.877C1382.91 218.408 1376.44 235.195 1369.23 244.57C1371.52 248.291 1374.65 254.883 1375.97 258.838C1380.16 252.715 1384 243.838 1387.25 233.76L1387.25 280.43L1401.17 280.43L1401.17 225.732C1403.69 230.889 1406.21 236.162 1407.41 239.766L1416.05 229.922C1414 226.318 1404.65 212.285 1401.17 208.066L1401.17 203.877L1411.83 203.877C1410.39 206.045 1408.84 207.949 1407.29 209.766C1410.63 211.67 1416.4 216.24 1418.92 218.76C1422.64 213.721 1426.48 207.363 1429.96 200.508L1465.59 200.508C1464.39 243.486 1462.6 260.771 1459.47 264.492C1458.27 266.162 1457.06 266.631 1454.93 266.631C1452.17 266.631 1446.63 266.631 1440.63 266.045C1443.15 270.117 1444.85 276.24 1445.08 280.195C1451.32 280.43 1457.68 280.547 1461.63 279.727C1466.09 278.994 1469.19 277.559 1472.33 273.252C1476.75 267.129 1478.19 248.027 1479.89 194.033C1479.89 192.246 1480 187.324 1480 187.324L1435.59 187.324ZM1580.79 188.027L1580.79 193.799L1566.75 193.799L1566.75 188.027L1580.79 188.027ZM1580.79 210.352L1566.75 210.352L1566.75 204.346L1580.79 204.346L1580.79 210.352ZM1553.3 193.799L1526.56 193.799L1526.56 204.346L1553.3 204.346L1553.3 210.352L1532.56 210.352L1532.56 221.045L1553.3 221.045L1553.3 226.934L1531.83 226.934L1531.83 237.012L1553.3 237.012L1553.3 242.871L1527.03 242.871L1527.03 253.799L1553.3 253.799L1553.3 261.973L1566.75 261.973L1566.75 253.799L1598.57 253.799L1598.57 242.871L1566.75 242.871L1566.75 237.012L1594.73 237.012L1594.73 226.934L1566.75 226.934L1566.75 221.045L1593.27 221.045L1593.27 204.346L1599.89 204.346L1599.89 193.799L1593.27 193.799L1593.27 177.246L1566.75 177.246L1566.75 168.486L1553.3 168.486L1553.3 177.246L1533.15 177.246L1533.15 188.027L1553.3 188.027L1553.3 193.799ZM1520.43 208.682L1518.03 208.916L1513.84 208.916C1519.12 200.039 1524.39 189.609 1528.96 178.916L1520.43 173.027L1515.63 174.961L1493.45 174.961L1493.45 187.324L1511.09 187.324C1506.87 196.934 1502.21 205.078 1500.39 207.715C1497.88 211.787 1494.51 215.156 1492.13 215.771C1493.92 218.525 1496.67 224.033 1497.64 226.67C1497.64 225.117 1501.24 222.832 1504 221.396L1514.43 221.396C1513.37 229.307 1511.79 236.279 1509.77 242.402C1507.48 238.447 1505.55 233.76 1503.88 228.369L1493.45 231.973C1496.32 241.436 1499.81 248.994 1504.12 255.234C1500.28 261.973 1495.59 267.246 1489.73 271.201C1492.72 272.871 1497.99 277.793 1499.93 280.547C1505.08 276.709 1509.65 271.787 1513.37 265.43C1525.71 275.654 1542.03 278.174 1562.21 278.174L1597.48 278.174C1598.3 274.307 1600.47 268.066 1602.52 265.078C1594.35 265.43 1569.51 265.43 1562.56 265.43C1545.04 265.312 1530.04 263.291 1519.12 253.799C1523.69 242.402 1526.79 227.988 1528.37 210.469L1520.43 208.682ZM1634.31 195.732L1720.47 195.732L1720.47 182.168L1681.71 182.168C1680.04 177.363 1677.64 171.592 1675.47 166.934L1661.09 170.273C1662.64 173.877 1664.31 178.066 1665.63 182.168L1619.81 182.168L1619.81 214.453C1619.81 231.709 1619.08 256.436 1610.08 273.369C1613.57 274.805 1620.04 279.111 1622.68 281.631C1632.64 263.027 1634.31 233.643 1634.31 214.453L1634.31 195.732ZM1684.85 241.318C1682.91 229.922 1678.49 213.721 1674.39 200.508L1661.44 203.877C1665.16 216.826 1669.58 233.994 1671.05 245.039L1684.85 241.318ZM1637.68 211.318C1642.48 224.268 1648.11 241.553 1650.39 252.715L1663.84 247.09C1661.09 235.928 1655.43 219.492 1650.28 206.396L1637.68 211.318ZM1692.03 262.324C1702.6 244.805 1711.36 224.15 1716.99 205.078L1701.63 200.039C1697.33 220.312 1688.57 244.453 1676.91 262.324L1632.52 262.324L1632.52 275.771L1721.79 275.771L1721.79 262.324L1692.03 262.324ZM1794.89 231.973L1794.89 217.207L1820.2 217.207L1820.2 231.973L1794.89 231.973ZM1757.56 231.973C1757.8 227.52 1757.91 223.213 1757.91 219.346L1757.91 217.207L1780.47 217.207L1780.47 231.973L1757.56 231.973ZM1780.47 189.961L1780.47 203.877L1757.91 203.877L1757.91 189.961L1780.47 189.961ZM1820.2 203.877L1794.89 203.877L1794.89 189.961L1820.2 189.961L1820.2 203.877ZM1834.35 176.396L1743.76 176.396L1743.76 219.229C1743.76 236.045 1742.68 257.402 1729.58 271.787C1732.84 273.486 1738.61 278.408 1740.89 281.045C1749.51 271.67 1753.84 258.486 1756.01 245.391L1780.47 245.391L1780.47 278.877L1794.89 278.877L1794.89 245.391L1820.2 245.391L1820.2 263.408C1820.2 265.547 1819.35 266.279 1817.06 266.279C1814.93 266.279 1806.99 266.396 1800.28 266.045C1802.06 269.766 1804.35 275.889 1804.85 279.727C1815.63 279.844 1822.95 279.609 1827.88 277.207C1832.68 275.039 1834.35 271.201 1834.35 263.525L1834.35 176.396Z" fill-rule="evenodd" fill="#FFFFFF"/>
	<g clip-path="url(#clip104_3074)">
		<path id="矢量 98" d="M632.144 153L661.448 153L661.448 243L632.144 243L632.144 273L612.608 273L612.608 243L583.304 243L583.304 153L612.608 153L612.608 123L632.144 123L632.144 153ZM729.824 203L759.128 203L759.128 293L729.824 293L729.824 323L710.288 323L710.288 293L680.984 293L680.984 203L710.288 203L710.288 173L729.824 173L729.824 203Z" fill-rule="evenodd" fill="#FFFFFF"/>
	</g>
</svg>
