<svg width="1624.050537" height="260.000000" viewBox="0 0 1624.05 260" fill="none" xmlns="http://www.w3.org/2000/svg" xmlns:xlink="http://www.w3.org/1999/xlink">
	<desc>
			Created with Pixso.
	</desc>
	<defs>
		<linearGradient id="paint_linear_104_3084_0" x1="239.101562" y1="130.000000" x2="1369.101562" y2="130.000000" gradientUnits="userSpaceOnUse">
			<stop stop-color="#FFFFFF" stop-opacity="0.200000"/>
			<stop offset="0.549618" stop-color="#FFFFFF" stop-opacity="0.000000"/>
			<stop offset="1.000000" stop-color="#FFFFFF" stop-opacity="0.200000"/>
		</linearGradient>
	</defs>
	<rect id="矩形 28" x="239.351562" y="0.250000" width="1129.500000" height="259.500000" fill="url(#paint_linear_104_3084_0)"/>
	<rect id="矩形 28" x="239.351562" y="0.250000" width="1129.500000" height="259.500000" stroke="#FFFFFF" stroke-width="0.500000"/>
	<g opacity="0.200000">
		<path id="activity process" d="M24.8707 133.144C28.4151 122.779 31.483 113.396 34.5211 102.644L34.9976 102.644C38.1846 113.396 41.1036 122.779 44.7672 133.144L50.1285 149.258L19.3902 149.258L24.8707 133.144ZM6.10352e-05 185L7.32721 185L17.4244 155.096L52.0943 155.096L61.983 185L69.7867 185L38.6612 96.0615L31.0958 96.0615L6.10352e-05 185ZM154.175 186.579C165.643 186.579 173.953 181.843 180.774 173.89L176.633 169.273C170.289 176.213 163.587 179.996 154.563 179.996C135.887 179.996 124.301 164.508 124.301 140.233C124.301 116.196 136.126 101.065 154.92 101.065C163.081 101.065 169.425 104.61 174.191 109.971L178.331 105.206C173.595 99.606 165.404 94.4829 154.92 94.4829C132.343 94.4829 116.616 112.056 116.616 140.471C116.616 168.886 132.224 186.579 154.175 186.579ZM254.939 185L262.386 185L262.386 102.287L290.443 102.287L290.443 96.0615L227.001 96.0615L227.001 102.287L254.939 102.287L254.939 185ZM347.274 185L354.601 185L354.601 96.0615L347.274 96.0615L347.274 185ZM437.167 185L445.239 185L474.131 96.0615L466.714 96.0615L450.839 147.173C447.413 157.925 445.12 166.206 441.456 176.958L440.95 176.958C437.435 166.206 435.112 157.925 431.806 147.173L415.841 96.0615L408.008 96.0615L437.167 185ZM527.558 185L534.885 185L534.885 96.0615L527.558 96.0615L527.558 185ZM619.656 185L627.102 185L627.102 102.287L655.159 102.287L655.159 96.0615L591.717 96.0615L591.717 102.287L619.656 102.287L619.656 185ZM724.433 185L731.76 185L731.76 149.258L758.477 96.0615L750.912 96.0615L737.866 123.255C735.066 129.749 731.76 135.944 728.335 142.556L727.858 142.556C724.552 135.944 721.752 129.749 718.595 123.255L705.519 96.0615L697.715 96.0615L724.433 149.258L724.433 185ZM878.732 185L886.059 185L886.059 147.411L902.292 147.411C922.04 147.411 934.251 138.893 934.251 121.081C934.251 102.644 921.92 96.0615 901.786 96.0615L878.732 96.0615L878.732 185ZM886.059 141.335L886.059 102.167L900.326 102.167C918.019 102.167 926.805 106.665 926.805 121.081C926.805 135.348 918.376 141.335 900.833 141.335L886.059 141.335ZM993.396 185L1000.72 185L1000.72 144.85L1018.89 144.85L1042.57 185L1050.85 185L1026.81 144.254C1040.37 142.169 1049.03 134.008 1049.03 119.86C1049.03 102.525 1037.09 96.0615 1019.4 96.0615L993.396 96.0615L993.396 185ZM1000.72 138.773L1000.72 102.167L1017.67 102.167C1033.04 102.167 1041.59 106.933 1041.59 119.86C1041.59 132.667 1033.04 138.773 1017.67 138.773L1000.72 138.773ZM1138.82 186.579C1160.53 186.579 1175.78 168.529 1175.78 140.233C1175.78 112.056 1160.53 94.4829 1138.82 94.4829C1117.34 94.4829 1101.97 112.056 1101.97 140.233C1101.97 168.529 1117.34 186.579 1138.82 186.579ZM1138.82 179.996C1121.24 179.996 1109.66 164.389 1109.66 140.233C1109.66 116.077 1121.24 101.065 1138.82 101.065C1156.51 101.065 1168.21 116.077 1168.21 140.233C1168.21 164.389 1156.51 179.996 1138.82 179.996ZM1268.1 186.579C1279.57 186.579 1287.88 181.843 1294.7 173.89L1290.56 169.273C1284.22 176.213 1277.52 179.996 1268.49 179.996C1249.82 179.996 1238.23 164.508 1238.23 140.233C1238.23 116.196 1250.05 101.065 1268.85 101.065C1277.01 101.065 1283.35 104.61 1288.12 109.971L1292.26 105.206C1287.52 99.606 1279.33 94.4829 1268.85 94.4829C1246.27 94.4829 1230.54 112.056 1230.54 140.471C1230.54 168.886 1246.15 186.579 1268.1 186.579ZM1352.64 185L1403.15 185L1403.15 178.656L1359.97 178.656L1359.97 140.948L1395.23 140.948L1395.23 134.723L1359.97 134.723L1359.97 102.287L1401.81 102.287L1401.81 96.0615L1352.64 96.0615L1352.64 185ZM1486.1 186.579C1503.53 186.579 1514.88 176.094 1514.88 162.423C1514.88 148.9 1506.36 143.271 1496.23 138.773L1482.92 132.906C1476.45 130.106 1467.79 126.323 1467.79 116.196C1467.79 107.052 1475.35 101.065 1486.7 101.065C1495.49 101.065 1502.46 104.61 1507.7 109.971L1511.84 105.206C1506.24 99.0996 1497.45 94.4829 1486.7 94.4829C1471.57 94.4829 1460.34 103.627 1460.34 116.792C1460.34 129.868 1470.47 135.467 1478.42 139.012L1491.7 144.85C1500.49 148.751 1507.46 152.177 1507.46 162.929C1507.46 173.056 1499.27 179.996 1486.1 179.996C1475.98 179.996 1466.83 175.499 1460.34 168.171L1455.84 173.294C1462.9 181.217 1473.18 186.579 1486.1 186.579ZM1595.28 186.579C1612.7 186.579 1624.05 176.094 1624.05 162.423C1624.05 148.9 1615.53 143.271 1605.41 138.773L1592.09 132.906C1585.63 130.106 1576.96 126.323 1576.96 116.196C1576.96 107.052 1584.53 101.065 1595.87 101.065C1604.66 101.065 1611.63 104.61 1616.87 109.971L1621.01 105.206C1615.41 99.0996 1606.63 94.4829 1595.87 94.4829C1580.74 94.4829 1569.51 103.627 1569.51 116.792C1569.51 129.868 1579.64 135.467 1587.59 139.012L1600.88 144.85C1609.66 148.751 1616.63 152.177 1616.63 162.929C1616.63 173.056 1608.44 179.996 1595.28 179.996C1585.15 179.996 1576.01 175.499 1569.51 168.171L1565.02 173.294C1572.08 181.217 1582.35 186.579 1595.28 186.579Z" fill-rule="evenodd" fill="#66E7EC"/>
	</g>
	<path id="矩形 32" d="M236.376 0L239.101 0L239.101 260L236.376 260C230.853 260 226.376 255.522 226.376 250L226.376 10C226.376 4.47754 230.853 0 236.376 0Z" fill-rule="evenodd" fill="#FFFFFF"/>
	<path id="矩形 32" d="M239.101 0L239.101 260L236.376 260C230.853 260 226.376 255.522 226.376 250L226.376 10C226.376 4.47754 230.853 0 236.376 0L239.101 0ZM238.101 1L238.101 259L236.376 259C231.405 259 227.376 254.971 227.376 250L227.376 10C227.376 5.0293 231.405 1 236.376 1L238.101 1Z" fill-rule="evenodd" fill="#FFFFFF"/>
	<path id="矩形 31" d="M1369.1 0L1371.83 0C1377.35 0 1381.83 4.47754 1381.83 10L1381.83 250C1381.83 255.522 1377.35 260 1371.83 260L1369.1 260L1369.1 0Z" fill-rule="evenodd" fill="#FFFFFF"/>
	<path id="矩形 31" d="M1371.83 0C1377.35 0 1381.83 4.47754 1381.83 10L1381.83 250C1381.83 255.522 1377.35 260 1371.83 260L1369.1 260L1369.1 0L1371.83 0ZM1371.83 1C1376.8 1 1380.83 5.0293 1380.83 10L1380.83 250C1380.83 254.971 1376.8 259 1371.83 259L1370.1 259L1370.1 1L1371.83 1Z" fill-rule="evenodd" fill="#FFFFFF"/>
	<path id="活动流程" d="M596.338 92.2642C590.967 88.7546 580.103 83.2615 573.114 79.752L564.722 90.4941C571.985 94.614 582.605 100.504 587.488 104.258L596.338 92.2642ZM590.356 125.986C584.863 122.629 573.724 117.258 566.858 113.871L558.862 124.887C566.217 128.885 576.99 134.745 582.117 138.376L590.356 125.986ZM573.114 193.491C580.713 181.375 588.586 167.124 595.239 154.001L584.344 143.991C576.837 158.487 567.224 173.99 560.602 183.39L573.114 193.491ZM654.23 176.249L616.724 176.249L616.724 157.877L654.23 157.877L654.23 176.249ZM674.615 128.611L674.615 114.389L642.847 114.389L642.847 97.2385C652.612 95.377 661.981 92.8745 669.977 89.8838L658.594 78.1345C644.861 83.6277 621.362 87.7476 600.092 89.8838C601.862 93.2407 603.845 99.0085 604.486 102.64C612.238 101.877 620.599 100.992 628.717 99.741L628.717 114.389L595.483 114.389L595.483 128.611L628.717 128.611L628.717 144.388L603.235 144.388L603.235 194.864L616.724 194.864L616.724 189.737L654.23 189.737L654.23 194.254L668.359 194.254L668.359 144.388L642.847 144.388L642.847 128.611L674.615 128.611ZM738.367 87.7476L689.478 87.7476L689.478 100.87L738.367 100.87L738.367 87.7476ZM770.715 105.112C770.837 97.1165 770.99 88.8767 770.99 80.3623L756.219 80.3623C756.219 88.8767 756.219 97.2385 756.097 105.112L742.09 105.112L742.09 119.364L755.609 119.364C754.724 139.139 751.978 156.382 744.714 169.992C742.487 161.386 737.482 148.111 733.087 138.01L721.216 141.245C723.108 146.006 724.969 151.377 726.862 156.748L705.591 161.753C709.741 151.987 713.464 140.757 716.089 130.136L740.594 130.136L740.594 116.617L685.48 116.617L685.48 130.136L700.861 130.136C698.114 143.381 693.719 155.985 692.102 159.739C690.088 164.255 688.348 167.124 685.968 168.009C687.738 171.61 689.966 178.385 690.729 181.253C694.36 178.995 699.731 177.134 730.615 169.138C731.226 171.244 731.714 173.38 732.111 174.997L743.982 171.366C741.357 175.638 738.214 179.758 734.613 183.39C738.214 185.74 743.219 190.989 745.599 194.742C763.239 177.256 768.488 150.736 770.227 119.364L783.105 119.364C781.976 158.487 780.725 173.502 777.979 177.011C776.727 178.751 775.476 179.117 773.34 179.117C770.715 179.117 765.344 179.117 759.485 178.629C761.987 182.749 763.605 188.883 763.849 193.125C770.349 193.369 776.727 193.369 780.603 192.759C785.089 191.874 787.988 190.622 790.979 186.258C795.099 180.49 796.472 162.241 797.723 111.887C797.723 109.995 797.845 105.112 797.845 105.112L770.715 105.112ZM871.362 120.493C874.963 116.129 878.961 111.124 882.471 106.363L900.964 106.363L892.48 111.49C894.464 113.749 896.6 116.373 898.737 118.998L871.362 120.493ZM924.341 131.113C920.343 124.369 912.103 114.115 905.115 106.363L922.235 106.363L922.235 93.1187L892.725 93.1187C891.351 88.5105 888.849 82.6206 886.469 77.8904L872.736 81.1252C874.353 84.7568 875.97 89.1208 877.222 93.1187L844.72 93.1187L844.72 106.363L865.991 106.363C861.841 111.612 857.477 116.861 855.615 118.631C852.991 121.134 848.474 122.11 845.728 122.629C846.857 125.742 848.596 132.883 849.115 136.515C853.845 134.623 860.345 134.134 907.343 130.747C909.479 133.738 911.218 136.515 912.469 138.742L924.341 131.113ZM844.476 93.1187C839.471 88.5105 829.34 82.8647 821.741 79.5078L813.47 90.3721C821.222 94.2478 831.11 100.504 835.718 105.112L844.476 93.1187ZM839.716 125.986C834.589 121.866 823.969 116.495 816.095 113.626L808.344 124.887C816.339 128.244 826.593 134.134 831.476 138.376L839.716 125.986ZM834.222 143.991C826.715 158.487 817.224 173.99 810.48 183.39L823.114 193.369C830.591 181.253 838.464 167.002 845.087 154.001L834.222 143.991ZM853.601 150.888C853.601 161.509 851.984 174.631 837.61 184.488C840.967 186.625 845.972 191.111 847.986 194.132C864.862 182.138 866.968 164.865 866.968 151.377L866.968 139.505L853.601 139.505L853.601 150.888ZM874.597 189.371L887.598 189.371L887.598 139.383L874.597 139.383L874.597 189.371ZM910.852 180.887C910.364 180.887 909.845 180.613 909.601 180.246C909.235 179.88 909.235 178.629 909.235 176.737L909.235 139.505L895.471 139.505L895.471 176.371C895.471 184.763 896.356 187.387 898.615 189.493C900.598 191.629 903.864 192.636 906.854 192.636L913.354 192.636C915.613 192.636 918.481 191.996 920.221 190.866C922.113 189.737 923.364 187.876 924.219 185.373C925.104 182.871 925.592 176.249 925.836 170.755C922.479 169.626 918.115 167.368 915.857 165.262C915.735 170.877 915.613 175.241 915.338 177.256C915.094 179.117 914.85 180.002 914.484 180.49C914.087 180.765 913.477 180.887 912.866 180.887L910.852 180.887ZM1029.35 112.497L1000.24 112.497L1000.24 95.2549L1029.35 95.2549L1029.35 112.497ZM1043.85 82.7427L986.475 82.7427L986.475 125.01L1043.85 125.01L1043.85 82.7427ZM982.843 147.013C980.463 144.236 970.239 133.371 966.852 130.625L966.852 126.993L980.219 126.993L980.219 113.138L966.852 113.138L966.852 95.499C972.223 94.1257 977.228 92.5083 981.714 90.7383L971.857 79.3857C962.213 83.7498 946.863 87.3813 933.099 89.7617C934.717 92.7524 936.487 97.7573 937.219 101.114C942.102 100.504 947.229 99.6189 952.478 98.6118L952.478 113.138L934.595 113.138L934.595 126.993L950.464 126.993C945.856 139.139 938.989 152.384 931.97 160.501C934.351 164.255 937.463 170.389 938.837 174.631C943.719 168.375 948.48 159.494 952.478 149.881L952.478 194.742L966.852 194.742L966.852 146.006C969.843 150.492 972.864 155.375 974.359 158.64L982.843 147.013ZM1022.09 179.117L1022.09 168.131L1044.21 168.131L1044.21 155.619L1022.09 155.619L1022.09 145.243L1047.24 145.243L1047.24 132.486L982.477 132.486L982.477 145.243L1007.35 145.243L1007.35 155.619L985.468 155.619L985.468 168.131L1007.35 168.131L1007.35 179.117L977.594 179.117L977.594 192.118L1049.86 192.118L1049.86 179.117L1022.09 179.117Z" fill-rule="evenodd" fill="#66E7EC"/>
</svg>
