<svg width="1534.902588" height="260.000000" viewBox="0 0 1534.9 260" fill="none" xmlns="http://www.w3.org/2000/svg" xmlns:xlink="http://www.w3.org/1999/xlink">
	<desc>
			Created with Pixso.
	</desc>
	<defs>
		<linearGradient id="paint_linear_104_3090_0" x1="195.433594" y1="130.000000" x2="1325.433594" y2="130.000000" gradientUnits="userSpaceOnUse">
			<stop stop-color="#FFFFFF" stop-opacity="0.200000"/>
			<stop offset="0.549618" stop-color="#FFFFFF" stop-opacity="0.000000"/>
			<stop offset="1.000000" stop-color="#FFFFFF" stop-opacity="0.200000"/>
		</linearGradient>
	</defs>
	<rect id="矩形 28" x="195.683594" y="0.250000" width="1129.500000" height="259.500000" fill="url(#paint_linear_104_3090_0)"/>
	<rect id="矩形 28" x="195.683594" y="0.250000" width="1129.500000" height="259.500000" stroke="#FFFFFF" stroke-width="0.500000"/>
	<g opacity="0.200000">
		<path id="Activity reward" d="M24.8707 133.144C28.4152 122.779 31.483 113.396 34.5211 102.644L34.9977 102.644C38.1847 113.396 41.1036 122.779 44.7672 133.144L50.1285 149.258L19.3903 149.258L24.8707 133.144ZM0.00012207 185L7.32727 185L17.4244 155.096L52.0944 155.096L61.983 185L69.7867 185L38.6613 96.0615L31.0958 96.0615L0.00012207 185ZM154.175 186.579C165.643 186.579 173.953 181.843 180.774 173.89L176.633 169.273C170.289 176.213 163.588 179.996 154.563 179.996C135.887 179.996 124.301 164.508 124.301 140.233C124.301 116.196 136.126 101.065 154.92 101.065C163.081 101.065 169.425 104.61 174.191 109.971L178.331 105.206C173.595 99.606 165.404 94.4829 154.92 94.4829C132.343 94.4829 116.616 112.056 116.616 140.471C116.616 168.886 132.224 186.579 154.175 186.579ZM254.94 185L262.386 185L262.386 102.287L290.443 102.287L290.443 96.0615L227.001 96.0615L227.001 102.287L254.94 102.287L254.94 185ZM347.274 185L354.601 185L354.601 96.0615L347.274 96.0615L347.274 185ZM437.167 185L445.239 185L474.131 96.0615L466.714 96.0615L450.839 147.173C447.414 157.925 445.12 166.206 441.457 176.958L440.95 176.958C437.436 166.206 435.112 157.925 431.806 147.173L415.841 96.0615L408.008 96.0615L437.167 185ZM527.558 185L534.885 185L534.885 96.0615L527.558 96.0615L527.558 185ZM619.656 185L627.102 185L627.102 102.287L655.159 102.287L655.159 96.0615L591.717 96.0615L591.717 102.287L619.656 102.287L619.656 185ZM724.433 185L731.76 185L731.76 149.258L758.477 96.0615L750.912 96.0615L737.866 123.255C735.066 129.749 731.76 135.944 728.335 142.556L727.858 142.556C724.552 135.944 721.752 129.749 718.595 123.255L705.519 96.0615L697.716 96.0615L724.433 149.258L724.433 185ZM878.732 185L886.059 185L886.059 144.85L904.228 144.85L927.907 185L936.188 185L912.151 144.254C925.703 142.169 934.371 134.008 934.371 119.86C934.371 102.525 922.427 96.0615 904.734 96.0615L878.732 96.0615L878.732 185ZM886.059 138.773L886.059 102.167L903.007 102.167C918.376 102.167 926.924 106.933 926.924 119.86C926.924 132.667 918.376 138.773 903.007 138.773L886.059 138.773ZM992.908 185L1043.42 185L1043.42 178.656L1000.24 178.656L1000.24 140.948L1035.5 140.948L1035.5 134.723L1000.24 134.723L1000.24 102.287L1042.08 102.287L1042.08 96.0615L992.908 96.0615L992.908 185ZM1113.45 185L1121.73 185L1136.98 125.579C1138.56 118.52 1140.4 112.414 1141.86 105.444L1142.34 105.444C1143.95 112.414 1145.53 118.52 1146.99 125.579L1162.71 185L1171.02 185L1190.53 96.0615L1183.47 96.0615L1172.6 147.56C1170.66 157.181 1168.82 166.831 1167 176.571L1166.38 176.571C1164.05 166.831 1161.88 157.181 1159.55 147.56L1145.88 96.0615L1138.68 96.0615L1125.15 147.56C1122.83 157.181 1120.51 166.831 1118.3 176.571L1117.83 176.571C1115.86 166.831 1113.92 157.181 1111.84 147.56L1101.12 96.0615L1093.55 96.0615L1113.45 185ZM1260.29 133.144C1263.84 122.779 1266.91 113.396 1269.95 102.644L1270.42 102.644C1273.61 113.396 1276.53 122.779 1280.19 133.144L1285.55 149.258L1254.81 149.258L1260.29 133.144ZM1235.42 185L1242.75 185L1252.85 155.096L1287.52 155.096L1297.41 185L1305.21 185L1274.09 96.0615L1266.52 96.0615L1235.42 185ZM1358.98 185L1366.31 185L1366.31 144.85L1384.48 144.85L1408.16 185L1416.44 185L1392.4 144.254C1405.95 142.169 1414.62 134.008 1414.62 119.86C1414.62 102.525 1402.68 96.0615 1384.98 96.0615L1358.98 96.0615L1358.98 185ZM1366.31 138.773L1366.31 102.167L1383.26 102.167C1398.63 102.167 1407.17 106.933 1407.17 119.86C1407.17 132.667 1398.63 138.773 1383.26 138.773L1366.31 138.773ZM1473.16 185L1494.28 185C1521.47 185 1534.9 167.427 1534.9 140.233C1534.9 113.009 1521.47 96.0615 1494.16 96.0615L1473.16 96.0615L1473.16 185ZM1480.49 178.775L1480.49 102.167L1493.41 102.167C1516.85 102.167 1527.22 117.179 1527.22 140.233C1527.22 163.287 1516.85 178.775 1493.41 178.775L1480.49 178.775Z" fill-rule="evenodd" fill="#66E7EC"/>
	</g>
	<path id="矩形 32" d="M192.708 0L195.433 0L195.433 260L192.708 260C187.185 260 182.708 255.522 182.708 250L182.708 10C182.708 4.47754 187.185 0 192.708 0Z" fill-rule="evenodd" fill="#FFFFFF"/>
	<path id="矩形 32" d="M195.433 0L195.433 260L192.708 260C187.185 260 182.708 255.522 182.708 250L182.708 10C182.708 4.47754 187.185 0 192.708 0L195.433 0ZM194.433 1L194.433 259L192.708 259C187.737 259 183.708 254.971 183.708 250L183.708 10C183.708 5.0293 187.737 1 192.708 1L194.433 1Z" fill-rule="evenodd" fill="#FFFFFF"/>
	<path id="矩形 31" d="M1325.43 0L1328.16 0C1333.68 0 1338.16 4.47754 1338.16 10L1338.16 250C1338.16 255.522 1333.68 260 1328.16 260L1325.43 260L1325.43 0Z" fill-rule="evenodd" fill="#FFFFFF"/>
	<path id="矩形 31" d="M1328.16 0C1333.68 0 1338.16 4.47754 1338.16 10L1338.16 250C1338.16 255.522 1333.68 260 1328.16 260L1325.43 260L1325.43 0L1328.16 0ZM1328.16 1C1333.13 1 1337.16 5.0293 1337.16 10L1337.16 250C1337.16 254.971 1333.13 259 1328.16 259L1326.43 259L1326.43 1L1328.16 1Z" fill-rule="evenodd" fill="#FFFFFF"/>
	<path id="活动奖励" d="M552.67 92.2642C547.299 88.7546 536.435 83.2615 529.446 79.752L521.054 90.4941C528.317 94.614 538.937 100.504 543.82 104.258L552.67 92.2642ZM546.688 125.986C541.195 122.629 530.056 117.258 523.19 113.871L515.194 124.887C522.549 128.885 533.322 134.745 538.449 138.376L546.688 125.986ZM529.446 193.491C537.045 181.375 544.918 167.124 551.571 154.001L540.677 143.991C533.169 158.487 523.556 173.99 516.934 183.39L529.446 193.491ZM610.562 176.249L573.056 176.249L573.056 157.877L610.562 157.877L610.562 176.249ZM630.948 128.611L630.948 114.389L599.179 114.389L599.179 97.2385C608.944 95.377 618.313 92.8745 626.309 89.8838L614.926 78.1345C601.193 83.6277 577.694 87.7476 556.424 89.8838C558.194 93.2407 560.177 99.0085 560.818 102.64C568.57 101.877 576.931 100.992 585.049 99.741L585.049 114.389L551.815 114.389L551.815 128.611L585.049 128.611L585.049 144.388L559.567 144.388L559.567 194.864L573.056 194.864L573.056 189.737L610.562 189.737L610.562 194.254L624.691 194.254L624.691 144.388L599.179 144.388L599.179 128.611L630.948 128.611ZM694.699 87.7476L645.81 87.7476L645.81 100.87L694.699 100.87L694.699 87.7476ZM727.047 105.112C727.169 97.1165 727.322 88.8767 727.322 80.3623L712.552 80.3623C712.552 88.8767 712.552 97.2385 712.429 105.112L698.422 105.112L698.422 119.364L711.941 119.364C711.056 139.139 708.31 156.382 701.046 169.992C698.819 161.386 693.814 148.111 689.419 138.01L677.548 141.245C679.44 146.006 681.302 151.377 683.194 156.748L661.923 161.753C666.073 151.987 669.796 140.757 672.421 130.136L696.927 130.136L696.927 116.617L641.812 116.617L641.812 130.136L657.193 130.136C654.446 143.381 650.052 155.985 648.434 159.739C646.42 164.255 644.68 167.124 642.3 168.009C644.07 171.61 646.298 178.385 647.061 181.253C650.692 178.995 656.063 177.134 686.947 169.138C687.558 171.244 688.046 173.38 688.443 174.997L700.314 171.366C697.689 175.638 694.546 179.758 690.945 183.39C694.546 185.74 699.551 190.989 701.931 194.742C719.571 177.256 724.82 150.736 726.559 119.364L739.438 119.364C738.308 158.487 737.057 173.502 734.311 177.011C733.059 178.751 731.808 179.117 729.672 179.117C727.047 179.117 721.676 179.117 715.817 178.629C718.319 182.749 719.937 188.883 720.181 193.125C726.681 193.369 733.059 193.369 736.935 192.759C741.421 191.874 744.32 190.622 747.311 186.258C751.431 180.49 752.804 162.241 754.055 111.887C754.055 109.995 754.177 105.112 754.177 105.112L727.047 105.112ZM789.303 102.488C787.442 97.3606 782.559 89.7617 778.195 84.238L767.178 90.25C771.298 95.9873 775.814 104.013 777.554 109.14L789.303 102.488ZM792.172 141.611L806.546 141.611L806.546 78.1345L792.172 78.1345L792.172 108.377C781.948 113.749 771.817 118.998 764.798 122.263L770.932 135.263C777.31 131.51 784.939 127.115 792.172 122.629L792.172 141.611ZM871.945 88.1138L869.442 88.5105L843.319 88.5105C844.815 86.4963 846.31 84.3601 847.561 82.3765L833.432 77.7378C828.671 86.2522 818.173 95.9873 807.553 101.633C810.299 104.38 814.297 109.385 816.433 112.497C821.804 109.385 827.053 105.509 832.058 100.87L862.179 100.87C858.303 107.492 852.932 112.864 846.554 117.014C843.045 112.864 837.948 108.011 833.92 104.502L823.3 110.88C826.931 114.389 831.295 118.875 834.561 122.873C826.565 125.864 817.562 127.878 807.675 129.129C810.299 131.754 814.175 138.01 815.426 141.489C846.676 135.996 871.182 122.873 880.795 92.2642L871.945 88.1138ZM878.445 161.875L878.445 148.874L829.8 148.874C830.197 146.494 830.563 143.991 830.807 141.489L815.304 141.489C815.06 143.991 814.694 146.494 814.297 148.874L767.178 148.874L767.178 161.875L810.177 161.875C804.562 171.885 792.813 178.507 765.316 182.138C768.063 185.251 771.298 190.989 772.427 194.62C801.419 190.012 815.67 181.62 823.056 169.504C833.31 184 848.812 191.385 872.921 194.01C874.691 190.134 878.445 184 881.68 180.887C857.937 179.361 841.793 173.746 833.432 161.875L878.445 161.875ZM939.053 143.869C938.321 167.887 937.191 176.737 935.543 179.117C934.567 180.613 933.56 180.887 932.064 180.765C930.294 180.887 927.304 180.765 923.947 180.368C928.189 170.115 930.294 157.755 931.424 143.869L939.053 143.869ZM980.191 107.889C980.435 99.0085 980.435 89.8838 980.435 80.1182L966.671 80.1182C966.671 89.8838 966.671 99.1306 966.549 107.889L955.685 107.889L955.685 121.5L966.183 121.5C965.054 147.379 961.3 168.253 948.544 182.749C950.314 175.882 951.168 162.363 952.053 136.637C952.176 134.989 952.298 131.388 952.298 131.388L932.064 131.388C932.187 127.878 932.309 124.369 932.309 120.737L952.816 120.737L952.816 107.737L910.183 107.737L910.183 98.4897L956.448 98.4897L956.448 85.001L896.817 85.001L896.817 131.113C896.817 148.63 896.176 172.007 888.668 187.876C891.934 189.127 898.19 192.759 900.814 194.986C909.054 177.622 910.183 150.125 910.183 130.991L910.183 120.737L918.82 120.737C918.423 149.24 917.294 172.007 904.171 186.014C907.437 188.12 911.679 192.759 913.693 196.115C917.935 191.629 921.17 186.502 923.672 180.765C925.564 184 926.571 188.761 926.815 192.24C931.546 192.514 936.062 192.362 938.809 191.874C942.044 191.385 944.424 190.256 946.56 187.235C946.927 186.747 947.323 186.258 947.567 185.617C950.802 187.876 954.922 192.118 956.692 195.139C973.05 177.988 978.054 152.628 979.672 121.5L989.438 121.5C988.675 161.386 987.545 176.004 985.196 179.361C983.944 181.131 982.937 181.498 981.045 181.498C978.817 181.498 974.423 181.498 969.815 181.131C972.073 185.007 973.446 190.622 973.568 194.62C979.306 194.742 984.677 194.864 988.186 194.132C992.184 193.369 994.809 192.118 997.433 188.12C1001.19 182.749 1002.19 164.743 1003.17 114.237C1003.17 112.497 1003.32 107.889 1003.32 107.889L980.191 107.889Z" fill-rule="evenodd" fill="#66E7EC"/>
</svg>
