<svg width="2430.109375" height="260.000000" viewBox="0 0 2430.11 260" fill="none" xmlns="http://www.w3.org/2000/svg" xmlns:xlink="http://www.w3.org/1999/xlink">
	<desc>
			Created with Pixso.
	</desc>
	<defs>
		<linearGradient id="paint_linear_140_411_0" x1="635.980469" y1="130.000000" x2="1765.980469" y2="130.000000" gradientUnits="userSpaceOnUse">
			<stop stop-color="#FFFFFF" stop-opacity="0.200000"/>
			<stop offset="0.549618" stop-color="#FFFFFF" stop-opacity="0.000000"/>
			<stop offset="1.000000" stop-color="#FFFFFF" stop-opacity="0.200000"/>
		</linearGradient>
	</defs>
	<rect id="矩形 28" x="636.230469" y="0.250000" width="1129.500000" height="259.500000" fill="url(#paint_linear_140_411_0)"/>
	<rect id="矩形 28" x="636.230469" y="0.250000" width="1129.500000" height="259.500000" stroke="#FFFFFF" stroke-width="0.500000"/>
	<g opacity="0.200000">
		<path id="List of award recipients" d="M-0.000366211 185L47.8346 185L47.8346 178.656L7.32678 178.656L7.32678 96.0615L-0.000366211 96.0615L-0.000366211 185ZM103.684 185L111.011 185L111.011 96.0615L103.684 96.0615L103.684 185ZM200.428 186.579C217.852 186.579 229.2 176.094 229.2 162.423C229.2 148.9 220.682 143.271 210.555 138.773L197.241 132.906C190.777 130.106 182.11 126.323 182.11 116.196C182.11 107.052 189.675 101.065 201.023 101.065C209.81 101.065 216.78 104.61 222.022 109.971L226.162 105.206C220.562 99.0996 211.776 94.4829 201.023 94.4829C185.893 94.4829 174.664 103.627 174.664 116.792C174.664 129.868 184.79 135.467 192.743 139.012L206.027 144.85C214.814 148.751 221.784 152.177 221.784 162.929C221.784 173.056 213.593 179.996 200.428 179.996C190.301 179.996 181.157 175.499 174.664 168.171L170.166 173.294C177.225 181.217 187.501 186.579 200.428 186.579ZM303.857 185L311.304 185L311.304 102.287L339.361 102.287L339.361 96.0615L275.919 96.0615L275.919 102.287L303.857 102.287L303.857 185ZM494.52 186.579C516.234 186.579 531.484 168.529 531.484 140.233C531.484 112.056 516.234 94.4829 494.52 94.4829C473.045 94.4829 457.676 112.056 457.676 140.233C457.676 168.529 473.045 186.579 494.52 186.579ZM494.52 179.996C476.947 179.996 465.361 164.389 465.361 140.233C465.361 116.077 476.947 101.065 494.52 101.065C512.213 101.065 523.918 116.077 523.918 140.233C523.918 164.389 512.213 179.996 494.52 179.996ZM591.848 185L599.175 185L599.175 142.794L634.44 142.794L634.44 136.569L599.175 136.569L599.175 102.287L640.904 102.287L640.904 96.0615L591.848 96.0615L591.848 185ZM776.762 133.144C780.307 122.779 783.375 113.396 786.413 102.644L786.889 102.644C790.076 113.396 792.995 122.779 796.659 133.144L802.02 149.258L771.282 149.258L776.762 133.144ZM751.892 185L759.219 185L769.316 155.096L803.986 155.096L813.875 185L821.678 185L790.553 96.0615L782.987 96.0615L751.892 185ZM886.083 185L894.363 185L909.613 125.579C911.192 118.52 913.039 112.414 914.498 105.444L914.975 105.444C916.583 112.414 918.162 118.52 919.621 125.579L935.348 185L943.658 185L963.167 96.0615L956.108 96.0615L945.236 147.56C943.3 157.181 941.454 166.831 939.637 176.571L939.011 176.571C936.688 166.831 934.514 157.181 932.19 147.56L918.519 96.0615L911.311 96.0615L897.789 147.56C895.465 157.181 893.142 166.831 890.938 176.571L890.461 176.571C888.496 166.831 886.56 157.181 884.475 147.56L873.752 96.0615L866.187 96.0615L886.083 185ZM1032.93 133.144C1036.47 122.779 1039.54 113.396 1042.58 102.644L1043.06 102.644C1046.24 113.396 1049.16 122.779 1052.83 133.144L1058.19 149.258L1027.45 149.258L1032.93 133.144ZM1008.06 185L1015.39 185L1025.48 155.096L1060.15 155.096L1070.04 185L1077.85 185L1046.72 96.0615L1039.16 96.0615L1008.06 185ZM1131.62 185L1138.94 185L1138.94 144.85L1157.11 144.85L1180.79 185L1189.07 185L1165.04 144.254C1178.59 142.169 1187.26 134.008 1187.26 119.86C1187.26 102.525 1175.31 96.0615 1157.62 96.0615L1131.62 96.0615L1131.62 185ZM1138.94 138.773L1138.94 102.167L1155.89 102.167C1171.26 102.167 1179.81 106.933 1179.81 119.86C1179.81 132.667 1171.26 138.773 1155.89 138.773L1138.94 138.773ZM1245.79 185L1266.91 185C1294.11 185 1307.54 167.427 1307.54 140.233C1307.54 113.009 1294.11 96.0615 1266.79 96.0615L1245.79 96.0615L1245.79 185ZM1253.12 178.775L1253.12 102.167L1266.05 102.167C1289.49 102.167 1299.85 117.179 1299.85 140.233C1299.85 163.287 1289.49 178.775 1266.05 178.775L1253.12 178.775ZM1434.86 185L1442.19 185L1442.19 144.85L1460.36 144.85L1484.04 185L1492.32 185L1468.28 144.254C1481.83 142.169 1490.5 134.008 1490.5 119.86C1490.5 102.525 1478.56 96.0615 1460.86 96.0615L1434.86 96.0615L1434.86 185ZM1442.19 138.773L1442.19 102.167L1459.14 102.167C1474.51 102.167 1483.05 106.933 1483.05 119.86C1483.05 132.667 1474.51 138.773 1459.14 138.773L1442.19 138.773ZM1549.04 185L1599.55 185L1599.55 178.656L1556.36 178.656L1556.36 140.948L1591.63 140.948L1591.63 134.723L1556.36 134.723L1556.36 102.287L1598.21 102.287L1598.21 96.0615L1549.04 96.0615L1549.04 185ZM1690.9 186.579C1702.37 186.579 1710.68 181.843 1717.5 173.89L1713.36 169.273C1707.02 176.213 1700.32 179.996 1691.29 179.996C1672.62 179.996 1661.03 164.508 1661.03 140.233C1661.03 116.196 1672.85 101.065 1691.65 101.065C1699.81 101.065 1706.15 104.61 1710.92 109.971L1715.06 105.206C1710.32 99.606 1702.13 94.4829 1691.65 94.4829C1669.07 94.4829 1653.34 112.056 1653.34 140.471C1653.34 168.886 1668.95 186.579 1690.9 186.579ZM1775.44 185L1782.76 185L1782.76 96.0615L1775.44 96.0615L1775.44 185ZM1848.62 185L1855.95 185L1855.95 147.411L1872.18 147.411C1891.93 147.411 1904.14 138.893 1904.14 121.081C1904.14 102.644 1891.81 96.0615 1871.68 96.0615L1848.62 96.0615L1848.62 185ZM1855.95 141.335L1855.95 102.167L1870.22 102.167C1887.91 102.167 1896.69 106.665 1896.69 121.081C1896.69 135.348 1888.27 141.335 1870.72 141.335L1855.95 141.335ZM1963.29 185L1970.61 185L1970.61 96.0615L1963.29 96.0615L1963.29 185ZM2036.47 185L2086.99 185L2086.99 178.656L2043.8 178.656L2043.8 140.948L2079.06 140.948L2079.06 134.723L2043.8 134.723L2043.8 102.287L2085.65 102.287L2085.65 96.0615L2036.47 96.0615L2036.47 185ZM2146.38 185L2153.35 185L2153.35 131.685C2153.35 122.779 2152.72 114.499 2152.36 105.95L2152.96 105.95L2162.97 123.762L2199.21 185L2206.78 185L2206.78 96.0615L2199.81 96.0615L2199.81 148.751C2199.81 157.419 2200.32 166.325 2200.79 175.111L2200.2 175.111L2190.31 157.181L2153.94 96.0615L2146.38 96.0615L2146.38 185ZM2291.54 185L2298.99 185L2298.99 102.287L2327.05 102.287L2327.05 96.0615L2263.6 96.0615L2263.6 102.287L2291.54 102.287L2291.54 185ZM2401.34 186.579C2418.76 186.579 2430.11 176.094 2430.11 162.423C2430.11 148.9 2421.59 143.271 2411.46 138.773L2398.15 132.906C2391.69 130.106 2383.02 126.323 2383.02 116.196C2383.02 107.052 2390.58 101.065 2401.93 101.065C2410.72 101.065 2417.69 104.61 2422.93 109.971L2427.07 105.206C2421.47 99.0996 2412.69 94.4829 2401.93 94.4829C2386.8 94.4829 2375.57 103.627 2375.57 116.792C2375.57 129.868 2385.7 135.467 2393.65 139.012L2406.94 144.85C2415.72 148.751 2422.69 152.177 2422.69 162.929C2422.69 173.056 2414.5 179.996 2401.34 179.996C2391.21 179.996 2382.07 175.499 2375.57 168.171L2371.08 173.294C2378.13 181.217 2388.41 186.579 2401.34 186.579Z" fill-rule="evenodd" fill="#66E7EC"/>
	</g>
	<path id="矩形 32" d="M633.256 0L635.981 0L635.981 260L633.256 260C627.733 260 623.256 255.522 623.256 250L623.256 10C623.256 4.47754 627.733 0 633.256 0Z" fill-rule="evenodd" fill="#FFFFFF"/>
	<path id="矩形 32" d="M635.981 0L635.981 260L633.256 260C627.733 260 623.256 255.522 623.256 250L623.256 10C623.256 4.47754 627.733 0 633.256 0L635.981 0ZM634.981 1L634.981 259L633.256 259C628.285 259 624.256 254.971 624.256 250L624.256 10C624.256 5.0293 628.285 1 633.256 1L634.981 1Z" fill-rule="evenodd" fill="#FFFFFF"/>
	<path id="矩形 31" d="M1765.98 0L1768.71 0C1774.23 0 1778.71 4.47754 1778.71 10L1778.71 250C1778.71 255.522 1774.23 260 1768.71 260L1765.98 260L1765.98 0Z" fill-rule="evenodd" fill="#FFFFFF"/>
	<path id="矩形 31" d="M1768.71 0C1774.23 0 1778.71 4.47754 1778.71 10L1778.71 250C1778.71 255.522 1774.23 260 1768.71 260L1765.98 260L1765.98 0L1768.71 0ZM1768.71 1C1773.68 1 1777.71 5.0293 1777.71 10L1777.71 250C1777.71 254.971 1773.68 259 1768.71 259L1766.98 259L1766.98 1L1768.71 1Z" fill-rule="evenodd" fill="#FFFFFF"/>
	<path id="获奖名单" d="M985.347 108.377L1000.09 108.377L1000.09 100.138L1028.1 100.138L1028.1 107.248L1042.96 107.248L1042.96 100.138L1069.36 100.138L1069.36 86.7405L1042.96 86.7405L1042.96 78.1345L1028.1 78.1345L1028.1 86.7405L1000.09 86.7405L1000.09 78.1345L985.347 78.1345L985.347 86.7405L958.614 86.7405L958.614 100.138L985.347 100.138L985.347 108.377ZM989.223 108.744C987.239 111.002 984.981 113.26 982.479 115.488C979.213 112.497 975.612 109.751 971.095 107.126L961.482 114.756C965.846 117.38 969.356 120.249 972.347 123.117C966.854 126.627 961.086 129.862 955.226 132.242C958.095 134.745 962.093 139.139 964.107 142.13C969.356 139.627 974.727 136.759 979.854 133.493C980.983 135.752 981.99 137.888 982.601 140.238C976.863 148.508 965.114 157.389 955.226 161.386C958.217 164.133 961.849 168.741 963.863 172.129C970.607 168.131 978.481 161.997 984.859 155.619L984.859 156.87C984.859 168.253 983.73 176.004 981.105 179.239C980.098 180.49 979.213 181.131 977.352 181.253C974.849 181.62 970.21 181.62 964.107 181.253C966.609 184.885 967.983 189.737 968.105 194.01C974.086 194.254 978.969 194.132 983.73 193.125C986.72 192.514 989.223 191.111 991.115 189.005C996.73 182.871 998.47 171.488 998.47 157.755C998.47 146.616 997.219 135.63 990.962 125.376C994.716 122.263 998.226 118.998 1001.22 115.488L989.223 108.744ZM1068.97 143.137L1068.97 129.374L1056.48 129.374L1065.49 122.995C1062.74 118.509 1056.48 112.375 1050.99 108.255L1040.98 115.244C1045.71 119.364 1051.11 125.01 1053.98 129.374L1039.73 129.374L1039.73 128.885L1039.73 109.629L1025.84 109.629L1025.84 128.763L1025.84 129.374L1000.09 129.374L1000.09 143.137L1024.71 143.137C1022.36 157.114 1015.35 172.739 995.723 185.495C999.355 187.876 1004.24 191.996 1006.74 195.139C1021.6 185.495 1029.84 173.624 1034.36 161.631C1040.34 176.249 1049.1 187.632 1062.1 194.376C1064.11 190.5 1068.35 185.007 1071.47 182.26C1055.72 175.486 1046.11 160.99 1040.98 143.137L1068.97 143.137ZM1105.22 102.488C1103.36 97.3606 1098.48 89.7617 1094.11 84.238L1083.09 90.25C1087.21 95.9873 1091.73 104.013 1093.47 109.14L1105.22 102.488ZM1108.09 141.611L1122.46 141.611L1122.46 78.1345L1108.09 78.1345L1108.09 108.377C1097.87 113.749 1087.73 118.998 1080.71 122.263L1086.85 135.263C1093.23 131.51 1100.86 127.115 1108.09 122.629L1108.09 141.611ZM1187.86 88.1138L1185.36 88.5105L1159.24 88.5105C1160.73 86.4963 1162.23 84.3601 1163.48 82.3765L1149.35 77.7378C1144.59 86.2522 1134.09 95.9873 1123.47 101.633C1126.22 104.38 1130.21 109.385 1132.35 112.497C1137.72 109.385 1142.97 105.509 1147.98 100.87L1178.1 100.87C1174.22 107.492 1168.85 112.864 1162.47 117.014C1158.96 112.864 1153.87 108.011 1149.84 104.502L1139.22 110.88C1142.85 114.389 1147.21 118.875 1150.48 122.873C1142.48 125.864 1133.48 127.878 1123.59 129.129C1126.22 131.754 1130.09 138.01 1131.34 141.489C1162.59 135.996 1187.1 122.873 1196.71 92.2642L1187.86 88.1138ZM1194.36 161.875L1194.36 148.874L1145.72 148.874C1146.11 146.494 1146.48 143.991 1146.72 141.489L1131.22 141.489C1130.98 143.991 1130.61 146.494 1130.21 148.874L1083.09 148.874L1083.09 161.875L1126.09 161.875C1120.48 171.885 1108.73 178.507 1081.23 182.138C1083.98 185.251 1087.21 190.989 1088.34 194.62C1117.34 190.012 1131.59 181.62 1138.97 169.504C1149.23 184 1164.73 191.385 1188.84 194.01C1190.61 190.134 1194.36 184 1197.6 180.887C1173.85 179.361 1157.71 173.746 1149.35 161.875L1194.36 161.875ZM1246.21 176.004L1246.21 152.384L1293.09 152.384L1293.09 176.004L1246.21 176.004ZM1308.47 138.865L1268.09 138.865C1285.37 128 1299.59 113.749 1308.35 95.7432L1297.97 89.6396L1295.47 90.3721L1258.97 90.3721C1261.47 87.2593 1263.73 84.116 1265.99 81.0032L1249.35 77.4937C1241.73 89.2429 1227.96 101.755 1207.61 110.636C1210.96 113.26 1215.6 118.875 1217.86 122.507C1228.72 117.014 1237.97 110.636 1245.85 103.861L1285.85 103.861C1279.23 112.497 1270.47 120.127 1260.34 126.383C1254.85 121.622 1248.1 116.617 1242.73 112.741L1231.11 121.256C1235.99 124.887 1241.6 129.618 1246.49 134.012C1233.73 140.238 1219.48 144.876 1205.23 147.623C1207.97 151.01 1211.48 157.389 1212.86 161.386C1219.11 159.861 1225.22 158.243 1231.35 156.137L1231.35 194.864L1246.21 194.864L1246.21 189.371L1293.09 189.371L1293.09 194.864L1308.47 194.864L1308.47 138.865ZM1358.21 139.872L1358.21 131.235L1380.98 131.235L1380.98 139.872L1358.21 139.872ZM1358.21 111.49L1380.98 111.49L1380.98 120.005L1358.21 120.005L1358.21 111.49ZM1419.98 120.005L1396.36 120.005L1396.36 111.49L1419.98 111.49L1419.98 120.005ZM1419.98 139.872L1396.36 139.872L1396.36 131.235L1419.98 131.235L1419.98 139.872ZM1445.34 160.257L1396.36 160.257L1396.36 152.14L1435.36 152.14L1435.36 99.3748L1417.48 99.3748C1420.86 94.614 1424.59 89.365 1427.97 83.8718L1411.46 79.1111C1409.11 85.3672 1404.72 93.2407 1400.72 99.3748L1373.99 99.3748L1379.36 96.7502C1376.86 91.6233 1371.21 83.9939 1366.36 78.7449L1353.6 84.3601C1357.23 88.8767 1361.35 94.614 1363.86 99.3748L1343.72 99.3748L1343.72 152.14L1380.98 152.14L1380.98 160.257L1332.73 160.257L1332.73 174.112L1380.98 174.112L1380.98 194.498L1396.36 194.498L1396.36 174.112L1445.34 174.112L1445.34 160.257Z" fill-rule="evenodd" fill="#66E7EC"/>
</svg>
