<svg width="2611.638672" height="260.000000" viewBox="0 0 2611.64 260" fill="none" xmlns="http://www.w3.org/2000/svg" xmlns:xlink="http://www.w3.org/1999/xlink">
	<desc>
			Created with Pixso.
	</desc>
	<defs>
		<linearGradient id="paint_linear_104_3096_0" x1="728.985352" y1="130.000000" x2="1858.985352" y2="130.000000" gradientUnits="userSpaceOnUse">
			<stop stop-color="#FFFFFF" stop-opacity="0.200000"/>
			<stop offset="0.549618" stop-color="#FFFFFF" stop-opacity="0.000000"/>
			<stop offset="1.000000" stop-color="#FFFFFF" stop-opacity="0.200000"/>
		</linearGradient>
	</defs>
	<rect id="矩形 28" x="729.235352" y="0.250000" width="1129.500000" height="259.500000" fill="url(#paint_linear_104_3096_0)"/>
	<rect id="矩形 28" x="729.235352" y="0.250000" width="1129.500000" height="259.500000" stroke="#FFFFFF" stroke-width="0.500000"/>
	<g opacity="0.200000">
		<path id="Security and risk control" d="M30.2617 186.579C47.686 186.579 59.0342 176.094 59.0342 162.423C59.0342 148.9 50.5156 143.271 40.3887 138.773L27.0747 132.906C20.6113 130.106 11.9438 126.323 11.9438 116.196C11.9438 107.052 19.5093 101.065 30.8574 101.065C39.644 101.065 46.6138 104.61 51.856 109.971L55.9961 105.206C50.3965 99.0996 41.6099 94.4829 30.8574 94.4829C15.7266 94.4829 4.49756 103.627 4.49756 116.792C4.49756 129.868 14.6245 135.467 22.5771 139.012L35.8613 144.85C44.6479 148.751 51.6177 152.177 51.6177 162.929C51.6177 173.056 43.4268 179.996 30.2617 179.996C20.1348 179.996 10.9907 175.499 4.49756 168.171L0 173.294C7.05908 181.217 17.335 186.579 30.2617 186.579ZM117.462 185L167.977 185L167.977 178.656L124.789 178.656L124.789 140.948L160.054 140.948L160.054 134.723L124.789 134.723L124.789 102.287L166.637 102.287L166.637 96.0615L117.462 96.0615L117.462 185ZM259.327 186.579C270.794 186.579 279.104 181.843 285.925 173.89L281.785 169.273C275.441 176.213 268.739 179.996 259.714 179.996C241.039 179.996 229.453 164.508 229.453 140.233C229.453 116.196 241.277 101.065 260.072 101.065C268.233 101.065 274.577 104.61 279.343 109.971L283.483 105.206C278.747 99.606 270.556 94.4829 260.072 94.4829C237.495 94.4829 221.768 112.056 221.768 140.471C221.768 168.886 237.375 186.579 259.327 186.579ZM372.299 186.579C388.264 186.579 402.799 178.298 402.799 150.241L402.799 96.0615L395.829 96.0615L395.829 149.854C395.829 173.056 384.868 179.996 372.299 179.996C359.968 179.996 349.245 173.056 349.245 149.854L349.245 96.0615L341.918 96.0615L341.918 150.241C341.918 178.298 356.304 186.579 372.299 186.579ZM468.286 185L475.613 185L475.613 144.85L493.782 144.85L517.461 185L525.741 185L501.705 144.254C515.257 142.169 523.924 134.008 523.924 119.86C523.924 102.525 511.98 96.0615 494.288 96.0615L468.286 96.0615L468.286 185ZM475.613 138.773L475.613 102.167L492.561 102.167C507.93 102.167 516.478 106.933 516.478 119.86C516.478 132.667 507.93 138.773 492.561 138.773L475.613 138.773ZM582.462 185L589.789 185L589.789 96.0615L582.462 96.0615L582.462 185ZM674.559 185L682.006 185L682.006 102.287L710.063 102.287L710.063 96.0615L646.621 96.0615L646.621 102.287L674.559 102.287L674.559 185ZM779.336 185L786.664 185L786.664 149.258L813.381 96.0615L805.815 96.0615L792.77 123.255C789.97 129.749 786.664 135.944 783.238 142.556L782.762 142.556C779.456 135.944 776.656 129.749 773.499 123.255L760.423 96.0615L752.619 96.0615L779.336 149.258L779.336 185ZM946.562 133.144C950.107 122.779 953.175 113.396 956.213 102.644L956.689 102.644C959.876 113.396 962.795 122.779 966.459 133.144L971.82 149.258L941.082 149.258L946.562 133.144ZM921.692 185L929.019 185L939.116 155.096L973.786 155.096L983.675 185L991.478 185L960.353 96.0615L952.788 96.0615L921.692 185ZM1045.25 185L1052.22 185L1052.22 131.685C1052.22 122.779 1051.59 114.499 1051.24 105.95L1051.83 105.95L1061.84 123.762L1098.09 185L1105.65 185L1105.65 96.0615L1098.68 96.0615L1098.68 148.751C1098.68 157.419 1099.19 166.325 1099.67 175.111L1099.07 175.111L1089.18 157.181L1052.82 96.0615L1045.25 96.0615L1045.25 185ZM1171.5 185L1192.62 185C1219.82 185 1233.25 167.427 1233.25 140.233C1233.25 113.009 1219.82 96.0615 1192.5 96.0615L1171.5 96.0615L1171.5 185ZM1178.83 178.775L1178.83 102.167L1191.76 102.167C1215.2 102.167 1225.56 117.179 1225.56 140.233C1225.56 163.287 1215.2 178.775 1191.76 178.775L1178.83 178.775ZM1360.57 185L1367.9 185L1367.9 144.85L1386.07 144.85L1409.75 185L1418.03 185L1393.99 144.254C1407.54 142.169 1416.21 134.008 1416.21 119.86C1416.21 102.525 1404.27 96.0615 1386.57 96.0615L1360.57 96.0615L1360.57 185ZM1367.9 138.773L1367.9 102.167L1384.85 102.167C1400.22 102.167 1408.76 106.933 1408.76 119.86C1408.76 132.667 1400.22 138.773 1384.85 138.773L1367.9 138.773ZM1474.75 185L1482.07 185L1482.07 96.0615L1474.75 96.0615L1474.75 185ZM1571.49 186.579C1588.92 186.579 1600.26 176.094 1600.26 162.423C1600.26 148.9 1591.75 143.271 1581.62 138.773L1568.3 132.906C1561.84 130.106 1553.17 126.323 1553.17 116.196C1553.17 107.052 1560.74 101.065 1572.09 101.065C1580.87 101.065 1587.84 104.61 1593.09 109.971L1597.23 105.206C1591.63 99.0996 1582.84 94.4829 1572.09 94.4829C1556.96 94.4829 1545.73 103.627 1545.73 116.792C1545.73 129.868 1555.85 135.467 1563.81 139.012L1577.09 144.85C1585.88 148.751 1592.85 152.177 1592.85 162.929C1592.85 173.056 1584.66 179.996 1571.49 179.996C1561.36 179.996 1552.22 175.499 1545.73 168.171L1541.23 173.294C1548.29 181.217 1558.57 186.579 1571.49 186.579ZM1658.69 185L1666.02 185L1666.02 154.977L1683.47 134.872L1712.25 185L1720.67 185L1688.36 129.123L1716.65 96.0615L1707.99 96.0615L1666.26 144.373L1666.02 144.373L1666.02 96.0615L1658.69 96.0615L1658.69 185ZM1873.74 186.579C1885.21 186.579 1893.52 181.843 1900.34 173.89L1896.2 169.273C1889.85 176.213 1883.15 179.996 1874.13 179.996C1855.45 179.996 1843.87 164.508 1843.87 140.233C1843.87 116.196 1855.69 101.065 1874.49 101.065C1882.65 101.065 1888.99 104.61 1893.76 109.971L1897.9 105.206C1893.16 99.606 1884.97 94.4829 1874.49 94.4829C1851.91 94.4829 1836.18 112.056 1836.18 140.471C1836.18 168.886 1851.79 186.579 1873.74 186.579ZM1986.23 186.579C2007.94 186.579 2023.19 168.529 2023.19 140.233C2023.19 112.056 2007.94 94.4829 1986.23 94.4829C1964.75 94.4829 1949.38 112.056 1949.38 140.233C1949.38 168.529 1964.75 186.579 1986.23 186.579ZM1986.23 179.996C1968.65 179.996 1957.07 164.389 1957.07 140.233C1957.07 116.077 1968.65 101.065 1986.23 101.065C2003.92 101.065 2015.62 116.077 2015.62 140.233C2015.62 164.389 2003.92 179.996 1986.23 179.996ZM2083.55 185L2090.52 185L2090.52 131.685C2090.52 122.779 2089.9 114.499 2089.54 105.95L2090.14 105.95L2100.14 123.762L2136.39 185L2143.96 185L2143.96 96.0615L2136.99 96.0615L2136.99 148.751C2136.99 157.419 2137.49 166.325 2137.97 175.111L2137.38 175.111L2127.49 157.181L2091.12 96.0615L2083.55 96.0615L2083.55 185ZM2228.72 185L2236.17 185L2236.17 102.287L2264.23 102.287L2264.23 96.0615L2200.78 96.0615L2200.78 102.287L2228.72 102.287L2228.72 185ZM2321.06 185L2328.38 185L2328.38 144.85L2346.55 144.85L2370.23 185L2378.51 185L2354.47 144.254C2368.03 142.169 2376.69 134.008 2376.69 119.86C2376.69 102.525 2364.75 96.0615 2347.06 96.0615L2321.06 96.0615L2321.06 185ZM2328.38 138.773L2328.38 102.167L2345.33 102.167C2360.7 102.167 2369.25 106.933 2369.25 119.86C2369.25 132.667 2360.7 138.773 2345.33 138.773L2328.38 138.773ZM2466.48 186.579C2488.19 186.579 2503.44 168.529 2503.44 140.233C2503.44 112.056 2488.19 94.4829 2466.48 94.4829C2445 94.4829 2429.63 112.056 2429.63 140.233C2429.63 168.529 2445 186.579 2466.48 186.579ZM2466.48 179.996C2448.9 179.996 2437.32 164.389 2437.32 140.233C2437.32 116.077 2448.9 101.065 2466.48 101.065C2484.17 101.065 2495.87 116.077 2495.87 140.233C2495.87 164.389 2484.17 179.996 2466.48 179.996ZM2563.8 185L2611.64 185L2611.64 178.656L2571.13 178.656L2571.13 96.0615L2563.8 96.0615L2563.8 185Z" fill-rule="evenodd" fill="#66E7EC"/>
	</g>
	<path id="矩形 32" d="M726.26 0L728.985 0L728.985 260L726.26 260C720.737 260 716.26 255.522 716.26 250L716.26 10C716.26 4.47754 720.737 0 726.26 0Z" fill-rule="evenodd" fill="#FFFFFF"/>
	<path id="矩形 32" d="M728.985 0L728.985 260L726.26 260C720.737 260 716.26 255.522 716.26 250L716.26 10C716.26 4.47754 720.737 0 726.26 0L728.985 0ZM727.985 1L727.985 259L726.26 259C721.29 259 717.26 254.971 717.26 250L717.26 10C717.26 5.0293 721.29 1 726.26 1L727.985 1Z" fill-rule="evenodd" fill="#FFFFFF"/>
	<path id="矩形 31" d="M1858.99 0L1861.71 0C1867.23 0 1871.71 4.47754 1871.71 10L1871.71 250C1871.71 255.522 1867.23 260 1861.71 260L1858.99 260L1858.99 0Z" fill-rule="evenodd" fill="#FFFFFF"/>
	<path id="矩形 31" d="M1861.71 0C1867.23 0 1871.71 4.47754 1871.71 10L1871.71 250C1871.71 255.522 1867.23 260 1861.71 260L1858.99 260L1858.99 0L1861.71 0ZM1861.71 1C1866.68 1 1870.71 5.0293 1870.71 10L1870.71 250C1870.71 254.971 1866.68 259 1861.71 259L1859.99 259L1859.99 1L1861.71 1Z" fill-rule="evenodd" fill="#FFFFFF"/>
	<path id="安全与风险控制" d="M881.601 105.387L955.973 105.387L955.973 119.486L971.872 119.486L971.872 91.6233L927.744 91.6233C925.852 87.3813 923.227 82.0103 920.847 77.7378L905.222 81.3694C906.748 84.5127 908.487 88.1138 909.861 91.6233L866.495 91.6233L866.495 119.486L881.601 119.486L881.601 105.387ZM934.732 140.512C931.62 147.623 927.347 153.635 922.098 158.762C915.11 156.137 908.365 153.513 901.621 151.255C903.849 147.989 906.107 144.388 908.487 140.512L934.732 140.512ZM974.222 140.512L974.222 126.505L916.117 126.505C918.741 121.5 921.122 116.373 923.105 111.49L906.473 108.133C904.245 113.871 901.224 120.249 897.989 126.505L864.115 126.505L864.115 140.512L889.994 140.512C886.118 146.738 882.12 152.628 878.366 157.511L878.122 157.755C887.491 160.746 897.745 164.621 907.846 168.741C896.25 174.875 881.723 178.751 864.481 181.131C867.35 184.366 871.744 191.263 873.362 194.864C893.625 190.989 910.868 185.129 924.356 175.76C939.096 182.505 952.616 189.371 961.496 195.261L973.612 182.627C964.487 177.011 951.242 170.755 937.113 164.743C943.125 157.999 948.221 150.003 951.975 140.512L974.222 140.512ZM1013.5 123.117C1024.48 115.885 1034.86 107.004 1043.86 97.1165C1053.48 107.492 1063.49 115.885 1074.47 123.117L1013.5 123.117ZM1082.5 136.24L1082.5 128.244C1086.22 130.503 1090.37 132.761 1094.49 134.867C1096.35 130.625 1100.75 125.498 1104.47 122.11C1084.48 113.382 1067.24 102.365 1052.35 86.4963C1053.11 85.3672 1053.87 84.238 1054.61 83.1394L1041.36 77.0054C1028.85 96.384 1006.11 112.619 983.744 121.866C987.497 125.376 991.861 130.503 993.875 134.256C997.995 132.364 1001.99 130.259 1005.87 127.878L1005.87 136.24L1036.11 136.24L1036.11 150.614L1007.61 150.614L1007.61 163.614L1036.11 163.614L1036.11 178.629L991.22 178.629L991.22 191.874L1097.48 191.874L1097.48 178.629L1051.74 178.629L1051.74 163.614L1081.49 163.614L1081.49 150.614L1051.74 150.614L1051.74 136.24L1082.5 136.24ZM1190.62 151.377L1112.99 151.377L1112.99 165.628L1190.62 165.628L1190.62 151.377ZM1145 124.491C1146.1 119.12 1147.23 113.382 1148.36 107.492L1217.23 107.492L1217.23 93.2407L1150.98 93.2407C1151.74 89.2429 1152.35 85.3672 1152.99 81.6135L1137.74 80.1182C1134.99 98.8865 1130.23 123.117 1126.23 138.132L1139.11 138.254L1203.99 138.254C1201.73 161.997 1198.74 174.387 1194.62 177.5C1192.73 178.873 1190.74 178.995 1187.85 178.995C1183.6 178.995 1173.47 178.995 1163.61 178.11C1166.73 182.383 1169.11 188.639 1169.35 193.003C1178.48 193.369 1187.48 193.491 1192.61 193.125C1199.23 192.514 1203.35 191.385 1207.5 186.991C1213.48 181.131 1216.75 166.239 1219.86 130.991C1220.22 129.007 1220.5 124.491 1220.5 124.491L1145 124.491ZM1304.48 103.739C1301.86 112.009 1298.62 120.127 1294.47 128.122C1289.1 121.012 1283.73 114.237 1278.6 108.011L1266.61 114.389C1273.11 122.629 1280.22 131.998 1286.72 141.489C1279.49 152.75 1270.98 162.363 1261.85 169.138C1265.24 171.762 1270.12 177.011 1272.47 180.49C1280.98 173.502 1288.61 164.621 1295.48 154.367C1300.97 163.004 1305.73 171.122 1308.73 177.622L1322.24 169.992C1318.12 161.509 1311.35 151.133 1303.6 140.512C1309.12 130.259 1313.85 118.998 1317.48 107.492L1304.48 103.739ZM1249.86 82.3765L1249.86 117.38C1249.86 137.369 1248.73 166.117 1235.24 185.495C1238.6 187.113 1245.1 192.514 1247.6 195.505C1262.74 174.265 1265.36 139.505 1265.36 117.38L1265.36 96.6282L1321.97 96.6282C1321.85 161.631 1322.37 193.613 1341.62 193.613C1349.99 193.613 1352.85 186.991 1354.23 170.877C1351.48 168.253 1347.73 163.004 1345.22 159.25C1344.98 169.138 1344.25 177.866 1342.87 177.866C1335.98 177.866 1336.1 144.876 1336.86 82.3765L1249.86 82.3765ZM1420.36 116.251C1426.49 110.239 1432.11 103.617 1437.23 96.5061C1442.97 103.25 1450.11 110.117 1457.35 116.251L1420.36 116.251ZM1415.23 128.763L1459.48 128.763L1459.48 117.99C1463.85 121.622 1468.24 124.735 1472.6 127.512C1473.98 123.636 1477.12 116.861 1479.62 113.26C1467.36 107.004 1453.1 95.499 1444.62 85.2451C1445.35 83.9939 1446.12 82.7427 1446.73 81.4915L1434 76.7612C1425.73 92.3862 1411.36 107.37 1397.1 116.617C1399.61 119.486 1404.12 125.742 1405.74 128.763C1408.98 126.383 1412 123.758 1415.23 121.134L1415.23 128.763ZM1448.37 164.499C1447.49 156.626 1445.35 144.754 1442.97 135.263L1431.62 136.881C1433.6 146.25 1435.74 158.487 1436.35 166.361L1448.37 164.499ZM1426.98 167.124C1425.85 159.25 1422.74 147.135 1419.6 137.613L1408.24 140.635C1411.11 150.003 1413.86 162.363 1414.87 170.633L1426.98 167.124ZM1395.24 82.4985L1393.11 82.9868L1365.24 82.9868L1365.24 194.62L1378.24 194.62L1378.24 96.262L1388.5 96.262C1386.48 104.502 1383.98 114.634 1381.48 122.385C1388.5 130.991 1390.12 139.139 1390.12 145.121C1390.12 148.63 1389.35 151.499 1387.86 152.628C1387.12 153.238 1385.87 153.513 1384.5 153.513C1383.1 153.635 1381.36 153.635 1379.22 153.36C1381.24 157.114 1382.36 162.638 1382.49 166.239C1385.35 166.239 1388.22 166.239 1390.48 165.873C1393.23 165.506 1395.61 164.621 1397.47 163.126C1401.5 160.135 1403.12 154.764 1403.12 146.738C1403.12 139.383 1401.62 130.625 1394.11 120.737C1397.62 111.002 1401.62 98.4897 1404.86 87.8696L1395.24 82.4985ZM1460.49 135.263C1456.74 147.867 1449.87 165.384 1443.74 176.889L1403.36 176.889L1403.36 189.89L1475.6 189.89L1475.6 176.889L1455.97 176.889C1461.74 165.873 1468.24 151.01 1473.25 138.132L1460.49 135.263ZM1539.87 104.99L1586.74 104.99L1586.74 114.756L1600.75 114.756L1600.75 92.3862L1572.49 92.3862C1570.99 87.9917 1568.49 82.1323 1566.23 77.6157L1551.98 80.8811C1553.48 84.3601 1555.25 88.5105 1556.5 92.3862L1526.5 92.3862L1526.5 115.244L1539.87 115.244L1539.87 104.99ZM1565.35 118.509C1573.37 124.887 1584.36 134.012 1589.49 139.505L1598.86 129.618C1593.12 124.369 1581.74 115.763 1574.23 109.751L1565.35 118.509ZM1522.99 132.242L1512.98 135.508L1512.98 113.871L1523.48 113.871L1523.48 100.26L1512.98 100.26L1512.98 78.0125L1499.37 78.0125L1499.37 100.26L1486.73 100.26L1486.73 113.871L1499.37 113.871L1499.37 139.994C1494 141.764 1489.11 143.259 1485.12 144.388L1487.99 158.64L1499.37 154.612L1499.37 177.134C1499.37 178.751 1498.85 179.239 1497.23 179.239C1495.74 179.361 1491.5 179.361 1486.98 179.239C1488.75 183.115 1490.49 189.249 1490.85 192.881C1498.73 193.003 1504.22 192.514 1507.97 190.012C1511.85 187.754 1512.98 184.122 1512.98 177.256L1512.98 149.759C1517.1 148.264 1521.37 146.616 1525.37 145.243L1522.99 132.242ZM1569.99 177.866L1569.99 152.994L1593.48 152.994L1593.48 139.994L1535.99 139.994C1544.99 133.89 1554.97 124.125 1561.62 115.122L1548.99 110.361C1543.62 117.38 1534.74 124.369 1526.62 129.007C1528.73 131.51 1532.6 136.881 1534.49 139.994L1531.99 139.994L1531.99 152.994L1555.12 152.994L1555.12 177.866L1522.35 177.866L1522.35 190.866L1602.61 190.866L1602.61 177.866L1569.99 177.866ZM1622.87 117.502C1624.25 114.756 1625.74 111.612 1627.12 108.133L1639.75 108.133L1639.75 117.502L1622.87 117.502ZM1653.85 108.133L1676.25 108.133L1676.25 94.614L1653.85 94.614L1653.85 78.8669L1639.75 78.8669L1639.75 94.614L1631.72 94.614C1632.85 90.8604 1633.86 87.1372 1634.62 83.2615L1620.98 80.3623C1618.72 92.2642 1614.6 104.868 1609.48 112.741C1612.38 113.749 1617.47 115.885 1620.74 117.502L1611.37 117.502L1611.37 130.869L1639.75 130.869L1639.75 139.994L1616.22 139.994L1616.22 184.885L1629.5 184.885L1629.5 153.238L1639.75 153.238L1639.75 194.742L1653.85 194.742L1653.85 153.238L1664.87 153.238L1664.87 171.488C1664.87 172.739 1664.5 173.014 1663.37 173.014C1662.24 173.136 1659.1 173.136 1655.62 172.861C1657.24 176.493 1658.85 181.742 1659.25 185.495C1665.48 185.617 1670.24 185.373 1673.75 183.237C1677.35 181.131 1678.23 177.622 1678.23 171.885L1678.23 139.994L1653.85 139.994L1653.85 130.869L1681.22 130.869L1681.22 117.502L1653.85 117.502L1653.85 108.133ZM1700.72 88.3884L1686.87 88.3884L1686.87 158.762L1700.72 158.762L1700.72 88.3884ZM1709.24 80.2402L1709.24 177.134C1709.24 179.239 1708.48 179.758 1706.49 179.88C1704.36 179.88 1697.85 179.88 1691.48 179.636C1693.37 184 1695.35 190.5 1695.87 194.62C1705.48 194.62 1712.75 194.132 1717.36 191.751C1721.87 189.249 1723.49 185.251 1723.49 177.256L1723.49 80.2402L1709.24 80.2402Z" fill-rule="evenodd" fill="#66E7EC"/>
</svg>
