<svg width="1360" height="2177" viewBox="0 0 1360 2177" fill="none" xmlns="http://www.w3.org/2000/svg">
<g opacity="0.2">
<g clip-path="url(#clip0_1_517)">
<path d="M-215.5 49.5H1704.5" stroke="white"/>
<path d="M-215.5 99.5H1704.5" stroke="white"/>
<path d="M-215.5 149.5H1704.5" stroke="white"/>
<path d="M-215.5 199.5H1704.5" stroke="white"/>
<path d="M-215.5 249.5H1704.5" stroke="white"/>
<path d="M-215.5 299.5H1704.5" stroke="white"/>
<path d="M-215.5 349.5H1704.5" stroke="white"/>
<path d="M-215.5 399.5H1704.5" stroke="white"/>
<path d="M-215.5 449.5H1704.5" stroke="white"/>
<path d="M-215.5 499.5H1704.5" stroke="white"/>
<path d="M-215.5 549.5H1704.5" stroke="white"/>
<path d="M34 1431L34 -314" stroke="white"/>
<path d="M84 1431L84 -314" stroke="white"/>
<path d="M134 1431L134 -314" stroke="white"/>
<path d="M184 1431L184 -314" stroke="white"/>
<path d="M234 1431L234 -314" stroke="white"/>
<path d="M284 1431L284 -314" stroke="white"/>
<path d="M334 1431L334 -314" stroke="white"/>
<path d="M384 1431L384 -314" stroke="white"/>
<path d="M434 1431L434 -314" stroke="white"/>
<path d="M484 1431L484 -314" stroke="white"/>
<path d="M534 1431L534 -314" stroke="white"/>
<path d="M584 1431L584 -314" stroke="white"/>
<path d="M634 1431L634 -314" stroke="white"/>
<path d="M684 1431L684 -314" stroke="white"/>
<path d="M734 1431L734 -314" stroke="white"/>
<path d="M784 1431L784 -314" stroke="white"/>
<path d="M834 1431L834 -314" stroke="white"/>
<path d="M884 1431L884 -314" stroke="white"/>
<path d="M934 1431L934 -314" stroke="white"/>
<path d="M984 1431L984 -314" stroke="white"/>
<path d="M1034 1431V-314" stroke="white"/>
<path d="M1084 1431V-314" stroke="white"/>
<path d="M1134 1431V-314" stroke="white"/>
<path d="M1184 1431V-314" stroke="white"/>
<path d="M1234 1431V-314" stroke="white"/>
<path d="M1284 1431V-314" stroke="white"/>
<path d="M1334 1431V-314" stroke="white"/>
</g>
<g clip-path="url(#clip1_1_517)">
<path d="M-215.5 601.5H1704.5" stroke="white"/>
<path d="M-215.5 651.5H1704.5" stroke="white"/>
<path d="M-215.5 701.5H1704.5" stroke="white"/>
<path d="M-215.5 751.5H1704.5" stroke="white"/>
<path d="M-215.5 801.5H1704.5" stroke="white"/>
<path d="M-215.5 851.5H1704.5" stroke="white"/>
<path d="M-215.5 901.5H1704.5" stroke="white"/>
<path d="M-215.5 951.5H1704.5" stroke="white"/>
<path d="M-215.5 1001.5H1704.5" stroke="white"/>
<path d="M-215.5 1051.5H1704.5" stroke="white"/>
<path d="M-215.5 1101.5H1704.5" stroke="white"/>
<path d="M34 1983L34 238" stroke="white"/>
<path d="M84 1983L84 238" stroke="white"/>
<path d="M134 1983L134 238" stroke="white"/>
<path d="M184 1983L184 238" stroke="white"/>
<path d="M234 1983L234 238" stroke="white"/>
<path d="M284 1983L284 238" stroke="white"/>
<path d="M334 1983L334 238" stroke="white"/>
<path d="M384 1983L384 238" stroke="white"/>
<path d="M434 1983L434 238" stroke="white"/>
<path d="M484 1983L484 238" stroke="white"/>
<path d="M534 1983L534 238" stroke="white"/>
<path d="M584 1983L584 238" stroke="white"/>
<path d="M634 1983L634 238" stroke="white"/>
<path d="M684 1983L684 238" stroke="white"/>
<path d="M734 1983L734 238" stroke="white"/>
<path d="M784 1983L784 238" stroke="white"/>
<path d="M834 1983L834 238" stroke="white"/>
<path d="M884 1983L884 238" stroke="white"/>
<path d="M934 1983L934 238" stroke="white"/>
<path d="M984 1983L984 238" stroke="white"/>
<path d="M1034 1983V238" stroke="white"/>
<path d="M1084 1983V238" stroke="white"/>
<path d="M1134 1983V238" stroke="white"/>
<path d="M1184 1983V238" stroke="white"/>
<path d="M1234 1983V238" stroke="white"/>
<path d="M1284 1983V238" stroke="white"/>
<path d="M1334 1983V238" stroke="white"/>
</g>
<g clip-path="url(#clip2_1_517)">
<path d="M-215.5 1153.5H1704.5" stroke="white"/>
<path d="M-215.5 1203.5H1704.5" stroke="white"/>
<path d="M-215.5 1253.5H1704.5" stroke="white"/>
<path d="M-215.5 1303.5H1704.5" stroke="white"/>
<path d="M-215.5 1353.5H1704.5" stroke="white"/>
<path d="M-215.5 1403.5H1704.5" stroke="white"/>
<path d="M-215.5 1453.5H1704.5" stroke="white"/>
<path d="M-215.5 1503.5H1704.5" stroke="white"/>
<path d="M-215.5 1553.5H1704.5" stroke="white"/>
<path d="M-215.5 1603.5H1704.5" stroke="white"/>
<path d="M-215.5 1653.5H1704.5" stroke="white"/>
<path d="M34 2535L34 790" stroke="white"/>
<path d="M84 2535L84 790" stroke="white"/>
<path d="M134 2535L134 790" stroke="white"/>
<path d="M184 2535L184 790" stroke="white"/>
<path d="M234 2535L234 790" stroke="white"/>
<path d="M284 2535L284 790" stroke="white"/>
<path d="M334 2535L334 790" stroke="white"/>
<path d="M384 2535L384 790" stroke="white"/>
<path d="M434 2535L434 790" stroke="white"/>
<path d="M484 2535L484 790" stroke="white"/>
<path d="M534 2535L534 790" stroke="white"/>
<path d="M584 2535L584 790" stroke="white"/>
<path d="M634 2535L634 790" stroke="white"/>
<path d="M684 2535L684 790" stroke="white"/>
<path d="M734 2535L734 790" stroke="white"/>
<path d="M784 2535L784 790" stroke="white"/>
<path d="M834 2535L834 790" stroke="white"/>
<path d="M884 2535L884 790" stroke="white"/>
<path d="M934 2535L934 790" stroke="white"/>
<path d="M984 2535L984 790" stroke="white"/>
<path d="M1034 2535V790" stroke="white"/>
<path d="M1084 2535V790" stroke="white"/>
<path d="M1134 2535V790" stroke="white"/>
<path d="M1184 2535V790" stroke="white"/>
<path d="M1234 2535V790" stroke="white"/>
<path d="M1284 2535V790" stroke="white"/>
<path d="M1334 2535V790" stroke="white"/>
</g>
<g clip-path="url(#clip3_1_517)">
<path d="M-215.5 1705.5H1704.5" stroke="white"/>
<path d="M-215.5 1755.5H1704.5" stroke="white"/>
<path d="M-215.5 1805.5H1704.5" stroke="white"/>
<path d="M-215.5 1855.5H1704.5" stroke="white"/>
<path d="M-215.5 1905.5H1704.5" stroke="white"/>
<path d="M-215.5 1955.5H1704.5" stroke="white"/>
<path d="M-215.5 2005.5H1704.5" stroke="white"/>
<path d="M-215.5 2055.5H1704.5" stroke="white"/>
<path d="M-215.5 2105.5H1704.5" stroke="white"/>
<path d="M-215.5 2155.5H1704.5" stroke="white"/>
<path d="M34 3087L34 1342" stroke="white"/>
<path d="M84 3087L84 1342" stroke="white"/>
<path d="M134 3087L134 1342" stroke="white"/>
<path d="M184 3087L184 1342" stroke="white"/>
<path d="M234 3087L234 1342" stroke="white"/>
<path d="M284 3087L284 1342" stroke="white"/>
<path d="M334 3087L334 1342" stroke="white"/>
<path d="M384 3087L384 1342" stroke="white"/>
<path d="M434 3087L434 1342" stroke="white"/>
<path d="M484 3087L484 1342" stroke="white"/>
<path d="M534 3087L534 1342" stroke="white"/>
<path d="M584 3087L584 1342" stroke="white"/>
<path d="M634 3087L634 1342" stroke="white"/>
<path d="M684 3087L684 1342" stroke="white"/>
<path d="M734 3087L734 1342" stroke="white"/>
<path d="M784 3087L784 1342" stroke="white"/>
<path d="M834 3087L834 1342" stroke="white"/>
<path d="M884 3087L884 1342" stroke="white"/>
<path d="M934 3087L934 1342" stroke="white"/>
<path d="M984 3087L984 1342" stroke="white"/>
<path d="M1034 3087V1342" stroke="white"/>
<path d="M1084 3087V1342" stroke="white"/>
<path d="M1134 3087V1342" stroke="white"/>
<path d="M1184 3087V1342" stroke="white"/>
<path d="M1234 3087V1342" stroke="white"/>
<path d="M1284 3087V1342" stroke="white"/>
<path d="M1334 3087V1342" stroke="white"/>
</g>
</g>
<defs>
<clipPath id="clip0_1_517">
<rect width="1920" height="552" fill="white" transform="translate(-216)"/>
</clipPath>
<clipPath id="clip1_1_517">
<rect width="1920" height="552" fill="white" transform="translate(-216 552)"/>
</clipPath>
<clipPath id="clip2_1_517">
<rect width="1920" height="552" fill="white" transform="translate(-216 1104)"/>
</clipPath>
<clipPath id="clip3_1_517">
<rect width="1920" height="552" fill="white" transform="translate(-216 1656)"/>
</clipPath>
</defs>
</svg>
