<svg width="341" height="90" viewBox="0 0 341 90" fill="none" xmlns="http://www.w3.org/2000/svg">
<path fill-rule="evenodd" clip-rule="evenodd" d="M29.891 2.5L58.3535 18.9414L50.1598 23.6582C50.1598 23.4156 50.1328 23.2 50.0789 22.9574C49.9711 22.5262 49.7285 22.0949 49.3781 21.6906L48.1383 20.2621L46.7098 19.0223C46.3324 18.6719 45.9012 18.4563 45.443 18.3215C45.0117 18.2137 44.6074 18.2137 44.1762 18.3215C43.718 18.4563 43.3137 18.6988 42.9633 19.0762C42.8555 19.184 42.7746 19.3188 42.6937 19.4266L40.6453 18.2406L29.891 12.0684L19.0828 18.2945L15.498 20.3699L12.9914 18.2406L13.5035 21.5289L9.70312 23.7121L1.42852 18.9414L29.891 2.5ZM59.782 21.3941V54.25L31.3195 70.6914V61.123L40.6992 55.7055L51.5074 49.4793V37V26.1648L59.782 21.3941ZM28.4625 70.6914L0 54.25V21.3941L8.27461 26.1648V36.9461L4.28555 38.3746L8.27461 40.3961V49.4254L11.7246 51.4199C11.6168 52.3094 11.5629 53.3066 11.509 54.5465L11.3742 56.9992L13.827 56.8645C16.4684 56.7297 18.1125 56.6488 19.6758 56.0289L28.4355 61.0961V70.6914H28.4625Z" fill="#FFE353"/>
<path fill-rule="evenodd" clip-rule="evenodd" d="M32.6942 23.0113C33.4219 22.4722 34.7965 22.2836 35.8746 22.041C32.2899 20.7203 30.0797 21.1246 29.7563 21.1785C29.7293 21.4211 29.6215 22.3375 29.2172 23.0113C30.6727 22.7418 31.5352 22.7418 32.6942 23.0113ZM15.9563 23.5234C16.3067 25.7875 15.3903 29.4531 15.2016 29.9113C15.0129 30.3695 14.7164 30.8008 14.0426 32.8222C13.3688 34.8437 13.3418 38.4015 13.8539 39.5605C12.6141 38.6711 11.0778 38.1859 9.59534 38.725C12.075 39.9918 13.8539 43.307 14.959 44.7625C16.0641 46.191 15.552 45.5441 15.9024 45.9215C18.1395 48.2933 19.6758 49.6679 22.7754 50.6113C24.743 51.2043 26.7914 51.4199 29.4328 50.4765C32.2899 49.4523 36.4406 44.0886 34.1227 41.7707C33.4758 42.1211 32.775 42.4176 32.0473 42.5793C31.6969 42.6601 31.3196 42.6871 30.9692 42.6871C27.7078 42.6601 24.9856 39.3449 24.8778 36.2992C24.7699 33.2535 27.1957 30.8816 29.4598 29.6957C29.6754 29.3992 29.9449 29.1297 30.2953 28.914C30.6188 28.7254 30.9961 28.5906 31.4274 28.5636C30.4571 28.2672 29.8102 28.1863 28.2739 28.4289C29.8371 27.2699 31.077 26.3535 33.4758 25.9492C33.5567 25.5719 33.7453 25.2215 34.1766 24.8172C30.511 24.1164 25.4707 24.332 21.1043 30.1C22.6406 27.1621 23.0449 26.2187 26.3602 23.3078C26.9801 22.7687 28.0852 21.3402 27.7617 19.5074C26.7645 21.1246 24.9586 22.014 22.4789 23.1191C20.6192 23.9547 18.9211 25.3023 17.6543 27.0543C17.4926 26.3535 17.1692 24.6824 16.091 23.6851L15.9563 23.5234ZM13.6383 54.816C13.8 51.5008 13.8539 49.9375 15.2285 47.9429C17.0614 49.8836 19.002 51.4738 21.7512 52.2824C19.0559 54.5465 17.6004 54.6004 13.6383 54.816ZM26.8184 36.1914L29.2981 33.7926C29.8641 33.2265 30.6996 31.8519 31.0231 30.8277C31.077 30.6121 31.3735 30.4234 31.7508 30.3965L33.6106 30.3695L33.7184 30.0461C33.7723 29.8574 33.8531 29.8304 34.0149 29.8304H35.2008C35.2547 29.8304 35.3086 29.7765 35.3086 29.7226V27.0812C35.3086 26.5691 35.3086 26.2996 35.7129 25.9761L36.5485 25.2754L38.6778 27.4586L44.1223 22.1219L44.4727 20.8012C44.6074 20.289 44.9848 20.289 45.3891 20.6394L46.6828 21.7715L47.8149 23.0652C48.1653 23.4695 48.1922 23.8469 47.6531 23.9816L46.3324 24.332L40.9957 29.7765L43.1789 31.9058L42.4781 32.7414C42.1278 33.1457 41.8852 33.1457 41.3731 33.1457H38.7317C38.6778 33.1457 38.6238 33.1996 38.6238 33.2535V34.4394C38.6238 34.6011 38.5969 34.682 38.4082 34.7359L38.0848 34.8437L38.0578 36.7035C38.0578 37.0808 37.8692 37.3773 37.6266 37.4312C36.6024 37.7277 35.2278 38.5633 34.6617 39.1562L34.2574 39.5875L33.2602 40.1535C32.9637 40.3152 32.6942 40.45 32.4246 40.5578C32.1821 40.6386 31.9395 40.7195 31.6699 40.7734C31.5082 40.8004 31.3465 40.8273 31.2387 40.8273C30.2145 40.8543 29.2711 40.45 28.4895 39.7761C27.6809 39.0484 27.1149 38.0242 26.9262 36.9191C26.8453 36.6226 26.8184 36.407 26.8184 36.1914ZM25.1742 53.2258C30.9422 55.382 36.6024 54.0343 40.0793 50.5843C39.8098 51.0695 39.5133 51.6086 39.1899 52.0668C43.5024 49.5871 48.7582 42.5254 45.0926 35.2211C45.7664 35.7601 46.3324 36.434 46.8176 37.3504C46.8446 34.2508 45.9821 31.3937 44.284 29.0758L43.6641 29.6957L45.7395 31.7172L43.9336 33.9004C43.0442 34.9785 42.4781 34.9785 41.4 34.9785H40.4297C40.3489 35.3019 40.1602 35.6523 39.9446 35.8949L39.9176 36.7035C39.9176 37.2156 39.7559 37.7008 39.5403 38.0781C39.2168 38.6441 38.7047 39.0484 38.1387 39.2101C37.5457 39.3988 36.4137 39.9918 35.9824 40.423L35.7668 40.6656C36.1981 41.1508 36.4946 41.6898 36.6563 42.3097C36.9797 43.4957 36.7641 44.8164 36.252 46.1101C34.4461 50.8 30.2684 53.3605 25.1742 53.2258Z" fill="#FFE353"/>
<path d="M109.026 49.166C109.303 49.3639 109.541 49.6014 109.818 49.7597C110.095 49.8784 110.332 50.0367 110.609 50.0763C111.639 50.3534 112.668 50.5117 113.657 50.8679C114.092 50.9866 114.488 51.2637 114.884 51.5012C115.201 51.6991 115.596 51.8178 115.992 51.897C116.586 52.0157 117.14 52.0949 117.734 52.2928C118.327 52.4115 118.842 52.2928 119.475 52.2136C119.04 51.5012 118.684 50.8679 118.169 50.3534C117.773 49.9576 117.378 49.5618 116.942 49.3243C116.546 49.0472 116.111 48.9285 115.715 48.7306C115.517 48.6515 115.399 48.7306 115.201 48.8098C115.122 48.8889 115.003 49.0077 114.924 49.0868C114.805 48.8889 114.726 48.6515 114.488 48.8098C114.369 48.9285 114.172 49.0077 114.053 49.0868C113.736 49.166 113.657 49.2847 113.855 49.5222C113.855 49.6014 113.776 49.7993 113.657 49.8388C113.34 49.9576 112.945 50.0367 112.549 50.1555C112.47 50.1555 112.351 50.0763 112.351 50.0367C112.272 49.918 112.232 49.7201 112.232 49.6014C112.311 49.0077 112.311 48.3744 112.865 47.8995C112.984 47.7807 113.063 47.6224 113.182 47.4641C113.459 47.0683 113.697 46.6725 114.172 46.4746C114.369 46.3954 114.488 46.1975 114.607 46.0392C115.122 45.3268 115.636 44.6144 116.23 43.9811C116.428 43.704 116.546 43.4666 116.546 43.1499C116.467 42.0417 116.428 40.8939 116.111 39.7857C116.032 39.5086 115.913 39.2711 115.834 38.9545C115.913 38.9545 115.953 38.9545 116.032 38.9545C116.823 39.5878 117.655 40.1023 117.852 41.2105C118.248 41.8438 118.288 42.5562 118.288 43.2687C118.209 43.9811 118.09 44.7727 117.971 45.4851C117.971 45.5643 117.892 45.683 117.892 45.683C117.457 45.7622 117.378 46.3954 116.903 46.3954C116.823 46.3954 116.705 46.5142 116.626 46.5933C116.546 46.6725 116.546 46.91 116.705 46.91C117.496 47.0287 118.209 47.4245 118.921 47.8203C119.436 48.0973 119.95 48.0182 120.465 48.2557C120.583 48.3348 120.781 48.1765 120.781 47.9786C120.702 47.5432 120.663 47.1474 120.583 46.6725C120.386 45.5247 119.99 44.3373 119.594 43.2291C119.277 42.2396 119 41.2897 118.802 40.3002C118.723 39.9044 118.684 39.5086 118.367 39.2711C118.248 39.1524 118.169 38.9545 118.446 38.8753C118.367 38.6774 118.367 38.5587 118.327 38.3608C118.13 37.9254 117.932 37.5296 117.734 37.0547C117.615 36.7776 117.615 36.5402 117.734 36.2235C117.852 36.3423 118.011 36.4214 118.05 36.5006C118.248 36.8172 118.486 37.1339 118.961 37.1339C119.238 37.1339 119.396 37.3317 119.594 37.5296C120.109 38.0442 120.583 38.6379 120.9 39.2711C121.296 39.9044 121.692 40.5773 122.048 41.2105C122.127 41.2897 122.167 41.4084 122.246 41.4876C123.156 42.2 123.552 43.2291 123.948 44.2186C124.027 44.3373 124.027 44.4956 124.066 44.5352C124.581 45.3268 124.858 46.158 125.096 46.9891C125.373 47.6224 125.531 48.2952 125.808 48.9285C126.085 49.5618 126.243 50.2742 126.52 50.9471C126.639 51.3429 126.837 51.6595 126.916 52.0553C126.995 52.4511 126.916 52.649 126.639 52.8865C126.362 53.0844 126.125 53.3218 125.848 53.5197C125.57 53.7176 125.254 53.6385 125.056 53.9155C124.66 53.7176 124.462 54.3113 123.948 54.1134C124.066 54.3113 124.146 54.5092 124.264 54.5092C124.977 54.905 125.689 55.3008 126.481 55.657C126.877 55.8549 127.272 55.8549 127.589 55.4591C127.708 55.5383 127.866 55.5779 127.985 55.657C128.381 55.7757 128.816 55.5779 129.093 55.2612C129.37 54.8654 129.528 54.4696 129.528 53.9551C129.528 53.678 129.647 53.4406 129.726 53.1635C129.845 52.7281 129.805 52.2532 129.528 51.8178C129.331 51.5012 129.251 51.1845 129.093 50.8283C129.014 50.6304 128.974 50.4325 128.816 50.2346C128.222 49.5222 127.906 48.6119 127.47 47.8203C127.272 47.5037 127.154 47.187 126.758 46.9891C126.56 46.8704 126.441 46.7121 126.441 46.4746C126.441 46.3954 126.441 46.3559 126.441 46.3559C125.927 46.0392 126.164 45.5643 126.243 45.1289C126.322 44.6935 126.52 44.2186 126.679 43.8228C126.877 43.3874 126.877 42.9124 126.6 42.4771C126.402 42.1604 126.204 41.8438 126.085 41.448C125.887 41.0126 125.452 40.8543 125.096 40.6168C124.977 40.5377 124.818 40.4981 124.581 40.3398C125.373 40.3398 126.085 40.4189 126.639 40.7752C127.47 41.2897 128.46 41.4084 129.37 41.7646C129.489 41.8438 129.647 41.8438 129.766 41.8438C130.676 41.8438 131.507 41.8438 132.418 41.8438C132.536 41.8438 132.616 41.7646 132.734 41.7646C132.734 41.6459 132.734 41.4876 132.734 41.3688C132.616 40.9335 132.457 40.3794 132.299 39.944C131.982 39.3107 131.864 38.5983 131.864 37.8859C131.784 37.1734 131.784 37.1734 131.349 36.5797C131.547 36.2631 131.745 35.9465 132.061 35.7486C132.259 35.6298 132.378 35.4715 132.497 35.3528C133.526 34.4424 134.199 34.1258 135.544 33.8488C135.663 33.8488 135.742 33.7696 135.861 33.7696C135.98 33.6904 136.138 33.6509 136.257 33.5717C135.94 33.2551 135.94 32.8593 135.94 32.3447C136.019 31.9094 136.019 31.5136 136.336 31.1178C136.613 30.8011 136.653 30.3262 137.128 30.0887C137.246 30.0096 137.246 29.6929 137.326 29.495C137.444 29.0597 137.444 28.5055 137.761 28.1493C138.355 28.5451 138.988 28.5451 139.621 28.466C140.65 28.3472 141.679 28.1493 142.748 28.3472C142.827 28.3472 142.946 28.3472 143.025 28.3472C143.46 28.2681 143.856 28.2285 144.331 28.0306C144.727 27.9118 145.123 27.9514 145.439 28.1097C145.558 28.1889 145.637 28.1889 145.756 28.1889C146.152 28.1889 146.35 28.5055 146.587 28.7826C146.904 29.218 146.864 29.5742 146.31 29.8117C145.796 30.0887 145.281 30.3262 144.766 30.6032C144.648 30.6824 144.489 30.8011 144.371 30.8803C145.281 31.3157 146.112 31.3157 146.943 31.0782C147.26 30.9595 147.577 30.9595 147.933 30.9595C148.843 30.8803 149.793 31.5532 150.07 32.4635C150.189 32.8989 150.347 33.453 149.991 33.8883L149.912 33.9675C149.833 34.7591 149.397 35.2736 149.081 35.9069C148.764 36.5402 148.447 37.213 148.052 37.8463C147.537 38.7566 146.904 39.5878 145.993 40.2606C145.875 40.3398 145.796 40.3794 145.677 40.4585C145.281 40.6564 144.846 40.7356 144.529 41.0522C144.212 41.3293 143.896 41.2501 143.54 40.9335C143.46 40.8543 143.421 40.8147 143.342 40.7356C142.313 40.8543 141.402 41.3688 140.492 41.8438C139.661 42.2396 138.75 42.6354 137.919 42.9916C137.642 43.1103 137.484 43.3082 137.128 43.5061C137.009 43.427 136.811 43.427 136.613 43.3082C136.494 43.5061 136.415 43.704 136.217 43.9415C137.009 43.8624 137.761 43.8624 138.473 43.6249C138.909 43.5061 139.384 43.427 139.779 43.3082C140.571 43.1895 141.283 42.9916 142.036 42.8729C142.115 42.8729 142.313 42.7937 142.313 42.8729C142.51 42.9916 142.629 42.9916 142.708 42.7937C142.985 42.2792 143.54 42.3583 143.935 42.2C144.331 42.1209 144.766 42.0813 145.162 41.923C145.558 41.8042 145.993 41.7251 146.389 41.6063C146.825 41.4876 147.379 41.2897 147.537 40.8147C147.854 40.1023 148.17 39.469 148.368 38.7566C148.487 38.3212 148.566 37.7275 148.645 37.213C148.724 36.8172 148.843 36.5797 149.081 36.2235C149.595 36.4214 150.07 36.6193 150.506 36.8172C150.703 36.936 150.901 37.1338 151.099 37.2526C151.178 37.3317 151.218 37.4505 151.376 37.5692C152.207 38.1629 152.682 38.9941 153.236 39.7857C153.672 40.3794 154.226 40.8939 154.78 41.4084C154.978 41.5272 155.097 41.5272 155.215 41.3293C155.295 41.2501 155.295 41.2105 155.334 41.1314C155.611 40.9335 155.532 40.696 155.413 40.4189C155.334 40.3398 155.295 40.221 155.215 40.1419C154.899 39.8252 154.78 39.4295 154.701 38.9941C154.622 38.717 154.582 38.4795 154.424 38.2817C154.503 38.3608 154.622 38.3608 154.701 38.4004C154.82 38.5983 154.978 38.8358 155.018 39.1128C155.136 39.4295 155.334 39.7461 155.651 40.0231C155.928 40.3002 156.086 40.5377 156.363 40.8543C156.482 40.9731 156.561 41.1314 156.68 41.2897C156.957 41.6855 157.194 42.0813 157.511 42.3979C157.788 42.7937 158.105 43.1103 158.421 43.427C158.738 43.7436 159.015 44.1394 159.055 44.6539C159.055 44.8518 159.173 44.9706 159.332 45.0893C159.45 45.2872 159.609 45.4059 159.728 45.5247C160.044 46.0392 160.005 46.5538 159.45 47.0287C158.817 47.6224 158.026 48.0182 157.392 48.4536C157.194 48.5723 156.957 48.3348 156.878 48.5723C156.799 48.7702 156.601 48.7702 156.442 48.7702C156.442 49.0473 156.047 48.9681 156.007 49.166C155.928 49.2451 155.928 49.2847 155.888 49.3639C155.77 49.6409 155.374 49.6409 155.453 49.9972C155.255 50.1951 155.057 50.3138 154.938 50.5117C154.859 50.6304 154.859 50.7887 154.741 50.7887C154.305 50.8679 154.107 51.1845 153.949 51.5803C153.87 51.6991 153.87 51.8574 153.83 51.897C153.711 52.0949 153.434 52.2928 153.514 52.6094C153.514 52.7281 153.316 52.8865 153.197 53.0448C153.276 53.1239 153.395 53.1635 153.395 53.2427C153.395 53.3218 153.395 53.4406 153.316 53.5197C153.197 53.5989 152.999 53.5989 152.88 53.6385C153.197 53.6385 153.593 53.6385 153.988 53.6385C153.909 53.5593 153.87 53.5197 153.711 53.4406C153.791 53.3614 153.83 53.3218 153.909 53.2427C154.503 53.1635 155.018 53.1635 155.73 53.1239C155.453 53.3218 155.334 53.401 155.136 53.5197C155.453 53.5989 155.77 53.4406 155.928 53.7968C156.007 53.8759 156.205 53.9155 156.245 53.8759C156.759 53.7968 157.234 53.7968 157.749 53.7572C158.026 53.7572 158.263 53.5593 158.58 53.678C158.778 53.7572 158.975 53.4801 158.857 53.2822C158.738 53.0052 158.54 52.7677 158.223 52.649C157.828 52.5302 157.511 52.3719 157.115 52.3323C156.601 52.2532 156.086 52.2532 155.572 52.2532C155.849 51.8574 156.205 51.8178 156.601 51.7387C157.194 51.6595 157.709 51.6199 158.303 51.8178C158.936 52.0157 159.609 52.2136 160.242 52.3323C160.757 52.4511 161.271 52.4511 161.786 52.4511C162.102 52.4511 162.379 52.4511 162.617 52.174C162.815 51.9761 163.052 51.897 163.408 51.9761C163.606 52.0553 163.923 52.0553 164.042 51.9761C164.477 51.6595 165.071 51.6595 165.585 51.5408C165.783 51.4616 165.902 51.4616 166.1 51.422C166.219 51.5408 165.902 51.7387 166.219 51.7387C166.337 51.7387 166.535 51.7387 166.496 51.4616C166.496 51.3824 166.575 51.2637 166.614 51.2637C167.05 51.145 167.525 51.0658 167.96 50.9471C168.277 50.8679 168.079 51.145 168.158 51.2637C168.752 51.2637 168.989 50.8283 169.147 50.2346C169.266 50.5117 169.345 50.5513 169.424 50.7492C169.622 50.67 169.82 50.6304 169.939 50.4721C170.058 50.393 170.216 50.2742 170.256 50.2742C170.533 50.3534 170.572 50.2742 170.691 49.9972C170.691 49.918 170.81 49.8784 170.889 49.8784C171.087 49.8784 171.166 50.0763 171.166 50.1951C171.087 50.4721 171.047 50.7096 170.77 50.8283C170.572 50.9471 170.374 51.1054 170.137 51.2637C170.058 51.3429 169.939 51.4616 169.939 51.5408C169.939 51.9366 169.741 52.1344 169.424 52.3323C169.108 52.5302 168.91 52.7677 168.633 53.0448C168.554 53.1239 168.514 53.1635 168.435 53.1635C167.604 53.2823 167.129 53.9947 166.496 54.4696C166.1 54.7467 165.783 54.9842 165.348 55.1821C164.042 55.7758 162.894 56.5278 161.786 57.4381C160.796 58.2297 159.767 58.8629 158.738 59.4566C157.709 60.0899 156.601 60.6044 155.69 61.4752C155.255 61.871 154.701 61.9897 154.147 61.7918C153.514 61.5148 152.92 61.3564 152.287 61.1586C151.772 60.9607 151.297 60.7628 150.783 60.644C149.635 60.367 148.566 59.8524 147.497 59.4171C146.904 59.2192 146.389 59.0213 145.796 58.9817C144.648 58.7838 143.54 58.3484 142.431 57.9922C141.798 57.7151 141.125 57.5568 140.413 57.3985C139.977 57.2798 139.423 57.2798 138.988 57.4777C138.553 57.5964 138.078 57.8735 137.563 57.7547C137.444 57.6756 137.246 57.8339 137.049 57.8735C136.534 57.9922 136.019 58.1901 135.505 58.3088C135.307 58.388 135.188 58.4276 135.07 58.5859C134.872 58.7046 134.753 58.8629 134.476 58.7046C134.397 58.6255 134.199 58.7838 134.08 58.7838C133.249 59.0608 132.457 59.4962 131.864 60.1295C131.666 60.4065 131.428 60.5649 131.032 60.7232C130.637 60.9211 130.32 61.1586 129.924 61.4356C129.489 61.7127 129.014 61.9501 128.618 62.2668C127.787 62.8605 126.797 63.0979 125.768 63.1771C125.57 63.1771 125.373 63.1771 125.135 63.2563C124.621 63.375 124.146 63.1771 123.789 62.8605C123.275 62.4251 122.681 62.0293 122.087 61.6335C121.81 61.5148 121.573 61.2377 121.296 61.119C120.781 60.7232 120.267 60.4857 119.594 60.3274C118.882 60.2086 118.288 59.8129 117.734 59.4962C117.1 59.1796 116.507 58.7046 115.874 58.388C114.567 57.6756 113.222 57.161 111.718 57.2798C111.322 57.2798 111.005 57.3589 110.609 57.2798C110.293 57.2006 109.976 57.5568 109.62 57.3589C109.541 57.3589 109.501 57.3589 109.501 57.3589C109.105 57.5568 108.789 57.5568 108.393 57.2798C108.195 57.161 107.997 57.161 107.76 57.2006C106.968 57.4777 106.137 57.7151 105.306 57.9922C105.187 57.9922 105.108 58.0714 104.989 58.0714C104.791 58.0714 104.593 58.0714 104.475 57.9526C104.356 57.8339 104.475 57.636 104.554 57.4381C104.673 57.2402 104.831 57.1214 104.673 56.8444C104.277 56.0132 104.475 55.1425 104.673 54.3113C104.87 53.5197 104.95 52.8073 104.87 52.0553C104.87 51.7782 104.989 51.5408 105.147 51.3429C105.662 50.6304 105.662 50.5117 105.147 49.6409C104.87 49.7597 104.712 49.9576 104.435 50.0763C104.237 50.1951 104.237 50.3534 104.237 50.5117C104.237 50.7096 104.435 50.7096 104.633 50.5909C104.712 50.5117 104.752 50.5117 104.831 50.5909C104.91 50.5909 104.91 50.7096 104.91 50.7887C104.91 50.8679 104.831 50.9075 104.791 50.9866C104.673 51.1845 104.514 51.3033 104.673 51.5803C104.752 51.6595 104.673 51.8574 104.593 51.8574C104.198 52.0553 104.87 52.2928 104.593 52.4907C104.395 52.6094 104.277 52.8073 104.395 53.0844C104.475 53.2822 104.198 53.401 104.277 53.678C104.356 53.7968 104.198 54.0738 104.158 54.2717C104.039 54.4696 103.881 54.5884 103.762 54.7071C103.564 54.9842 103.446 55.3008 103.169 55.5383C102.654 56.1716 102.179 56.8444 101.467 57.3589C101.387 57.3589 101.387 57.4381 101.348 57.4777C101.071 58.1109 100.438 58.1901 99.923 58.5067C99.8043 58.5859 99.646 58.5859 99.5272 58.5859C98.696 58.6651 97.8253 58.7046 96.9941 58.4672C96.915 58.4672 96.8754 58.388 96.8754 58.4672C96.44 58.7838 96.2421 58.4672 96.0442 58.1505C95.9651 58.0714 95.9255 58.0318 95.7672 57.9526L95.6484 58.0318C95.8463 58.4672 95.4505 58.4276 95.3318 58.3088C94.8173 57.7943 94.184 57.913 93.5903 57.9922C93.3132 57.9922 93.0758 58.0714 92.7987 57.8735C92.68 57.7943 92.4821 57.7547 92.3633 57.7943C91.9675 57.913 91.7696 57.7151 91.6509 57.3985C91.6509 57.3194 91.5322 57.3194 91.5322 57.3194C91.4134 56.9236 91.3343 56.884 91.0968 56.884C90.5823 55.7758 90.6614 54.4696 90.1865 53.3218C90.5031 53.401 90.701 53.4406 90.9781 53.5197C91.0572 53.4406 91.0968 53.401 91.0968 53.3218C91.176 53.0448 91.0176 52.6886 91.5322 52.8073C91.5322 52.7281 91.6113 52.6094 91.6113 52.5302C91.4926 52.4115 91.3343 52.2532 91.2155 52.2136C90.8197 52.0157 90.5031 51.8178 90.1073 51.6199C90.1865 51.422 90.5031 51.6199 90.5031 51.3033C90.5031 51.3033 90.6218 51.2241 90.701 51.2241C91.0176 51.3033 91.2947 51.422 91.6113 51.5012C91.7301 51.5803 91.8884 51.6199 92.0071 51.7782C92.205 51.9761 92.4425 52.0949 92.7987 52.174C93.9465 52.4511 95.1339 52.8865 96.2421 53.3218C97.5482 53.8364 98.8148 53.9155 100.2 53.9155C100.517 53.9155 100.833 53.7968 101.19 53.5989C101.625 53.3218 102.1 53.0844 102.496 52.6886C102.694 52.4907 102.891 52.174 102.931 51.897C103.05 51.3033 103.248 50.7492 103.446 50.1951C103.525 50.0763 103.525 49.918 103.564 49.8784C103.366 49.6805 103.169 49.5618 102.931 49.7597C102.812 49.8784 102.654 49.9576 102.535 50.0367C102.139 50.3534 101.744 50.67 101.308 50.9471C101.11 51.0658 100.873 51.0658 100.675 51.145C100.596 51.145 100.477 51.2241 100.358 51.3429C100.754 51.4616 101.15 51.5408 100.992 51.9761C100.715 52.0949 100.477 52.174 100.2 52.2928C100.121 52.2928 100.081 52.4115 100.081 52.4907C99.9626 52.926 99.646 52.926 99.2897 52.926C98.7752 52.926 98.2607 52.926 97.7461 52.8469C97.5482 52.8469 97.3503 52.7677 97.1524 52.649C96.6379 52.3323 96.1234 52.0553 95.6484 51.6595C95.2526 51.3429 94.8568 50.9471 94.6194 50.5513C94.1048 49.7201 93.709 48.7306 93.3924 47.7016C93.3132 47.4245 93.1945 47.187 93.0758 46.91C92.68 46.1975 92.2842 45.4059 91.6509 44.8518C91.453 45.1685 91.3343 45.5643 91.1364 45.8809C91.0572 45.8017 91.0176 45.683 90.8593 45.4851C90.7802 45.7622 90.7802 45.9205 90.7406 46.2767C90.9385 46.0788 91.0176 45.9601 91.1364 45.8809C91.1364 46.2767 91.0572 46.5933 90.9385 46.91C90.7406 47.3453 90.6218 47.8994 90.5427 48.5327C90.9385 47.7411 90.9781 47.7015 91.2551 47.5432C91.453 47.8203 91.2551 47.9786 91.176 48.1765C91.0968 48.3744 90.8989 48.4931 90.8593 48.691C90.7802 48.8098 90.9385 49.0077 90.8593 49.2056C90.6614 49.9972 90.4239 50.8283 89.7115 51.3429C89.3157 51.6199 89.3157 51.9761 89.2761 52.3719C89.2761 52.4907 89.3553 52.649 89.3949 52.6886C89.6719 52.8073 89.5928 53.0052 89.5136 53.1239C89.3949 53.5197 89.3157 53.8364 89.5136 54.2322C89.5928 54.3509 89.5136 54.628 89.4345 54.8258C89.1178 55.3404 89.1178 55.3404 89.1178 55.9736C88.6825 56.2507 88.1283 56.2507 87.6138 56.1715C86.7035 56.1715 85.7536 56.1715 84.8433 56.0528C84.0121 55.9736 83.2205 55.8549 82.3893 55.7362C81.5582 55.6174 80.8457 55.1425 80.0541 55.0237C79.6583 54.9446 79.2626 54.8258 78.9063 54.7071C78.7876 54.6279 78.5897 54.6279 78.5105 54.5884C78.2335 54.1926 77.9169 54.2717 77.6002 54.3905C77.3232 54.3113 77.6002 53.7968 77.1648 53.9947C77.0857 53.9947 76.9669 53.9947 76.9669 53.9155C76.8878 53.7968 76.8482 53.5197 76.6503 53.5989C76.3733 53.7176 76.3733 53.3218 76.2149 53.401C76.017 53.4801 75.8983 53.401 75.7004 53.4801C75.5817 53.401 75.6212 52.8469 75.265 53.2822C75.0671 53.2031 74.8692 53.2031 74.6713 53.1635C74.4734 53.0844 74.236 53.0844 74.2755 52.7677C74.2755 52.6886 74.1568 52.649 74.0776 52.649C73.4444 52.3719 72.8507 52.1344 72.2174 51.8574C72.0195 51.7782 71.9008 51.6595 71.782 51.5408C71.8612 51.4616 71.8612 51.422 71.8612 51.422C72.1778 51.422 72.4945 51.5012 72.7715 51.3429C73.0486 51.2241 73.3652 51.2637 73.6027 51.2637C73.9193 51.1845 74.236 51.1845 74.5922 51.3429C74.7901 51.4616 75.1067 51.422 75.5025 51.2637C75.2255 51.1845 75.1067 51.1845 74.988 51.145L75.0671 51.0658C75.265 51.0658 75.4629 51.0658 75.5025 50.8679C75.6212 50.5909 75.8191 50.5909 76.017 50.4721C76.7295 50.1555 77.4419 49.8388 78.1543 49.4826C79.6979 48.7702 80.8853 47.6224 82.0331 46.3163C82.6268 45.683 83.0226 44.9706 83.2601 44.179C83.5371 43.1499 83.8538 42.1604 84.2891 41.2105C84.4079 40.9335 84.487 40.6168 84.5662 40.3002C84.6454 40.0231 84.7641 39.7065 84.8828 39.5086C85.3974 38.7962 86.0306 38.2025 86.8222 37.5692C86.6243 38.1629 86.4264 38.5587 86.1098 38.8753C85.3974 39.7065 85.1995 40.696 85.0807 41.7251C85.0807 41.923 85.1599 42.1209 85.1995 42.3188C85.2786 42.3188 85.2786 42.3188 85.3182 42.3188C86.1098 42.1209 86.1098 42.1209 86.5452 41.4876C86.9805 40.8543 87.3763 40.1815 87.8513 39.6273C87.97 39.4295 88.0492 39.192 88.1283 38.9149C88.2075 38.717 88.445 38.5983 88.5637 38.4795C88.6825 38.2817 88.7616 38.0838 88.8804 37.8463C89.474 36.7381 89.8698 35.5111 90.5031 34.482C90.6218 34.2841 90.7802 34.0862 90.8197 33.8883C90.9385 33.6113 90.9385 33.6113 90.8197 33.1759C90.6218 33.3738 90.4239 33.6113 90.1865 33.8883C90.1865 33.6113 90.1073 33.3738 90.1865 33.2551C90.4635 32.6614 90.7802 32.1468 91.0176 31.5532C91.4134 31.9489 91.4134 31.9489 90.8989 32.3447C91.176 32.6218 91.2947 32.6218 91.2947 32.3447C91.4134 31.6323 92.0071 31.1969 92.205 30.4845C92.205 30.4053 92.3238 30.3658 92.3238 30.3658C92.7196 30.4845 92.7591 30.1679 92.8383 29.97C92.957 29.7721 93.0362 29.5346 93.2341 29.1784C92.7987 29.2971 92.4425 29.3763 92.1259 29.4554C91.3343 29.5742 90.8197 30.1679 90.1073 30.4449C89.5136 30.722 88.9991 30.8407 88.3658 30.8407C87.97 30.8407 87.5742 30.8407 87.218 30.8407C86.4264 30.8407 85.714 30.8407 85.0016 31.0386C84.7245 31.1178 84.4079 31.2365 84.0912 30.9595C84.487 30.4449 85.239 30.6428 85.5953 30.0491C85.2786 29.97 85.2786 29.97 84.8037 30.1283C84.9224 29.6929 85.0807 29.218 85.4369 28.8222C86.1494 28.1097 86.5452 27.2786 86.7826 26.2891C86.8618 26.012 86.9805 25.7746 87.218 25.5767C87.6534 25.26 88.0096 24.7851 88.3262 24.4289C88.5241 24.231 88.722 23.9935 88.8408 23.7164C89.1178 23.2811 89.474 23.004 89.949 22.7269C90.2261 22.6082 90.4635 22.4103 90.5823 22.1333C90.8593 21.7375 91.2947 21.5 91.8092 21.3417C92.0071 21.2625 92.2446 21.2625 92.4029 21.4208C92.8383 21.7375 93.2341 21.6979 93.6299 21.3021C93.6299 21.3021 93.7486 21.3021 93.8278 21.2229C93.9069 21.8562 94.3423 22.0145 94.936 22.0541C95.9651 22.1728 96.9545 22.3707 97.9836 22.5686C98.0628 22.5686 98.1024 22.5686 98.1024 22.6478C98.419 23.0436 98.8939 22.9644 99.3293 22.8457C99.6064 22.7665 99.8438 22.7665 100.121 22.8457C100.833 22.9248 101.467 23.1227 102.179 23.1227C102.496 23.1227 102.694 23.3206 102.971 23.3998C103.05 23.3998 103.05 23.5185 103.05 23.5977C103.05 23.7956 103.169 23.7956 103.327 23.7164C103.446 23.6373 103.604 23.5185 103.762 23.3998C103.841 23.5185 103.96 23.6768 104.079 23.7164C104.395 23.9935 104.712 24.3497 105.227 24.1122C105.425 24.0331 105.741 24.1914 105.939 24.1122C106.216 24.0331 106.374 24.1122 106.572 24.3101C106.691 24.3893 106.889 24.3893 107.008 24.3893C107.285 24.3101 107.522 24.2705 107.72 24.4684C107.918 24.6663 108.037 24.5476 108.156 24.3893C108.353 24.1914 108.156 24.0726 108.076 23.9539C107.997 23.8747 107.958 23.8352 107.799 23.8352C107.206 23.756 106.77 23.5185 106.295 23.2019C106.216 23.2019 106.216 23.1227 106.177 23.1227C105.385 22.8457 104.87 22.2916 104.316 21.777C103.723 21.2625 103.169 20.6688 102.575 20.1543C101.783 19.4419 100.833 18.9273 99.8043 18.6503C99.4876 18.5711 99.0918 18.5711 98.7752 18.7294C98.0628 19.0065 97.3503 19.0461 96.5588 18.8482C95.7276 18.6503 94.936 18.8482 94.1444 19.1648C93.9465 19.244 93.7486 19.3627 93.6299 19.4419C93.5111 19.244 93.6299 19.1252 93.709 19.0065C93.9861 18.6898 94.1444 18.3732 94.5006 18.017C94.936 17.5816 95.1339 17.0275 95.411 16.513C95.4901 16.3942 95.4901 16.2359 95.5297 16.1963C96.2421 15.286 96.9546 14.3361 98.0628 13.7424C98.7752 13.4258 99.2897 12.7529 99.8043 12.1988C100.002 11.9218 100.121 11.5655 100.319 11.2093C100.398 11.0906 100.398 10.8927 100.596 10.8927C100.912 10.8927 101.19 10.5761 101.506 10.774C101.783 10.8927 102.1 10.9719 102.417 11.051C102.694 11.051 102.931 11.2489 103.208 11.3677C104.356 12.1592 105.543 12.9904 106.493 14.0986C106.77 14.3757 106.929 14.6132 107.404 14.6923C107.522 14.6923 107.681 14.8902 107.72 14.9694C107.997 15.286 108.314 15.6026 108.551 15.9984C108.749 16.1963 108.868 16.4338 108.987 16.7109C109.185 17.0275 109.303 17.3441 109.818 17.2254C109.937 17.2254 110.134 17.3046 110.214 17.4233C110.649 18.4524 111.559 18.8482 112.549 19.244C112.668 19.3231 112.865 19.3627 113.063 19.521C112.945 19.7981 112.747 19.8376 112.549 19.8376C112.153 19.9564 111.916 20.1147 111.718 20.4709C111.639 20.5897 111.441 20.748 111.322 20.8667C110.887 21.3021 110.412 21.8562 110.095 22.4103C110.016 22.6082 109.818 22.8061 109.699 22.8457C109.185 23.0436 108.868 23.3602 108.551 23.8352C108.828 24.0331 109.145 24.231 109.541 24.1518C110.055 24.4289 110.53 24.231 111.045 24.231C111.48 24.231 111.955 24.1122 112.391 23.9539C112.707 23.8747 113.103 23.756 113.42 23.6373C113.855 23.5185 114.409 23.3206 114.765 23.004C115.201 22.6082 115.755 22.4103 116.388 22.2916C117.18 22.1728 117.892 21.8562 118.644 21.6583C118.723 21.6583 118.763 21.6583 118.842 21.6583C118.763 21.777 118.763 21.9749 118.723 22.0541C118.09 22.6478 117.734 23.479 116.903 23.9143C116.705 24.0331 116.586 24.3497 116.467 24.6268C116.863 24.8247 116.546 25.0621 116.467 25.26C116.388 25.5371 116.269 25.6954 116.19 25.9725C115.992 26.8036 115.399 27.3973 114.844 27.9118L114.765 27.991C114.567 28.6243 113.974 28.8222 113.459 29.1388C113.34 29.2575 113.182 29.4159 113.024 29.5346C113.103 29.6138 113.143 29.6138 113.143 29.6138C113.42 29.6138 113.736 29.2971 113.934 29.5346C114.132 29.8117 114.211 30.1283 114.251 30.4449C114.251 30.6428 114.172 30.8407 114.132 31.0386C114.013 31.3157 113.855 31.474 113.934 31.751C114.251 31.8302 114.528 31.751 114.765 31.6323C115.28 31.3553 115.755 31.1178 116.269 30.8407C116.546 30.722 116.665 30.5241 116.705 30.2075C116.823 29.3763 116.982 28.5055 117.219 27.6744C117.417 26.9619 117.734 26.3287 118.446 25.735C118.367 26.012 118.327 26.1308 118.248 26.1704C117.852 26.764 117.813 27.4765 117.655 28.1889C117.655 28.2681 117.655 28.3076 117.655 28.3076C117.773 28.5847 117.971 28.743 117.932 29.0201C117.892 29.2971 117.852 29.5346 117.813 29.8117C117.813 30.0887 117.813 30.4053 117.734 30.6428C117.734 30.722 117.734 30.7616 117.734 30.7616C117.852 31.2761 117.615 31.7906 117.338 32.1864C117.219 32.3843 117.061 32.5822 117.338 32.8197C117.417 32.8197 117.417 32.8989 117.417 32.9384C117.417 33.3342 116.903 33.8488 116.507 33.8488C116.111 33.8488 115.794 33.9675 115.478 34.0467C115.399 34.0467 115.28 34.0467 115.042 34.0467C115.438 34.3237 115.755 34.4424 116.032 34.5612C116.546 34.8778 116.744 35.2736 116.626 35.8673C116.546 36.1444 116.507 36.3027 116.23 36.3818C116.111 36.461 116.032 36.5006 115.913 36.5797C115.478 36.461 115.201 35.986 115.003 35.5903C114.805 35.2736 114.686 34.8778 114.409 34.6008C114.33 34.5216 114.33 34.4029 114.29 34.2841C114.092 34.2841 113.974 34.3633 113.855 34.3633C113.657 34.3633 113.538 34.4424 113.459 34.6799C113.459 34.7987 113.34 34.8778 113.182 34.957C113.103 35.0361 112.905 34.7591 112.905 35.0361C112.905 35.1153 113.024 35.3132 113.103 35.3132C113.42 35.4319 113.301 35.6298 113.38 35.8277C113.499 36.1444 113.776 36.461 114.013 36.7381C114.29 37.0151 114.449 37.3317 114.528 37.6484C114.647 38.1629 114.924 38.6774 115.24 39.0732C115.438 39.2711 115.557 39.5086 115.636 39.8648C115.636 39.9836 115.755 40.1419 115.913 40.2606C116.428 40.9731 116.428 41.7646 116.032 42.5166C115.834 42.952 115.399 43.2291 115.003 43.3478C114.567 43.4666 114.29 43.7436 114.092 44.1394C113.776 44.7331 113.459 45.2872 113.103 45.8809C113.024 45.9996 113.024 46.158 112.984 46.2767C112.905 46.4746 112.905 46.6725 112.786 46.7121C112.391 47.1079 112.272 47.6224 111.797 48.0182C111.718 48.0973 111.678 48.2161 111.52 48.3348C111.203 48.8494 110.728 49.0472 110.174 48.9285C109.976 48.8494 109.857 48.8494 109.66 48.8494C109.105 49.0077 109.026 49.166 109.026 49.166C108.63 48.9681 108.235 49.0473 107.72 49.166C107.839 49.2847 107.918 49.3639 107.997 49.443C108.076 49.5222 108.116 49.5222 108.195 49.5222C108.274 49.5222 108.314 49.5222 108.393 49.443C108.591 49.3639 108.789 49.2847 109.026 49.166ZM105.068 48.6515C105.345 48.4536 105.583 48.3348 105.899 48.5723C106.097 48.691 106.335 48.6515 106.533 48.691C106.731 48.3744 106.731 48.0973 106.731 47.8599C106.731 47.662 106.731 47.4641 106.533 47.4245C106.414 47.4245 106.256 47.5037 106.137 47.6224C105.939 47.7411 105.741 47.8995 105.543 48.0182C105.345 48.0973 105.147 48.3744 105.068 48.6515C104.95 48.8494 104.87 49.0473 104.673 49.166C104.395 49.3639 104.395 49.6014 104.554 49.9972C104.95 49.5222 105.068 49.0868 105.068 48.6515ZM102.298 27.9118C102.021 27.8327 101.783 27.7931 101.467 27.714C101.387 27.714 101.269 27.714 101.19 27.714C100.556 27.991 100.042 28.5055 99.3689 28.743C99.2897 28.8222 99.2502 28.8618 99.171 28.9409C99.0918 29.0597 98.9731 29.218 98.8939 29.3367C98.7752 29.4554 98.5773 29.4554 98.4586 29.6138C98.5377 29.7325 98.5377 29.8117 98.5773 29.9304C98.4586 29.9304 98.3003 29.9304 98.2607 29.8512C97.944 29.7325 97.7461 29.7721 97.5482 30.0491C96.8358 30.7616 96.5192 31.3948 96.3213 32.5822C96.3213 32.6614 96.2421 32.701 96.2025 32.7801C96.0838 32.8989 95.8859 33.0967 95.7672 33.2155C95.9651 33.3342 96.163 33.4925 96.3609 33.6113C96.44 33.6904 96.5588 33.6904 96.6379 33.6904C96.915 33.5717 97.2316 33.4134 97.4295 33.2551C97.5482 33.1363 97.5087 32.8593 97.5482 32.6614C97.5482 32.5822 97.5482 32.5426 97.6274 32.4635C97.7461 31.9489 97.6274 31.5532 97.3108 31.1574C97.4295 31.0782 97.6274 31.0386 97.7066 30.9595C97.9045 30.8407 98.0232 30.7616 98.3003 30.7616C98.7356 30.6824 98.8939 30.9595 99.1314 31.1969C99.3293 31.474 99.4085 31.7115 99.2502 31.9885C99.171 32.2656 99.0523 32.5031 99.1314 32.7801C99.9626 32.8989 100.477 32.2656 100.477 31.6719C100.477 31.2761 100.398 30.8407 100.279 30.4449C100.081 30.0096 100.081 29.5346 100.081 29.0992C100.794 28.8222 101.427 28.5847 102.1 28.3076C102.179 28.1097 102.298 28.0306 102.298 27.9118C102.417 27.9118 102.575 27.991 102.614 27.991C102.733 27.991 102.931 27.9118 102.931 27.714C102.931 27.5161 102.733 27.5161 102.535 27.5161C102.417 27.5161 102.298 27.6348 102.298 27.9118ZM141.363 43.7832C141.442 43.7832 141.481 43.8624 141.561 43.8624C141.561 43.9415 141.561 44.0602 141.481 44.0602C141.046 44.179 141.165 44.7727 140.769 44.8914C140.769 44.8914 140.769 45.0102 140.848 45.0893C140.927 45.2872 140.927 45.5247 140.967 45.7226C141.006 45.9205 141.046 46.1184 140.967 46.3163C140.848 46.7121 140.769 47.0287 140.967 47.4245C141.046 47.5432 140.967 47.7016 140.967 47.8203C140.888 48.4536 140.888 49.166 140.69 49.7597C140.611 50.0367 140.809 50.4721 140.373 50.5513V50.67C140.769 50.7492 140.492 51.1054 140.69 51.2637C140.492 51.5803 140.69 51.897 140.69 52.2532C140.69 53.0448 140.769 53.0448 141.481 53.1635C141.6 53.1635 141.758 53.1635 141.877 53.1635C141.758 52.4511 142.273 52.1344 142.669 51.6595C142.273 51.2637 142.273 51.2637 142.392 50.67C142.471 50.3534 142.51 49.9576 142.471 49.5618C142.392 49.2451 142.471 48.9285 142.55 48.5723C142.55 48.2952 142.629 47.9786 142.55 47.7411C142.471 47.4641 142.471 47.3058 142.669 47.1079C142.867 46.91 142.788 46.7121 142.788 46.4746C142.708 45.8809 142.392 45.3664 142.51 44.7331C142.51 44.6144 142.431 44.4165 142.431 44.2977C142.154 44.2186 141.917 44.2186 141.6 44.179C141.719 43.8623 141.798 43.5853 141.877 43.3478C141.758 43.3478 141.561 43.3478 141.442 43.3478C141.363 43.5061 141.442 43.6645 141.363 43.7832C141.046 43.704 140.729 43.9019 140.452 44.0998C140.334 44.179 140.334 44.3769 140.452 44.4165C140.531 44.5352 140.769 44.4956 140.769 44.4165C140.69 44.2186 140.848 44.0998 140.888 44.0207C141.046 43.9811 141.244 43.8228 141.363 43.7832ZM105.266 39.0337C105.385 38.9545 105.543 38.9545 105.662 38.9149C106.097 38.5983 106.493 38.2025 106.968 37.8067L107.047 37.7275C106.731 37.4109 107.166 37.3317 107.245 37.213C107.443 36.936 107.681 36.6985 107.878 36.5006C107.681 36.1839 107.562 35.9069 107.443 35.6694C107.245 35.2736 107.364 34.8382 107.443 34.4424C107.522 34.2446 107.562 34.0071 107.562 33.8092C107.483 33.6113 107.562 33.4134 107.641 33.2155C107.76 32.5822 107.918 31.9885 108.274 31.3948C108.472 31.0782 108.393 30.9595 108.076 30.6824C107.562 30.247 107.047 29.97 106.374 29.7721C106.058 29.6929 105.781 29.5742 105.781 29.1784C105.781 28.9013 105.583 28.7826 105.385 28.7826C104.989 28.7034 104.752 28.5055 104.554 28.1889C104.673 28.1097 104.752 28.0702 104.87 28.0702C104.475 27.7931 104.079 27.991 103.643 28.0702C103.841 28.1889 103.96 28.3868 104.079 28.3868C104.593 28.3868 104.593 28.7826 104.593 29.0992C104.673 29.4159 104.593 29.7325 104.277 29.9304C104 30.0491 103.762 30.3262 103.762 30.7616C103.881 30.7616 104.039 30.6824 104.158 30.6824C104.87 30.5637 105.504 30.4845 106.216 30.3658C106.493 30.2866 106.612 30.4449 106.652 30.6428C106.77 30.9199 106.77 31.1574 106.572 31.4344C106.454 31.5532 106.374 31.8302 106.295 32.0281C106.216 32.1468 106.216 32.3447 106.097 32.4239C105.781 32.701 105.899 32.9384 105.899 33.2551C105.899 33.3738 105.979 33.5321 105.899 33.5717C105.702 33.8883 105.464 34.2841 105.187 34.5612C104.91 34.7591 104.554 34.8382 104.198 34.9966C104.118 34.9966 104.079 34.9966 104.079 35.0757C103.802 35.1945 103.762 35.3528 103.762 35.5903C103.762 35.7881 104.039 35.9069 103.881 36.1839C103.762 36.461 103.802 36.6985 104 36.8964C104.079 36.9755 104.118 37.1734 104.079 37.213C103.802 37.5296 104 37.9254 103.881 38.2421C104.316 38.5983 104.95 38.4795 105.266 39.0337ZM91.2947 43.5853C91.5718 43.5853 91.8092 43.6645 92.0071 43.5853C92.4425 43.3874 92.9175 43.1895 93.3528 42.8729C93.9465 42.4771 94.5798 42.2396 95.2131 41.8834C95.411 41.8042 95.6089 41.8042 95.8067 41.8042C96.6379 41.8042 96.6379 41.923 96.6379 40.8939C96.6379 40.696 96.6379 40.4981 96.5588 40.3794C96.3609 39.8648 96.4796 39.3899 96.8358 39.0337C97.0337 38.8358 97.1525 38.6379 97.0337 38.3212C96.8358 38.44 96.6379 38.5191 96.5192 38.6379C96.44 38.717 96.2421 38.7566 96.2421 38.7566C95.9255 38.4795 95.6484 38.8358 95.411 38.8358C95.2131 38.8358 95.0943 38.9545 94.9756 39.2316C94.8568 39.5086 94.5798 39.7461 94.3819 39.8252C94.0653 39.9044 93.8674 40.1023 93.6695 40.2606C93.3924 40.5377 93.3528 40.8939 92.8383 40.8939C92.7196 40.8939 92.0467 42.0021 92.1259 42.1209C92.205 42.3979 92.0467 42.5166 92.0071 42.7145C91.928 42.9124 91.8884 43.1499 91.8092 43.3478C91.6905 43.2291 91.6113 43.0708 91.4926 43.0312C91.4134 43.1895 91.3343 43.3874 91.2947 43.5853ZM105.741 45.5247C106.058 45.2476 106.256 45.0102 106.454 44.931C106.77 44.8518 107.047 44.8123 107.047 44.4165C107.483 44.0998 107.878 43.704 108.353 43.427C108.868 43.2291 109.145 42.8333 109.264 42.3979C109.264 42.3188 109.343 42.2792 109.382 42.2C109.897 41.3688 109.976 40.3794 110.214 39.469C110.332 39.1524 110.016 38.7566 109.62 38.8753C109.422 38.9545 109.303 38.9545 109.105 38.9941C108.591 39.192 108.076 39.3899 107.601 39.5878C107.483 39.6669 107.324 39.7065 107.206 39.8648C106.889 40.2606 106.612 40.5773 106.374 40.9731C106.256 41.1709 106.256 41.2897 106.454 41.4876C106.652 41.0918 107.166 41.2105 107.364 40.8543C107.364 40.8543 107.483 40.7752 107.562 40.8543C107.681 40.9335 107.839 40.9335 107.878 40.7752C107.958 40.696 108.076 40.5773 108.195 40.5773C108.314 40.4981 108.512 40.6564 108.63 40.5773C108.749 40.4981 108.828 40.3794 108.947 40.1815C109.145 41.3293 108.868 41.7251 107.918 42.2C107.324 42.4771 106.81 42.7937 106.295 43.0312C106.177 43.1103 105.979 43.3082 105.979 43.427C105.939 44.0998 105.86 44.7331 105.741 45.5247ZM147.062 44.4956C146.983 44.7727 146.983 44.931 146.943 45.208C146.943 45.5247 146.864 45.8413 147.023 46.1975C147.141 46.5142 146.706 46.8308 146.706 47.187C146.706 47.3058 146.785 47.5037 146.785 47.6224C146.706 47.939 147.062 48.2557 146.706 48.5327C146.429 49.6409 146.271 50.7492 145.993 51.8178C145.914 52.0949 145.875 52.3323 145.993 52.6094C146.112 52.8865 146.073 53.0052 145.796 53.1239C145.677 53.2031 145.677 53.401 145.875 53.4406C146.073 53.4801 146.271 53.5197 146.389 53.3614C146.508 53.2427 146.666 53.0448 146.706 52.8469C146.825 52.5698 146.983 52.2532 147.102 52.0157C147.418 51.3824 147.616 50.7096 147.695 49.9972C147.814 49.166 147.893 48.2557 148.012 47.4245C148.012 47.2266 148.091 47.0287 148.329 47.0287C148.527 47.0287 148.447 46.8308 148.447 46.7516C148.329 46.0392 148.131 45.3268 148.012 44.5352C147.695 44.4956 147.379 44.4956 147.062 44.4956ZM137.207 34.0071C137.603 34.205 137.919 34.4029 138.315 34.6008C138.394 34.6799 138.513 34.6799 138.632 34.6008C138.83 34.5216 139.027 34.482 139.225 34.4029C140.057 34.0862 140.848 33.7696 141.679 33.4134C141.996 33.2946 142.471 33.2946 142.669 32.8989C142.669 32.8197 142.867 32.8197 142.946 32.8197C143.144 32.7405 143.262 32.7405 143.46 32.6218C143.737 32.4239 143.975 32.226 144.252 32.0281C144.252 31.9489 144.252 31.9094 144.252 31.8302C144.173 31.7115 144.133 31.5532 144.054 31.5136C143.935 31.2365 143.777 31.2365 143.54 31.3157C143.144 31.5136 142.827 31.6323 142.431 31.8302C142.51 31.9094 142.55 31.9489 142.629 31.9489C142.55 32.0281 142.51 32.0677 142.431 32.1468C142.352 32.1468 142.313 32.226 142.313 32.1468C141.996 31.9489 141.6 32.0677 141.284 32.0677C140.848 32.0677 140.452 32.1864 139.977 32.2656C139.463 32.3447 139.067 32.4635 138.75 32.7801C138.671 32.8593 138.553 32.8593 138.473 32.8989C138.196 32.978 138.038 33.1759 137.84 33.2946C137.523 33.5321 137.405 33.73 137.207 34.0071ZM136.376 53.7968C136.969 53.7176 137.484 53.5197 137.998 53.678C138.078 53.678 138.117 53.678 138.117 53.5989C138.196 53.5197 138.236 53.5197 138.236 53.4801C138.157 53.401 138.117 53.3614 138.117 53.3614C137.84 53.3614 137.523 53.5593 137.326 53.0844C137.326 53.0844 137.128 53.0844 137.049 53.0844C136.969 53.0844 136.851 53.0844 136.851 53.0052C136.771 52.8865 136.732 52.6886 136.574 52.5698C136.494 52.4511 136.257 52.4907 136.178 52.2928C136.099 52.0949 136.059 51.897 136.257 51.6991C136.336 51.6199 136.336 51.422 136.376 51.3824C136.376 51.3033 136.455 51.2637 136.494 51.2637C136.89 51.3429 136.811 50.9866 136.811 50.8283C136.811 50.7096 136.732 50.6304 136.613 50.7096C136.534 50.7096 136.494 50.7096 136.415 50.7887C136.494 50.7096 136.494 50.67 136.534 50.5909C136.969 50.3138 136.969 50.2742 136.811 49.7993C136.692 49.918 136.613 49.9972 136.376 50.2346C136.574 49.6409 136.376 49.2056 136.969 49.0077C137.049 49.0077 137.049 48.8098 137.049 48.7306C137.049 48.5327 136.851 48.6515 136.771 48.6119C136.653 48.1765 136.653 47.7807 136.89 47.3849C136.969 47.2662 136.969 47.0683 136.969 46.9495C136.969 46.6725 136.851 46.6329 136.653 46.6725C136.217 46.8704 135.742 47.0683 135.307 47.3058C134.872 47.5037 134.872 47.6224 134.99 48.0973C135.109 48.5723 135.307 49.0077 135.426 49.5222C135.505 49.7201 135.544 49.918 135.544 50.1159C135.544 50.5513 135.544 50.9471 135.544 51.422C135.544 51.6199 135.624 51.8178 135.742 52.0157C136.059 52.5698 136.376 53.0844 136.376 53.7968ZM140.254 38.0046C140.334 38.0838 140.373 38.0838 140.373 38.1233C140.571 38.4004 140.69 38.4004 140.809 38.2025C141.006 38.0046 141.204 37.8067 141.204 37.4901C141.283 37.1734 141.402 36.7776 141.481 36.461C141.561 36.1839 141.6 35.9465 141.561 35.6298C141.244 35.8277 141.046 35.9465 140.769 36.0652C140.334 36.3818 139.859 36.6985 139.423 37.0943C138.909 37.5296 138.394 38.0046 137.88 38.5191C137.682 38.717 137.563 38.9545 137.682 39.3107C137.88 39.6274 137.998 40.0231 138.196 40.3398C138.79 40.1419 139.305 39.8252 139.7 39.3503C140.017 39.0337 140.215 38.6379 140.017 38.1233C140.175 38.2025 140.175 38.1233 140.254 38.0046ZM101.823 39.8252C101.625 39.4295 101.387 39.1128 101.19 38.717C100.873 38.2025 100.596 37.6088 100.279 37.0943C100.16 36.8172 99.8834 36.7776 99.4876 36.8964C99.2106 36.9755 99.171 37.1734 99.171 37.5296C99.2897 37.4109 99.4481 37.3317 99.5668 37.213C99.6855 37.8067 99.4876 38.2421 99.3689 38.717C98.9731 39.7461 99.2502 40.7752 99.2502 41.8834C100.279 41.3293 101.11 40.5377 101.823 39.8252ZM101.387 48.3744C101.506 48.3744 101.665 48.4536 101.783 48.4536C102.377 48.2557 102.812 47.8203 103.287 47.4245C103.366 47.3453 103.366 47.2266 103.406 47.1474C103.604 46.5142 103.723 45.8413 103.921 45.208C103.921 45.1289 104 45.0102 103.921 44.8914C103.921 44.8123 103.802 44.6935 103.723 44.8123C103.643 44.931 103.525 45.0102 103.406 45.0893C103.208 45.208 102.971 45.3664 102.812 45.5247C102.298 46.2371 101.665 46.7516 100.992 47.2662C100.596 47.5432 100.596 47.7807 100.794 48.2557C100.912 48.4536 101.11 48.4536 101.387 48.3744ZM119.515 52.4511C119.317 52.8469 119.238 52.8469 119.396 52.9656C119.673 53.2823 119.792 53.5989 120.109 53.8759C120.702 54.2717 121.256 54.7071 121.969 54.8654C122.246 54.9446 122.404 55.0633 122.681 55.1425C122.998 55.2612 123.473 55.1425 123.591 54.8258C123.591 54.7467 123.591 54.7071 123.512 54.628C123.433 54.5488 123.394 54.5488 123.314 54.5092C122.8 54.3905 122.325 54.3113 122.008 53.8759C121.929 53.7572 121.731 53.7572 121.573 53.678C121.692 53.5989 121.771 53.5593 121.85 53.4801C121.652 53.1635 121.454 53.0448 121.058 52.9656C120.544 52.8469 120.029 52.649 119.515 52.4511ZM108.63 30.247C109.066 30.7616 109.462 31.2365 109.778 31.5927C109.857 31.6719 109.897 31.7115 109.976 31.7115C110.491 31.8302 111.084 31.9094 111.599 31.7906C111.599 31.474 111.599 31.2761 111.401 30.999C111.124 30.6824 111.282 30.4845 111.678 30.2075C111.876 30.0887 111.995 30.0096 111.995 29.7721C111.203 29.6533 111.005 29.6533 110.372 29.8908C110.174 29.97 110.055 30.0096 109.857 30.0096C109.541 30.1679 109.145 30.1679 108.63 30.247ZM107.72 39.1128C108.551 38.8358 109.066 38.5191 109.541 37.965C109.62 37.8463 109.818 37.7671 109.976 37.688C110.372 37.5692 110.609 37.3713 110.887 37.0943C111.005 36.9755 111.084 36.5006 111.005 36.3818C110.728 36.0652 110.372 35.9465 110.016 36.1048C109.818 36.1839 109.58 36.3027 109.422 36.5006C108.987 36.8964 108.591 37.4109 108.314 38.0046C108.235 38.0838 108.235 38.1233 108.235 38.2025C108.314 38.3212 108.353 38.4004 108.433 38.5191C108.314 38.5983 108.156 38.5983 108.116 38.6379C107.997 38.6379 107.918 38.8358 107.72 39.1128ZM104.158 41.8438C103.96 41.9625 103.841 42.0417 103.723 42.1209C103.129 42.7145 102.377 43.0312 102.021 43.8228C101.506 44.3373 100.992 44.8123 100.477 45.2476C100.398 45.3268 100.279 45.3664 100.398 45.5247C100.477 45.6038 100.596 45.5247 100.675 45.5247C101.19 45.208 101.704 44.8914 102.219 44.4956C102.417 44.3769 102.654 44.2186 102.852 44.0602C103.129 43.8624 103.287 43.6645 103.643 43.5457C104.039 43.427 104.158 43.1499 104.356 42.9124C104.514 42.5562 104.316 42.2 104.158 41.8438ZM110.728 35.234C110.926 35.3528 111.164 35.4319 111.164 35.7486C111.164 35.9465 111.282 35.9465 111.441 35.8673C111.52 35.8673 111.639 35.7881 111.718 35.7486C111.916 35.6298 111.995 35.3528 111.836 35.0361C111.718 34.7591 111.52 34.8382 111.322 34.9174C111.164 35.0361 110.926 34.957 110.728 35.234ZM91.0968 43.2687C91.2947 42.952 91.6113 42.6354 91.4134 42.1209C91.2155 42.2396 90.9781 42.3188 90.8989 42.5562C90.8197 42.8729 90.9385 42.9916 91.0968 43.2687ZM102.733 26.8036C102.535 26.7245 102.337 26.6849 102.139 26.6057C101.862 26.5266 101.823 26.6849 101.823 26.9224C101.823 27.0015 101.823 27.0411 101.902 27.1994C102.219 27.1203 102.535 27.239 102.733 26.8036ZM145.123 53.3614C144.687 53.0448 144.331 53.0448 143.896 53.2822C144.094 53.2822 144.173 53.3614 144.292 53.3614C144.529 53.3614 144.806 53.3614 145.123 53.3614ZM92.1259 30.7616C91.8092 31.0782 91.7301 31.3553 91.8092 31.6719H91.8884C92.1654 31.5532 92.0071 31.2761 92.1654 31.0782C92.205 30.999 92.1259 30.9595 92.1259 30.7616ZM93.7882 55.9341C93.9861 56.0132 94.1048 56.0132 94.3027 56.0528C94.3819 56.0528 94.4215 55.9736 94.4215 55.9736C94.4215 55.9736 94.4215 55.8549 94.3423 55.8549C94.184 55.8153 93.9861 55.6174 93.7882 55.9341ZM115.715 47.2266C115.794 47.3058 115.834 47.3453 115.913 47.3453C115.992 47.3453 116.032 47.3453 116.111 47.3453C116.111 47.3453 116.19 47.2266 116.111 47.2266C116.032 47.1474 115.992 47.1474 115.913 47.1474C115.913 47.1474 115.834 47.2266 115.715 47.2266Z" fill="white"/>
<path d="M135.584 30.2866C135.149 30.8012 134.555 31.1969 133.961 31.5927C133.763 31.7115 133.645 31.8698 133.684 32.1864C133.763 32.5822 133.407 33.0176 132.972 33.0176C132.339 33.0176 131.982 33.453 131.745 33.8488C131.666 33.9675 131.626 34.1258 131.547 34.2446C131.547 34.4425 131.943 34.2446 131.824 34.5216C131.705 34.7987 131.428 34.957 131.23 35.1549C131.151 35.234 131.112 35.2341 131.032 35.2341C130.716 35.0362 130.439 35.3528 130.201 35.4319C130.003 35.5111 130.003 35.709 130.122 35.8673C130.399 36.2631 130.399 36.2631 130.122 36.461C129.845 36.7381 129.687 37.0547 129.212 36.9755C129.133 36.9755 128.935 37.0943 128.895 37.1734C128.697 37.4901 128.46 37.688 128.064 37.7671C128.341 38.3608 127.747 38.4004 127.549 38.7962C126.956 38.8754 126.402 39.192 125.729 38.8754C125.65 38.7962 125.531 38.7962 125.452 38.7566C125.016 38.3608 124.462 38.0442 124.027 37.6484C123.829 37.4505 123.591 37.3318 123.394 37.0547C123.275 36.8568 123.077 36.7776 122.8 36.7381C122.483 36.6589 122.206 36.3423 121.89 36.3027C121.573 36.184 121.296 35.9861 121.098 35.709C120.979 35.5111 120.781 35.3924 120.583 35.3132C120.267 35.1945 119.95 34.9966 119.594 34.7987C119.277 34.6008 118.882 34.6008 118.486 34.482C118.169 34.4029 117.892 34.482 117.655 34.205C118.367 33.8092 119.159 33.7696 119.911 33.4134C121.058 32.8989 122.167 32.3843 123.156 31.6719C123.433 31.474 123.671 31.2761 123.869 31.0386C124.462 30.247 125.175 29.6138 125.887 28.9805C126.52 28.466 127.114 27.8327 127.589 27.1203C127.866 26.7245 128.104 26.3287 128.381 25.9725C128.658 25.5767 128.816 25.1413 129.014 24.7455C129.212 24.4289 129.33 24.0331 129.449 23.7164C129.885 22.727 130.597 22.0937 131.507 21.5792C131.587 21.5792 131.587 21.5792 131.705 21.5792C131.626 21.7771 131.507 21.9749 131.428 22.0937C131.23 22.3707 131.112 22.6082 130.914 22.8853C130.795 23.1623 130.637 23.3998 130.716 23.7164C130.716 23.9935 130.795 24.231 131.032 24.3497C131.27 24.4685 131.547 24.5476 131.824 24.2706C132.101 24.0727 132.339 23.9539 132.418 23.5581C132.497 23.3602 132.695 23.2415 132.813 23.1227C133.328 22.727 133.803 22.2916 134.159 21.7771C134.278 21.5 134.595 21.6583 134.753 21.5C135.07 21.1042 135.544 21.0646 135.861 20.6688C136.455 20.0751 137.009 19.521 137.603 18.9273C137.998 18.5315 138.394 18.0962 138.948 17.9378C139.067 17.8587 139.265 17.74 139.384 17.6212C139.819 17.1858 140.215 16.6317 140.69 16.1964C140.809 15.9985 141.006 15.8797 141.204 15.761C141.798 15.3256 142.431 15.4443 143.025 15.4839C143.342 15.5631 143.619 15.6027 143.935 15.761C144.212 15.8797 144.45 15.9589 144.569 16.2755C144.648 16.4734 144.846 16.5921 145.004 16.7109C146.152 17.5421 147.062 18.6503 147.933 19.7585C148.131 20.0356 148.131 20.3522 148.249 20.5897C148.329 20.7876 148.329 20.9855 148.447 21.1042C148.843 21.5 149.041 21.9354 149.358 22.3312C149.437 22.4103 149.437 22.4103 149.437 22.4499C149.556 22.6478 149.635 22.8853 149.753 23.0832C149.872 23.2811 150.07 23.479 150.347 23.5977C150.743 23.8748 151.06 24.1914 151.376 24.508C152.405 25.4184 153.514 26.3287 154.622 27.239C155.215 27.7535 155.849 28.2285 156.442 28.6639C156.522 28.6639 156.522 28.743 156.561 28.743C156.68 28.8222 156.838 28.8222 156.878 28.6639C156.957 28.5847 156.957 28.3868 156.878 28.3472C156.561 28.0306 156.244 27.6348 155.77 27.4369C155.69 27.4369 155.651 27.3577 155.572 27.3577C155.057 27.1599 154.74 26.8432 154.661 26.2495C154.859 26.3683 154.978 26.5266 155.097 26.5662C155.413 26.7641 155.73 26.8828 156.007 27.0807C156.403 27.2786 156.838 27.4765 157.234 27.7931C158.065 28.4264 158.936 29.218 159.688 29.9304C159.886 30.1283 160.084 30.247 160.202 30.5241C160.717 31.4344 161.548 32.0281 162.221 32.7801C162.538 33.0968 162.933 33.2155 163.329 33.3738C163.765 33.5717 164.24 33.8883 164.556 34.205C164.992 34.7195 165.664 34.9966 166.258 35.3132C166.337 35.3132 166.377 35.3924 166.377 35.3924C166.971 35.3132 167.366 35.709 167.802 35.9069C169.029 36.6193 170.256 37.0547 171.641 37.4109C171.76 37.4109 171.839 37.4901 172.037 37.5297C171.839 37.6088 171.76 37.6484 171.72 37.7276C170.216 38.1233 168.87 38.6379 167.445 39.2316C167.168 39.3503 166.852 39.4295 166.614 39.5482C166.496 39.6274 166.931 39.6669 166.693 39.8253C166.496 39.9044 166.258 39.9044 165.981 39.944C165.862 39.944 165.704 39.8648 165.585 39.944C165.189 40.1419 164.873 40.1419 164.477 39.944C164.398 40.2211 164.398 40.4585 164.596 40.5773C164.675 40.5773 164.675 40.6564 164.675 40.696C164.358 40.7752 164.279 41.0126 164.279 41.2897C164.2 41.5668 164.081 41.6063 163.883 41.6855C163.448 41.9626 162.973 41.9626 162.538 42.2792C162.261 42.4771 161.944 42.3583 161.627 42.1604C160.994 41.7647 160.321 41.3689 159.688 41.0126C159.055 40.5773 158.461 39.9836 157.867 39.469C157.551 39.192 157.274 38.8754 156.957 38.6379C156.878 38.5587 156.68 38.44 156.68 38.3608C156.759 37.965 156.403 37.9255 156.244 37.7276C155.849 37.2922 155.413 36.8964 155.018 36.4214C154.424 35.8277 153.909 35.1945 153.276 34.6799C152.445 33.9675 151.574 33.1363 150.822 32.3448C150.624 32.1469 150.387 32.0281 150.189 31.8302C149.912 31.5532 149.595 31.3948 149.397 31.1178C148.962 30.6824 148.487 30.2866 148.091 29.6929C147.814 29.3763 147.379 29.1784 147.26 28.7034C147.181 28.6243 147.062 28.5847 146.943 28.5847C146.627 28.5055 146.31 28.3077 146.112 28.0702C145.914 27.7931 145.716 27.6744 145.479 27.5556C145.162 27.4369 144.885 27.239 144.648 27.0411C143.817 26.6057 142.946 26.1308 142.075 25.8141C141.877 25.735 141.679 25.8141 141.481 25.8933C140.848 26.2891 140.175 26.6057 139.542 27.0015C138.909 27.3973 138.236 27.8327 137.603 28.2285C137.523 28.3077 137.484 28.4264 137.405 28.5451C137.088 28.6639 136.771 28.8222 136.415 28.9805C136.019 29.1784 135.782 29.5742 135.782 30.0096C135.782 30.0491 135.663 30.1679 135.584 30.2866ZM137.8 19.4814C137.88 19.5606 137.88 19.5606 137.919 19.6002C138.196 19.3231 138.513 19.1648 138.632 18.769C138.394 18.9669 138.038 19.2044 137.8 19.4814ZM127.668 29.5742C127.589 29.495 127.589 29.495 127.549 29.4555C127.352 29.5742 127.154 29.6534 127.114 30.0491C127.431 29.8512 127.549 29.7325 127.668 29.5742Z" fill="white"/>
<path d="M117.892 27.4369C118.604 26.8036 119.119 26.8432 119.634 27.4369C119.752 27.5556 119.752 27.7139 119.713 27.8723C119.515 28.6639 119.317 29.3763 119.198 30.1283C119.119 30.4449 119.198 30.722 119.198 31.1178C119.831 30.722 120.029 30.0887 120.504 29.6138C120.94 29.1784 121.335 28.7034 121.85 28.2681C121.731 28.1493 121.652 28.0702 121.533 27.9514C121.217 27.6348 120.94 27.239 120.623 26.9224C120.227 26.4078 119.99 25.7746 119.396 25.3788C119.594 25.26 119.792 25.2996 119.911 25.4579C120.227 25.7746 120.623 26.1704 120.9 26.5661C121.296 27.1598 121.731 27.6744 122.404 27.991C122.721 28.1889 122.721 28.2681 122.523 28.6243C122.325 28.9805 122.008 29.2575 121.692 29.5346C121.058 30.1283 120.346 30.5241 119.99 31.3553C119.713 31.5532 119.475 31.751 119.159 31.9489C119.04 32.0281 118.842 31.8698 118.644 31.8302C118.565 30.9199 118.565 30.0887 118.921 29.2971C119 29.1784 119 28.9805 119 28.8617C119.079 27.7139 119 27.6348 117.892 27.4369Z" fill="white"/>
<path d="M100.556 52.1345C100.675 52.1345 100.873 52.1345 100.992 52.1345C101.19 52.2136 101.387 52.2136 101.585 52.3324C101.664 52.3324 101.664 52.5303 101.664 52.6094C101.585 52.6094 101.546 52.6886 101.467 52.6886C101.11 52.5303 100.794 52.3719 100.556 52.1345Z" fill="white"/>
<path d="M172.907 49.4826C172.71 49.6014 172.512 49.6805 172.195 49.8784C172.314 49.4035 172.71 49.6014 172.907 49.4826Z" fill="white"/>
<path d="M135.584 30.2866C135.663 30.1679 135.782 30.0096 135.861 29.8908C135.98 29.7721 136.138 29.6929 136.257 29.5742C136.099 29.97 135.98 30.247 135.584 30.2866Z" fill="white"/>
<path d="M154.384 38.6379C154.266 38.3608 154.107 38.2025 153.988 37.9254C154.266 38.0837 154.463 38.3212 154.384 38.6379Z" fill="white"/>
<path d="M88.7616 36.6589C88.6824 36.738 88.6428 36.7776 88.6428 36.8568C88.5637 36.7776 88.5241 36.738 88.5241 36.738C88.5241 36.6589 88.6033 36.6193 88.6428 36.6193C88.6824 36.5006 88.6824 36.5797 88.7616 36.6589Z" fill="white"/>
<path d="M106.256 34.205C106.335 34.3237 106.335 34.4029 106.335 34.4029C106.256 35.0361 106.414 35.5111 106.929 35.9465C107.324 36.2631 106.929 36.6589 106.81 36.9755C106.731 37.2922 106.414 37.3713 106.097 37.2922C105.899 37.213 105.781 37.1734 105.662 37.0151C105.147 36.5797 105.068 35.9069 104.87 35.2736C104.791 35.0757 104.95 34.8778 105.147 34.8778C105.662 34.9174 105.979 34.6403 106.256 34.205Z" fill="white"/>
<path d="M70.052 79.4316H81.7004V80.4629H70.052V79.4316ZM87.2785 80.4277H89.5051V74.5332H90.4426V76.9473H93.7004V77.8379H90.4426V80.4277H93.0441V86.041H92.1535V85.3496H88.1691V86.041H87.2785V80.4277ZM92.1535 81.248H88.1691V84.5293H92.1535V81.248ZM82.0402 83.9668C82.8605 83.8301 83.6984 83.6797 84.5539 83.5156C85.0891 81.6406 85.4777 79.959 85.7199 78.4707L86.6691 78.6934C86.3059 80.209 85.9074 81.7578 85.4738 83.3398C85.9348 83.25 86.4035 83.1543 86.8801 83.0527C86.8957 83.3965 86.923 83.6816 86.9621 83.9082C85.2902 84.2441 83.7238 84.5723 82.2629 84.8926L82.0402 83.9668ZM82.2043 77.0176H87.0324V77.8379H82.2043V77.0176ZM82.6027 78.834L83.4113 78.623C83.7551 79.8262 84.0754 81.0879 84.3723 82.4082L83.5051 82.6426C83.2473 81.3535 82.9465 80.084 82.6027 78.834ZM83.5051 74.7793L84.3371 74.416C84.6496 74.9863 84.9738 75.6309 85.3098 76.3496L84.4309 76.748C84.1574 76.0684 83.8488 75.4121 83.5051 74.7793ZM94.0402 76.7715H100.556C100.525 76.0488 100.501 75.2832 100.486 74.4746H101.482C101.478 75.248 101.489 76.0137 101.517 76.7715H105.548V77.6504H101.558C101.71 81.5879 102.368 83.9785 103.532 84.8223C103.954 85.166 104.251 85.0723 104.423 84.541C104.54 84.1348 104.646 83.5332 104.739 82.7363C105.107 82.8691 105.423 82.9707 105.689 83.041C105.54 83.9551 105.38 84.6934 105.208 85.2559C105.021 85.7949 104.661 86.0645 104.13 86.0645C103.591 86.0645 103.056 85.791 102.525 85.2441C101.407 84.0566 100.769 81.5254 100.609 77.6504H94.0402V76.7715ZM94.0871 84.2012C94.9699 84.0957 95.8762 83.9805 96.8059 83.8555V80.5684H94.5207V79.6895H100.029V80.5684H97.7668V83.7207C98.677 83.5918 99.6105 83.4551 100.568 83.3105C100.552 83.6152 100.544 83.9316 100.544 84.2598C98.1926 84.5957 96.1184 84.9043 94.3215 85.1855L94.0871 84.2012ZM102.384 75.166L102.946 74.5684C103.509 74.9746 104.079 75.4355 104.657 75.9512L103.989 76.6426C103.489 76.1348 102.954 75.6426 102.384 75.166ZM110.564 74.7207L110.388 74.9785C111.56 76.0879 112.564 77.1074 113.4 78.0371L112.755 78.7637C111.919 77.748 110.982 76.709 109.943 75.6465C109.263 76.6699 108.505 77.6074 107.669 78.459H112.415V79.291H107.54V78.5879C107.22 78.9004 106.896 79.1973 106.568 79.4785C106.372 79.127 106.193 78.8496 106.029 78.6465C107.279 77.6621 108.431 76.3535 109.486 74.7207H110.564ZM116.13 74.709H117.044V84.5645C117.044 85.5176 116.579 85.998 115.65 86.0059C115.228 86.0059 114.677 86.002 113.997 85.9941C113.966 85.6504 113.907 85.2988 113.821 84.9395C114.415 85.0098 114.904 85.0449 115.286 85.0449C115.849 85.0449 116.13 84.7559 116.13 84.1777V74.709ZM106.415 84.7168C107.821 84.6074 109.251 84.4941 110.704 84.377C111.22 82.7988 111.654 81.3184 112.005 79.9355L112.943 80.2051C112.568 81.3848 112.114 82.748 111.583 84.2949C112.232 84.2324 112.888 84.1699 113.552 84.1074C113.513 84.3496 113.486 84.6387 113.47 84.9746C111.056 85.1934 108.775 85.4121 106.626 85.6309L106.415 84.7168ZM113.868 75.8926H114.747V83.3574H113.868V75.8926ZM107.575 80.2168C108.005 81.4121 108.372 82.584 108.677 83.7324L107.81 84.0488C107.56 82.9004 107.212 81.7168 106.767 80.498L107.575 80.2168ZM109.896 79.8418C110.13 80.7715 110.384 81.9199 110.657 83.2871L109.767 83.5098C109.571 82.2754 109.333 81.1152 109.052 80.0293L109.896 79.8418ZM119.88 77.6738L120.571 77.3105C121.036 78.0488 121.499 78.8027 121.96 79.5723C122.339 78.7559 122.665 77.9434 122.939 77.1348L123.736 77.4277C123.349 78.4785 122.923 79.4766 122.458 80.4219C122.907 81.1875 123.353 81.9707 123.794 82.7715L122.997 83.1934C122.673 82.5762 122.339 81.9551 121.995 81.3301C121.515 82.2324 120.997 83.084 120.443 83.8848L119.739 83.4805V85.9238H118.861V75.2129H128.845V84.6113C128.845 85.4473 128.396 85.8652 127.497 85.8652C126.997 85.8652 126.4 85.8574 125.704 85.8418C125.665 85.5918 125.611 85.2871 125.54 84.9277C126.196 84.9824 126.755 85.0098 127.216 85.0098C127.716 85.0098 127.966 84.7949 127.966 84.3652V76.0566H119.739V83.4277C120.411 82.4395 121.003 81.4531 121.515 80.4688C120.995 79.543 120.45 78.6113 119.88 77.6738ZM123.782 78.2363L124.462 77.8379C124.853 78.4707 125.257 79.1406 125.675 79.8477C126.124 78.9531 126.505 78.0723 126.818 77.2051L127.614 77.5098C127.173 78.623 126.691 79.6855 126.167 80.6973C126.659 81.541 127.169 82.4355 127.696 83.3809L126.911 83.8262C126.521 83.084 126.114 82.334 125.693 81.5762C125.208 82.4434 124.693 83.2676 124.146 84.0488L123.431 83.5918C124.103 82.6191 124.696 81.6621 125.212 80.7207C124.755 79.9004 124.279 79.0723 123.782 78.2363ZM130.702 82.9824C131.323 83.4629 132.025 83.7031 132.806 83.7031C133.431 83.7031 133.925 83.5508 134.288 83.2461C134.655 82.9375 134.839 82.5254 134.839 82.0098C134.839 80.8613 134.017 80.2871 132.372 80.2871H131.616V79.3379H132.337C133.794 79.3379 134.523 78.7988 134.523 77.7207C134.523 76.7246 133.966 76.2266 132.853 76.2266C132.216 76.2266 131.616 76.4414 131.054 76.8711V75.7871C131.648 75.4434 132.341 75.2715 133.134 75.2715C133.907 75.2715 134.529 75.4746 134.997 75.8809C135.466 76.2832 135.7 76.8066 135.7 77.4512C135.7 78.6387 135.095 79.4023 133.884 79.7422V79.7656C134.54 79.8359 135.058 80.0684 135.437 80.4629C135.82 80.8535 136.011 81.3418 136.011 81.9277C136.011 82.7441 135.716 83.4023 135.126 83.9023C134.54 84.4023 133.759 84.6523 132.782 84.6523C131.923 84.6523 131.23 84.4922 130.702 84.1719V82.9824ZM143.318 74.709L144.267 74.9551C144.103 75.5254 143.931 76.0605 143.751 76.5605H148.532V77.4512H147.648C147.331 79.7793 146.642 81.6465 145.579 83.0527C146.4 83.9004 147.462 84.5684 148.767 85.0566C148.431 85.4707 148.196 85.7754 148.064 85.9707C146.806 85.3965 145.761 84.6719 144.929 83.7969C143.984 84.7461 142.806 85.5215 141.396 86.123C141.177 85.7793 140.95 85.498 140.716 85.2793C142.181 84.7207 143.374 83.9727 144.296 83.0352C143.507 81.9375 142.958 80.6191 142.65 79.0801C142.361 79.6152 142.056 80.0801 141.736 80.4746C141.587 80.1309 141.415 79.8184 141.22 79.5371C142.126 78.3105 142.825 76.7012 143.318 74.709ZM137.259 76.0098H141.7V76.9238H139.907V82.7773C140.548 82.6211 141.22 82.4512 141.923 82.2676C141.939 82.6816 141.966 82.998 142.005 83.2168C140.607 83.5527 139.052 83.9473 137.341 84.4004L137.071 83.4043C137.665 83.2832 138.294 83.1484 138.958 83V76.9238H137.259V76.0098ZM143.288 77.75C143.538 79.582 144.091 81.0957 144.946 82.291C145.872 81.0566 146.452 79.4434 146.687 77.4512H143.417C143.374 77.5527 143.331 77.6523 143.288 77.75ZM149.681 75.6582H153.782V84.916H153.009V84.3184H150.454V85.1504H149.681V75.6582ZM153.853 78.166C154.642 77.1113 155.318 75.8848 155.88 74.4863L156.724 74.7559C156.568 75.1113 156.411 75.4512 156.255 75.7754H159.946V76.5605C159.404 77.6348 158.736 78.5586 157.943 79.332C158.712 79.8672 159.657 80.2715 160.779 80.5449C160.607 80.8652 160.458 81.1895 160.333 81.5176C159.118 81.1074 158.101 80.5703 157.28 79.9062C156.445 80.5625 155.47 81.1465 154.357 81.6582C154.169 81.3379 153.989 81.0684 153.818 80.8496C154.872 80.4473 155.814 79.9375 156.642 79.3203C156.169 78.8242 155.734 78.2168 155.335 77.498C155.05 77.9746 154.763 78.4043 154.474 78.7871C154.239 78.5137 154.032 78.3066 153.853 78.166ZM154.907 81.5293H159.7V86.0879H158.833V85.5254H155.775V86.0879H154.907V81.5293ZM158.833 82.3496H155.775V84.7051H158.833V82.3496ZM158.962 76.5723H155.851L155.78 76.7012C156.214 77.5566 156.714 78.2559 157.28 78.7988C157.902 78.2246 158.462 77.4824 158.962 76.5723ZM150.454 83.5332H151.345V80.3574H150.454V83.5332ZM152.118 83.5332H153.009V80.3574H152.118V83.5332ZM153.009 76.4434H152.118V79.5723H153.009V76.4434ZM150.454 79.5723H151.345V76.4434H150.454V79.5723ZM166.321 80.4277H168.548V74.5332H169.486V76.9473H172.743V77.8379H169.486V80.4277H172.087V86.041H171.196V85.3496H167.212V86.041H166.321V80.4277ZM171.196 81.248H167.212V84.5293H171.196V81.248ZM161.083 83.9668C161.904 83.8301 162.741 83.6797 163.597 83.5156C164.132 81.6406 164.521 79.959 164.763 78.4707L165.712 78.6934C165.349 80.209 164.95 81.7578 164.517 83.3398C164.978 83.25 165.446 83.1543 165.923 83.0527C165.939 83.3965 165.966 83.6816 166.005 83.9082C164.333 84.2441 162.767 84.5723 161.306 84.8926L161.083 83.9668ZM161.247 77.0176H166.075V77.8379H161.247V77.0176ZM161.646 78.834L162.454 78.623C162.798 79.8262 163.118 81.0879 163.415 82.4082L162.548 82.6426C162.29 81.3535 161.989 80.084 161.646 78.834ZM162.548 74.7793L163.38 74.416C163.693 74.9863 164.017 75.6309 164.353 76.3496L163.474 76.748C163.2 76.0684 162.892 75.4121 162.548 74.7793Z" fill="white"/>
<path d="M204.907 7.05469H217.032V9.21094H204.907V7.05469ZM203.47 11.8984H218.47V14.0547H211.212C210.441 15.1745 209.225 16.6484 207.564 18.4766C209.756 18.4609 211.868 18.3984 213.9 18.2891L211.782 15.6797L213.657 14.5391C215.71 16.8516 217.308 18.7786 218.454 20.3203L216.407 21.6328C216.178 21.2891 215.884 20.8724 215.525 20.3828C209.389 20.5859 205.866 20.8047 204.954 21.0391L203.954 18.9609C205.574 17.6328 207.012 15.9974 208.267 14.0547H203.47V11.8984ZM225.189 10.6484V7.08594H227.001V8.83594H228.439V6.10156H230.454V8.83594H231.907V7.08594H233.72V10.6484H225.189ZM219.298 8.89844H221.181C220.837 8.07031 220.527 7.38802 220.251 6.85156L222.095 6.11719C222.376 6.6276 222.756 7.36198 223.236 8.32031L221.806 8.89844H224.47V10.8672H219.298V8.89844ZM222.501 11.1953L224.392 11.4297L223.321 17.6797L224.392 17.4922C224.35 17.8255 224.303 18.4818 224.251 19.4609C222.793 19.7109 221.199 20.0234 219.47 20.3984L219.126 18.3516L221.696 17.9453C221.993 15.7995 222.262 13.5495 222.501 11.1953ZM221.001 11.2578L221.814 16.9141L220.079 17.2109C219.871 15.2734 219.616 13.3828 219.314 11.5391L221.001 11.2578ZM224.626 11.5391H234.345V13.3828H230.126L229.876 14.3672H234.126V20.3047C234.126 20.8516 233.952 21.2057 233.603 21.3672C233.254 21.5286 232.842 21.6094 232.368 21.6094C232.025 21.6094 231.678 21.5807 231.329 21.5234L231.228 20.7422H229.861V16.2109H228.97V20.7422H227.439V16.2109H226.548V21.5234H224.704V14.3672H227.931L228.134 13.3828H224.626V11.5391ZM232.282 16.2109H231.392V19.7891C231.683 19.8203 231.868 19.8359 231.946 19.8359C232.181 19.8359 232.293 19.7057 232.282 19.4453V16.2109ZM241.532 6.53906L244.048 6.11719C244.215 6.58073 244.418 7.17969 244.657 7.91406H250.126V11.2266H247.861V9.85156H238.282V11.2266H236.017V7.91406H242.064L241.532 6.53906ZM235.236 11.8984H240.04C240.29 11.388 240.512 10.862 240.704 10.3203H243.173C242.97 10.8568 242.746 11.3828 242.501 11.8984H250.611V13.8828H241.431C239.973 16.2943 238.032 18.4453 235.611 20.3359C235.465 19.4922 235.308 18.6797 235.142 17.8984C236.657 16.6797 237.907 15.3411 238.892 13.8828H235.236V11.8984ZM246.189 15.5078C247.532 16.9557 248.907 18.4714 250.314 20.0547L248.548 21.4609L247.923 20.6562L240.837 21.0625C240.327 21.0938 239.788 21.1745 239.22 21.3047L238.189 19.2422C238.96 18.9193 239.702 18.3568 240.415 17.5547C241.129 16.7474 241.902 15.7266 242.736 14.4922H245.439C244.449 15.8255 243.251 17.3307 241.845 19.0078L246.478 18.8438C245.837 18.0521 245.225 17.3255 244.642 16.6641L246.189 15.5078ZM258.095 6.49219L260.657 6.21094C260.803 6.57552 260.978 7.03906 261.181 7.60156H266.486V9.41406H254.486V13.1797C254.486 16.9922 253.861 19.8203 252.611 21.6641C252.09 20.9766 251.564 20.3516 251.032 19.7891C251.939 18.2995 252.381 16.0911 252.361 13.1641V7.60156H258.611L258.095 6.49219ZM254.361 17.3984H259.829V16.3047H255.314V14.5234C255.699 13.8984 256.079 13.2474 256.454 12.5703H254.861V10.7578H257.415C257.634 10.3307 257.85 9.89323 258.064 9.44531L260.236 9.77344L259.72 10.7578H266.095V12.5703H258.743L257.642 14.5234H259.829V13.0547H261.923V14.5234H265.845V16.3047H261.923V17.3984H266.579V19.2109H261.923V21.4922H259.829V19.2109H254.361V17.3984Z" fill="white"/>
<path d="M288.391 17.55L296.028 9.9125L294.512 8.39584L288.391 14.5167L285.303 11.4292L283.787 12.9458L288.391 17.55ZM282.324 22.75C281.728 22.75 281.218 22.5377 280.793 22.113C280.369 21.6883 280.157 21.1784 280.157 20.5833V5.41667C280.157 4.82084 280.37 4.31059 280.794 3.88592C281.219 3.46125 281.729 3.24928 282.324 3.25H297.491C298.087 3.25 298.597 3.46234 299.022 3.887C299.446 4.31167 299.658 4.82156 299.657 5.41667V20.5833C299.657 21.1792 299.445 21.6894 299.02 22.1141C298.596 22.5388 298.086 22.7507 297.491 22.75H282.324Z" fill="#FFE353"/>
<path d="M313.277 19.0615C313.723 19.016 314.17 18.9681 314.616 18.918V13.7158H313.113V12.8955H326.661V13.7158H319.525V18.2754C319.962 18.2116 320.4 18.1455 320.837 18.0771C320.828 18.2412 320.833 18.5329 320.851 18.9521C320.422 19.0114 319.98 19.0729 319.525 19.1367V20.8799H318.595V19.2734C317.027 19.4967 315.336 19.7497 313.523 20.0322L313.277 19.0615ZM315.177 7.94629H324.638V12.335H323.681V12.0205H316.134V12.335H315.177V7.94629ZM320.208 15.4795V14.6865H325.636V15.4795C325.171 16.596 324.56 17.5667 323.804 18.3916C324.583 18.9613 325.549 19.3942 326.702 19.6904C326.465 20.0368 326.26 20.3558 326.087 20.6475C324.911 20.2601 323.92 19.736 323.113 19.0752C322.33 19.777 321.416 20.3512 320.372 20.7979C320.217 20.5244 320.008 20.2373 319.743 19.9365C320.778 19.54 321.669 19.0342 322.416 18.4189C321.655 17.6032 321.113 16.6234 320.789 15.4795H320.208ZM316.134 11.2275H323.681V10.3525H316.134V11.2275ZM323.681 8.73926H316.134V9.61426H323.681V8.73926ZM324.597 15.4795H321.712C321.999 16.3773 322.462 17.1452 323.1 17.7832C323.733 17.1178 324.232 16.3499 324.597 15.4795ZM318.595 18.4121V17.4893H315.546V18.8086C316.576 18.6855 317.592 18.5534 318.595 18.4121ZM315.546 14.8096H318.595V13.7158H315.546V14.8096ZM315.546 16.6963H318.595V15.6025H315.546V16.6963ZM335.042 12.8682H336.396C335.976 13.2783 335.543 13.6657 335.097 14.0303H340.073V15.0283C337.139 18.2093 333.224 20.1826 328.329 20.9482C328.165 20.6201 327.96 20.2783 327.714 19.9229C329.938 19.6038 331.93 19.0615 333.689 18.2959C333.424 17.9495 333.046 17.5257 332.554 17.0244L333.374 16.4229C333.839 16.9059 334.263 17.3844 334.646 17.8584C336.177 17.0745 337.494 16.1175 338.597 14.9873H333.907C332.303 16.1904 330.613 17.1748 328.835 17.9404C328.671 17.6761 328.452 17.3662 328.179 17.0107C330.713 15.9899 333.001 14.609 335.042 12.8682ZM332.978 7.37207H334.359C333.894 7.87337 333.42 8.34277 332.937 8.78027H339.376V9.70996C336.241 12.2347 332.435 14.1169 327.96 15.3564C327.769 14.9919 327.559 14.6729 327.331 14.3994C329.209 13.9072 330.895 13.3467 332.39 12.7178C332.062 12.3532 331.629 11.9066 331.091 11.3779L331.857 10.7764C332.394 11.2959 332.891 11.8018 333.347 12.2939C335.015 11.5374 336.478 10.6852 337.736 9.7373H331.843C330.895 10.5485 329.769 11.3232 328.466 12.0615C328.265 11.7881 328.015 11.501 327.714 11.2002C329.801 10.0882 331.556 8.81217 332.978 7.37207Z" fill="white"/>
<path d="M203.486 51.8203L203.126 49.7109L203.907 49.6172V40.8984H203.282V39.0547H210.064V40.8984H209.407V48.7812L210.314 48.6172C210.241 49.4193 210.199 50.0859 210.189 50.6172L209.407 50.75V53.5859H207.532V51.0781L203.486 51.8203ZM205.782 42.5234H207.532V40.8984H205.782V42.5234ZM205.782 45.8359H207.532V44.2109H205.782V45.8359ZM207.532 49.1016V47.5234H205.782V49.3672L207.532 49.1016ZM210.564 39.1797H217.814V47.1641H210.564V39.1797ZM215.814 41.0547H212.564V45.2891H215.814V41.0547ZM212.017 48.1016L213.751 48.8984C212.855 50.8255 212.001 52.388 211.189 53.5859C210.512 53.1172 209.954 52.7682 209.517 52.5391C210.527 51.1849 211.361 49.7057 212.017 48.1016ZM216.189 48.1328C217.095 49.6432 217.939 51.1432 218.72 52.6328L216.939 53.5391C216.157 51.8203 215.376 50.2891 214.595 48.9453L216.189 48.1328ZM223.626 38.4609H225.907V50.7422H227.907V38.4609H230.157V46.9062C231.006 45.2188 231.835 43.2734 232.642 41.0703L234.657 41.9297C233.866 43.9089 232.918 46.0547 231.814 48.3672L230.157 47.5938V50.7422H234.657V52.8828H219.22V50.7422H223.626V47.6484L221.876 48.3984C221.022 45.9714 220.168 43.7422 219.314 41.7109L221.189 40.8516C222.09 42.8724 222.902 44.8203 223.626 46.6953V38.4609ZM243.22 38.1641L245.236 38.5391C245.058 39.138 244.853 39.737 244.618 40.3359H250.595V42.4141H249.22C248.871 45.0026 248.105 47.1693 246.923 48.9141C247.944 49.9557 249.204 50.7786 250.704 51.3828C250.256 51.9974 249.803 52.6953 249.345 53.4766C247.835 52.6849 246.556 51.7214 245.509 50.5859C244.259 51.8151 242.762 52.8411 241.017 53.6641C240.59 52.9974 240.105 52.3255 239.564 51.6484C241.423 50.888 242.946 49.9349 244.134 48.7891C243.368 47.5703 242.801 46.1979 242.431 44.6719C242.113 45.1771 241.777 45.6849 241.423 46.1953C240.933 45.5286 240.444 44.9349 239.954 44.4141C241.454 42.3411 242.543 40.2578 243.22 38.1641ZM245.517 47.1094C246.35 45.7865 246.897 44.2214 247.157 42.4141H243.892C244.173 44.2161 244.715 45.7812 245.517 47.1094ZM235.564 51.8047L235.126 49.4609C235.699 49.3464 236.366 49.2005 237.126 49.0234V41.7891H235.314V39.6484H241.126V41.7891H239.282V48.5156L241.423 47.9766C241.381 48.7161 241.366 49.5026 241.376 50.3359C240.126 50.638 238.189 51.1276 235.564 51.8047ZM266.048 39.7109V41.5547C265.579 42.6016 264.923 43.5312 264.079 44.3438C264.861 44.6719 265.741 44.8984 266.72 45.0234C266.501 45.6589 266.293 46.3568 266.095 47.1172C264.71 46.8203 263.478 46.3255 262.4 45.6328C261.394 46.2682 260.22 46.7943 258.876 47.2109H265.782V53.6172H263.845V52.8047H260.611V53.6484H258.673V47.2734L258.407 47.3516C258.225 46.8932 258.022 46.4323 257.798 45.9688V52.6484H256.204V51.5078H253.329V52.7422H251.736V39.3359H257.798V42.4531C258.986 41.1146 259.829 39.6641 260.329 38.1016L262.267 38.3984C262.126 38.8516 261.97 39.2891 261.798 39.7109H266.048ZM256.204 40.8359H255.423V44.6641H256.204V40.8359ZM253.329 44.6641H254.111V40.8359H253.329V44.6641ZM260.853 41.6641C261.275 42.3203 261.782 42.8828 262.376 43.3516C263.017 42.8203 263.517 42.2057 263.876 41.5078H260.939C260.907 41.5599 260.879 41.612 260.853 41.6641ZM258.954 44.1953C258.673 43.8568 258.288 43.4479 257.798 42.9688V45.3906C258.949 45.1302 259.954 44.7865 260.814 44.3594C260.454 44.0052 260.118 43.6224 259.806 43.2109C259.54 43.5547 259.256 43.8828 258.954 44.1953ZM253.329 50.0078H254.111V46.1641H253.329V50.0078ZM255.423 50.0078H256.204V46.1641H255.423V50.0078ZM263.845 49.0859H260.611V50.9297H263.845V49.0859Z" fill="white"/>
<path d="M288.391 49.55L296.028 41.9125L294.512 40.3958L288.391 46.5167L285.303 43.4292L283.787 44.9458L288.391 49.55ZM282.324 54.75C281.728 54.75 281.218 54.5377 280.793 54.113C280.369 53.6883 280.157 53.1784 280.157 52.5833V37.4167C280.157 36.8208 280.37 36.3106 280.794 35.8859C281.219 35.4613 281.729 35.2493 282.324 35.25H297.491C298.087 35.25 298.597 35.4623 299.022 35.887C299.446 36.3117 299.658 36.8216 299.657 37.4167V52.5833C299.657 53.1792 299.445 53.6894 299.02 54.1141C298.596 54.5388 298.086 54.7507 297.491 54.75H282.324Z" fill="#FFE353"/>
<path d="M313.277 51.0615C313.723 51.016 314.17 50.9681 314.616 50.918V45.7158H313.113V44.8955H326.661V45.7158H319.525V50.2754C319.962 50.2116 320.4 50.1455 320.837 50.0771C320.828 50.2412 320.833 50.5329 320.851 50.9521C320.422 51.0114 319.98 51.0729 319.525 51.1367V52.8799H318.595V51.2734C317.027 51.4967 315.336 51.7497 313.523 52.0322L313.277 51.0615ZM315.177 39.9463H324.638V44.335H323.681V44.0205H316.134V44.335H315.177V39.9463ZM320.208 47.4795V46.6865H325.636V47.4795C325.171 48.596 324.56 49.5667 323.804 50.3916C324.583 50.9613 325.549 51.3942 326.702 51.6904C326.465 52.0368 326.26 52.3558 326.087 52.6475C324.911 52.2601 323.92 51.736 323.113 51.0752C322.33 51.777 321.416 52.3512 320.372 52.7979C320.217 52.5244 320.008 52.2373 319.743 51.9365C320.778 51.54 321.669 51.0342 322.416 50.4189C321.655 49.6032 321.113 48.6234 320.789 47.4795H320.208ZM316.134 43.2275H323.681V42.3525H316.134V43.2275ZM323.681 40.7393H316.134V41.6143H323.681V40.7393ZM324.597 47.4795H321.712C321.999 48.3773 322.462 49.1452 323.1 49.7832C323.733 49.1178 324.232 48.3499 324.597 47.4795ZM318.595 50.4121V49.4893H315.546V50.8086C316.576 50.6855 317.592 50.5534 318.595 50.4121ZM315.546 46.8096H318.595V45.7158H315.546V46.8096ZM315.546 48.6963H318.595V47.6025H315.546V48.6963ZM329.997 44.9502C331.31 43.346 332.372 41.473 333.183 39.3311L334.195 39.6865C333.898 40.3838 333.588 41.0537 333.265 41.6963H340.456V42.6396H337.134V44.6768H340.087V45.6201H337.134V47.6572H340.114V48.6006H337.134V50.8291H340.634V51.7451H332.964V52.8389H331.898V44.1504C331.538 44.7246 331.164 45.2692 330.777 45.7842C330.576 45.5016 330.316 45.2236 329.997 44.9502ZM332.964 50.8291H336.068V48.6006H332.964V50.8291ZM329.273 45.7021C329.628 45.8936 329.974 46.0485 330.312 46.167C329.665 48.0537 329.027 49.9359 328.398 51.8135L327.277 51.3076C327.978 49.6396 328.644 47.7712 329.273 45.7021ZM332.964 47.6572H336.068V45.6201H332.964V47.6572ZM332.964 44.6768H336.068V42.6396H332.964V44.6768ZM328.07 40.083C328.826 40.9671 329.592 41.9014 330.366 42.8857C330.303 42.9313 329.988 43.2002 329.423 43.6924C328.739 42.7354 328.001 41.7646 327.208 40.7803L328.07 40.083ZM335.48 39.8096L336.368 39.249C336.724 39.6865 337.129 40.2334 337.585 40.8896L336.642 41.5186C336.213 40.8623 335.826 40.2926 335.48 39.8096Z" fill="white"/>
<path d="M208.876 70.7266H217.814V78.1172H208.876V70.7266ZM203.298 73.1328H204.954V70.2422H206.923V73.1328H208.439V75.1328H206.923V77.5547C207.34 77.4818 207.782 77.4089 208.251 77.3359C208.23 78.138 208.236 78.8203 208.267 79.3828C207.84 79.4557 207.392 79.5339 206.923 79.6172V83.5234C206.892 84.7005 206.418 85.3359 205.501 85.4297C204.887 85.4818 204.262 85.513 203.626 85.5234C203.501 84.8047 203.34 84.1328 203.142 83.5078C203.454 83.5286 203.855 83.5443 204.345 83.5547C204.741 83.5547 204.944 83.3151 204.954 82.8359V79.9922C204.454 80.0859 203.933 80.1901 203.392 80.3047L203.142 78.0703C203.683 78.0078 204.288 77.9297 204.954 77.8359V75.1328H203.298V73.1328ZM207.907 83.2891H212.22V81.5234H208.751V79.7422H212.22V78.5547H214.314V79.7422H217.923V81.5234H214.314V83.2891H218.626V85.0703H207.907V83.2891ZM215.876 72.3828H210.814V73.6641H215.876V72.3828ZM215.876 76.4609V75.1797H210.814V76.4609H215.876ZM232.767 76.8828H226.814V76.0078C226.449 76.3411 226.069 76.6693 225.673 76.9922C225.454 76.5234 225.204 76.0286 224.923 75.5078V83.3203C224.913 84.4974 224.512 85.1536 223.72 85.2891C223.303 85.362 222.741 85.4193 222.032 85.4609C221.97 84.888 221.798 84.1797 221.517 83.3359C221.767 83.388 222.069 83.4141 222.423 83.4141C222.902 83.4141 223.142 83.1172 223.142 82.5234V80.5547H221.751C221.72 82.8255 221.303 84.5443 220.501 85.7109C220.137 85.1276 219.678 84.5286 219.126 83.9141C219.48 83.1328 219.725 82.2214 219.861 81.1797C219.975 80.2109 220.032 78.5495 220.032 76.1953V70.8672H224.923V74.8203C226.454 73.6224 227.73 72.1172 228.751 70.3047H231.236L230.923 70.8203C232.027 72.6432 233.34 73.9818 234.861 74.8359C234.465 75.5026 234.105 76.1484 233.782 76.7734C233.428 76.5443 233.09 76.2995 232.767 76.0391V76.8828ZM225.298 83.2109H230.626C231.251 81.3568 231.72 79.5339 232.032 77.7422L233.97 78.2422C233.657 79.5026 233.163 81.1589 232.486 83.2109H234.439V85.0859H225.298V83.2109ZM227.064 78.0703C227.553 79.362 228.048 80.7526 228.548 82.2422L226.845 82.8516C226.522 81.6536 226.064 80.2578 225.47 78.6641L227.064 78.0703ZM229.954 77.4297C230.329 78.8047 230.652 80.2005 230.923 81.6172L229.189 82.0391C228.991 80.7682 228.699 79.3568 228.314 77.8047L229.954 77.4297ZM229.736 72.3359C229.194 73.2839 228.532 74.1849 227.751 75.0391H231.689C230.939 74.2578 230.288 73.3568 229.736 72.3359ZM221.814 78.7266H223.142V76.6953H221.829C221.829 77.4245 221.824 78.1016 221.814 78.7266ZM223.142 72.8359H221.829V74.8672H223.142V72.8359ZM235.501 73.2734H236.72C236.444 72.7161 236.074 72.1224 235.611 71.4922L237.017 70.6172C237.34 71.0026 237.777 71.6068 238.329 72.4297L236.923 73.2734H238.673V70.2109H240.657V73.2734H242.298L241.001 72.4297C241.522 71.7943 241.96 71.1745 242.314 70.5703L243.782 71.4453C243.433 72.0391 243.001 72.6484 242.486 73.2734H243.392V74.8672H240.657V75.9609L241.189 75.2422C241.84 75.5911 242.457 75.9349 243.04 76.2734C243.894 74.6901 244.631 72.6432 245.251 70.1328L247.392 70.3359C247.183 71.1432 246.962 71.9141 246.728 72.6484H250.642V74.5547H250.009C249.785 77.3151 249.199 79.5833 248.251 81.3594C248.918 82.1354 249.736 82.8047 250.704 83.3672C250.329 83.7943 249.876 84.487 249.345 85.4453C248.433 84.8359 247.644 84.0964 246.978 83.2266C246.118 84.237 245.121 85.0547 243.986 85.6797C243.564 85.0807 243.098 84.5182 242.587 83.9922L242.032 84.9141C241.407 84.5547 240.725 84.1901 239.986 83.8203C238.845 84.5807 237.48 85.1224 235.892 85.4453C235.704 84.8724 235.428 84.2318 235.064 83.5234C236.152 83.4089 237.111 83.1901 237.939 82.8672C237.22 82.5495 236.46 82.2266 235.657 81.8984C236.012 81.3828 236.329 80.8672 236.611 80.3516H235.329V78.7578H237.384C237.556 78.3464 237.704 77.9349 237.829 77.5234L238.673 77.6016V76.1016C237.902 76.9141 236.933 77.6693 235.767 78.3672C235.548 77.6693 235.303 77.0443 235.032 76.4922C236.069 76.0911 237.004 75.5495 237.837 74.8672H235.501V73.2734ZM245.892 75C246.1 76.7344 246.465 78.1849 246.986 79.3516C247.605 77.987 247.975 76.388 248.095 74.5547H246.064C246.012 74.7057 245.954 74.8542 245.892 75ZM240.657 77.9609H239.868C239.749 78.2161 239.616 78.4818 239.47 78.7578H243.111V80.2109C242.704 81.0599 242.196 81.8125 241.587 82.4688L243.142 83.0859L242.829 83.5938C243.98 82.9948 244.962 82.2188 245.775 81.2656C245.264 80.2188 244.874 79.0469 244.603 77.75C244.42 78.0781 244.236 78.3932 244.048 78.6953C243.808 78.2786 243.53 77.849 243.212 77.4062L242.751 78.1016C242.105 77.6641 241.407 77.2214 240.657 76.7734V77.9609ZM238.157 81.1641L239.782 81.7734C240.251 81.3672 240.637 80.8932 240.939 80.3516H238.618L238.157 81.1641ZM266.642 78.7109H263.079V80.0234H265.704V85.6328H263.861V84.8516H260.376V85.6328H258.532V80.0234H261.111V78.7109H258.376C258.189 81.5651 257.522 83.8307 256.376 85.5078C255.939 84.9349 255.47 84.4036 254.97 83.9141C256.012 82.0911 256.532 79.6172 256.532 76.4922V70.7891H265.986V75.6797H263.079V77.0703H266.642V78.7109ZM251.329 73.1328H252.814V70.3672H254.704V73.1328H256.048V75.1328H254.704V77.3203C255.152 77.2266 255.626 77.1172 256.126 76.9922C256.074 77.8255 256.053 78.5026 256.064 79.0234C255.605 79.138 255.152 79.2526 254.704 79.3672V83.6484C254.704 84.8047 254.23 85.3984 253.282 85.4297C252.73 85.4818 252.199 85.4974 251.689 85.4766C251.585 84.862 251.433 84.1849 251.236 83.4453C251.579 83.4557 251.928 83.4661 252.282 83.4766C252.637 83.487 252.814 83.237 252.814 82.7266V79.8516C252.314 79.987 251.814 80.1172 251.314 80.2422L251.142 78.0859C251.611 77.9922 252.168 77.8776 252.814 77.7422V75.1328H251.329V73.1328ZM264.064 74.0391V72.4297H258.439V74.0391H264.064ZM263.861 81.6641H260.376V83.2109H263.861V81.6641ZM261.111 77.0703V75.6797H258.439V77.0703H261.111Z" fill="white"/>
<path d="M288.391 81.55L296.028 73.9125L294.512 72.3958L288.391 78.5167L285.303 75.4292L283.787 76.9458L288.391 81.55ZM282.324 86.75C281.728 86.75 281.218 86.5377 280.793 86.113C280.369 85.6883 280.157 85.1784 280.157 84.5833V69.4167C280.157 68.8208 280.37 68.3106 280.794 67.8859C281.219 67.4613 281.729 67.2493 282.324 67.25H297.491C298.087 67.25 298.597 67.4623 299.022 67.887C299.446 68.3117 299.658 68.8216 299.657 69.4167V84.5833C299.657 85.1792 299.445 85.6894 299.02 86.1141C298.596 86.5388 298.086 86.7507 297.491 86.75H282.324Z" fill="#FFE353"/>
<path d="M313.277 83.0615C313.723 83.016 314.17 82.9681 314.616 82.918V77.7158H313.113V76.8955H326.661V77.7158H319.525V82.2754C319.962 82.2116 320.4 82.1455 320.837 82.0771C320.828 82.2412 320.833 82.5329 320.851 82.9521C320.422 83.0114 319.98 83.0729 319.525 83.1367V84.8799H318.595V83.2734C317.027 83.4967 315.336 83.7497 313.523 84.0322L313.277 83.0615ZM315.177 71.9463H324.638V76.335H323.681V76.0205H316.134V76.335H315.177V71.9463ZM320.208 79.4795V78.6865H325.636V79.4795C325.171 80.596 324.56 81.5667 323.804 82.3916C324.583 82.9613 325.549 83.3942 326.702 83.6904C326.465 84.0368 326.26 84.3558 326.087 84.6475C324.911 84.2601 323.92 83.736 323.113 83.0752C322.33 83.777 321.416 84.3512 320.372 84.7979C320.217 84.5244 320.008 84.2373 319.743 83.9365C320.778 83.54 321.669 83.0342 322.416 82.4189C321.655 81.6032 321.113 80.6234 320.789 79.4795H320.208ZM316.134 75.2275H323.681V74.3525H316.134V75.2275ZM323.681 72.7393H316.134V73.6143H323.681V72.7393ZM324.597 79.4795H321.712C321.999 80.3773 322.462 81.1452 323.1 81.7832C323.733 81.1178 324.232 80.3499 324.597 79.4795ZM318.595 82.4121V81.4893H315.546V82.8086C316.576 82.6855 317.592 82.5534 318.595 82.4121ZM315.546 78.8096H318.595V77.7158H315.546V78.8096ZM315.546 80.6963H318.595V79.6025H315.546V80.6963ZM327.113 83.7588C331.114 82.0635 333.151 79.5798 333.224 76.3076C333.269 74.6761 333.292 73.0947 333.292 71.5635H334.482C334.473 72.9808 334.443 74.7399 334.393 76.8408C335.163 80.2314 337.275 82.4463 340.73 83.4854C340.356 83.932 340.042 84.3102 339.786 84.6201C336.842 83.458 334.894 81.4938 333.942 78.7275C333.258 81.2113 331.26 83.2347 327.946 84.7979C327.773 84.5426 327.495 84.1963 327.113 83.7588ZM335.603 77.8389C336.678 76.6449 337.672 75.2686 338.583 73.71L339.636 74.3252C338.642 75.82 337.608 77.2236 336.532 78.5361L335.603 77.8389ZM328.111 74.3389L328.999 73.6963C329.947 74.8903 330.927 76.2575 331.939 77.7979L330.913 78.5088C329.856 76.7406 328.922 75.3506 328.111 74.3389Z" fill="white"/>
</svg>
