<svg width="2830" height="1496" viewBox="0 0 2830 1496" fill="none" xmlns="http://www.w3.org/2000/svg">
<circle cx="15" cy="15" r="15" fill="#FFF3B4"/>
<circle cx="95" cy="15" r="15" fill="#FFF3B4"/>
<circle cx="175" cy="15" r="15" fill="#FFF3B4"/>
<circle cx="255" cy="15" r="15" fill="#FFF3B4"/>
<circle cx="335" cy="15" r="15" fill="#FFF3B4"/>
<circle cx="415" cy="15" r="15" fill="#FFF3B4"/>
<circle cx="495" cy="15" r="15" fill="#FFF3B4"/>
<circle cx="575" cy="15" r="15" fill="#FFF3B4"/>
<circle cx="655" cy="15" r="15" fill="#FFF3B4"/>
<circle cx="735" cy="15" r="15" fill="#FFF3B4"/>
<circle cx="815" cy="15" r="15" fill="#FFF3B4"/>
<circle cx="895" cy="15" r="15" fill="#FFF3B4"/>
<circle cx="975" cy="15" r="15" fill="#FFF3B4"/>
<circle cx="1055" cy="15" r="15" fill="#FFF3B4"/>
<circle cx="1135" cy="15" r="15" fill="#FFF3B4"/>
<circle cx="1215" cy="15" r="15" fill="#FFF3B4"/>
<circle cx="1295" cy="15" r="15" fill="#FFF3B4"/>
<circle cx="1375" cy="15" r="15" fill="#FFF3B4"/>
<circle cx="1455" cy="15" r="15" fill="#FFF3B4"/>
<circle cx="1535" cy="15" r="15" fill="#FFF3B4"/>
<circle cx="1615" cy="15" r="15" fill="#FFF3B4"/>
<circle cx="1695" cy="15" r="15" fill="#FFF3B4"/>
<circle cx="1775" cy="15" r="15" fill="#FFF3B4"/>
<circle cx="1855" cy="15" r="15" fill="#FFF3B4"/>
<circle cx="1935" cy="15" r="15" fill="#FFF3B4"/>
<circle cx="2015" cy="15" r="15" fill="#FFF3B4"/>
<circle cx="2095" cy="15" r="15" fill="#FFF3B4"/>
<circle cx="2175" cy="15" r="15" fill="#FFF3B4"/>
<circle cx="2255" cy="15" r="15" fill="#FFF3B4"/>
<circle cx="2335" cy="15" r="15" fill="#FFF3B4"/>
<circle cx="2415" cy="15" r="15" fill="#FFF3B4"/>
<circle cx="2495" cy="15" r="15" fill="#FFF3B4"/>
<circle cx="2575" cy="15" r="15" fill="#FFF3B4"/>
<circle cx="2655" cy="15" r="15" fill="#FFF3B4"/>
<circle cx="2735" cy="15" r="15" fill="#FFF3B4"/>
<circle cx="2815" cy="15" r="15" fill="#FFF3B4"/>
<circle cx="15" cy="95" r="15" fill="#FFF3B4"/>
<circle cx="95" cy="95" r="15" fill="#FFF3B4"/>
<circle cx="175" cy="95" r="15" fill="#FFF3B4"/>
<circle cx="255" cy="95" r="15" fill="#FFF3B4"/>
<circle cx="335" cy="95" r="15" fill="#FFF3B4"/>
<circle cx="415" cy="95" r="15" fill="#FFF3B4"/>
<circle cx="495" cy="95" r="15" fill="#FFF3B4"/>
<circle cx="575" cy="95" r="15" fill="#FFF3B4"/>
<circle cx="655" cy="95" r="15" fill="#FFF3B4"/>
<circle cx="735" cy="95" r="15" fill="#FFF3B4"/>
<circle cx="815" cy="95" r="15" fill="#FFF3B4"/>
<circle cx="895" cy="95" r="15" fill="#FFF3B4"/>
<circle cx="975" cy="95" r="15" fill="#FFF3B4"/>
<circle cx="1055" cy="95" r="15" fill="#FFF3B4"/>
<circle cx="1135" cy="95" r="15" fill="#FFF3B4"/>
<circle cx="1215" cy="95" r="15" fill="#FFF3B4"/>
<circle cx="1295" cy="95" r="15" fill="#FFF3B4"/>
<circle cx="1375" cy="95" r="15" fill="#FFF3B4"/>
<circle cx="1455" cy="95" r="15" fill="#FFF3B4"/>
<circle cx="1535" cy="95" r="15" fill="#FFF3B4"/>
<circle cx="1615" cy="95" r="15" fill="#FFF3B4"/>
<circle cx="1695" cy="95" r="15" fill="#FFF3B4"/>
<circle cx="1775" cy="95" r="15" fill="#FFF3B4"/>
<circle cx="1855" cy="95" r="15" fill="#FFF3B4"/>
<circle cx="1935" cy="95" r="15" fill="#FFF3B4"/>
<circle cx="2015" cy="95" r="15" fill="#FFF3B4"/>
<circle cx="2095" cy="95" r="15" fill="#FFF3B4"/>
<circle cx="2175" cy="95" r="15" fill="#FFF3B4"/>
<circle cx="2255" cy="95" r="15" fill="#FFF3B4"/>
<circle cx="2335" cy="95" r="15" fill="#FFF3B4"/>
<circle cx="2415" cy="95" r="15" fill="#FFF3B4"/>
<circle cx="2495" cy="95" r="15" fill="#FFF3B4"/>
<circle cx="2575" cy="95" r="15" fill="#FFF3B4"/>
<circle cx="2655" cy="95" r="15" fill="#FFF3B4"/>
<circle cx="2735" cy="95" r="15" fill="#FFF3B4"/>
<circle cx="2815" cy="95" r="15" fill="#FFF3B4"/>
<circle cx="15" cy="175" r="15" fill="#FFF3B4"/>
<circle cx="95" cy="175" r="15" fill="#FFF3B4"/>
<circle cx="175" cy="175" r="15" fill="#FFF3B4"/>
<circle cx="255" cy="175" r="15" fill="#FFF3B4"/>
<circle cx="335" cy="175" r="15" fill="#FFF3B4"/>
<circle cx="415" cy="175" r="15" fill="#FFF3B4"/>
<circle cx="495" cy="175" r="15" fill="#FFF3B4"/>
<circle cx="575" cy="175" r="15" fill="#FFF3B4"/>
<circle cx="655" cy="175" r="15" fill="#FFF3B4"/>
<circle cx="735" cy="175" r="15" fill="#FFF3B4"/>
<circle cx="815" cy="175" r="15" fill="#FFF3B4"/>
<circle cx="895" cy="175" r="15" fill="#FFF3B4"/>
<circle cx="975" cy="175" r="15" fill="#FFF3B4"/>
<circle cx="1055" cy="175" r="15" fill="#FFF3B4"/>
<circle cx="1135" cy="175" r="15" fill="#FFF3B4"/>
<circle cx="1215" cy="175" r="15" fill="#FFF3B4"/>
<circle cx="1295" cy="175" r="15" fill="#FFF3B4"/>
<circle cx="1375" cy="175" r="15" fill="#FFF3B4"/>
<circle cx="1455" cy="175" r="15" fill="#FFF3B4"/>
<circle cx="1535" cy="175" r="15" fill="#FFF3B4"/>
<circle cx="1615" cy="175" r="15" fill="#FFF3B4"/>
<circle cx="1695" cy="175" r="15" fill="#FFF3B4"/>
<circle cx="1775" cy="175" r="15" fill="#FFF3B4"/>
<circle cx="1855" cy="175" r="15" fill="#FFF3B4"/>
<circle cx="1935" cy="175" r="15" fill="#FFF3B4"/>
<circle cx="2015" cy="175" r="15" fill="#FFF3B4"/>
<circle cx="2095" cy="175" r="15" fill="#FFF3B4"/>
<circle cx="2175" cy="175" r="15" fill="#FFF3B4"/>
<circle cx="2255" cy="175" r="15" fill="#FFF3B4"/>
<circle cx="2335" cy="175" r="15" fill="#FFF3B4"/>
<circle cx="2415" cy="175" r="15" fill="#FFF3B4"/>
<circle cx="2495" cy="175" r="15" fill="#FFF3B4"/>
<circle cx="2575" cy="175" r="15" fill="#FFF3B4"/>
<circle cx="2655" cy="175" r="15" fill="#FFF3B4"/>
<circle cx="2735" cy="175" r="15" fill="#FFF3B4"/>
<circle cx="2815" cy="175" r="15" fill="#FFF3B4"/>
<circle cx="15" cy="255" r="15" fill="#FFF3B4"/>
<circle cx="95" cy="255" r="15" fill="#FFF3B4"/>
<circle cx="175" cy="255" r="15" fill="#FFF3B4"/>
<circle cx="255" cy="255" r="15" fill="#FFF3B4"/>
<circle cx="335" cy="255" r="15" fill="#FFF3B4"/>
<circle cx="415" cy="255" r="15" fill="#FFF3B4"/>
<circle cx="495" cy="255" r="15" fill="#FFF3B4"/>
<circle cx="575" cy="255" r="15" fill="#FFF3B4"/>
<circle cx="655" cy="255" r="15" fill="#FFF3B4"/>
<circle cx="735" cy="255" r="15" fill="#FFF3B4"/>
<circle cx="815" cy="255" r="15" fill="#FFF3B4"/>
<circle cx="895" cy="255" r="15" fill="#FFF3B4"/>
<circle cx="975" cy="255" r="15" fill="#FFF3B4"/>
<circle cx="1055" cy="255" r="15" fill="#FFF3B4"/>
<circle cx="1135" cy="255" r="15" fill="#FFF3B4"/>
<circle cx="1215" cy="255" r="15" fill="#FFF3B4"/>
<circle cx="1295" cy="255" r="15" fill="#FFF3B4"/>
<circle cx="1375" cy="255" r="15" fill="#FFF3B4"/>
<circle cx="1455" cy="255" r="15" fill="#FFF3B4"/>
<circle cx="1535" cy="255" r="15" fill="#FFF3B4"/>
<circle cx="1615" cy="255" r="15" fill="#FFF3B4"/>
<circle cx="1695" cy="255" r="15" fill="#FFF3B4"/>
<circle cx="1775" cy="255" r="15" fill="#FFF3B4"/>
<circle cx="1855" cy="255" r="15" fill="#FFF3B4"/>
<circle cx="1935" cy="255" r="15" fill="#FFF3B4"/>
<circle cx="2015" cy="255" r="15" fill="#FFF3B4"/>
<circle cx="2095" cy="255" r="15" fill="#FFF3B4"/>
<circle cx="2175" cy="255" r="15" fill="#FFF3B4"/>
<circle cx="2255" cy="255" r="15" fill="#FFF3B4"/>
<circle cx="2335" cy="255" r="15" fill="#FFF3B4"/>
<circle cx="2415" cy="255" r="15" fill="#FFF3B4"/>
<circle cx="2495" cy="255" r="15" fill="#FFF3B4"/>
<circle cx="2575" cy="255" r="15" fill="#FFF3B4"/>
<circle cx="2655" cy="255" r="15" fill="#FFF3B4"/>
<circle cx="2735" cy="255" r="15" fill="#FFF3B4"/>
<circle cx="2815" cy="255" r="15" fill="#FFF3B4"/>
<circle cx="15" cy="335" r="15" fill="#FFF3B4"/>
<circle cx="95" cy="335" r="15" fill="#FFF3B4"/>
<circle cx="175" cy="335" r="15" fill="#FFF3B4"/>
<circle cx="255" cy="335" r="15" fill="#FFF3B4"/>
<circle cx="335" cy="335" r="15" fill="#FFF3B4"/>
<circle cx="415" cy="335" r="15" fill="#FFF3B4"/>
<circle cx="495" cy="335" r="15" fill="#FFF3B4"/>
<circle cx="575" cy="335" r="15" fill="#FFF3B4"/>
<circle cx="655" cy="335" r="15" fill="#FFF3B4"/>
<circle cx="735" cy="335" r="15" fill="#FFF3B4"/>
<circle cx="815" cy="335" r="15" fill="#FFF3B4"/>
<circle cx="895" cy="335" r="15" fill="#FFF3B4"/>
<circle cx="975" cy="335" r="15" fill="#FFF3B4"/>
<circle cx="1055" cy="335" r="15" fill="#FFF3B4"/>
<circle cx="1135" cy="335" r="15" fill="#FFF3B4"/>
<circle cx="1215" cy="335" r="15" fill="#FFF3B4"/>
<circle cx="1295" cy="335" r="15" fill="#FFF3B4"/>
<circle cx="1375" cy="335" r="15" fill="#FFF3B4"/>
<circle cx="1455" cy="335" r="15" fill="#FFF3B4"/>
<circle cx="1535" cy="335" r="15" fill="#FFF3B4"/>
<circle cx="1615" cy="335" r="15" fill="#FFF3B4"/>
<circle cx="1695" cy="335" r="15" fill="#FFF3B4"/>
<circle cx="1775" cy="335" r="15" fill="#FFF3B4"/>
<circle cx="1855" cy="335" r="15" fill="#FFF3B4"/>
<circle cx="1935" cy="335" r="15" fill="#FFF3B4"/>
<circle cx="2015" cy="335" r="15" fill="#FFF3B4"/>
<circle cx="2095" cy="335" r="15" fill="#FFF3B4"/>
<circle cx="2175" cy="335" r="15" fill="#FFF3B4"/>
<circle cx="2255" cy="335" r="15" fill="#FFF3B4"/>
<circle cx="2335" cy="335" r="15" fill="#FFF3B4"/>
<circle cx="2415" cy="335" r="15" fill="#FFF3B4"/>
<circle cx="2495" cy="335" r="15" fill="#FFF3B4"/>
<circle cx="2575" cy="335" r="15" fill="#FFF3B4"/>
<circle cx="2655" cy="335" r="15" fill="#FFF3B4"/>
<circle cx="2735" cy="335" r="15" fill="#FFF3B4"/>
<circle cx="2815" cy="335" r="15" fill="#FFF3B4"/>
<circle cx="15" cy="415" r="15" fill="#FFF3B4"/>
<circle cx="95" cy="415" r="15" fill="#FFF3B4"/>
<circle cx="175" cy="415" r="15" fill="#FFF3B4"/>
<circle cx="255" cy="415" r="15" fill="#FFF3B4"/>
<circle cx="335" cy="415" r="15" fill="#FFF3B4"/>
<circle cx="415" cy="415" r="15" fill="#FFF3B4"/>
<circle cx="495" cy="415" r="15" fill="#FFF3B4"/>
<circle cx="575" cy="415" r="15" fill="#FFF3B4"/>
<circle cx="655" cy="415" r="15" fill="#FFF3B4"/>
<circle cx="735" cy="415" r="15" fill="#FFF3B4"/>
<circle cx="815" cy="415" r="15" fill="#FFF3B4"/>
<circle cx="895" cy="415" r="15" fill="#FFF3B4"/>
<circle cx="975" cy="415" r="15" fill="#FFF3B4"/>
<circle cx="1055" cy="415" r="15" fill="#FFF3B4"/>
<circle cx="1135" cy="415" r="15" fill="#FFF3B4"/>
<circle cx="1215" cy="415" r="15" fill="#FFF3B4"/>
<circle cx="1295" cy="415" r="15" fill="#FFF3B4"/>
<circle cx="1375" cy="415" r="15" fill="#FFF3B4"/>
<circle cx="1455" cy="415" r="15" fill="#FFF3B4"/>
<circle cx="1535" cy="415" r="15" fill="#FFF3B4"/>
<circle cx="1615" cy="415" r="15" fill="#FFF3B4"/>
<circle cx="1695" cy="415" r="15" fill="#FFF3B4"/>
<circle cx="1775" cy="415" r="15" fill="#FFF3B4"/>
<circle cx="1855" cy="415" r="15" fill="#FFF3B4"/>
<circle cx="1935" cy="415" r="15" fill="#FFF3B4"/>
<circle cx="2015" cy="415" r="15" fill="#FFF3B4"/>
<circle cx="2095" cy="415" r="15" fill="#FFF3B4"/>
<circle cx="2175" cy="415" r="15" fill="#FFF3B4"/>
<circle cx="2255" cy="415" r="15" fill="#FFF3B4"/>
<circle cx="2335" cy="415" r="15" fill="#FFF3B4"/>
<circle cx="2415" cy="415" r="15" fill="#FFF3B4"/>
<circle cx="2495" cy="415" r="15" fill="#FFF3B4"/>
<circle cx="2575" cy="415" r="15" fill="#FFF3B4"/>
<circle cx="2655" cy="415" r="15" fill="#FFF3B4"/>
<circle cx="2735" cy="415" r="15" fill="#FFF3B4"/>
<circle cx="2815" cy="415" r="15" fill="#FFF3B4"/>
<circle cx="15" cy="495" r="15" fill="#FFF3B4"/>
<circle cx="95" cy="495" r="15" fill="#FFF3B4"/>
<circle cx="175" cy="495" r="15" fill="#FFF3B4"/>
<circle cx="255" cy="495" r="15" fill="#FFF3B4"/>
<circle cx="335" cy="495" r="15" fill="#FFF3B4"/>
<circle cx="415" cy="495" r="15" fill="#FFF3B4"/>
<circle cx="495" cy="495" r="15" fill="#FFF3B4"/>
<circle cx="575" cy="495" r="15" fill="#FFF3B4"/>
<circle cx="655" cy="495" r="15" fill="#FFF3B4"/>
<circle cx="735" cy="495" r="15" fill="#FFF3B4"/>
<circle cx="815" cy="495" r="15" fill="#FFF3B4"/>
<circle cx="895" cy="495" r="15" fill="#FFF3B4"/>
<circle cx="975" cy="495" r="15" fill="#FFF3B4"/>
<circle cx="1055" cy="495" r="15" fill="#FFF3B4"/>
<circle cx="1135" cy="495" r="15" fill="#FFF3B4"/>
<circle cx="1215" cy="495" r="15" fill="#FFF3B4"/>
<circle cx="1295" cy="495" r="15" fill="#FFF3B4"/>
<circle cx="1375" cy="495" r="15" fill="#FFF3B4"/>
<circle cx="1455" cy="495" r="15" fill="#FFF3B4"/>
<circle cx="1535" cy="495" r="15" fill="#FFF3B4"/>
<circle cx="1615" cy="495" r="15" fill="#FFF3B4"/>
<circle cx="1695" cy="495" r="15" fill="#FFF3B4"/>
<circle cx="1775" cy="495" r="15" fill="#FFF3B4"/>
<circle cx="1855" cy="495" r="15" fill="#FFF3B4"/>
<circle cx="1935" cy="495" r="15" fill="#FFF3B4"/>
<circle cx="2015" cy="495" r="15" fill="#FFF3B4"/>
<circle cx="2095" cy="495" r="15" fill="#FFF3B4"/>
<circle cx="2175" cy="495" r="15" fill="#FFF3B4"/>
<circle cx="2255" cy="495" r="15" fill="#FFF3B4"/>
<circle cx="2335" cy="495" r="15" fill="#FFF3B4"/>
<circle cx="2415" cy="495" r="15" fill="#FFF3B4"/>
<circle cx="2495" cy="495" r="15" fill="#FFF3B4"/>
<circle cx="2575" cy="495" r="15" fill="#FFF3B4"/>
<circle cx="2655" cy="495" r="15" fill="#FFF3B4"/>
<circle cx="2735" cy="495" r="15" fill="#FFF3B4"/>
<circle cx="2815" cy="495" r="15" fill="#FFF3B4"/>
<circle cx="15" cy="575" r="15" fill="#FFF3B4"/>
<circle cx="95" cy="575" r="15" fill="#FFF3B4"/>
<circle cx="175" cy="575" r="15" fill="#FFF3B4"/>
<circle cx="255" cy="575" r="15" fill="#FFF3B4"/>
<circle cx="335" cy="575" r="15" fill="#FFF3B4"/>
<circle cx="415" cy="575" r="15" fill="#FFF3B4"/>
<circle cx="495" cy="575" r="15" fill="#FFF3B4"/>
<circle cx="575" cy="575" r="15" fill="#FFF3B4"/>
<circle cx="655" cy="575" r="15" fill="#FFF3B4"/>
<circle cx="735" cy="575" r="15" fill="#FFF3B4"/>
<circle cx="815" cy="575" r="15" fill="#FFF3B4"/>
<circle cx="895" cy="575" r="15" fill="#FFF3B4"/>
<circle cx="975" cy="575" r="15" fill="#FFF3B4"/>
<circle cx="1055" cy="575" r="15" fill="#FFF3B4"/>
<circle cx="1135" cy="575" r="15" fill="#FFF3B4"/>
<circle cx="1215" cy="575" r="15" fill="#FFF3B4"/>
<circle cx="1295" cy="575" r="15" fill="#FFF3B4"/>
<circle cx="1375" cy="575" r="15" fill="#FFF3B4"/>
<circle cx="1455" cy="575" r="15" fill="#FFF3B4"/>
<circle cx="1535" cy="575" r="15" fill="#FFF3B4"/>
<circle cx="1615" cy="575" r="15" fill="#FFF3B4"/>
<circle cx="1695" cy="575" r="15" fill="#FFF3B4"/>
<circle cx="1775" cy="575" r="15" fill="#FFF3B4"/>
<circle cx="1855" cy="575" r="15" fill="#FFF3B4"/>
<circle cx="1935" cy="575" r="15" fill="#FFF3B4"/>
<circle cx="2015" cy="575" r="15" fill="#FFF3B4"/>
<circle cx="2095" cy="575" r="15" fill="#FFF3B4"/>
<circle cx="2175" cy="575" r="15" fill="#FFF3B4"/>
<circle cx="2255" cy="575" r="15" fill="#FFF3B4"/>
<circle cx="2335" cy="575" r="15" fill="#FFF3B4"/>
<circle cx="2415" cy="575" r="15" fill="#FFF3B4"/>
<circle cx="2495" cy="575" r="15" fill="#FFF3B4"/>
<circle cx="2575" cy="575" r="15" fill="#FFF3B4"/>
<circle cx="2655" cy="575" r="15" fill="#FFF3B4"/>
<circle cx="2735" cy="575" r="15" fill="#FFF3B4"/>
<circle cx="2815" cy="575" r="15" fill="#FFF3B4"/>
<circle cx="15" cy="655" r="15" fill="#FFF3B4"/>
<circle cx="95" cy="655" r="15" fill="#FFF3B4"/>
<circle cx="175" cy="655" r="15" fill="#FFF3B4"/>
<circle cx="255" cy="655" r="15" fill="#FFF3B4"/>
<circle cx="335" cy="655" r="15" fill="#FFF3B4"/>
<circle cx="415" cy="655" r="15" fill="#FFF3B4"/>
<circle cx="495" cy="655" r="15" fill="#FFF3B4"/>
<circle cx="575" cy="655" r="15" fill="#FFF3B4"/>
<circle cx="655" cy="655" r="15" fill="#FFF3B4"/>
<circle cx="735" cy="655" r="15" fill="#FFF3B4"/>
<circle cx="815" cy="655" r="15" fill="#FFF3B4"/>
<circle cx="895" cy="655" r="15" fill="#FFF3B4"/>
<circle cx="975" cy="655" r="15" fill="#FFF3B4"/>
<circle cx="1055" cy="655" r="15" fill="#FFF3B4"/>
<circle cx="1135" cy="655" r="15" fill="#FFF3B4"/>
<circle cx="1215" cy="655" r="15" fill="#FFF3B4"/>
<circle cx="1295" cy="655" r="15" fill="#FFF3B4"/>
<circle cx="1375" cy="655" r="15" fill="#FFF3B4"/>
<circle cx="1455" cy="655" r="15" fill="#FFF3B4"/>
<circle cx="1535" cy="655" r="15" fill="#FFF3B4"/>
<circle cx="1615" cy="655" r="15" fill="#FFF3B4"/>
<circle cx="1695" cy="655" r="15" fill="#FFF3B4"/>
<circle cx="1775" cy="655" r="15" fill="#FFF3B4"/>
<circle cx="1855" cy="655" r="15" fill="#FFF3B4"/>
<circle cx="1935" cy="655" r="15" fill="#FFF3B4"/>
<circle cx="2015" cy="655" r="15" fill="#FFF3B4"/>
<circle cx="2095" cy="655" r="15" fill="#FFF3B4"/>
<circle cx="2175" cy="655" r="15" fill="#FFF3B4"/>
<circle cx="2255" cy="655" r="15" fill="#FFF3B4"/>
<circle cx="2335" cy="655" r="15" fill="#FFF3B4"/>
<circle cx="2415" cy="655" r="15" fill="#FFF3B4"/>
<circle cx="2495" cy="655" r="15" fill="#FFF3B4"/>
<circle cx="2575" cy="655" r="15" fill="#FFF3B4"/>
<circle cx="2655" cy="655" r="15" fill="#FFF3B4"/>
<circle cx="2735" cy="655" r="15" fill="#FFF3B4"/>
<circle cx="2815" cy="655" r="15" fill="#FFF3B4"/>
<circle cx="15" cy="735" r="15" fill="#FFF3B4"/>
<circle cx="95" cy="735" r="15" fill="#FFF3B4"/>
<circle cx="175" cy="735" r="15" fill="#FFF3B4"/>
<circle cx="255" cy="735" r="15" fill="#FFF3B4"/>
<circle cx="335" cy="735" r="15" fill="#FFF3B4"/>
<circle cx="415" cy="735" r="15" fill="#FFF3B4"/>
<circle cx="495" cy="735" r="15" fill="#FFF3B4"/>
<circle cx="575" cy="735" r="15" fill="#FFF3B4"/>
<circle cx="655" cy="735" r="15" fill="#FFF3B4"/>
<circle cx="735" cy="735" r="15" fill="#FFF3B4"/>
<circle cx="815" cy="735" r="15" fill="#FFF3B4"/>
<circle cx="895" cy="735" r="15" fill="#FFF3B4"/>
<circle cx="975" cy="735" r="15" fill="#FFF3B4"/>
<circle cx="1055" cy="735" r="15" fill="#FFF3B4"/>
<circle cx="1135" cy="735" r="15" fill="#FFF3B4"/>
<circle cx="1215" cy="735" r="15" fill="#FFF3B4"/>
<circle cx="1295" cy="735" r="15" fill="#FFF3B4"/>
<circle cx="1375" cy="735" r="15" fill="#FFF3B4"/>
<circle cx="1455" cy="735" r="15" fill="#FFF3B4"/>
<circle cx="1535" cy="735" r="15" fill="#FFF3B4"/>
<circle cx="1615" cy="735" r="15" fill="#FFF3B4"/>
<circle cx="1695" cy="735" r="15" fill="#FFF3B4"/>
<circle cx="1775" cy="735" r="15" fill="#FFF3B4"/>
<circle cx="1855" cy="735" r="15" fill="#FFF3B4"/>
<circle cx="1935" cy="735" r="15" fill="#FFF3B4"/>
<circle cx="2015" cy="735" r="15" fill="#FFF3B4"/>
<circle cx="2095" cy="735" r="15" fill="#FFF3B4"/>
<circle cx="2175" cy="735" r="15" fill="#FFF3B4"/>
<circle cx="2255" cy="735" r="15" fill="#FFF3B4"/>
<circle cx="2335" cy="735" r="15" fill="#FFF3B4"/>
<circle cx="2415" cy="735" r="15" fill="#FFF3B4"/>
<circle cx="2495" cy="735" r="15" fill="#FFF3B4"/>
<circle cx="2575" cy="735" r="15" fill="#FFF3B4"/>
<circle cx="2655" cy="735" r="15" fill="#FFF3B4"/>
<circle cx="2735" cy="735" r="15" fill="#FFF3B4"/>
<circle cx="2815" cy="735" r="15" fill="#FFF3B4"/>
<circle cx="15" cy="815" r="15" fill="#FFF3B4"/>
<circle cx="95" cy="815" r="15" fill="#FFF3B4"/>
<circle cx="175" cy="815" r="15" fill="#FFF3B4"/>
<circle cx="255" cy="815" r="15" fill="#FFF3B4"/>
<circle cx="335" cy="815" r="15" fill="#FFF3B4"/>
<circle cx="415" cy="815" r="15" fill="#FFF3B4"/>
<circle cx="495" cy="815" r="15" fill="#FFF3B4"/>
<circle cx="575" cy="815" r="15" fill="#FFF3B4"/>
<circle cx="655" cy="815" r="15" fill="#FFF3B4"/>
<circle cx="735" cy="815" r="15" fill="#FFF3B4"/>
<circle cx="815" cy="815" r="15" fill="#FFF3B4"/>
<circle cx="895" cy="815" r="15" fill="#FFF3B4"/>
<circle cx="975" cy="815" r="15" fill="#FFF3B4"/>
<circle cx="1055" cy="815" r="15" fill="#FFF3B4"/>
<circle cx="1135" cy="815" r="15" fill="#FFF3B4"/>
<circle cx="1215" cy="815" r="15" fill="#FFF3B4"/>
<circle cx="1295" cy="815" r="15" fill="#FFF3B4"/>
<circle cx="1375" cy="815" r="15" fill="#FFF3B4"/>
<circle cx="1455" cy="815" r="15" fill="#FFF3B4"/>
<circle cx="1535" cy="815" r="15" fill="#FFF3B4"/>
<circle cx="1615" cy="815" r="15" fill="#FFF3B4"/>
<circle cx="1695" cy="815" r="15" fill="#FFF3B4"/>
<circle cx="1775" cy="815" r="15" fill="#FFF3B4"/>
<circle cx="1855" cy="815" r="15" fill="#FFF3B4"/>
<circle cx="1935" cy="815" r="15" fill="#FFF3B4"/>
<circle cx="2015" cy="815" r="15" fill="#FFF3B4"/>
<circle cx="2095" cy="815" r="15" fill="#FFF3B4"/>
<circle cx="2175" cy="815" r="15" fill="#FFF3B4"/>
<circle cx="2255" cy="815" r="15" fill="#FFF3B4"/>
<circle cx="2335" cy="815" r="15" fill="#FFF3B4"/>
<circle cx="2415" cy="815" r="15" fill="#FFF3B4"/>
<circle cx="2495" cy="815" r="15" fill="#FFF3B4"/>
<circle cx="2575" cy="815" r="15" fill="#FFF3B4"/>
<circle cx="2655" cy="815" r="15" fill="#FFF3B4"/>
<circle cx="2735" cy="815" r="15" fill="#FFF3B4"/>
<circle cx="2815" cy="815" r="15" fill="#FFF3B4"/>
<circle cx="15" cy="895" r="15" fill="#FFF3B4"/>
<circle cx="95" cy="895" r="15" fill="#FFF3B4"/>
<circle cx="175" cy="895" r="15" fill="#FFF3B4"/>
<circle cx="255" cy="895" r="15" fill="#FFF3B4"/>
<circle cx="335" cy="895" r="15" fill="#FFF3B4"/>
<circle cx="415" cy="895" r="15" fill="#FFF3B4"/>
<circle cx="495" cy="895" r="15" fill="#FFF3B4"/>
<circle cx="575" cy="895" r="15" fill="#FFF3B4"/>
<circle cx="655" cy="895" r="15" fill="#FFF3B4"/>
<circle cx="735" cy="895" r="15" fill="#FFF3B4"/>
<circle cx="815" cy="895" r="15" fill="#FFF3B4"/>
<circle cx="895" cy="895" r="15" fill="#FFF3B4"/>
<circle cx="975" cy="895" r="15" fill="#FFF3B4"/>
<circle cx="1055" cy="895" r="15" fill="#FFF3B4"/>
<circle cx="1135" cy="895" r="15" fill="#FFF3B4"/>
<circle cx="1215" cy="895" r="15" fill="#FFF3B4"/>
<circle cx="1295" cy="895" r="15" fill="#FFF3B4"/>
<circle cx="1375" cy="895" r="15" fill="#FFF3B4"/>
<circle cx="1455" cy="895" r="15" fill="#FFF3B4"/>
<circle cx="1535" cy="895" r="15" fill="#FFF3B4"/>
<circle cx="1615" cy="895" r="15" fill="#FFF3B4"/>
<circle cx="1695" cy="895" r="15" fill="#FFF3B4"/>
<circle cx="1775" cy="895" r="15" fill="#FFF3B4"/>
<circle cx="1855" cy="895" r="15" fill="#FFF3B4"/>
<circle cx="1935" cy="895" r="15" fill="#FFF3B4"/>
<circle cx="2015" cy="895" r="15" fill="#FFF3B4"/>
<circle cx="2095" cy="895" r="15" fill="#FFF3B4"/>
<circle cx="2175" cy="895" r="15" fill="#FFF3B4"/>
<circle cx="2255" cy="895" r="15" fill="#FFF3B4"/>
<circle cx="2335" cy="895" r="15" fill="#FFF3B4"/>
<circle cx="2415" cy="895" r="15" fill="#FFF3B4"/>
<circle cx="2495" cy="895" r="15" fill="#FFF3B4"/>
<circle cx="2575" cy="895" r="15" fill="#FFF3B4"/>
<circle cx="2655" cy="895" r="15" fill="#FFF3B4"/>
<circle cx="2735" cy="895" r="15" fill="#FFF3B4"/>
<circle cx="2815" cy="895" r="15" fill="#FFF3B4"/>
<circle cx="15" cy="975" r="15" fill="#FFF3B4"/>
<circle cx="95" cy="975" r="15" fill="#FFF3B4"/>
<circle cx="175" cy="975" r="15" fill="#FFF3B4"/>
<circle cx="255" cy="975" r="15" fill="#FFF3B4"/>
<circle cx="335" cy="975" r="15" fill="#FFF3B4"/>
<circle cx="415" cy="975" r="15" fill="#FFF3B4"/>
<circle cx="495" cy="975" r="15" fill="#FFF3B4"/>
<circle cx="575" cy="975" r="15" fill="#FFF3B4"/>
<circle cx="655" cy="975" r="15" fill="#FFF3B4"/>
<circle cx="735" cy="975" r="15" fill="#FFF3B4"/>
<circle cx="815" cy="975" r="15" fill="#FFF3B4"/>
<circle cx="895" cy="975" r="15" fill="#FFF3B4"/>
<circle cx="975" cy="975" r="15" fill="#FFF3B4"/>
<circle cx="1055" cy="975" r="15" fill="#FFF3B4"/>
<circle cx="1135" cy="975" r="15" fill="#FFF3B4"/>
<circle cx="1215" cy="975" r="15" fill="#FFF3B4"/>
<circle cx="1295" cy="975" r="15" fill="#FFF3B4"/>
<circle cx="1375" cy="975" r="15" fill="#FFF3B4"/>
<circle cx="1455" cy="975" r="15" fill="#FFF3B4"/>
<circle cx="1535" cy="975" r="15" fill="#FFF3B4"/>
<circle cx="1615" cy="975" r="15" fill="#FFF3B4"/>
<circle cx="1695" cy="975" r="15" fill="#FFF3B4"/>
<circle cx="1775" cy="975" r="15" fill="#FFF3B4"/>
<circle cx="1855" cy="975" r="15" fill="#FFF3B4"/>
<circle cx="1935" cy="975" r="15" fill="#FFF3B4"/>
<circle cx="2015" cy="975" r="15" fill="#FFF3B4"/>
<circle cx="2095" cy="975" r="15" fill="#FFF3B4"/>
<circle cx="2175" cy="975" r="15" fill="#FFF3B4"/>
<circle cx="2255" cy="975" r="15" fill="#FFF3B4"/>
<circle cx="2335" cy="975" r="15" fill="#FFF3B4"/>
<circle cx="2415" cy="975" r="15" fill="#FFF3B4"/>
<circle cx="2495" cy="975" r="15" fill="#FFF3B4"/>
<circle cx="2575" cy="975" r="15" fill="#FFF3B4"/>
<circle cx="2655" cy="975" r="15" fill="#FFF3B4"/>
<circle cx="2735" cy="975" r="15" fill="#FFF3B4"/>
<circle cx="2815" cy="975" r="15" fill="#FFF3B4"/>
<circle cx="15" cy="1055" r="15" fill="#FFF3B4"/>
<circle cx="95" cy="1055" r="15" fill="#FFF3B4"/>
<circle cx="175" cy="1055" r="15" fill="#FFF3B4"/>
<circle cx="255" cy="1055" r="15" fill="#FFF3B4"/>
<circle cx="335" cy="1055" r="15" fill="#FFF3B4"/>
<circle cx="415" cy="1055" r="15" fill="#FFF3B4"/>
<circle cx="495" cy="1055" r="15" fill="#FFF3B4"/>
<circle cx="575" cy="1055" r="15" fill="#FFF3B4"/>
<circle cx="655" cy="1055" r="15" fill="#FFF3B4"/>
<circle cx="735" cy="1055" r="15" fill="#FFF3B4"/>
<circle cx="815" cy="1055" r="15" fill="#FFF3B4"/>
<circle cx="895" cy="1055" r="15" fill="#FFF3B4"/>
<circle cx="975" cy="1055" r="15" fill="#FFF3B4"/>
<circle cx="1055" cy="1055" r="15" fill="#FFF3B4"/>
<circle cx="1135" cy="1055" r="15" fill="#FFF3B4"/>
<circle cx="1215" cy="1055" r="15" fill="#FFF3B4"/>
<circle cx="1295" cy="1055" r="15" fill="#FFF3B4"/>
<circle cx="1375" cy="1055" r="15" fill="#FFF3B4"/>
<circle cx="1455" cy="1055" r="15" fill="#FFF3B4"/>
<circle cx="1535" cy="1055" r="15" fill="#FFF3B4"/>
<circle cx="1615" cy="1055" r="15" fill="#FFF3B4"/>
<circle cx="1695" cy="1055" r="15" fill="#FFF3B4"/>
<circle cx="1775" cy="1055" r="15" fill="#FFF3B4"/>
<circle cx="1855" cy="1055" r="15" fill="#FFF3B4"/>
<circle cx="1935" cy="1055" r="15" fill="#FFF3B4"/>
<circle cx="2015" cy="1055" r="15" fill="#FFF3B4"/>
<circle cx="2095" cy="1055" r="15" fill="#FFF3B4"/>
<circle cx="2175" cy="1055" r="15" fill="#FFF3B4"/>
<circle cx="2255" cy="1055" r="15" fill="#FFF3B4"/>
<circle cx="2335" cy="1055" r="15" fill="#FFF3B4"/>
<circle cx="2415" cy="1055" r="15" fill="#FFF3B4"/>
<circle cx="2495" cy="1055" r="15" fill="#FFF3B4"/>
<circle cx="2575" cy="1055" r="15" fill="#FFF3B4"/>
<circle cx="2655" cy="1055" r="15" fill="#FFF3B4"/>
<circle cx="2735" cy="1055" r="15" fill="#FFF3B4"/>
<circle cx="2815" cy="1055" r="15" fill="#FFF3B4"/>
<circle cx="15" cy="1135" r="15" fill="#FFF3B4"/>
<circle cx="95" cy="1135" r="15" fill="#FFF3B4"/>
<circle cx="175" cy="1135" r="15" fill="#FFF3B4"/>
<circle cx="255" cy="1135" r="15" fill="#FFF3B4"/>
<circle cx="335" cy="1135" r="15" fill="#FFF3B4"/>
<circle cx="415" cy="1135" r="15" fill="#FFF3B4"/>
<circle cx="495" cy="1135" r="15" fill="#FFF3B4"/>
<circle cx="575" cy="1135" r="15" fill="#FFF3B4"/>
<circle cx="655" cy="1135" r="15" fill="#FFF3B4"/>
<circle cx="735" cy="1135" r="15" fill="#FFF3B4"/>
<circle cx="815" cy="1135" r="15" fill="#FFF3B4"/>
<circle cx="895" cy="1135" r="15" fill="#FFF3B4"/>
<circle cx="975" cy="1135" r="15" fill="#FFF3B4"/>
<circle cx="1055" cy="1135" r="15" fill="#FFF3B4"/>
<circle cx="1135" cy="1135" r="15" fill="#FFF3B4"/>
<circle cx="1215" cy="1135" r="15" fill="#FFF3B4"/>
<circle cx="1295" cy="1135" r="15" fill="#FFF3B4"/>
<circle cx="1375" cy="1135" r="15" fill="#FFF3B4"/>
<circle cx="1455" cy="1135" r="15" fill="#FFF3B4"/>
<circle cx="1535" cy="1135" r="15" fill="#FFF3B4"/>
<circle cx="1615" cy="1135" r="15" fill="#FFF3B4"/>
<circle cx="1695" cy="1135" r="15" fill="#FFF3B4"/>
<circle cx="1775" cy="1135" r="15" fill="#FFF3B4"/>
<circle cx="1855" cy="1135" r="15" fill="#FFF3B4"/>
<circle cx="1935" cy="1135" r="15" fill="#FFF3B4"/>
<circle cx="2015" cy="1135" r="15" fill="#FFF3B4"/>
<circle cx="2095" cy="1135" r="15" fill="#FFF3B4"/>
<circle cx="2175" cy="1135" r="15" fill="#FFF3B4"/>
<circle cx="2255" cy="1135" r="15" fill="#FFF3B4"/>
<circle cx="2335" cy="1135" r="15" fill="#FFF3B4"/>
<circle cx="2415" cy="1135" r="15" fill="#FFF3B4"/>
<circle cx="2495" cy="1135" r="15" fill="#FFF3B4"/>
<circle cx="2575" cy="1135" r="15" fill="#FFF3B4"/>
<circle cx="2655" cy="1135" r="15" fill="#FFF3B4"/>
<circle cx="2735" cy="1135" r="15" fill="#FFF3B4"/>
<circle cx="2815" cy="1135" r="15" fill="#FFF3B4"/>
<circle cx="15" cy="1215" r="15" fill="#FFF3B4"/>
<circle cx="95" cy="1215" r="15" fill="#FFF3B4"/>
<circle cx="175" cy="1215" r="15" fill="#FFF3B4"/>
<circle cx="255" cy="1215" r="15" fill="#FFF3B4"/>
<circle cx="335" cy="1215" r="15" fill="#FFF3B4"/>
<circle cx="415" cy="1215" r="15" fill="#FFF3B4"/>
<circle cx="495" cy="1215" r="15" fill="#FFF3B4"/>
<circle cx="575" cy="1215" r="15" fill="#FFF3B4"/>
<circle cx="655" cy="1215" r="15" fill="#FFF3B4"/>
<circle cx="735" cy="1215" r="15" fill="#FFF3B4"/>
<circle cx="815" cy="1215" r="15" fill="#FFF3B4"/>
<circle cx="895" cy="1215" r="15" fill="#FFF3B4"/>
<circle cx="975" cy="1215" r="15" fill="#FFF3B4"/>
<circle cx="1055" cy="1215" r="15" fill="#FFF3B4"/>
<circle cx="1135" cy="1215" r="15" fill="#FFF3B4"/>
<circle cx="1215" cy="1215" r="15" fill="#FFF3B4"/>
<circle cx="1295" cy="1215" r="15" fill="#FFF3B4"/>
<circle cx="1375" cy="1215" r="15" fill="#FFF3B4"/>
<circle cx="1455" cy="1215" r="15" fill="#FFF3B4"/>
<circle cx="1535" cy="1215" r="15" fill="#FFF3B4"/>
<circle cx="1615" cy="1215" r="15" fill="#FFF3B4"/>
<circle cx="1695" cy="1215" r="15" fill="#FFF3B4"/>
<circle cx="1775" cy="1215" r="15" fill="#FFF3B4"/>
<circle cx="1855" cy="1215" r="15" fill="#FFF3B4"/>
<circle cx="1935" cy="1215" r="15" fill="#FFF3B4"/>
<circle cx="2015" cy="1215" r="15" fill="#FFF3B4"/>
<circle cx="2095" cy="1215" r="15" fill="#FFF3B4"/>
<circle cx="2175" cy="1215" r="15" fill="#FFF3B4"/>
<circle cx="2255" cy="1215" r="15" fill="#FFF3B4"/>
<circle cx="2335" cy="1215" r="15" fill="#FFF3B4"/>
<circle cx="2415" cy="1215" r="15" fill="#FFF3B4"/>
<circle cx="2495" cy="1215" r="15" fill="#FFF3B4"/>
<circle cx="2575" cy="1215" r="15" fill="#FFF3B4"/>
<circle cx="2655" cy="1215" r="15" fill="#FFF3B4"/>
<circle cx="2735" cy="1215" r="15" fill="#FFF3B4"/>
<circle cx="2815" cy="1215" r="15" fill="#FFF3B4"/>
<circle cx="15" cy="1295" r="15" fill="#FFF3B4"/>
<circle cx="95" cy="1295" r="15" fill="#FFF3B4"/>
<circle cx="175" cy="1295" r="15" fill="#FFF3B4"/>
<circle cx="255" cy="1295" r="15" fill="#FFF3B4"/>
<circle cx="335" cy="1295" r="15" fill="#FFF3B4"/>
<circle cx="415" cy="1295" r="15" fill="#FFF3B4"/>
<circle cx="495" cy="1295" r="15" fill="#FFF3B4"/>
<circle cx="575" cy="1295" r="15" fill="#FFF3B4"/>
<circle cx="655" cy="1295" r="15" fill="#FFF3B4"/>
<circle cx="735" cy="1295" r="15" fill="#FFF3B4"/>
<circle cx="815" cy="1295" r="15" fill="#FFF3B4"/>
<circle cx="895" cy="1295" r="15" fill="#FFF3B4"/>
<circle cx="975" cy="1295" r="15" fill="#FFF3B4"/>
<circle cx="1055" cy="1295" r="15" fill="#FFF3B4"/>
<circle cx="1135" cy="1295" r="15" fill="#FFF3B4"/>
<circle cx="1215" cy="1295" r="15" fill="#FFF3B4"/>
<circle cx="1295" cy="1295" r="15" fill="#FFF3B4"/>
<circle cx="1375" cy="1295" r="15" fill="#FFF3B4"/>
<circle cx="1455" cy="1295" r="15" fill="#FFF3B4"/>
<circle cx="1535" cy="1295" r="15" fill="#FFF3B4"/>
<circle cx="1615" cy="1295" r="15" fill="#FFF3B4"/>
<circle cx="1695" cy="1295" r="15" fill="#FFF3B4"/>
<circle cx="1775" cy="1295" r="15" fill="#FFF3B4"/>
<circle cx="1855" cy="1295" r="15" fill="#FFF3B4"/>
<circle cx="1935" cy="1295" r="15" fill="#FFF3B4"/>
<circle cx="2015" cy="1295" r="15" fill="#FFF3B4"/>
<circle cx="2095" cy="1295" r="15" fill="#FFF3B4"/>
<circle cx="2175" cy="1295" r="15" fill="#FFF3B4"/>
<circle cx="2255" cy="1295" r="15" fill="#FFF3B4"/>
<circle cx="2335" cy="1295" r="15" fill="#FFF3B4"/>
<circle cx="2415" cy="1295" r="15" fill="#FFF3B4"/>
<circle cx="2495" cy="1295" r="15" fill="#FFF3B4"/>
<circle cx="2575" cy="1295" r="15" fill="#FFF3B4"/>
<circle cx="2655" cy="1295" r="15" fill="#FFF3B4"/>
<circle cx="2735" cy="1295" r="15" fill="#FFF3B4"/>
<circle cx="2815" cy="1295" r="15" fill="#FFF3B4"/>
<circle cx="15" cy="1375" r="15" fill="#FFF3B4"/>
<circle cx="95" cy="1375" r="15" fill="#FFF3B4"/>
<circle cx="175" cy="1375" r="15" fill="#FFF3B4"/>
<circle cx="255" cy="1375" r="15" fill="#FFF3B4"/>
<circle cx="335" cy="1375" r="15" fill="#FFF3B4"/>
<circle cx="415" cy="1375" r="15" fill="#FFF3B4"/>
<circle cx="495" cy="1375" r="15" fill="#FFF3B4"/>
<circle cx="575" cy="1375" r="15" fill="#FFF3B4"/>
<circle cx="655" cy="1375" r="15" fill="#FFF3B4"/>
<circle cx="735" cy="1375" r="15" fill="#FFF3B4"/>
<circle cx="815" cy="1375" r="15" fill="#FFF3B4"/>
<circle cx="895" cy="1375" r="15" fill="#FFF3B4"/>
<circle cx="975" cy="1375" r="15" fill="#FFF3B4"/>
<circle cx="1055" cy="1375" r="15" fill="#FFF3B4"/>
<circle cx="1135" cy="1375" r="15" fill="#FFF3B4"/>
<circle cx="1215" cy="1375" r="15" fill="#FFF3B4"/>
<circle cx="1295" cy="1375" r="15" fill="#FFF3B4"/>
<circle cx="1375" cy="1375" r="15" fill="#FFF3B4"/>
<circle cx="1455" cy="1375" r="15" fill="#FFF3B4"/>
<circle cx="1535" cy="1375" r="15" fill="#FFF3B4"/>
<circle cx="1615" cy="1375" r="15" fill="#FFF3B4"/>
<circle cx="1695" cy="1375" r="15" fill="#FFF3B4"/>
<circle cx="1775" cy="1375" r="15" fill="#FFF3B4"/>
<circle cx="1855" cy="1375" r="15" fill="#FFF3B4"/>
<circle cx="1935" cy="1375" r="15" fill="#FFF3B4"/>
<circle cx="2015" cy="1375" r="15" fill="#FFF3B4"/>
<circle cx="2095" cy="1375" r="15" fill="#FFF3B4"/>
<circle cx="2175" cy="1375" r="15" fill="#FFF3B4"/>
<circle cx="2255" cy="1375" r="15" fill="#FFF3B4"/>
<circle cx="2335" cy="1375" r="15" fill="#FFF3B4"/>
<circle cx="2415" cy="1375" r="15" fill="#FFF3B4"/>
<circle cx="2495" cy="1375" r="15" fill="#FFF3B4"/>
<circle cx="2575" cy="1375" r="15" fill="#FFF3B4"/>
<circle cx="2655" cy="1375" r="15" fill="#FFF3B4"/>
<circle cx="2735" cy="1375" r="15" fill="#FFF3B4"/>
<circle cx="2815" cy="1375" r="15" fill="#FFF3B4"/>
<circle cx="15" cy="1455" r="15" fill="#FFF3B4"/>
<circle cx="95" cy="1455" r="15" fill="#FFF3B4"/>
<circle cx="175" cy="1455" r="15" fill="#FFF3B4"/>
<circle cx="255" cy="1455" r="15" fill="#FFF3B4"/>
<circle cx="335" cy="1455" r="15" fill="#FFF3B4"/>
<circle cx="415" cy="1455" r="15" fill="#FFF3B4"/>
<circle cx="495" cy="1455" r="15" fill="#FFF3B4"/>
<circle cx="575" cy="1455" r="15" fill="#FFF3B4"/>
<circle cx="655" cy="1455" r="15" fill="#FFF3B4"/>
<circle cx="735" cy="1455" r="15" fill="#FFF3B4"/>
<circle cx="815" cy="1455" r="15" fill="#FFF3B4"/>
<circle cx="895" cy="1455" r="15" fill="#FFF3B4"/>
<circle cx="975" cy="1455" r="15" fill="#FFF3B4"/>
<circle cx="1055" cy="1455" r="15" fill="#FFF3B4"/>
<circle cx="1135" cy="1455" r="15" fill="#FFF3B4"/>
<circle cx="1215" cy="1455" r="15" fill="#FFF3B4"/>
<circle cx="1295" cy="1455" r="15" fill="#FFF3B4"/>
<circle cx="1375" cy="1455" r="15" fill="#FFF3B4"/>
<circle cx="1455" cy="1455" r="15" fill="#FFF3B4"/>
<circle cx="1535" cy="1455" r="15" fill="#FFF3B4"/>
<circle cx="1615" cy="1455" r="15" fill="#FFF3B4"/>
<circle cx="1695" cy="1455" r="15" fill="#FFF3B4"/>
<circle cx="1775" cy="1455" r="15" fill="#FFF3B4"/>
<circle cx="1855" cy="1455" r="15" fill="#FFF3B4"/>
<circle cx="1935" cy="1455" r="15" fill="#FFF3B4"/>
<circle cx="2015" cy="1455" r="15" fill="#FFF3B4"/>
<circle cx="2095" cy="1455" r="15" fill="#FFF3B4"/>
<circle cx="2175" cy="1455" r="15" fill="#FFF3B4"/>
<circle cx="2255" cy="1455" r="15" fill="#FFF3B4"/>
<circle cx="2335" cy="1455" r="15" fill="#FFF3B4"/>
<circle cx="2415" cy="1455" r="15" fill="#FFF3B4"/>
<circle cx="2495" cy="1455" r="15" fill="#FFF3B4"/>
<circle cx="2575" cy="1455" r="15" fill="#FFF3B4"/>
<circle cx="2655" cy="1455" r="15" fill="#FFF3B4"/>
<circle cx="2735" cy="1455" r="15" fill="#FFF3B4"/>
<circle cx="2815" cy="1455" r="15" fill="#FFF3B4"/>
</svg>
