<svg width="1920" height="1020" viewBox="0 0 1920 1020" fill="none" xmlns="http://www.w3.org/2000/svg">
<g opacity="0.4">
<circle cx="55.328" cy="-6.92255" r="15" transform="rotate(-9 55.328 -6.92255)" fill="#FFF3B4"/>
<circle cx="-11.1723" cy="84.6073" r="15" transform="rotate(-9 -11.1723 84.6073)" fill="#FFF3B4"/>
<circle cx="67.8428" cy="72.0925" r="15" transform="rotate(-9 67.8428 72.0925)" fill="#FFF3B4"/>
<circle cx="146.858" cy="59.5778" r="15" transform="rotate(-9 146.858 59.5778)" fill="#FFF3B4"/>
<circle cx="225.873" cy="47.063" r="15" transform="rotate(-9 225.873 47.063)" fill="#FFF3B4"/>
<circle cx="304.888" cy="34.5482" r="15" transform="rotate(-9 304.888 34.5482)" fill="#FFF3B4"/>
<circle cx="383.903" cy="22.0335" r="15" transform="rotate(-9 383.903 22.0335)" fill="#FFF3B4"/>
<circle cx="462.918" cy="9.51873" r="15" transform="rotate(-9 462.918 9.51873)" fill="#FFF3B4"/>
<circle cx="541.933" cy="-2.99604" r="15" transform="rotate(-9 541.933 -2.99604)" fill="#FFF3B4"/>
<circle cx="620.948" cy="-15.5108" r="15" transform="rotate(-9 620.948 -15.5108)" fill="#FFF3B4"/>
<circle cx="1.34251" cy="163.622" r="15" transform="rotate(-9 1.34251 163.622)" fill="#FFF3B4"/>
<circle cx="80.3575" cy="151.108" r="15" transform="rotate(-9 80.3575 151.108)" fill="#FFF3B4"/>
<circle cx="159.373" cy="138.593" r="15" transform="rotate(-9 159.373 138.593)" fill="#FFF3B4"/>
<circle cx="238.388" cy="126.078" r="15" transform="rotate(-9 238.388 126.078)" fill="#FFF3B4"/>
<circle cx="317.403" cy="113.563" r="15" transform="rotate(-9 317.403 113.563)" fill="#FFF3B4"/>
<circle cx="396.418" cy="101.049" r="15" transform="rotate(-9 396.418 101.049)" fill="#FFF3B4"/>
<circle cx="475.433" cy="88.5338" r="15" transform="rotate(-9 475.433 88.5338)" fill="#FFF3B4"/>
<circle cx="554.448" cy="76.019" r="15" transform="rotate(-9 554.448 76.019)" fill="#FFF3B4"/>
<circle cx="633.463" cy="63.5043" r="15" transform="rotate(-9 633.463 63.5043)" fill="#FFF3B4"/>
<circle cx="712.478" cy="50.9895" r="15" transform="rotate(-9 712.478 50.9895)" fill="#FFF3B4"/>
<circle cx="791.493" cy="38.4748" r="15" transform="rotate(-9 791.493 38.4748)" fill="#FFF3B4"/>
<circle cx="870.508" cy="25.96" r="15" transform="rotate(-9 870.508 25.96)" fill="#FFF3B4"/>
<circle cx="949.523" cy="13.4452" r="15" transform="rotate(-9 949.523 13.4452)" fill="#FFF3B4"/>
<circle cx="1028.54" cy="0.930478" r="15" transform="rotate(-9 1028.54 0.930478)" fill="#FFF3B4"/>
<circle cx="1107.55" cy="-11.5843" r="15" transform="rotate(-9 1107.55 -11.5843)" fill="#FFF3B4"/>
<circle cx="13.8573" cy="242.637" r="15" transform="rotate(-9 13.8573 242.637)" fill="#FFF3B4"/>
<circle cx="92.8723" cy="230.123" r="15" transform="rotate(-9 92.8723 230.123)" fill="#FFF3B4"/>
<circle cx="171.887" cy="217.608" r="15" transform="rotate(-9 171.887 217.608)" fill="#FFF3B4"/>
<circle cx="250.902" cy="205.093" r="15" transform="rotate(-9 250.902 205.093)" fill="#FFF3B4"/>
<circle cx="329.918" cy="192.578" r="15" transform="rotate(-9 329.918 192.578)" fill="#FFF3B4"/>
<circle cx="408.933" cy="180.064" r="15" transform="rotate(-9 408.933 180.064)" fill="#FFF3B4"/>
<circle cx="487.948" cy="167.549" r="15" transform="rotate(-9 487.948 167.549)" fill="#FFF3B4"/>
<circle cx="566.963" cy="155.034" r="15" transform="rotate(-9 566.963 155.034)" fill="#FFF3B4"/>
<circle cx="645.978" cy="142.519" r="15" transform="rotate(-9 645.978 142.519)" fill="#FFF3B4"/>
<circle cx="724.993" cy="130.005" r="15" transform="rotate(-9 724.993 130.005)" fill="#FFF3B4"/>
<circle cx="804.008" cy="117.49" r="15" transform="rotate(-9 804.008 117.49)" fill="#FFF3B4"/>
<circle cx="883.023" cy="104.975" r="15" transform="rotate(-9 883.023 104.975)" fill="#FFF3B4"/>
<circle cx="962.038" cy="92.4603" r="15" transform="rotate(-9 962.038 92.4603)" fill="#FFF3B4"/>
<circle cx="1041.05" cy="79.9456" r="15" transform="rotate(-9 1041.05 79.9456)" fill="#FFF3B4"/>
<circle cx="1120.07" cy="67.4308" r="15" transform="rotate(-9 1120.07 67.4308)" fill="#FFF3B4"/>
<circle cx="1199.08" cy="54.916" r="15" transform="rotate(-9 1199.08 54.916)" fill="#FFF3B4"/>
<circle cx="1278.1" cy="42.4013" r="15" transform="rotate(-9 1278.1 42.4013)" fill="#FFF3B4"/>
<circle cx="1357.11" cy="29.8865" r="15" transform="rotate(-9 1357.11 29.8865)" fill="#FFF3B4"/>
<circle cx="1436.13" cy="17.3718" r="15" transform="rotate(-9 1436.13 17.3718)" fill="#FFF3B4"/>
<circle cx="1515.14" cy="4.85702" r="15" transform="rotate(-9 1515.14 4.85702)" fill="#FFF3B4"/>
<circle cx="1594.16" cy="-7.65775" r="15" transform="rotate(-9 1594.16 -7.65775)" fill="#FFF3B4"/>
<circle cx="26.372" cy="321.652" r="15" transform="rotate(-9 26.372 321.652)" fill="#FFF3B4"/>
<circle cx="105.387" cy="309.138" r="15" transform="rotate(-9 105.387 309.138)" fill="#FFF3B4"/>
<circle cx="184.402" cy="296.623" r="15" transform="rotate(-9 184.402 296.623)" fill="#FFF3B4"/>
<circle cx="263.417" cy="284.108" r="15" transform="rotate(-9 263.417 284.108)" fill="#FFF3B4"/>
<circle cx="342.432" cy="271.593" r="15" transform="rotate(-9 342.432 271.593)" fill="#FFF3B4"/>
<circle cx="421.447" cy="259.079" r="15" transform="rotate(-9 421.447 259.079)" fill="#FFF3B4"/>
<circle cx="500.462" cy="246.564" r="15" transform="rotate(-9 500.462 246.564)" fill="#FFF3B4"/>
<circle cx="579.477" cy="234.049" r="15" transform="rotate(-9 579.477 234.049)" fill="#FFF3B4"/>
<circle cx="658.493" cy="221.534" r="15" transform="rotate(-9 658.493 221.534)" fill="#FFF3B4"/>
<circle cx="737.508" cy="209.02" r="15" transform="rotate(-9 737.508 209.02)" fill="#FFF3B4"/>
<circle cx="816.523" cy="196.505" r="15" transform="rotate(-9 816.523 196.505)" fill="#FFF3B4"/>
<circle cx="895.538" cy="183.99" r="15" transform="rotate(-9 895.538 183.99)" fill="#FFF3B4"/>
<circle cx="974.553" cy="171.475" r="15" transform="rotate(-9 974.553 171.475)" fill="#FFF3B4"/>
<circle cx="1053.57" cy="158.961" r="15" transform="rotate(-9 1053.57 158.961)" fill="#FFF3B4"/>
<circle cx="1132.58" cy="146.446" r="15" transform="rotate(-9 1132.58 146.446)" fill="#FFF3B4"/>
<circle cx="1211.6" cy="133.931" r="15" transform="rotate(-9 1211.6 133.931)" fill="#FFF3B4"/>
<circle cx="1290.61" cy="121.416" r="15" transform="rotate(-9 1290.61 121.416)" fill="#FFF3B4"/>
<circle cx="1369.63" cy="108.902" r="15" transform="rotate(-9 1369.63 108.902)" fill="#FFF3B4"/>
<circle cx="1448.64" cy="96.3868" r="15" transform="rotate(-9 1448.64 96.3868)" fill="#FFF3B4"/>
<circle cx="1527.66" cy="83.8721" r="15" transform="rotate(-9 1527.66 83.8721)" fill="#FFF3B4"/>
<circle cx="1606.67" cy="71.3573" r="15" transform="rotate(-9 1606.67 71.3573)" fill="#FFF3B4"/>
<circle cx="1685.69" cy="58.8426" r="15" transform="rotate(-9 1685.69 58.8426)" fill="#FFF3B4"/>
<circle cx="1764.7" cy="46.3278" r="15" transform="rotate(-9 1764.7 46.3278)" fill="#FFF3B4"/>
<circle cx="1843.72" cy="33.813" r="15" transform="rotate(-9 1843.72 33.813)" fill="#FFF3B4"/>
<circle cx="1922.73" cy="21.2983" r="15" transform="rotate(-9 1922.73 21.2983)" fill="#FFF3B4"/>
<circle cx="38.8867" cy="400.668" r="15" transform="rotate(-9 38.8867 400.668)" fill="#FFF3B4"/>
<circle cx="117.902" cy="388.153" r="15" transform="rotate(-9 117.902 388.153)" fill="#FFF3B4"/>
<circle cx="196.917" cy="375.638" r="15" transform="rotate(-9 196.917 375.638)" fill="#FFF3B4"/>
<circle cx="275.932" cy="363.123" r="15" transform="rotate(-9 275.932 363.123)" fill="#FFF3B4"/>
<circle cx="354.947" cy="350.608" r="15" transform="rotate(-9 354.947 350.608)" fill="#FFF3B4"/>
<circle cx="433.962" cy="338.094" r="15" transform="rotate(-9 433.962 338.094)" fill="#FFF3B4"/>
<circle cx="512.977" cy="325.579" r="15" transform="rotate(-9 512.977 325.579)" fill="#FFF3B4"/>
<circle cx="591.992" cy="313.064" r="15" transform="rotate(-9 591.992 313.064)" fill="#FFF3B4"/>
<circle cx="671.007" cy="300.549" r="15" transform="rotate(-9 671.007 300.549)" fill="#FFF3B4"/>
<circle cx="750.022" cy="288.035" r="15" transform="rotate(-9 750.022 288.035)" fill="#FFF3B4"/>
<circle cx="829.037" cy="275.52" r="15" transform="rotate(-9 829.037 275.52)" fill="#FFF3B4"/>
<circle cx="908.052" cy="263.005" r="15" transform="rotate(-9 908.052 263.005)" fill="#FFF3B4"/>
<circle cx="987.067" cy="250.49" r="15" transform="rotate(-9 987.067 250.49)" fill="#FFF3B4"/>
<circle cx="1066.08" cy="237.976" r="15" transform="rotate(-9 1066.08 237.976)" fill="#FFF3B4"/>
<circle cx="1145.1" cy="225.461" r="15" transform="rotate(-9 1145.1 225.461)" fill="#FFF3B4"/>
<circle cx="1224.11" cy="212.946" r="15" transform="rotate(-9 1224.11 212.946)" fill="#FFF3B4"/>
<circle cx="1303.13" cy="200.431" r="15" transform="rotate(-9 1303.13 200.431)" fill="#FFF3B4"/>
<circle cx="1382.14" cy="187.917" r="15" transform="rotate(-9 1382.14 187.917)" fill="#FFF3B4"/>
<circle cx="1461.16" cy="175.402" r="15" transform="rotate(-9 1461.16 175.402)" fill="#FFF3B4"/>
<circle cx="1540.17" cy="162.887" r="15" transform="rotate(-9 1540.17 162.887)" fill="#FFF3B4"/>
<circle cx="1619.19" cy="150.372" r="15" transform="rotate(-9 1619.19 150.372)" fill="#FFF3B4"/>
<circle cx="1698.2" cy="137.858" r="15" transform="rotate(-9 1698.2 137.858)" fill="#FFF3B4"/>
<circle cx="1777.22" cy="125.343" r="15" transform="rotate(-9 1777.22 125.343)" fill="#FFF3B4"/>
<circle cx="1856.23" cy="112.828" r="15" transform="rotate(-9 1856.23 112.828)" fill="#FFF3B4"/>
<circle cx="1935.25" cy="100.313" r="15" transform="rotate(-9 1935.25 100.313)" fill="#FFF3B4"/>
<circle cx="51.4015" cy="479.683" r="15" transform="rotate(-9 51.4015 479.683)" fill="#FFF3B4"/>
<circle cx="130.416" cy="467.168" r="15" transform="rotate(-9 130.416 467.168)" fill="#FFF3B4"/>
<circle cx="209.432" cy="454.653" r="15" transform="rotate(-9 209.432 454.653)" fill="#FFF3B4"/>
<circle cx="288.447" cy="442.138" r="15" transform="rotate(-9 288.447 442.138)" fill="#FFF3B4"/>
<circle cx="367.462" cy="429.624" r="15" transform="rotate(-9 367.462 429.624)" fill="#FFF3B4"/>
<circle cx="446.477" cy="417.109" r="15" transform="rotate(-9 446.477 417.109)" fill="#FFF3B4"/>
<circle cx="525.492" cy="404.594" r="15" transform="rotate(-9 525.492 404.594)" fill="#FFF3B4"/>
<circle cx="604.507" cy="392.079" r="15" transform="rotate(-9 604.507 392.079)" fill="#FFF3B4"/>
<circle cx="683.522" cy="379.565" r="15" transform="rotate(-9 683.522 379.565)" fill="#FFF3B4"/>
<circle cx="762.537" cy="367.05" r="15" transform="rotate(-9 762.537 367.05)" fill="#FFF3B4"/>
<circle cx="841.552" cy="354.535" r="15" transform="rotate(-9 841.552 354.535)" fill="#FFF3B4"/>
<circle cx="920.567" cy="342.02" r="15" transform="rotate(-9 920.567 342.02)" fill="#FFF3B4"/>
<circle cx="999.582" cy="329.505" r="15" transform="rotate(-9 999.582 329.505)" fill="#FFF3B4"/>
<circle cx="1078.6" cy="316.991" r="15" transform="rotate(-9 1078.6 316.991)" fill="#FFF3B4"/>
<circle cx="1157.61" cy="304.476" r="15" transform="rotate(-9 1157.61 304.476)" fill="#FFF3B4"/>
<circle cx="1236.63" cy="291.961" r="15" transform="rotate(-9 1236.63 291.961)" fill="#FFF3B4"/>
<circle cx="1315.64" cy="279.446" r="15" transform="rotate(-9 1315.64 279.446)" fill="#FFF3B4"/>
<circle cx="1394.66" cy="266.932" r="15" transform="rotate(-9 1394.66 266.932)" fill="#FFF3B4"/>
<circle cx="1473.67" cy="254.417" r="15" transform="rotate(-9 1473.67 254.417)" fill="#FFF3B4"/>
<circle cx="1552.69" cy="241.902" r="15" transform="rotate(-9 1552.69 241.902)" fill="#FFF3B4"/>
<circle cx="1631.7" cy="229.387" r="15" transform="rotate(-9 1631.7 229.387)" fill="#FFF3B4"/>
<circle cx="1710.72" cy="216.873" r="15" transform="rotate(-9 1710.72 216.873)" fill="#FFF3B4"/>
<circle cx="1789.73" cy="204.358" r="15" transform="rotate(-9 1789.73 204.358)" fill="#FFF3B4"/>
<circle cx="1868.75" cy="191.843" r="15" transform="rotate(-9 1868.75 191.843)" fill="#FFF3B4"/>
<circle cx="-15.0988" cy="571.212" r="15" transform="rotate(-9 -15.0988 571.212)" fill="#FFF3B4"/>
<circle cx="63.9162" cy="558.698" r="15" transform="rotate(-9 63.9162 558.698)" fill="#FFF3B4"/>
<circle cx="142.931" cy="546.183" r="15" transform="rotate(-9 142.931 546.183)" fill="#FFF3B4"/>
<circle cx="221.946" cy="533.668" r="15" transform="rotate(-9 221.946 533.668)" fill="#FFF3B4"/>
<circle cx="300.961" cy="521.153" r="15" transform="rotate(-9 300.961 521.153)" fill="#FFF3B4"/>
<circle cx="379.976" cy="508.639" r="15" transform="rotate(-9 379.976 508.639)" fill="#FFF3B4"/>
<circle cx="458.992" cy="496.124" r="15" transform="rotate(-9 458.992 496.124)" fill="#FFF3B4"/>
<circle cx="538.007" cy="483.609" r="15" transform="rotate(-9 538.007 483.609)" fill="#FFF3B4"/>
<circle cx="617.022" cy="471.094" r="15" transform="rotate(-9 617.022 471.094)" fill="#FFF3B4"/>
<circle cx="696.037" cy="458.58" r="15" transform="rotate(-9 696.037 458.58)" fill="#FFF3B4"/>
<circle cx="775.052" cy="446.065" r="15" transform="rotate(-9 775.052 446.065)" fill="#FFF3B4"/>
<circle cx="854.067" cy="433.55" r="15" transform="rotate(-9 854.067 433.55)" fill="#FFF3B4"/>
<circle cx="933.082" cy="421.035" r="15" transform="rotate(-9 933.082 421.035)" fill="#FFF3B4"/>
<circle cx="1012.1" cy="408.521" r="15" transform="rotate(-9 1012.1 408.521)" fill="#FFF3B4"/>
<circle cx="1091.11" cy="396.006" r="15" transform="rotate(-9 1091.11 396.006)" fill="#FFF3B4"/>
<circle cx="1170.13" cy="383.491" r="15" transform="rotate(-9 1170.13 383.491)" fill="#FFF3B4"/>
<circle cx="1249.14" cy="370.976" r="15" transform="rotate(-9 1249.14 370.976)" fill="#FFF3B4"/>
<circle cx="1328.16" cy="358.462" r="15" transform="rotate(-9 1328.16 358.462)" fill="#FFF3B4"/>
<circle cx="1407.17" cy="345.947" r="15" transform="rotate(-9 1407.17 345.947)" fill="#FFF3B4"/>
<circle cx="1486.19" cy="333.432" r="15" transform="rotate(-9 1486.19 333.432)" fill="#FFF3B4"/>
<circle cx="1565.2" cy="320.917" r="15" transform="rotate(-9 1565.2 320.917)" fill="#FFF3B4"/>
<circle cx="1644.22" cy="308.402" r="15" transform="rotate(-9 1644.22 308.402)" fill="#FFF3B4"/>
<circle cx="1723.23" cy="295.888" r="15" transform="rotate(-9 1723.23 295.888)" fill="#FFF3B4"/>
<circle cx="1802.25" cy="283.373" r="15" transform="rotate(-9 1802.25 283.373)" fill="#FFF3B4"/>
<circle cx="1881.26" cy="270.858" r="15" transform="rotate(-9 1881.26 270.858)" fill="#FFF3B4"/>
<circle cx="-2.58407" cy="650.227" r="15" transform="rotate(-9 -2.58407 650.227)" fill="#FFF3B4"/>
<circle cx="76.431" cy="637.713" r="15" transform="rotate(-9 76.431 637.713)" fill="#FFF3B4"/>
<circle cx="155.446" cy="625.198" r="15" transform="rotate(-9 155.446 625.198)" fill="#FFF3B4"/>
<circle cx="234.461" cy="612.683" r="15" transform="rotate(-9 234.461 612.683)" fill="#FFF3B4"/>
<circle cx="313.476" cy="600.168" r="15" transform="rotate(-9 313.476 600.168)" fill="#FFF3B4"/>
<circle cx="392.491" cy="587.654" r="15" transform="rotate(-9 392.491 587.654)" fill="#FFF3B4"/>
<circle cx="471.506" cy="575.139" r="15" transform="rotate(-9 471.506 575.139)" fill="#FFF3B4"/>
<circle cx="550.521" cy="562.624" r="15" transform="rotate(-9 550.521 562.624)" fill="#FFF3B4"/>
<circle cx="629.536" cy="550.109" r="15" transform="rotate(-9 629.536 550.109)" fill="#FFF3B4"/>
<circle cx="708.552" cy="537.595" r="15" transform="rotate(-9 708.552 537.595)" fill="#FFF3B4"/>
<circle cx="787.567" cy="525.08" r="15" transform="rotate(-9 787.567 525.08)" fill="#FFF3B4"/>
<circle cx="866.582" cy="512.565" r="15" transform="rotate(-9 866.582 512.565)" fill="#FFF3B4"/>
<circle cx="945.597" cy="500.05" r="15" transform="rotate(-9 945.597 500.05)" fill="#FFF3B4"/>
<circle cx="1024.61" cy="487.536" r="15" transform="rotate(-9 1024.61 487.536)" fill="#FFF3B4"/>
<circle cx="1103.63" cy="475.021" r="15" transform="rotate(-9 1103.63 475.021)" fill="#FFF3B4"/>
<circle cx="1182.64" cy="462.506" r="15" transform="rotate(-9 1182.64 462.506)" fill="#FFF3B4"/>
<circle cx="1261.66" cy="449.991" r="15" transform="rotate(-9 1261.66 449.991)" fill="#FFF3B4"/>
<circle cx="1340.67" cy="437.477" r="15" transform="rotate(-9 1340.67 437.477)" fill="#FFF3B4"/>
<circle cx="1419.69" cy="424.962" r="15" transform="rotate(-9 1419.69 424.962)" fill="#FFF3B4"/>
<circle cx="1498.7" cy="412.447" r="15" transform="rotate(-9 1498.7 412.447)" fill="#FFF3B4"/>
<circle cx="1577.72" cy="399.932" r="15" transform="rotate(-9 1577.72 399.932)" fill="#FFF3B4"/>
<circle cx="1656.73" cy="387.418" r="15" transform="rotate(-9 1656.73 387.418)" fill="#FFF3B4"/>
<circle cx="1735.75" cy="374.903" r="15" transform="rotate(-9 1735.75 374.903)" fill="#FFF3B4"/>
<circle cx="1814.76" cy="362.388" r="15" transform="rotate(-9 1814.76 362.388)" fill="#FFF3B4"/>
<circle cx="1893.78" cy="349.873" r="15" transform="rotate(-9 1893.78 349.873)" fill="#FFF3B4"/>
<circle cx="9.9307" cy="729.243" r="15" transform="rotate(-9 9.9307 729.243)" fill="#FFF3B4"/>
<circle cx="88.9458" cy="716.728" r="15" transform="rotate(-9 88.9458 716.728)" fill="#FFF3B4"/>
<circle cx="167.961" cy="704.213" r="15" transform="rotate(-9 167.961 704.213)" fill="#FFF3B4"/>
<circle cx="246.976" cy="691.698" r="15" transform="rotate(-9 246.976 691.698)" fill="#FFF3B4"/>
<circle cx="325.991" cy="679.184" r="15" transform="rotate(-9 325.991 679.184)" fill="#FFF3B4"/>
<circle cx="405.006" cy="666.669" r="15" transform="rotate(-9 405.006 666.669)" fill="#FFF3B4"/>
<circle cx="484.021" cy="654.154" r="15" transform="rotate(-9 484.021 654.154)" fill="#FFF3B4"/>
<circle cx="563.036" cy="641.639" r="15" transform="rotate(-9 563.036 641.639)" fill="#FFF3B4"/>
<circle cx="642.051" cy="629.124" r="15" transform="rotate(-9 642.051 629.124)" fill="#FFF3B4"/>
<circle cx="721.066" cy="616.61" r="15" transform="rotate(-9 721.066 616.61)" fill="#FFF3B4"/>
<circle cx="800.081" cy="604.095" r="15" transform="rotate(-9 800.081 604.095)" fill="#FFF3B4"/>
<circle cx="879.096" cy="591.58" r="15" transform="rotate(-9 879.096 591.58)" fill="#FFF3B4"/>
<circle cx="958.111" cy="579.065" r="15" transform="rotate(-9 958.111 579.065)" fill="#FFF3B4"/>
<circle cx="1037.13" cy="566.551" r="15" transform="rotate(-9 1037.13 566.551)" fill="#FFF3B4"/>
<circle cx="1116.14" cy="554.036" r="15" transform="rotate(-9 1116.14 554.036)" fill="#FFF3B4"/>
<circle cx="1195.16" cy="541.521" r="15" transform="rotate(-9 1195.16 541.521)" fill="#FFF3B4"/>
<circle cx="1274.17" cy="529.006" r="15" transform="rotate(-9 1274.17 529.006)" fill="#FFF3B4"/>
<circle cx="1353.19" cy="516.492" r="15" transform="rotate(-9 1353.19 516.492)" fill="#FFF3B4"/>
<circle cx="1432.2" cy="503.977" r="15" transform="rotate(-9 1432.2 503.977)" fill="#FFF3B4"/>
<circle cx="1511.22" cy="491.462" r="15" transform="rotate(-9 1511.22 491.462)" fill="#FFF3B4"/>
<circle cx="1590.23" cy="478.947" r="15" transform="rotate(-9 1590.23 478.947)" fill="#FFF3B4"/>
<circle cx="1669.25" cy="466.433" r="15" transform="rotate(-9 1669.25 466.433)" fill="#FFF3B4"/>
<circle cx="1748.26" cy="453.918" r="15" transform="rotate(-9 1748.26 453.918)" fill="#FFF3B4"/>
<circle cx="1827.28" cy="441.403" r="15" transform="rotate(-9 1827.28 441.403)" fill="#FFF3B4"/>
<circle cx="1906.29" cy="428.888" r="15" transform="rotate(-9 1906.29 428.888)" fill="#FFF3B4"/>
<circle cx="22.4455" cy="808.258" r="15" transform="rotate(-9 22.4455 808.258)" fill="#FFF3B4"/>
<circle cx="101.461" cy="795.743" r="15" transform="rotate(-9 101.461 795.743)" fill="#FFF3B4"/>
<circle cx="180.476" cy="783.228" r="15" transform="rotate(-9 180.476 783.228)" fill="#FFF3B4"/>
<circle cx="259.491" cy="770.713" r="15" transform="rotate(-9 259.491 770.713)" fill="#FFF3B4"/>
<circle cx="338.506" cy="758.199" r="15" transform="rotate(-9 338.506 758.199)" fill="#FFF3B4"/>
<circle cx="417.521" cy="745.684" r="15" transform="rotate(-9 417.521 745.684)" fill="#FFF3B4"/>
<circle cx="496.536" cy="733.169" r="15" transform="rotate(-9 496.536 733.169)" fill="#FFF3B4"/>
<circle cx="575.551" cy="720.654" r="15" transform="rotate(-9 575.551 720.654)" fill="#FFF3B4"/>
<circle cx="654.566" cy="708.14" r="15" transform="rotate(-9 654.566 708.14)" fill="#FFF3B4"/>
<circle cx="733.581" cy="695.625" r="15" transform="rotate(-9 733.581 695.625)" fill="#FFF3B4"/>
<circle cx="812.596" cy="683.11" r="15" transform="rotate(-9 812.596 683.11)" fill="#FFF3B4"/>
<circle cx="891.611" cy="670.595" r="15" transform="rotate(-9 891.611 670.595)" fill="#FFF3B4"/>
<circle cx="970.626" cy="658.081" r="15" transform="rotate(-9 970.626 658.081)" fill="#FFF3B4"/>
<circle cx="1049.64" cy="645.566" r="15" transform="rotate(-9 1049.64 645.566)" fill="#FFF3B4"/>
<circle cx="1128.66" cy="633.051" r="15" transform="rotate(-9 1128.66 633.051)" fill="#FFF3B4"/>
<circle cx="1207.67" cy="620.536" r="15" transform="rotate(-9 1207.67 620.536)" fill="#FFF3B4"/>
<circle cx="1286.69" cy="608.021" r="15" transform="rotate(-9 1286.69 608.021)" fill="#FFF3B4"/>
<circle cx="1365.7" cy="595.507" r="15" transform="rotate(-9 1365.7 595.507)" fill="#FFF3B4"/>
<circle cx="1444.72" cy="582.992" r="15" transform="rotate(-9 1444.72 582.992)" fill="#FFF3B4"/>
<circle cx="1523.73" cy="570.477" r="15" transform="rotate(-9 1523.73 570.477)" fill="#FFF3B4"/>
<circle cx="1602.75" cy="557.962" r="15" transform="rotate(-9 1602.75 557.962)" fill="#FFF3B4"/>
<circle cx="1681.76" cy="545.448" r="15" transform="rotate(-9 1681.76 545.448)" fill="#FFF3B4"/>
<circle cx="1760.78" cy="532.933" r="15" transform="rotate(-9 1760.78 532.933)" fill="#FFF3B4"/>
<circle cx="1839.79" cy="520.418" r="15" transform="rotate(-9 1839.79 520.418)" fill="#FFF3B4"/>
<circle cx="1918.81" cy="507.903" r="15" transform="rotate(-9 1918.81 507.903)" fill="#FFF3B4"/>
<circle cx="34.9602" cy="887.273" r="15" transform="rotate(-9 34.9602 887.273)" fill="#FFF3B4"/>
<circle cx="113.975" cy="874.758" r="15" transform="rotate(-9 113.975 874.758)" fill="#FFF3B4"/>
<circle cx="192.99" cy="862.243" r="15" transform="rotate(-9 192.99 862.243)" fill="#FFF3B4"/>
<circle cx="272.005" cy="849.728" r="15" transform="rotate(-9 272.005 849.728)" fill="#FFF3B4"/>
<circle cx="351.02" cy="837.214" r="15" transform="rotate(-9 351.02 837.214)" fill="#FFF3B4"/>
<circle cx="430.036" cy="824.699" r="15" transform="rotate(-9 430.036 824.699)" fill="#FFF3B4"/>
<circle cx="509.051" cy="812.184" r="15" transform="rotate(-9 509.051 812.184)" fill="#FFF3B4"/>
<circle cx="588.066" cy="799.669" r="15" transform="rotate(-9 588.066 799.669)" fill="#FFF3B4"/>
<circle cx="667.081" cy="787.155" r="15" transform="rotate(-9 667.081 787.155)" fill="#FFF3B4"/>
<circle cx="746.096" cy="774.64" r="15" transform="rotate(-9 746.096 774.64)" fill="#FFF3B4"/>
<circle cx="825.111" cy="762.125" r="15" transform="rotate(-9 825.111 762.125)" fill="#FFF3B4"/>
<circle cx="904.126" cy="749.61" r="15" transform="rotate(-9 904.126 749.61)" fill="#FFF3B4"/>
<circle cx="983.141" cy="737.096" r="15" transform="rotate(-9 983.141 737.096)" fill="#FFF3B4"/>
<circle cx="1062.16" cy="724.581" r="15" transform="rotate(-9 1062.16 724.581)" fill="#FFF3B4"/>
<circle cx="1141.17" cy="712.066" r="15" transform="rotate(-9 1141.17 712.066)" fill="#FFF3B4"/>
<circle cx="1220.19" cy="699.551" r="15" transform="rotate(-9 1220.19 699.551)" fill="#FFF3B4"/>
<circle cx="1299.2" cy="687.037" r="15" transform="rotate(-9 1299.2 687.037)" fill="#FFF3B4"/>
<circle cx="1378.22" cy="674.522" r="15" transform="rotate(-9 1378.22 674.522)" fill="#FFF3B4"/>
<circle cx="1457.23" cy="662.007" r="15" transform="rotate(-9 1457.23 662.007)" fill="#FFF3B4"/>
<circle cx="1536.25" cy="649.492" r="15" transform="rotate(-9 1536.25 649.492)" fill="#FFF3B4"/>
<circle cx="1615.26" cy="636.978" r="15" transform="rotate(-9 1615.26 636.978)" fill="#FFF3B4"/>
<circle cx="1694.28" cy="624.463" r="15" transform="rotate(-9 1694.28 624.463)" fill="#FFF3B4"/>
<circle cx="1773.29" cy="611.948" r="15" transform="rotate(-9 1773.29 611.948)" fill="#FFF3B4"/>
<circle cx="1852.31" cy="599.433" r="15" transform="rotate(-9 1852.31 599.433)" fill="#FFF3B4"/>
<circle cx="1931.32" cy="586.919" r="15" transform="rotate(-9 1931.32 586.919)" fill="#FFF3B4"/>
<circle cx="47.475" cy="966.288" r="15" transform="rotate(-9 47.475 966.288)" fill="#FFF3B4"/>
<circle cx="126.49" cy="953.773" r="15" transform="rotate(-9 126.49 953.773)" fill="#FFF3B4"/>
<circle cx="205.505" cy="941.258" r="15" transform="rotate(-9 205.505 941.258)" fill="#FFF3B4"/>
<circle cx="284.52" cy="928.743" r="15" transform="rotate(-9 284.52 928.743)" fill="#FFF3B4"/>
<circle cx="363.535" cy="916.229" r="15" transform="rotate(-9 363.535 916.229)" fill="#FFF3B4"/>
<circle cx="442.55" cy="903.714" r="15" transform="rotate(-9 442.55 903.714)" fill="#FFF3B4"/>
<circle cx="521.565" cy="891.199" r="15" transform="rotate(-9 521.565 891.199)" fill="#FFF3B4"/>
<circle cx="600.58" cy="878.684" r="15" transform="rotate(-9 600.58 878.684)" fill="#FFF3B4"/>
<circle cx="679.596" cy="866.17" r="15" transform="rotate(-9 679.596 866.17)" fill="#FFF3B4"/>
<circle cx="758.611" cy="853.655" r="15" transform="rotate(-9 758.611 853.655)" fill="#FFF3B4"/>
<circle cx="837.626" cy="841.14" r="15" transform="rotate(-9 837.626 841.14)" fill="#FFF3B4"/>
<circle cx="916.641" cy="828.625" r="15" transform="rotate(-9 916.641 828.625)" fill="#FFF3B4"/>
<circle cx="995.656" cy="816.111" r="15" transform="rotate(-9 995.656 816.111)" fill="#FFF3B4"/>
<circle cx="1074.67" cy="803.596" r="15" transform="rotate(-9 1074.67 803.596)" fill="#FFF3B4"/>
<circle cx="1153.69" cy="791.081" r="15" transform="rotate(-9 1153.69 791.081)" fill="#FFF3B4"/>
<circle cx="1232.7" cy="778.566" r="15" transform="rotate(-9 1232.7 778.566)" fill="#FFF3B4"/>
<circle cx="1311.72" cy="766.052" r="15" transform="rotate(-9 1311.72 766.052)" fill="#FFF3B4"/>
<circle cx="1390.73" cy="753.537" r="15" transform="rotate(-9 1390.73 753.537)" fill="#FFF3B4"/>
<circle cx="1469.75" cy="741.022" r="15" transform="rotate(-9 1469.75 741.022)" fill="#FFF3B4"/>
<circle cx="1548.76" cy="728.507" r="15" transform="rotate(-9 1548.76 728.507)" fill="#FFF3B4"/>
<circle cx="1627.78" cy="715.993" r="15" transform="rotate(-9 1627.78 715.993)" fill="#FFF3B4"/>
<circle cx="1706.79" cy="703.478" r="15" transform="rotate(-9 1706.79 703.478)" fill="#FFF3B4"/>
<circle cx="1785.81" cy="690.963" r="15" transform="rotate(-9 1785.81 690.963)" fill="#FFF3B4"/>
<circle cx="1864.82" cy="678.448" r="15" transform="rotate(-9 1864.82 678.448)" fill="#FFF3B4"/>
<circle cx="139.005" cy="1032.79" r="15" transform="rotate(-9 139.005 1032.79)" fill="#FFF3B4"/>
<circle cx="218.02" cy="1020.27" r="15" transform="rotate(-9 218.02 1020.27)" fill="#FFF3B4"/>
<circle cx="297.035" cy="1007.76" r="15" transform="rotate(-9 297.035 1007.76)" fill="#FFF3B4"/>
<circle cx="376.05" cy="995.244" r="15" transform="rotate(-9 376.05 995.244)" fill="#FFF3B4"/>
<circle cx="455.065" cy="982.729" r="15" transform="rotate(-9 455.065 982.729)" fill="#FFF3B4"/>
<circle cx="534.08" cy="970.214" r="15" transform="rotate(-9 534.08 970.214)" fill="#FFF3B4"/>
<circle cx="613.095" cy="957.7" r="15" transform="rotate(-9 613.095 957.7)" fill="#FFF3B4"/>
<circle cx="692.11" cy="945.185" r="15" transform="rotate(-9 692.11 945.185)" fill="#FFF3B4"/>
<circle cx="771.125" cy="932.67" r="15" transform="rotate(-9 771.125 932.67)" fill="#FFF3B4"/>
<circle cx="850.14" cy="920.155" r="15" transform="rotate(-9 850.14 920.155)" fill="#FFF3B4"/>
<circle cx="929.155" cy="907.641" r="15" transform="rotate(-9 929.155 907.641)" fill="#FFF3B4"/>
<circle cx="1008.17" cy="895.126" r="15" transform="rotate(-9 1008.17 895.126)" fill="#FFF3B4"/>
<circle cx="1087.19" cy="882.611" r="15" transform="rotate(-9 1087.19 882.611)" fill="#FFF3B4"/>
<circle cx="1166.2" cy="870.096" r="15" transform="rotate(-9 1166.2 870.096)" fill="#FFF3B4"/>
<circle cx="1245.22" cy="857.581" r="15" transform="rotate(-9 1245.22 857.581)" fill="#FFF3B4"/>
<circle cx="1324.23" cy="845.067" r="15" transform="rotate(-9 1324.23 845.067)" fill="#FFF3B4"/>
<circle cx="1403.25" cy="832.552" r="15" transform="rotate(-9 1403.25 832.552)" fill="#FFF3B4"/>
<circle cx="1482.26" cy="820.037" r="15" transform="rotate(-9 1482.26 820.037)" fill="#FFF3B4"/>
<circle cx="1561.28" cy="807.522" r="15" transform="rotate(-9 1561.28 807.522)" fill="#FFF3B4"/>
<circle cx="1640.29" cy="795.008" r="15" transform="rotate(-9 1640.29 795.008)" fill="#FFF3B4"/>
<circle cx="1719.31" cy="782.493" r="15" transform="rotate(-9 1719.31 782.493)" fill="#FFF3B4"/>
<circle cx="1798.32" cy="769.978" r="15" transform="rotate(-9 1798.32 769.978)" fill="#FFF3B4"/>
<circle cx="1877.34" cy="757.463" r="15" transform="rotate(-9 1877.34 757.463)" fill="#FFF3B4"/>
<circle cx="625.61" cy="1036.71" r="15" transform="rotate(-9 625.61 1036.71)" fill="#FFF3B4"/>
<circle cx="704.625" cy="1024.2" r="15" transform="rotate(-9 704.625 1024.2)" fill="#FFF3B4"/>
<circle cx="783.64" cy="1011.68" r="15" transform="rotate(-9 783.64 1011.68)" fill="#FFF3B4"/>
<circle cx="862.655" cy="999.17" r="15" transform="rotate(-9 862.655 999.17)" fill="#FFF3B4"/>
<circle cx="941.67" cy="986.656" r="15" transform="rotate(-9 941.67 986.656)" fill="#FFF3B4"/>
<circle cx="1020.69" cy="974.141" r="15" transform="rotate(-9 1020.69 974.141)" fill="#FFF3B4"/>
<circle cx="1099.7" cy="961.626" r="15" transform="rotate(-9 1099.7 961.626)" fill="#FFF3B4"/>
<circle cx="1178.72" cy="949.111" r="15" transform="rotate(-9 1178.72 949.111)" fill="#FFF3B4"/>
<circle cx="1257.73" cy="936.596" r="15" transform="rotate(-9 1257.73 936.596)" fill="#FFF3B4"/>
<circle cx="1336.75" cy="924.082" r="15" transform="rotate(-9 1336.75 924.082)" fill="#FFF3B4"/>
<circle cx="1415.76" cy="911.567" r="15" transform="rotate(-9 1415.76 911.567)" fill="#FFF3B4"/>
<circle cx="1494.78" cy="899.052" r="15" transform="rotate(-9 1494.78 899.052)" fill="#FFF3B4"/>
<circle cx="1573.79" cy="886.537" r="15" transform="rotate(-9 1573.79 886.537)" fill="#FFF3B4"/>
<circle cx="1652.81" cy="874.023" r="15" transform="rotate(-9 1652.81 874.023)" fill="#FFF3B4"/>
<circle cx="1731.82" cy="861.508" r="15" transform="rotate(-9 1731.82 861.508)" fill="#FFF3B4"/>
<circle cx="1810.84" cy="848.993" r="15" transform="rotate(-9 1810.84 848.993)" fill="#FFF3B4"/>
<circle cx="1889.85" cy="836.478" r="15" transform="rotate(-9 1889.85 836.478)" fill="#FFF3B4"/>
<circle cx="1191.23" cy="1028.13" r="15" transform="rotate(-9 1191.23 1028.13)" fill="#FFF3B4"/>
<circle cx="1270.25" cy="1015.61" r="15" transform="rotate(-9 1270.25 1015.61)" fill="#FFF3B4"/>
<circle cx="1349.26" cy="1003.1" r="15" transform="rotate(-9 1349.26 1003.1)" fill="#FFF3B4"/>
<circle cx="1428.28" cy="990.582" r="15" transform="rotate(-9 1428.28 990.582)" fill="#FFF3B4"/>
<circle cx="1507.29" cy="978.067" r="15" transform="rotate(-9 1507.29 978.067)" fill="#FFF3B4"/>
<circle cx="1586.31" cy="965.553" r="15" transform="rotate(-9 1586.31 965.553)" fill="#FFF3B4"/>
<circle cx="1665.32" cy="953.038" r="15" transform="rotate(-9 1665.32 953.038)" fill="#FFF3B4"/>
<circle cx="1744.34" cy="940.523" r="15" transform="rotate(-9 1744.34 940.523)" fill="#FFF3B4"/>
<circle cx="1823.35" cy="928.008" r="15" transform="rotate(-9 1823.35 928.008)" fill="#FFF3B4"/>
<circle cx="1902.37" cy="915.493" r="15" transform="rotate(-9 1902.37 915.493)" fill="#FFF3B4"/>
<circle cx="1677.84" cy="1032.05" r="15" transform="rotate(-9 1677.84 1032.05)" fill="#FFF3B4"/>
<circle cx="1756.85" cy="1019.54" r="15" transform="rotate(-9 1756.85 1019.54)" fill="#FFF3B4"/>
<circle cx="1835.87" cy="1007.02" r="15" transform="rotate(-9 1835.87 1007.02)" fill="#FFF3B4"/>
<circle cx="1914.88" cy="994.509" r="15" transform="rotate(-9 1914.88 994.509)" fill="#FFF3B4"/>
</g>
</svg>
