<svg width="1920" height="473" viewBox="0 0 1920 473" fill="none" xmlns="http://www.w3.org/2000/svg">
<circle cx="38.8867" cy="367.668" r="15" transform="rotate(-9 38.8867 367.668)" fill="#FFF3B4"/>
<circle cx="117.902" cy="355.153" r="15" transform="rotate(-9 117.902 355.153)" fill="#FFF3B4"/>
<circle cx="196.917" cy="342.638" r="15" transform="rotate(-9 196.917 342.638)" fill="#FFF3B4"/>
<circle cx="275.932" cy="330.123" r="15" transform="rotate(-9 275.932 330.123)" fill="#FFF3B4"/>
<circle cx="354.947" cy="317.608" r="15" transform="rotate(-9 354.947 317.608)" fill="#FFF3B4"/>
<circle cx="433.962" cy="305.094" r="15" transform="rotate(-9 433.962 305.094)" fill="#FFF3B4"/>
<circle cx="512.977" cy="292.579" r="15" transform="rotate(-9 512.977 292.579)" fill="#FFF3B4"/>
<circle cx="591.992" cy="280.064" r="15" transform="rotate(-9 591.992 280.064)" fill="#FFF3B4"/>
<circle cx="671.007" cy="267.549" r="15" transform="rotate(-9 671.007 267.549)" fill="#FFF3B4"/>
<circle cx="750.022" cy="255.035" r="15" transform="rotate(-9 750.022 255.035)" fill="#FFF3B4"/>
<circle cx="829.037" cy="242.52" r="15" transform="rotate(-9 829.037 242.52)" fill="#FFF3B4"/>
<circle cx="908.052" cy="230.005" r="15" transform="rotate(-9 908.052 230.005)" fill="#FFF3B4"/>
<circle cx="987.067" cy="217.49" r="15" transform="rotate(-9 987.067 217.49)" fill="#FFF3B4"/>
<circle cx="1066.08" cy="204.976" r="15" transform="rotate(-9 1066.08 204.976)" fill="#FFF3B4"/>
<circle cx="1145.1" cy="192.461" r="15" transform="rotate(-9 1145.1 192.461)" fill="#FFF3B4"/>
<circle cx="1224.11" cy="179.946" r="15" transform="rotate(-9 1224.11 179.946)" fill="#FFF3B4"/>
<circle cx="1303.13" cy="167.431" r="15" transform="rotate(-9 1303.13 167.431)" fill="#FFF3B4"/>
<circle cx="1382.14" cy="154.917" r="15" transform="rotate(-9 1382.14 154.917)" fill="#FFF3B4"/>
<circle cx="1461.16" cy="142.402" r="15" transform="rotate(-9 1461.16 142.402)" fill="#FFF3B4"/>
<circle cx="1540.17" cy="129.887" r="15" transform="rotate(-9 1540.17 129.887)" fill="#FFF3B4"/>
<circle cx="1619.19" cy="117.372" r="15" transform="rotate(-9 1619.19 117.372)" fill="#FFF3B4"/>
<circle cx="1698.2" cy="104.858" r="15" transform="rotate(-9 1698.2 104.858)" fill="#FFF3B4"/>
<circle cx="1777.22" cy="92.3429" r="15" transform="rotate(-9 1777.22 92.3429)" fill="#FFF3B4"/>
<circle cx="1856.23" cy="79.8281" r="15" transform="rotate(-9 1856.23 79.8281)" fill="#FFF3B4"/>
<circle cx="1935.25" cy="67.3134" r="15" transform="rotate(-9 1935.25 67.3134)" fill="#FFF3B4"/>
</svg>
