<svg width="486" height="60" viewBox="0 0 486 60" fill="none" xmlns="http://www.w3.org/2000/svg">
    <path d="M241 58H63.6848L4.28104 -13H241V58Z" fill="black" stroke="black" stroke-width="4" />
    <path d="M245 58H422.315L481.719 -13H245V58Z" fill="black" stroke="black" stroke-width="4" />
    <rect width="92" height="67" transform="translate(203 -11)" fill="black" />
    <path
        d="M173.311 16.0674H176.408V14.8232H169.883V16.0928H172.396V17.9209H169.883V17.9971C170.915 18.3864 171.787 18.7503 172.498 19.0889L171.432 20.6377C170.907 20.2822 170.391 19.9352 169.883 19.5967V21.5771H167.293V19.1904C166.514 20.2061 165.643 21.0947 164.678 21.8564C164.187 21.3317 163.713 20.8662 163.256 20.46V23.4561C163.256 26.1305 163.104 28.3649 162.799 30.1592C162.443 32.2581 161.826 34.0609 160.945 35.5674C160.285 34.9411 159.43 34.2217 158.381 33.4092C159.075 32.0381 159.557 30.5993 159.828 29.0928C160.099 27.5355 160.234 25.5127 160.234 23.0244V12.3857H170.289C170.103 11.9795 169.9 11.5394 169.68 11.0654L173.387 10.1768C173.674 10.9215 173.971 11.6579 174.275 12.3857H183.391V14.8232H178.998V16.0674H182.68V17.8955H180.014C181.063 18.8096 182.316 19.512 183.771 20.0029C183.23 20.6123 182.73 21.2217 182.273 21.8311C181.072 21.0863 179.98 20.1553 178.998 19.0381V21.5771H176.408V18.9873C175.613 20.0876 174.749 20.9847 173.818 21.6787C173.311 21.1201 172.769 20.5954 172.193 20.1045C173.327 19.5459 174.343 18.8096 175.24 17.8955H173.311V16.0674ZM162.113 33.1553C166.108 32.3597 168.774 31.1917 170.111 29.6514H167.141V30.667H164.551V22.1611H169.756C170.027 21.6364 170.281 21.137 170.518 20.6631L172.93 21.374C172.743 21.6449 172.566 21.9072 172.396 22.1611H181.359V29.5244C182.121 29.7275 182.883 29.8968 183.645 30.0322C183.543 31.3018 183.433 32.2327 183.314 32.8252C182.976 34.3148 182.02 35.0596 180.445 35.0596H173.945C172.405 35.0596 171.635 34.2386 171.635 32.5967V31.7334C169.925 33.4092 167.293 34.7126 163.738 35.6436C163.044 34.5094 162.503 33.68 162.113 33.1553ZM163.84 16.0928H167.293V14.8232H163.256V20.2314C164.424 19.6221 165.456 18.8519 166.354 17.9209H163.84V16.0928ZM175.164 33.1299H179.709C180.623 33.1299 181.114 32.5798 181.182 31.4795C181.215 31.124 181.241 30.5146 181.258 29.6514H179.303C179.997 30.3962 180.581 31.0309 181.055 31.5557L179.912 32.5967C179.811 32.4782 179.701 32.3428 179.582 32.1904C177.635 32.3428 176.07 32.4782 174.885 32.5967L174.275 31.2256C174.732 30.8532 175.215 30.3285 175.723 29.6514H173.234C173.099 29.8545 172.938 30.083 172.752 30.3369H174.123V31.9111C174.123 32.7236 174.47 33.1299 175.164 33.1299ZM174.047 26.7061C174.03 26.8753 173.954 27.2646 173.818 27.874H178.77V26.7061H174.047ZM174.225 25.1064H178.77V23.9385H174.301C174.284 24.3617 174.258 24.751 174.225 25.1064ZM171.66 23.9385H167.141V25.1064H171.559C171.592 24.751 171.626 24.3617 171.66 23.9385ZM167.141 27.874H171.102C171.186 27.5863 171.271 27.1969 171.355 26.7061H167.141V27.874ZM176.332 31.0986C177.094 31.0986 177.839 31.0648 178.566 30.9971C178.329 30.7093 178.067 30.3962 177.779 30.0576L178.363 29.6514H177.576C177.153 30.1592 176.738 30.6416 176.332 31.0986ZM199.844 10.5576L199.234 11.2178C201.824 13.5537 205.277 15.4326 209.594 16.8545C208.917 17.8532 208.299 18.8604 207.74 19.876C207.046 19.6051 206.378 19.3174 205.734 19.0127V25.0811H188.291V19.0889C187.58 19.4613 186.852 19.8083 186.107 20.1299C185.515 19.1312 184.872 18.1579 184.178 17.21C188.85 15.5003 192.599 13.2829 195.426 10.5576H199.844ZM184.457 31.8857H187.098V26.1982H207.156V31.8857H209.594V34.5771H184.457V31.8857ZM191.795 17.9463V17.1338C190.745 17.777 189.654 18.3864 188.52 18.9619H205.658C204.406 18.3864 203.238 17.7686 202.154 17.1084V17.9463H191.795ZM202.535 22.7451V21.2979H191.49V22.7451H202.535ZM197.051 13.2998C196.035 14.18 194.952 15.0179 193.801 15.8135H200.148C198.997 15.0179 197.965 14.18 197.051 13.2998ZM195.934 31.8857H198.32V28.8389H195.934V31.8857ZM190.398 31.8857H192.785V28.8389H190.398V31.8857ZM203.855 28.8389H201.469V31.8857H203.855V28.8389ZM213.377 11.0146C215.019 12.2334 216.466 13.376 217.719 14.4424L215.383 16.9307C214.503 16.1012 213.132 14.8825 211.27 13.2744L213.377 11.0146ZM217.414 17.667H224.549V14.6836L218.252 14.9248C218.15 14.0446 217.998 13.0713 217.795 12.0049C223.432 11.8864 228.831 11.5902 233.994 11.1162L234.426 14.0615C232.395 14.2223 230.287 14.3662 228.104 14.4932V17.667H235.289V20.7139H228.104V23.9131H234.273V35.4404H230.82V34.1709H221.857V35.4658H218.404V23.9131H224.549V20.7139H217.414V17.667ZM230.82 26.9092H221.857V31.1748H230.82V26.9092ZM212.438 17.3115C214.13 18.6149 215.696 19.8929 217.135 21.1455L214.773 23.7607C213.199 22.2881 211.727 20.9678 210.355 19.7998L212.438 17.3115ZM213.58 24.4717C214.731 24.9287 215.865 25.3096 216.982 25.6143C216.085 29.3721 215.188 32.5798 214.291 35.2373C213.089 34.848 211.921 34.5094 210.787 34.2217C211.701 31.598 212.632 28.348 213.58 24.4717ZM246.029 23.1514L248.733 29.5498C249.893 27.4508 250.46 23.6084 250.435 18.0225H247.857V14.6709H250.511L250.549 10.3545H253.926L253.875 14.6709H260.527L260.235 29.0166C260.185 30.9463 260.1 32.1523 259.981 32.6348C259.871 33.1172 259.639 33.5446 259.283 33.917C258.928 34.2979 258.462 34.5729 257.887 34.7422C257.311 34.9115 255.796 35.0088 253.342 35.0342C253.071 33.7477 252.766 32.4782 252.428 31.2256C253.545 31.2933 254.472 31.3271 255.208 31.3271C255.699 31.3271 256.076 31.2298 256.338 31.0352C256.6 30.8405 256.753 30.5612 256.795 30.1973C256.846 29.8249 256.901 28.5257 256.96 26.2998C257.028 24.0654 257.074 21.3063 257.1 18.0225H253.812C253.735 21.7972 253.583 24.5013 253.354 26.1348C253.126 27.7598 252.656 29.4059 251.945 31.0732C251.234 32.7406 250.312 34.2217 249.178 35.5166C248.213 34.7549 247.18 34.0439 246.08 33.3838C246.571 32.8844 247.02 32.3555 247.426 31.7969L240.38 32.3936C239.322 32.5205 238.514 32.6982 237.955 32.9268L236.381 29.8545C237.27 29.1351 238.357 26.4775 239.644 21.8818H236.482V18.6318H248.213V21.8818H243.338C242.551 24.3109 241.713 26.6722 240.824 28.9658C242.365 28.9235 243.757 28.8685 245.001 28.8008C244.392 27.0996 243.795 25.5296 243.211 24.0908L246.029 23.1514ZM247.324 15.4834H237.574V12.2334H247.324V15.4834ZM263.574 35.2373V11.8779H286.426V35.2119H282.744V33.6123H267.256V35.2373H263.574ZM282.719 23.5322C282.431 24.6156 282.211 25.7327 282.059 26.8838H279.062C277.065 26.8838 276.066 25.8428 276.066 23.7607V15.3057H273.553V20.4346C273.553 23.7861 272.326 26.2913 269.871 27.9502C269.228 27.4085 268.356 26.7399 267.256 25.9443V30.1846H282.744V15.3057H279.418V22.3389C279.418 23.1344 279.816 23.5322 280.611 23.5322H282.719ZM270.201 20.1553V15.3057H267.256V25.7285C269.219 24.6283 270.201 22.7705 270.201 20.1553ZM298.385 11.0908L302.676 10.2783C302.955 11.1501 303.239 12.0726 303.526 13.0459H312.908V19.5967H309.354V16.2959H292.799V19.6475H289.244V13.0459H299.07C298.842 12.3688 298.613 11.7171 298.385 11.0908ZM288.686 24.8271H299.781V23.7607L303.234 21.5771H293.891V18.3271H308.211V21.5518L303.488 24.6748V24.8271H313.365V28.1787H303.488V31.6318C303.488 34.0524 302.176 35.2627 299.553 35.2627H295.338C295.135 34.0947 294.839 32.9014 294.449 31.6826C295.507 31.7673 296.527 31.8096 297.509 31.8096C298.381 31.8096 298.977 31.6953 299.299 31.4668C299.62 31.2298 299.781 30.8193 299.781 30.2354V28.1787H288.686V24.8271ZM322.43 14.5439H329.133C328.752 13.5537 328.286 12.4619 327.736 11.2686L331.393 10.2783C332.019 11.5479 332.594 12.792 333.119 14.0107L331.113 14.5439H338.807V17.8193H322.43V14.5439ZM319.535 10.4814L322.785 11.4717C322.125 13.2744 321.456 14.984 320.779 16.6006V35.5166H317.377V23.6719C316.742 24.8145 316.099 25.8851 315.447 26.8838C315.193 25.665 314.821 24.2178 314.33 22.542C316.057 19.6813 317.792 15.6611 319.535 10.4814ZM321.896 31.0479H330.44C331.845 27.1546 333.035 23.0498 334.008 18.7334L337.994 19.8506C337.588 20.9508 336.276 24.6833 334.059 31.0479H339.67V34.3232H321.896V31.0479ZM326.492 18.8857C327.135 20.5954 328.27 23.8369 329.895 28.6104L326.416 29.7275C325.231 25.6481 324.19 22.3812 323.293 19.9268L326.492 18.8857Z" />
</svg>