<svg id="图层_1" data-name="图层 1" xmlns="http://www.w3.org/2000/svg" viewBox="0 0 486 60"><defs><style>.cls-1{fill:#fff;}</style></defs><title>Frame 11</title><path d="M230.06,70.09H687.94c1.79,1.34,2,2.69.43,4.51-14.06,16.48-27.72,33.3-41.79,49.77a22.55,22.55,0,0,1-7.63,5.56H279.05c-6.48-2.49-9.9-8.32-14.06-13.21-11.43-13.41-22.65-27-33.94-40.54C229.49,74.31,228,72.5,230.06,70.09Z" transform="translate(-216 -70)"/><path class="cls-1" d="M230.06,70.09c8.77,12.25,19.17,23.17,28.54,34.94,6.69,8.41,14.32,16,20.45,24.9-20,0-40-.05-60,.07-2.5,0-3.09-.56-3.07-3.06q.18-26.93,0-53.86c0-2.5.55-3.23,3.07-3.06C222.72,70.27,226.4,70.09,230.06,70.09Z" transform="translate(-216 -70)"/><path class="cls-1" d="M639,129.93c11.8-14.27,23.67-28.49,35.37-42.85,4.59-5.62,9.88-10.69,13.62-17h14v14c0,14.3-.07,28.6.07,42.89,0,2.5-.57,3.07-3.07,3.06C678.94,129.88,658.94,129.93,639,129.93Z" transform="translate(-216 -70)"/></svg>