<svg xmlns="http://www.w3.org/2000/svg" xmlns:xlink="http://www.w3.org/1999/xlink" width="13.935638427734375" height="16" viewBox="0 0 13.935638427734375 16" fill="none"><path id="路径 1" fill-rule="evenodd" style="fill:#7E1D1C" opacity="1" d="M6.96779 0L13.6865 3.89181L11.6062 5.09681L11.5421 5.05974C11.607 4.86491 11.5403 4.67493 11.4103 4.52489L11.1337 4.2057L10.8155 3.92816C10.5146 3.66574 10.0831 3.7349 9.96124 4.14394L6.96779 2.41006L3.82858 4.22843C3.63223 4.05973 3.42107 3.92744 3.32524 3.87898C3.36154 4.0759 3.39848 4.26575 3.41898 4.46569L2.32941 5.09681L0.24909 3.89181L6.96779 0ZM13.9356 4.32463L13.9356 12.1083L7.21694 16L7.21694 13.5899L11.8553 10.9032L11.8553 5.52969L13.9356 4.32463ZM6.71876 16L0 12.1083L0 4.32463L2.08032 5.52969L2.08032 8.04348C1.86484 8.10956 1.64728 8.19437 1.43142 8.29811C1.65831 8.3894 1.87633 8.49143 2.08032 8.61036L2.08032 10.9032L2.97002 11.4186C2.94077 11.7589 2.92556 12.1028 2.91231 12.454C3.4148 12.4509 4.03916 12.4345 4.50274 12.3064L6.71876 13.5899L6.71876 16ZM3.33758 12.0274C3.37779 11.2226 3.39137 10.8704 3.75926 10.373C4.1152 10.7579 4.51357 11.064 4.96378 11.2601C5.0626 11.3031 5.16365 11.3407 5.26691 11.3726C4.60098 11.9695 4.28172 11.9799 3.33758 12.0274ZM6.94115 6.63966C6.8234 6.71733 6.71321 6.80804 6.61504 6.90823C6.45629 7.07038 6.33109 7.25546 6.2602 7.44708L6.69696 7.0231C6.78711 6.93567 6.88639 6.758 6.94115 6.63966ZM7.95553 5.69309C7.78164 5.72118 7.63731 5.76277 7.5095 5.81496C7.64737 5.85576 7.77106 5.89322 7.95448 5.94836C7.95488 5.86323 7.9552 5.77816 7.95553 5.69309ZM8.94856 5.22386L9.07532 5.27762L9.17428 5.18005C9.03603 5.11456 8.89027 5.0566 8.73733 5.0067L8.94856 5.22386ZM8.46291 4.92791C8.22224 4.86779 7.96584 4.82647 7.6943 4.80591C7.85807 4.67794 8.21676 4.60996 8.46709 4.5524C8.05977 4.38704 7.34847 4.3649 6.76615 4.55129C6.73384 4.64991 6.66935 4.8046 6.59089 4.87559C6.48736 4.96924 6.39095 5.05201 6.30544 5.13198C6.96472 4.83865 7.67119 4.8177 8.36337 5.01049L8.46291 4.92791ZM3.88981 4.8951C3.96898 5.41233 3.75939 6.24496 3.71944 6.35099C3.67942 6.45695 3.62668 6.57882 3.45286 7.01485C3.27896 7.45088 3.29287 8.28946 3.40977 8.55384C3.12635 8.35377 2.77706 8.24054 2.44403 8.3613C3.00422 8.64808 3.32185 9.2843 3.69385 9.77266C4.54824 10.8944 5.60112 11.4186 6.95277 11.0412C7.6206 10.8547 8.59144 9.55451 8.01904 9.05411C7.0281 9.61528 5.96203 8.89668 5.92012 7.80235C5.88964 7.00529 6.75473 6.19617 7.59443 6.09263C7.2518 5.98969 7.1347 5.93631 6.69441 6.00665C7.0905 5.71529 7.38907 5.4849 8.0663 5.41738C8.10788 5.33931 8.17511 5.28574 8.24169 5.23054C7.3941 5.0103 6.15544 5.03905 5.08049 6.46736C5.4006 5.75877 5.63161 5.47311 6.43155 4.69084C6.64259 4.48449 6.60042 4.18193 6.57405 3.97269C6.34898 4.34355 5.93735 4.54539 5.37632 4.79405C4.95085 4.9826 4.56508 5.29485 4.281 5.68922C4.20978 5.38372 4.13903 5.10866 3.88981 4.8951ZM7.94176 10.7366C8.043 10.6947 8.14306 10.6501 8.24254 10.6026C7.9586 11.0653 7.27256 11.5812 6.03285 11.7444C7.3582 12.0944 8.62414 11.8957 9.42154 11.066C9.35764 11.1786 9.29112 11.2982 9.21801 11.4048C10.1961 10.8378 11.4692 9.17094 10.5571 7.56469C10.7111 7.69043 10.84 7.84322 10.9492 8.05141C10.9564 7.28774 10.7254 6.59467 10.2856 6.04581L10.0279 6.30894L10.5044 6.77549L10.1489 7.20667C9.97481 7.41787 9.86065 7.41826 9.64498 7.41898L9.34367 7.42016C9.33799 7.52128 9.29523 7.61525 9.22082 7.68388L9.21612 7.90498C9.21162 8.11618 9.09112 8.32371 8.88178 8.38691L8.88185 8.38724C8.62962 8.46255 8.42349 8.61625 8.24307 8.80329C8.36989 8.91547 8.45103 9.05247 8.49379 9.2065C8.56298 9.45595 8.52107 9.73611 8.40749 10.0108C8.29894 10.2733 8.13001 10.5249 7.94176 10.7366ZM6.25936 7.85645L6.89788 7.23673C7.02797 7.1104 7.21779 6.795 7.28718 6.56101C7.30193 6.51117 7.36531 6.4671 7.45304 6.4652L7.87635 6.4561L7.89965 6.38262C7.91245 6.34228 7.92961 6.33638 7.96565 6.33619L8.23824 6.33488C8.25214 6.33481 8.26291 6.32263 8.26297 6.30934L8.26539 5.70789C8.26585 5.5902 8.26369 5.52982 8.35632 5.45294L8.54849 5.2936L9.03231 5.79093L10.2689 4.57218L10.3463 4.2687C10.3765 4.15017 10.4599 4.15416 10.5516 4.23412L10.8479 4.49248L11.1054 4.78967C11.185 4.88168 11.1891 4.96537 11.0709 4.99569L10.7684 5.0733L9.55359 6.31399L10.0494 6.79939L9.89048 6.99213C9.81391 7.08512 9.75366 7.08296 9.63643 7.08342L9.03694 7.08584C9.02369 7.08584 9.01155 7.09671 9.01148 7.11066L9.01018 7.38414C9.00998 7.42029 9.00411 7.43752 8.9639 7.45035L8.89066 7.4738L8.88159 7.89843C8.87969 7.98644 8.8357 8.05003 8.78609 8.06483C8.55286 8.13445 8.2385 8.32489 8.11258 8.45541L7.77694 8.80355C7.39312 8.99465 7.00512 8.97035 6.66099 8.65915C6.46328 8.4803 6.32176 8.22947 6.27306 7.95324C6.26712 7.91971 6.26255 7.88742 6.25936 7.85645Z"></path></svg>