<svg xmlns="http://www.w3.org/2000/svg" xmlns:xlink="http://www.w3.org/1999/xlink" width="49" height="195" viewBox="0 0 49 195" fill="none">
<rect x="0" y="0" width="49" height="195"   fill="#FFFFFF" >
</rect>
<g >
<path     fill="#000000"  d="M24.08 54.89C22.84 55.47 21.58 56.05 20.48 56.53L20.48 50.85L24.04 50.17C24.3 50.13 24.5 49.99 24.5 49.79C23.66 49.25 22.3 48.49 22.3 48.49L21.54 50.13L20.48 50.33L20.48 44.95C20.98 44.87 21.16 44.69 21.2 44.39L18.04 44.09L18.04 50.79L15.44 51.29L15.66 51.77L18.04 51.31L18.04 56.49C18.04 56.95 17.9 57.15 17.02 57.75L18.9 60.21C19.06 60.09 19.22 59.89 19.36 59.63C21.58 57.77 23.26 56.03 24.18 55.09L24.08 54.89ZM32.36 44.65L31.02 46.01L22.44 46.01L22.62 46.57L25.92 46.57C25.68 54.37 25.02 59.49 19.08 62.17L19.28 62.47C27.08 60.15 27.96 55.27 28.4 46.57L31.26 46.57C31.1 54.63 30.88 58.83 30.06 59.59C29.84 59.79 29.66 59.87 29.3 59.87C28.84 59.87 27.68 59.79 26.9 59.71L26.9 59.99C27.78 60.19 28.4 60.47 28.74 60.87C29.04 61.17 29.1 61.69 29.1 62.39C30.3 62.39 31.28 62.15 32.02 61.35C33.2 60.07 33.48 56.53 33.64 46.99C34.1 46.93 34.38 46.77 34.54 46.59L32.36 44.65ZM20.2 77.69C21.08 77.05 21.76 76.51 22.32 76.09L22.24 75.85C21.54 76.07 20.88 76.29 20.2 76.49L20.2 72.93L22.22 72.93C22.5 72.93 22.7 72.83 22.76 72.61C22.16 71.91 21.1 70.83 21.1 70.83L20.2 72.23L20.2 68.51C20.7 68.45 20.9 68.25 20.94 67.95L18.02 67.67L18.02 72.35L15.62 72.35L15.78 72.93L18.02 72.93L18.02 77.15C16.92 77.47 16.02 77.71 15.5 77.85L16.56 80.39C16.78 80.31 16.98 80.09 17.04 79.83C17.38 79.61 17.7 79.39 18.02 79.17L18.02 83.41C18.02 83.65 17.94 83.75 17.64 83.75C17.26 83.75 15.62 83.65 15.62 83.65L15.62 83.93C16.42 84.09 16.82 84.33 17.08 84.71C17.34 85.09 17.42 85.67 17.46 86.41C19.9 86.19 20.2 85.27 20.2 83.65L20.2 77.69ZM24.74 79.77L24.74 74.11L26.44 74.11C26.5 76.29 26.46 78.17 26.06 79.77L24.74 79.77ZM28.5 70.53C28.22 71.43 27.76 72.67 27.28 73.55L25.02 73.55L24 73.15C24.72 72.39 25.38 71.51 25.96 70.53L28.5 70.53ZM30.38 74.11L30.38 79.77L28.18 79.77C28.58 78.17 28.66 76.27 28.64 74.11L30.38 74.11ZM34.16 80.33C34.42 80.33 34.62 80.23 34.66 80.01C34.18 79.33 33.2 78.25 33.2 78.25L32.46 79.53L32.46 74.43C32.88 74.35 33.18 74.19 33.3 74.03L31.22 72.45L30.18 73.55L27.98 73.55C29.04 72.77 30.1 71.65 30.86 70.81C31.26 70.77 31.5 70.73 31.66 70.55L29.6 68.79L28.44 69.95L26.32 69.95C26.52 69.59 26.72 69.23 26.9 68.85C27.36 68.87 27.62 68.71 27.7 68.47L24.82 67.43C24.04 70.31 22.68 73.25 21.38 75.03L21.6 75.21C21.94 74.97 22.28 74.73 22.62 74.45L22.62 79.77L20.88 79.77L21.04 80.33L25.92 80.33C25.18 82.81 23.52 84.67 20.02 86.21L20.12 86.45C24.94 85.31 27.1 83.31 28.02 80.33L28.12 80.33C28.94 83.43 30.34 85.33 32.94 86.45C33.18 85.35 33.78 84.61 34.58 84.37L34.6 84.15C31.98 83.71 29.64 82.35 28.5 80.33L34.16 80.33ZM21.84 103.29C22.38 104.19 22.88 105.57 22.82 106.75C24.46 108.33 26.6 104.87 22.06 103.17L21.84 103.29ZM31.02 98.75L28.1 98.75L28.1 94.71C29.9 94.49 31.78 94.07 33 93.67C33.62 93.85 34.02 93.81 34.24 93.61L31.78 91.65C30.98 92.35 29.58 93.31 28.22 94.03L25.84 93.29L25.84 99.17C25.12 98.47 23.98 97.53 23.98 97.53L22.9 99.01L21.8 99.01C22.66 98.17 23.5 97.13 24.04 96.39C24.48 96.43 24.7 96.27 24.78 96.03L22.26 95.25L25.04 95.25C25.32 95.25 25.52 95.15 25.58 94.93C24.86 94.23 23.66 93.25 23.66 93.25L22.62 94.67L21.28 94.67C22.4 94.21 22.58 92.13 18.96 91.63L18.8 91.75C19.3 92.41 19.8 93.45 19.86 94.39C20.02 94.51 20.18 94.61 20.34 94.67L15.94 94.67L16.1 95.25L17.42 95.25L17.3 95.29C17.66 96.19 18.06 97.47 18.02 98.57C19.5 100.13 21.62 97.09 17.6 95.25L22.06 95.25C21.88 96.37 21.56 97.87 21.24 99.01L15.58 99.01L15.74 99.59L19.46 99.59L19.46 101.95L15.92 101.95L16.08 102.51L19.46 102.51L19.46 103.77L17.28 102.83C17.08 104.49 16.5 107.03 15.56 108.71L15.78 108.91C17.34 107.69 18.52 105.79 19.26 104.31C19.34 104.31 19.4 104.31 19.46 104.31L19.46 107.87C19.46 108.09 19.4 108.21 19.12 108.21C18.78 108.21 17.48 108.13 17.48 108.13L17.48 108.39C18.24 108.51 18.56 108.75 18.78 109.03C18.98 109.31 19.02 109.79 19.04 110.39C21.38 110.21 21.7 109.35 21.7 107.91L21.7 102.51L24.96 102.51C25.24 102.51 25.44 102.41 25.5 102.19C24.82 101.51 23.64 100.55 23.64 100.55L22.62 101.95L21.7 101.95L21.7 99.59L25.42 99.59C25.6 99.59 25.74 99.55 25.84 99.45L25.84 100.01C25.84 103.65 25.56 107.33 23.14 110.19L23.34 110.41C27.78 107.75 28.1 103.59 28.1 100.05L28.1 99.33L30 99.33L30 110.41L30.4 110.41C31.6 110.41 32.3 109.91 32.3 109.77L32.3 99.33L34.06 99.33C34.34 99.33 34.56 99.23 34.6 99.01C33.76 98.19 32.3 97.01 32.3 97.01L31.02 98.75ZM31.1 122.69C30.78 124.55 30.24 126.37 29.48 128.05C28.56 126.61 27.88 124.85 27.52 122.69L31.1 122.69ZM32.14 120.91L30.98 122.13L26.68 122.13L26.68 118.45C28.62 118.47 31.4 118.33 33.44 118.01C33.82 118.17 34.08 118.15 34.26 117.97L32.36 115.65C30.42 116.47 28.26 117.29 26.52 117.83L24.56 117.13L24.56 122.13C24 121.45 23.04 120.43 23.04 120.43L22.14 121.91L22.14 116.55C22.62 116.47 22.76 116.29 22.8 116.01L20.02 115.77L20.02 121.91L18.7 121.91L18.7 117.11C19.2 117.03 19.36 116.81 19.4 116.53L16.62 116.27L16.62 125.63C16.62 129.03 16.44 131.81 15.44 134.23L15.68 134.41C17.92 132.29 18.64 129.41 18.7 125.97L20.4 125.97L20.4 133.89L20.76 133.89C21.52 133.89 22.52 133.37 22.54 133.19L22.54 126.33C22.94 126.25 23.24 126.07 23.38 125.91L21.24 124.27L20.2 125.41L18.7 125.41L18.7 122.49L24.1 122.49C24.32 122.49 24.48 122.43 24.56 122.29L24.56 123.79C24.56 127.47 24.34 131.27 22.16 134.27L22.38 134.43C26.4 131.63 26.68 127.31 26.68 123.77L26.68 122.69L27.16 122.69C27.44 125.51 27.92 127.73 28.7 129.51C27.58 131.37 26.12 132.99 24.18 134.21L24.36 134.47C26.5 133.57 28.16 132.41 29.46 131.03C30.24 132.37 31.26 133.45 32.54 134.37C32.94 133.35 33.7 132.73 34.64 132.61L34.68 132.41C33.14 131.69 31.76 130.79 30.64 129.55C32.02 127.61 32.86 125.37 33.4 123.05C33.86 123.01 34.06 122.95 34.2 122.73L32.14 120.91ZM22.22 152.13C21.52 152.71 20.78 153.29 20.12 153.79L20.12 149.97L22.6 149.97C22.86 149.97 23.06 149.87 23.12 149.65C22.5 148.99 21.4 148.03 21.4 148.03L20.44 149.41L20.12 149.41L20.12 146.65L22.12 146.65C22.4 146.65 22.6 146.55 22.64 146.33C22.02 145.65 20.9 144.69 20.9 144.69L19.92 146.07L17 146.07C17.68 145.13 18.3 144.11 18.8 143.09L22.28 143.09C22.56 143.09 22.74 142.99 22.8 142.77C22.1 142.13 21.02 141.33 21.02 141.33L20.06 142.51L19.08 142.51C19.32 141.99 19.52 141.47 19.68 140.99C20.18 140.93 20.38 140.75 20.44 140.51L17.34 139.71C17.14 141.81 16.28 145.57 15.36 147.63L15.56 147.75C15.98 147.33 16.4 146.85 16.8 146.33L16.88 146.65L17.96 146.65L17.96 149.41L15.52 149.41L15.68 149.97L17.96 149.97L17.96 154.73C17.96 155.15 17.82 155.31 17 155.97L19.14 157.93C19.32 157.75 19.5 157.41 19.56 156.99C20.9 155.07 21.9 153.21 22.4 152.29L22.22 152.13ZM20.94 158.53C23.36 157.81 25.68 156.59 27 155.45C27.62 155.49 27.9 155.37 28.04 155.13L25.18 153.91C24.4 155.29 22.6 157.17 20.8 158.29L20.94 158.53ZM28.54 154.57C30.34 155.57 31.42 156.85 31.96 157.81C33.58 159.71 37.32 155.65 28.68 154.31L28.54 154.57ZM25.84 151.53L29.86 151.53L29.86 153.21L25.84 153.21L25.84 151.53ZM29.86 144.85L29.86 146.53L25.84 146.53L25.84 144.85L29.86 144.85ZM29.86 148.73L25.84 148.73L25.84 147.11L29.86 147.11L29.86 148.73ZM25.84 149.29L29.86 149.29L29.86 150.97L25.84 150.97L25.84 149.29ZM32.14 152.91L32.14 145.09C32.64 145.01 32.9 144.91 33.04 144.69L30.64 143.01L29.66 144.29L28.24 144.29C28.32 143.81 28.42 143.21 28.5 142.61L33.38 142.61C33.66 142.61 33.86 142.51 33.92 142.29C33.08 141.53 31.68 140.43 31.68 140.43L30.44 142.03L28.58 142.03L28.8 140.57C29.22 140.49 29.5 140.29 29.54 139.95L26.44 139.69C26.42 140.39 26.4 141.23 26.36 142.03L22.48 142.03L22.64 142.61L26.34 142.61C26.32 143.23 26.3 143.79 26.26 144.29L26.02 144.29L23.66 143.39L23.66 153.21L21.94 153.21L22.1 153.79L34.18 153.79C34.44 153.79 34.64 153.69 34.68 153.47C34.02 152.83 32.9 151.95 32.9 151.95L32.14 152.91ZM17.12 164.01C17.8 164.81 18.56 166.03 18.8 167.15C20.88 168.67 22.84 164.63 17.28 163.87L17.12 164.01ZM15.4 168.59C16 169.33 16.64 170.45 16.76 171.47C18.7 173.01 20.72 169.27 15.58 168.45L15.4 168.59ZM21.36 167.37C17.76 175.25 17.76 175.25 17.32 175.99C17.1 176.39 17.02 176.41 16.72 176.41L15.82 176.41L15.82 176.79C16.26 176.83 16.58 176.91 16.86 177.11C17.34 177.43 17.44 179.29 17.06 181.41C17.2 182.15 17.64 182.45 18.1 182.45C19.02 182.45 19.68 181.81 19.72 180.79C19.78 179.03 18.98 178.29 18.96 177.21C18.94 176.69 19.08 175.99 19.26 175.33C19.52 174.31 20.9 169.87 21.68 167.45L21.36 167.37ZM31.72 163.67C30.06 164.45 27.1 165.43 24.38 166.09L22.02 165.05L22.02 171.23C22.02 174.97 21.82 179.01 19.74 182.31L20 182.53C23.9 179.41 24.16 174.81 24.16 171.29L24.16 166.69C27.2 166.57 30.56 166.21 32.72 165.77C33.36 165.99 33.8 165.95 34.02 165.77L31.72 163.67ZM32.02 170.01C31.66 170.71 30.8 171.99 30 173.03C29.66 171.79 29.4 170.47 29.24 169.09C30.54 168.99 31.76 168.85 32.68 168.67C33.26 168.89 33.68 168.85 33.92 168.67L31.72 166.63C30.78 167.17 29.18 167.87 27.62 168.39L25.34 167.83L25.34 179.13C25.34 179.55 25.22 179.75 24.42 180.13L25.46 182.39C25.7 182.29 25.96 182.05 26.16 181.71C27.76 180.57 29.12 179.47 29.82 178.89L29.76 178.67C28.96 178.91 28.18 179.15 27.46 179.35L27.46 169.17C27.94 169.15 28.42 169.13 28.92 169.11C29.22 175.59 29.98 179.73 32.9 182.41C33.22 181.23 33.94 180.43 34.72 180.17L34.76 179.97C32.6 178.85 31.12 176.53 30.2 173.67C31.42 173.19 32.72 172.59 33.42 172.23C33.76 172.43 34.08 172.35 34.2 172.23L32.02 170.01Z">
</path>
</g>
<path   fill-rule="evenodd"  fill="#630303"  d="M19.4599 17.2281C21.7728 15.0078 25.1878 14.3829 28.137 15.6401C31.0864 16.8974 33.0002 19.794 32.9999 22.9999L29.9999 22.9999L33.1899 28.74C34.3298 27.116 34.9999 25.136 34.9999 22.9999C34.9999 17.4771 30.5228 13 25 13C22.599 12.9967 20.2775 13.8607 18.4629 15.4329L19.4599 17.2281ZM17 23.0001L20 23.0001L16.81 17.26C15.6701 18.8841 15 20.864 15 23.0001C15 28.5229 19.4771 33 24.9999 33C27.4009 33.0033 29.7224 32.1393 31.537 30.5671L30.54 28.7719C28.2271 30.9922 24.8121 31.6171 21.8629 30.3599C18.9135 29.1026 16.9996 26.206 17 23.0001Z">
</path>
</svg>
