<svg xmlns="http://www.w3.org/2000/svg" xmlns:xlink="http://www.w3.org/1999/xlink" width="70" height="70" viewBox="0 0 70 70" fill="none"><g opacity="1"  transform="translate(10 10)  rotate(0)"><g id="undefined" filter="url(#filter_0)"><rect fill="#FFFFFF" opacity="1" transform="translate(0 0)  rotate(0)" x="0" y="0" width="50" height="50" rx="25" ry="25"/></g><g opacity="1"  transform="translate(10 10)  rotate(0)"><mask id="bg-mask-0" fill="white"><use transform="translate(0 0)  rotate(0)" xlink:href="#path_0"></use></mask><g mask="url(#bg-mask-0)" ><g opacity="1"  transform="translate(0 0)  rotate(0)"><path id="Vector" fill-rule="evenodd" style="fill:#ECB83B" opacity="1" d="M9.925,16.325c-0.35113,-0.3516 -0.54835,-0.8281 -0.54835,-1.325c0,-0.4969 0.19722,-0.9734 0.54835,-1.325l7.07,-7.0725c0.3517,-0.35158 0.8287,-0.54903 1.3261,-0.54891c0.2462,0.00006 0.49,0.04862 0.7175,0.14291c0.2275,0.09429 0.4342,0.23246 0.6083,0.40662c0.1741,0.17417 0.3121,0.38092 0.4063,0.60845c0.0942,0.22752 0.1426,0.47137 0.1426,0.71762c-0.0001,0.24625 -0.0486,0.49008 -0.1429,0.71756c-0.0943,0.22748 -0.2325,0.43417 -0.4067,0.60825l-5.7449,5.745l5.7449,5.745c0.1792,0.1729 0.3221,0.3797 0.4205,0.6084c0.0984,0.2287 0.1502,0.4747 0.1525,0.7237c0.0023,0.249 -0.045,0.4959 -0.1392,0.7264c-0.0942,0.2304 -0.2333,0.4398 -0.4093,0.616c-0.1759,0.1761 -0.3852,0.3154 -0.6156,0.4098c-0.2304,0.0944 -0.4772,0.142 -0.7262,0.1399c-0.249,-0.002 -0.495,-0.0536 -0.7238,-0.1518c-0.2288,-0.0982 -0.4358,-0.2409 -0.6088,-0.4199l-7.0738,-7.0725z"></path></g></g></g></g><defs><filter id="filter_0" x="-2030" y="-876" width="70" height="70" filterUnits="userSpaceOnUse" color-interpolation-filters="sRGB"><feFlood flood-opacity="0" result="feFloodId"/>
          <feColorMatrix in="SourceAlpha" type="matrix" values="0 0 0 0 0 0 0 0 0 0 0 0 0 0 0 0 0 0 127 0" result="hardAlpha"/>
          
          <feOffset dx="0" dy="0"/>
          <feComposite in2="hardAlpha" operator="out"/>
          <feGaussianBlur stdDeviation="5"/>
          <feColorMatrix type="matrix" values="0 0 0 0 0.9254901960784314 0 0 0 0 0.7215686274509804 0 0 0 0 0.23137254901960785 0 0 0 1 0"/>
          <feBlend mode="normal" in2="filter_feFlood" result="filter_feFlood_1"/>
          <feBlend mode="normal" in="SourceGraphic" in2="filter_0" result="shape"/></filter><rect id="path_0" x="0" y="0" width="30" height="30" /></defs></svg>