<svg xmlns="http://www.w3.org/2000/svg" xmlns:xlink="http://www.w3.org/1999/xlink" width="351.00000381469727" height="151" viewBox="0 0 351.00000381469727 151" fill="none">
<rect  x="0.5000038146972656" y="150.5" width="150" height="350" transform="rotate(-90.00000164936515 0.5000038146972656 150.5)" rx="10"    fill="url(#linear_0)" >
</rect>
<path   fill="rgba(0, 0, 0, 1)"  d="M3.51667e-06 140.5L-2.38419e-07 10.5C-3.57628e-07 4.701 4.70101 0 10.5 0L340.5 -1.52588e-05C346.299 -1.52588e-05 351 4.70099 351 10.5L351 140.5C351 146.299 346.299 151 340.5 151L10.5 151C4.70101 151 3.69549e-06 146.299 3.51667e-06 140.5ZM1 140.5C1 145.747 5.2533 150 10.5 150L340.5 150C345.747 150 350 145.747 350 140.5L350 10.5C350 5.25328 345.747 0.999985 340.5 0.999985L10.5 1C5.2533 1 1 5.2533 1 10.5L1 140.5Z">
</path>
<defs>
<linearGradient id="linear_0" x1="50.00000000000002%" y1="4.8986e-15%" x2="51.00000000000002%" y2="100%" gradientUnits="objectBoundingBox">
<stop offset="0" stop-color="#491912"  />
<stop offset="1" stop-color="#9C2B2E"  />
</linearGradient>
</defs>
</svg>
