<svg width="22" height="21" viewBox="0 0 22 21" fill="none" xmlns="http://www.w3.org/2000/svg">
<g clip-path="url(#clip0_67_1163)">
<rect width="21" height="21" transform="translate(0.911499)" fill="#BA9624"/>
<path fill-rule="evenodd" clip-rule="evenodd" d="M14.964 9.57251C15.2098 9.81861 15.3478 10.1522 15.3478 10.5C15.3478 10.8478 15.2098 11.1814 14.964 11.4275L10.015 16.3783C9.76877 16.6244 9.43487 16.7626 9.08675 16.7625C8.73862 16.7624 8.40479 16.624 8.15868 16.3778C7.91258 16.1316 7.77436 15.7977 7.77444 15.4496C7.77453 15.1015 7.9129 14.7676 8.15912 14.5215L12.1806 10.5L8.15912 6.47851C7.91992 6.23109 7.78747 5.89961 7.79029 5.55547C7.79312 5.21134 7.931 4.88208 8.17423 4.63861C8.41747 4.39515 8.7466 4.25696 9.09073 4.25381C9.43486 4.25066 9.76647 4.3828 10.0141 4.62176L14.9649 9.57164L14.964 9.57251Z" fill="white"/>
</g>
<defs>
<clipPath id="clip0_67_1163">
<rect width="21" height="21" fill="white" transform="translate(0.911499)"/>
</clipPath>
</defs>
</svg>
