<svg xmlns="http://www.w3.org/2000/svg" xmlns:xlink="http://www.w3.org/1999/xlink" width="210.00390625" height="310"
    viewBox="0 0 210.00390625 310" fill="none">
    <g opacity="1" transform="translate(0 0)  rotate(0)">
        <g opacity="1" transform="translate(0 0)  rotate(0)">
            <path id="减去顶层" fill-rule="evenodd" fill="url(#linear_0)" opacity="1"
                d="M210 310L12 310C5.37 310 0 304.63 0 298L0 12C0 5.37 5.37 0 12 0L210 0L210 310ZM21 271L15 271L15 11L195 11L195 17L201 17L201 277L21 277L21 271Z">
            </path>
            <path fill-rule="evenodd" id="减去顶层" style="fill:#FFFFFF; opacity:1;"
                d="M209 310L210 310L210 0L12 0C5.37 0 0 5.37 0 12L0 298C0 304.63 5.37 310 12 310L209 310ZM209 309L12 309C5.92487 309 1 304.075 1 298L1 12C1 5.92487 5.92487 1 12 1L209 1L209 309ZM21 272L21 271L15 271L15 11L195 11L195 17L201 17L201 277L21 277L21 272ZM196 16L202 16L202 278L20 278L20 272L14 272L14 10L196 10L196 16Z">
            </path>
            <path id="矩形 1" fill-rule="evenodd" fill="url(#linear_1)" opacity="1"
                d="M12 310L210 310L210 286L12 286C5.37 286 0 291.37 0 298L0 298C0 304.63 5.37 310 12 310Z"></path>
            <path fill-rule="evenodd" id="矩形 1" style="fill:#FFFFFF; opacity:1;"
                d="M209 310L12 310C5.37 310 0 304.63 0 298C0 291.37 5.37 286 12 286L210 286L210 310L209 310ZM209 309L12 309C5.92487 309 1 304.075 1 298C1 291.925 5.92487 287 12 287L209 287L209 309Z">
            </path>
            <path id="矩形 2" fill-rule="evenodd" fill="url(#linear_2)" opacity="1"
                d="M204 303L209 303L209 292L204 292L204 303Z"></path>
            <path id="矩形 1" fill-rule="evenodd" style="fill:#EDEDED" opacity="1"
                d="M11.62 303.23L204 303.23L204 292L11.62 292C8.52 292 6 294.52 6 297.62L6 297.62C6 300.72 8.52 303.23 11.62 303.23Z">
            </path>
            <path fill-rule="evenodd" id="矩形 1" style="fill:#FFFFFF; opacity:1;"
                d="M209.5 303.26L11.2997 303.26C8.19969 303.26 5.67969 300.75 5.67969 297.65C5.67969 294.55 8.19969 292.03 11.2997 292.03L210 292.03L210 303.26L209.5 303.26ZM209.5 302.76L11.2997 302.76C8.47199 302.76 6.17969 300.478 6.17969 297.65C6.17969 294.822 8.47199 292.53 11.2997 292.53L209.5 292.53L209.5 302.76Z">
            </path>
            <path id="矩形 1" fill-rule="evenodd" style="fill:#24292E" opacity="1"
                d="M12.56 298.12L204 298.12L204 297L12.56 297C12.25 297 12 297.25 12 297.56L12 297.56C12 297.87 12.25 298.12 12.56 298.12Z">
            </path>
            <path id="矩形 2" style="fill:#FFFFFF; opacity:1;"
                d="M14.5 10.5L14.5 271.5L195.5 271.5L195.5 10.5L14.5 10.5ZM15.5 11.5L194.5 11.5L194.5 270.5L15.5 270.5L15.5 11.5Z">
            </path>
            <path id="矩形 2" style="fill:#FFFFFF; opacity:1;"
                d="M20.5 16.5L20.5 277.5L201.5 277.5L201.5 16.5L20.5 16.5ZM21.5 17.5L200.5 17.5L200.5 276.5L21.5 276.5L21.5 17.5Z">
            </path>
        </g>
    </g>
    <defs>
        <linearGradient id="linear_0" x1="0%" y1="100%" x2="100%" y2="0%" gradientUnits="objectBoundingBox">
            <stop offset="0.5139" stop-color="#24292E" stop-opacity="1" />
            <stop offset="1" stop-color="#787878" stop-opacity="1" />
        </linearGradient>
        <linearGradient id="linear_1" x1="0%" y1="50%" x2="100%" y2="50%" gradientUnits="objectBoundingBox">
            <stop offset="0" stop-color="#6A6A6A" stop-opacity="1" />
            <stop offset="0.6944" stop-color="#24292E" stop-opacity="1" />
        </linearGradient>
        <linearGradient id="linear_2" x1="50%" y1="100%" x2="51%" y2="0%" gradientUnits="objectBoundingBox">
            <stop offset="0" stop-color="#FCFCFC" stop-opacity="0.33" />
            <stop offset="1" stop-color="#FFFFFF" stop-opacity="0" />
        </linearGradient>
    </defs>
</svg>