<svg width="50" height="50" viewBox="0 0 50 50" fill="none" xmlns="http://www.w3.org/2000/svg">
<g clip-path="url(#clip0_707_2879)">
<path fill-rule="evenodd" clip-rule="evenodd" d="M7.8125 5.46875C7.8125 5.26155 7.89481 5.06284 8.04132 4.91632C8.18784 4.76981 8.38655 4.6875 8.59375 4.6875H35.1562C35.3635 4.6875 35.5622 4.76981 35.7087 4.91632C35.8552 5.06284 35.9375 5.26155 35.9375 5.46875V29.6438C35.9375 30.2654 36.1844 30.8615 36.624 31.301C37.0635 31.7406 37.6596 31.9875 38.2812 31.9875C38.9029 31.9875 39.499 31.7406 39.9385 31.301C40.3781 30.8615 40.625 30.2654 40.625 29.6438V5.46875C40.625 4.01835 40.0488 2.62735 39.0232 1.60176C37.9977 0.57617 36.6067 0 35.1562 0H8.59375C7.14335 0 5.75235 0.57617 4.72676 1.60176C3.70117 2.62735 3.125 4.01835 3.125 5.46875V41.4062C3.125 44.425 5.575 46.875 8.59375 46.875H18.5C19.1216 46.875 19.7177 46.6281 20.1573 46.1885C20.5968 45.749 20.8438 45.1529 20.8438 44.5312C20.8438 43.9096 20.5968 43.3135 20.1573 42.874C19.7177 42.4344 19.1216 42.1875 18.5 42.1875H8.59375C8.38655 42.1875 8.18784 42.1052 8.04132 41.9587C7.89481 41.8122 7.8125 41.6135 7.8125 41.4062V5.46875ZM14.8438 12.5C14.2221 12.5 13.626 12.7469 13.1865 13.1865C12.7469 13.626 12.5 14.2221 12.5 14.8438C12.5 15.4654 12.7469 16.0615 13.1865 16.501C13.626 16.9406 14.2221 17.1875 14.8438 17.1875H28.9062C29.5279 17.1875 30.124 16.9406 30.5635 16.501C31.0031 16.0615 31.25 15.4654 31.25 14.8438C31.25 14.2221 31.0031 13.626 30.5635 13.1865C30.124 12.7469 29.5279 12.5 28.9062 12.5H14.8438ZM12.5 24.2188C12.5 23.5971 12.7469 23.001 13.1865 22.5615C13.626 22.1219 14.2221 21.875 14.8438 21.875H21.0938C21.7154 21.875 22.3115 22.1219 22.751 22.5615C23.1906 23.001 23.4375 23.5971 23.4375 24.2188C23.4375 24.8404 23.1906 25.4365 22.751 25.876C22.3115 26.3156 21.7154 26.5625 21.0938 26.5625H14.8438C14.2221 26.5625 13.626 26.3156 13.1865 25.876C12.7469 25.4365 12.5 24.8404 12.5 24.2188V24.2188ZM49.2938 35.2719C49.5141 35.0568 49.69 34.8005 49.8113 34.5175C49.9326 34.2345 49.997 33.9304 50.0008 33.6225C50.0045 33.3146 49.9476 33.009 49.8333 32.7231C49.7189 32.4372 49.5494 32.1766 49.3344 31.9562C49.1193 31.7359 48.863 31.56 48.58 31.4387C48.297 31.3174 47.9929 31.253 47.685 31.2492C47.3771 31.2455 47.0715 31.3024 46.7856 31.4167C46.4997 31.5311 46.2391 31.7006 46.0187 31.9156L33.4375 44.2031L29.0031 39.75C28.5596 39.3351 27.9724 39.1086 27.3652 39.1182C26.7579 39.1277 26.1781 39.3726 25.7479 39.8012C25.3176 40.2298 25.0706 40.8087 25.0587 41.4159C25.0469 42.0231 25.2712 42.6112 25.6844 43.0562L31.7562 49.15C32.1917 49.5875 32.7823 49.8355 33.3995 49.8402C34.0168 49.8449 34.611 49.6058 35.0531 49.175L49.2938 35.2688V35.2719Z" fill="#8C8198"/>
</g>
<defs>
<clipPath id="clip0_707_2879">
<rect width="50" height="50" fill="white"/>
</clipPath>
</defs>
</svg>
