<svg id="图层_1" data-name="图层 1" xmlns="http://www.w3.org/2000/svg" xmlns:xlink="http://www.w3.org/1999/xlink" viewBox="0 0 100 30"><defs><style>.cls-1{fill:url(#未命名的渐变_3);}.cls-2{fill:url(#未命名的渐变_3-2);}.cls-3{fill:url(#未命名的渐变_7);}.cls-4{fill:#fff;}.cls-5{fill:url(#未命名的渐变_7-2);}.cls-6{fill:url(#未命名的渐变_7-3);}</style><linearGradient id="未命名的渐变_3" x1="50" y1="30.24" x2="50" y2="-0.5" gradientUnits="userSpaceOnUse"><stop offset="0" stop-color="#fff501"/><stop offset="1" stop-color="#ffe0d9"/></linearGradient><linearGradient id="未命名的渐变_3-2" x1="23.42" y1="14.95" x2="76.76" y2="14.95" xlink:href="#未命名的渐变_3"/><linearGradient id="未命名的渐变_7" x1="34.17" y1="23.47" x2="34.17" y2="6.36" gradientUnits="userSpaceOnUse"><stop offset="0" stop-color="#9800bd"/><stop offset="1" stop-color="#010101"/></linearGradient><linearGradient id="未命名的渐变_7-2" x1="56.1" y1="23.54" x2="56.1" y2="6.83" xlink:href="#未命名的渐变_7"/><linearGradient id="未命名的渐变_7-3" x1="73.54" y1="21.9" x2="73.54" y2="8.41" xlink:href="#未命名的渐变_7"/></defs><path class="cls-1" d="M5,0h95a0,0,0,0,1,0,0V25a5,5,0,0,1-5,5H0a0,0,0,0,1,0,0V5A5,5,0,0,1,5,0Z"/><path class="cls-2" d="M43.47,16.84l-6.74.1-.1.57H43.9l-.26,1.79H36.39l-.07.57H44l-.24,1.69h-7.7l-.07.55a1.46,1.46,0,0,1-.63,1,2.16,2.16,0,0,1-1.2.33H29.72L31.48,22l.05-.41H23.88l.24-1.69h7.65l.1-.57H24.69L25,17.51H32.1l.07-.52-6.74.07.24-1.69,18-.22Zm-3.19-6.5-.4-1.22-.2,1.31h-9l.16-1.17-.74,1.08H26.29L28.91,7l-.55-.64H42.71l1.74,4Zm3.5.71-.52,3.67H26.43L27,11.05Zm-4.64,2.24.09-.71h-8.7l-.1.71ZM31.05,9h8.78l-.22-.69H31.53Z"/><path class="cls-2" d="M42.71,6.36l1.74,4H40.28l-.4-1.22-.2,1.31h-9l.16-1.17-.74,1.08H26.29L28.91,7l-.55-.64H42.71M31.05,9h8.78l-.22-.69H31.53L31.05,9m12.73,2.05-.52,3.67H26.43L27,11.05H43.78m-4.55,1.53h-8.7l-.1.71h8.71l.09-.71m4.48,2.57-.24,1.69-6.74.1-.1.57H43.9l-.26,1.79H36.39l-.07.57H44l-.24,1.69h-7.7l-.07.55a1.46,1.46,0,0,1-.63,1,2.16,2.16,0,0,1-1.2.33H29.72L31.48,22l.05-.41H23.88l.24-1.69h7.65l.1-.57H24.69L25,17.51H32.1l.07-.52-6.74.07.24-1.69,18-.22M43,6H27.49l.57.65.33.4L26,10.09l-.51.65H26.6l0,.25L26,14.67,26,15h-.67l-.05.34L25,17v.11h-.41l-.05.34-.27,1.79,0,.23h-.49l-.05.35-.24,1.69-.06.45h7.45l-1.41,1.21-.83.7h5.55a2.53,2.53,0,0,0,1.42-.4,1.83,1.83,0,0,0,.81-1.29l0-.22h7.69l0-.34.24-1.69.06-.46H44l0-.11.26-1.79.07-.46h-.53l0-.21.24-1.69.06-.46h-.51l.52-3.64,0-.37h.83l-.24-.56-1.74-4L43,6Z"/><path class="cls-2" d="M64.38,20H59.85l-3.12-6.75L55.27,23.54H50.75l2-14.44H46.43l.31-2.27h19L65.45,9.1H57.3l-.24,1.81h3.15Z"/><path class="cls-2" d="M65.76,6.83,65.45,9.1H57.3l-.24,1.81h3.15L64.38,20H59.85l-3.12-6.75L55.27,23.54H50.75l2-14.44H46.43l.31-2.27h19m.46-.4H46.39l0,.35L46,9,46,9.5h6.34l-2,14-.06.45h5.33l.05-.34,1.27-9,2.55,5.52.11.23H65l-.27-.57-4.17-9.06-.1-.23H57.52l.13-1H65.8l0-.35.31-2.26.06-.46Z"/><path class="cls-2" d="M74.39,21.9H70.77l.31-2.27H74.7Zm.43-3.34H71.2L72.68,8.41H76.3Z"/><path class="cls-2" d="M76.3,8.41,74.82,18.56H71.2L72.68,8.41H76.3M74.7,19.63l-.31,2.27H70.77l.31-2.27H74.7M76.76,8H72.33l0,.34L70.8,18.5l-.06.46h4.43l0-.34L76.7,8.46,76.76,8Zm-1.6,11.22H70.73l0,.35-.31,2.26-.06.46h4.43l.05-.35.31-2.26.06-.46Z"/><path class="cls-3" d="M43.47,16.84l-6.74.1-.1.57H43.9l-.26,1.79H36.39l-.07.57H44l-.24,1.69h-7.7l-.07.55a1.46,1.46,0,0,1-.63,1,2.16,2.16,0,0,1-1.2.33H29.72L31.48,22l.05-.41H23.88l.24-1.69h7.65l.1-.57H24.69L25,17.51H32.1l.07-.52-6.74.07.24-1.69,18-.22Zm-3.19-6.5-.4-1.22-.2,1.31h-9l.16-1.17-.74,1.08H26.29L28.91,7l-.55-.64H42.71l1.74,4Zm3.5.71-.52,3.67H26.43L27,11.05Zm-4.64,2.24.09-.71h-8.7l-.1.71ZM31.05,9h8.78l-.22-.69H31.53Z"/><path class="cls-4" d="M42.71,6.36l1.74,4H40.28l-.4-1.22-.2,1.31h-9l.16-1.17-.74,1.08H26.29L28.91,7l-.55-.64H42.71M31.05,9h8.78l-.22-.69H31.53L31.05,9m12.73,2.05-.52,3.67H26.43L27,11.05H43.78m-4.55,1.53h-8.7l-.1.71h8.71l.09-.71m4.48,2.57-.24,1.69-6.74.1-.1.57H43.9l-.26,1.79H36.39l-.07.57H44l-.24,1.69h-7.7l-.07.55a1.46,1.46,0,0,1-.63,1,2.16,2.16,0,0,1-1.2.33H29.72L31.48,22l.05-.41H23.88l.24-1.69h7.65l.1-.57H24.69L25,17.51H32.1l.07-.52-6.74.07.24-1.69,18-.22M43,6H27.49l.57.65.33.4L26,10.09l-.51.65H26.6l0,.25L26,14.67,26,15h-.67l-.05.34L25,17v.11h-.41l-.05.34-.27,1.79,0,.23h-.49l-.05.35-.24,1.69-.06.45h7.45l-1.41,1.21-.83.7h5.55a2.53,2.53,0,0,0,1.42-.4,1.83,1.83,0,0,0,.81-1.29l0-.22h7.69l0-.34.24-1.69.06-.46H44l0-.11.26-1.79.07-.46h-.53l0-.21.24-1.69.06-.46h-.51l.52-3.64,0-.37h.83l-.24-.56-1.74-4L43,6Z"/><path class="cls-5" d="M64.38,20H59.85l-3.12-6.75L55.27,23.54H50.75l2-14.44H46.43l.31-2.27h19L65.45,9.1H57.3l-.24,1.81h3.15Z"/><path class="cls-4" d="M65.76,6.83,65.45,9.1H57.3l-.24,1.81h3.15L64.38,20H59.85l-3.12-6.75L55.27,23.54H50.75l2-14.44H46.43l.31-2.27h19m.46-.4H46.39l0,.35L46,9,46,9.5h6.34l-2,14-.06.45h5.33l.05-.34,1.27-9,2.55,5.52.11.23H65l-.27-.57-4.17-9.06-.1-.23H57.52l.13-1H65.8l0-.35.31-2.26.06-.46Z"/><path class="cls-6" d="M74.39,21.9H70.77l.31-2.27H74.7Zm.43-3.34H71.2L72.68,8.41H76.3Z"/><path class="cls-4" d="M76.3,8.41,74.82,18.56H71.2L72.68,8.41H76.3M74.7,19.63l-.31,2.27H70.77l.31-2.27H74.7M76.76,8H72.33l0,.34L70.8,18.5l-.06.46h4.43l0-.34L76.7,8.46,76.76,8Zm-1.6,11.22H70.73l0,.35-.31,2.26-.06.46h4.43l.05-.35.31-2.26.06-.46Z"/></svg>