<svg xmlns="http://www.w3.org/2000/svg" xmlns:xlink="http://www.w3.org/1999/xlink" width="35.83837890625" height="37.67225646972656" viewBox="0 0 35.83837890625 37.67225646972656" fill="none"><g opacity="1"  transform="translate(7.460693359375 1.1860809326171875)  rotate(0)"><path  id="Line 1" style="fill:#000000; opacity:1;" d="M-5.24106,24.6591l27.19106,5.7796c0.5402,0.1149 0.885,0.6459 0.7702,1.1861c-0.1148,0.5402 -0.6458,0.8851 -1.186,0.7702l-27.19109,-5.7796c-0.54021,-0.1148 -0.88506,-0.6458 -0.77023,-1.1861c0.11482,-0.5402 0.64584,-0.885 1.18606,-0.7702z"></path><path id="Rectangle 7" fill-rule="evenodd" fill="url(#linear_0)" opacity="1" d="M-1.95303 26.3803L18.637 30.7569L21.6061 14.3353C22.5536 9.10811 19.176 4.07591 13.9821 2.9719L13.9821 2.9719C8.76855 1.86373 3.60334 5.04944 2.26041 10.2131L-1.95303 26.3803Z"></path><path  id="Rectangle 7" style="fill:#000000; opacity:1;" d="M-1.74512,25.4022l20.59002,4.3765l-0.2079,0.9782l-0.9841,-0.1779l2.9691,-16.4216c0.8509,-4.69406 -2.1819,-9.21559 -6.8478,-10.20735c-4.6915,-0.9972 -9.33876,1.87285 -10.54598,6.51475l-4.21357,16.1677l-0.96768,-0.2522zM-3.18464,27.1409l4.47725,-17.17953c1.47644,-5.67702 7.1597,-9.1872 12.89739,-7.96762c5.7234,1.21654 9.4437,6.76253 8.4001,12.51955l-3.1525,17.4361l-21.59854,-4.5909z"></path><path id="Rectangle 8" fill-rule="evenodd" style="fill:#000000" opacity="1" d="M7.70847 32.4926L7.70847 32.4926C9.85061 32.948 11.9618 31.5769 12.4171 29.4348L12.4171 29.4348L4.65063 27.784L4.65063 27.784C4.19531 29.9261 5.56633 32.0373 7.70847 32.4926Z"></path><path  id="Rectangle 8" style="fill:#000000; opacity:1;" d="M7.91638,31.5145c1.60444,0.341 3.18152,-0.6832 3.52262,-2.2876l0.9781,0.2079l-0.2079,0.9781l-7.76648,-1.6508l0.20791,-0.9781l0.97815,0.2079c-0.34103,1.6044 0.68316,3.1816 2.2876,3.5226zM7.50056,33.4708c-2.68487,-0.5707 -4.39876,-3.2099 -3.82807,-5.8947l0.20791,-0.9782l9.7228,2.0667l-0.2079,0.9781c-0.5707,2.6849 -3.2099,4.3988 -5.89474,3.8281z"></path></g><defs><linearGradient id="linear_0" x1="15.209772311050989" y1="6.175813950978525" x2="9.760402626650343" y2="31.813082172584412" gradientUnits="userSpaceOnUse"><stop offset="0" stop-color="#000000" stop-opacity="1" /><stop offset="1" stop-color="#FFFFFF" stop-opacity="1" /></linearGradient></defs></svg>