<svg width="494" height="157" viewBox="0 0 494 157" fill="none" xmlns="http://www.w3.org/2000/svg">
<path d="M64.9149 114.67L67.4609 96.044L46.1549 114.67H22.4369L49.6389 93.364H29.6729L33.9609 62.946H62.1009L63.7089 60.802H83.2729L81.6649 62.946H113.691L109.403 93.364H70.4089L68.3989 95.106H83.9429L82.4689 106.094H108.465L112.887 102.878L111.279 114.67H64.9149ZM63.9769 24.22V24.086L58.2149 18.86H85.1489L84.3449 24.22H124.277L122.937 33.6H36.1049L20.2929 114.67H0.0589375L16.9429 29.044L12.7889 24.22H63.9769ZM106.991 47.134H105.249L103.507 59.73H88.0969L89.8389 47.134H88.2309L84.8809 59.73H75.0989L78.4489 47.134H76.7069L77.9129 38.156H91.1789L91.5809 35.074H106.991L106.589 38.156H119.855L118.649 47.134H116.773L116.639 59.73H106.857L106.991 47.134ZM63.8429 47.134H62.1009L60.3589 59.864H44.9489L46.6909 47.134H45.2169L42.0009 59.73H32.2189L35.4349 47.134H34.8989L36.1049 37.888H48.0309L48.4329 35.074H63.8429L63.4409 37.888H75.3669L74.1609 47.134H73.4909L73.2229 59.864H63.4409L63.8429 47.134ZM106.187 95.91L105.919 105.022H98.5489V103.682L85.9529 104.62L86.7569 99.662L90.2409 94.704H97.8789L95.6009 98.858L98.8169 98.724L98.9509 95.91H106.187ZM82.0669 70.986L81.5309 75.006H93.7249L94.2609 70.986H82.0669ZM92.2509 85.324L92.7869 81.572H80.5929L80.1909 84.788L79.5209 85.324H92.2509ZM50.8449 75.006H62.1009L62.6369 70.986H51.3809L50.8449 75.006ZM59.5549 85.324L60.8949 84.252L61.1629 81.572H49.9069L49.3709 85.324H59.5549ZM132.574 102.878L135.924 79.294H236.96L233.61 102.878H238.97L237.63 112.66H125.874L127.214 102.878H132.574ZM219.942 45.794L218.602 40.836L217.932 46.464H162.054L162.724 41.506L160.178 45.794H137.264L152.54 23.014L149.458 18.592H235.486L244.732 45.794H219.942ZM238.166 50.752L234.548 75.676H139.944L143.562 50.752H238.166ZM165.672 36.548H217.53L216.458 31.992H168.352L165.672 36.548ZM208.954 66.028L209.624 61.07H166.074L165.404 66.028H208.954ZM207.748 89.746L206.006 102.878H212.17L214.046 89.746H207.748ZM180.68 102.878H186.844L188.586 89.746H182.422L180.68 102.878ZM155.354 102.878H161.518L163.26 89.746H157.23L155.354 102.878ZM358.22 59.194L350.716 112.526H249.814L257.318 59.194H358.22ZM258.926 38.558H254.102L256.112 24.756H302.878L303.146 22.612L301.136 18.86H332.224L331.42 24.756H367.466L365.456 38.558H284.52L283.716 44.588H359.694L358.22 55.442H256.648L258.926 38.558ZM279.026 88.808H328.472L329.142 84.252H279.696L279.026 88.808ZM281.036 74.068H330.482L331.152 69.914H281.706L281.036 74.068ZM326.462 102.878L326.998 98.724H277.552L277.016 102.878H326.462ZM379.114 102.878L382.464 79.294H483.5L480.15 102.878H485.51L484.17 112.66H372.414L373.754 102.878H379.114ZM466.482 45.794L465.142 40.836L464.472 46.464H408.594L409.264 41.506L406.718 45.794H383.804L399.08 23.014L395.998 18.592H482.026L491.272 45.794H466.482ZM484.706 50.752L481.088 75.676H386.484L390.102 50.752H484.706ZM412.212 36.548H464.07L462.998 31.992H414.892L412.212 36.548ZM455.494 66.028L456.164 61.07H412.614L411.944 66.028H455.494ZM454.288 89.746L452.546 102.878H458.71L460.586 89.746H454.288ZM427.22 102.878H433.384L435.126 89.746H428.962L427.22 102.878ZM401.894 102.878H408.058L409.8 89.746H403.77L401.894 102.878Z" fill="black"/>
<path d="M0 138C0 129.716 6.71573 123 15 123H380V157H0V138Z" fill="url(#paint0_linear_138_215)"/>
<path d="M12.953 146.852L14.867 132.596L13.91 131.342H21.203L18.992 147.809C18.816 148.447 18.508 148.975 18.068 149.393C17.628 149.811 17.089 150.02 16.451 150.02H5.99L6.617 145.598L7.904 146.852H12.953ZM26.2234 131.342H32.8564L35.7274 136.721L39.5224 131.969L38.8954 131.342H46.4854L38.2684 140.516L43.9444 150.02H37.6084L34.7704 144.311L30.0184 150.02H23.6824L31.9324 140.516L27.1804 132.266L26.2234 131.342ZM61.4996 141.869H50.2136L50.6426 138.734H61.9286L62.5556 134.345H50.0156L50.4446 131.243H69.2546L66.9116 147.776C66.8236 148.414 66.5266 148.953 66.0206 149.393C65.5366 149.811 64.9866 150.02 64.3706 150.02H47.8046L48.2666 146.885H60.7736L61.4996 141.869ZM94.7332 131.342L93.7762 138.932L91.8622 140.186L93.4462 141.473L92.4892 147.809C92.3352 148.447 92.0382 148.975 91.5982 149.393C91.1582 149.811 90.6192 150.02 89.9812 150.02H72.2272L74.4382 132.596L73.4812 131.342H94.7332ZM80.4772 134.51L80.1472 138.602H87.4402L88.0672 134.51H80.4772ZM79.5202 141.77L78.8932 146.852H86.4832L87.1102 141.77H79.5202ZM117.749 131.342C118.057 131.342 118.343 131.397 118.607 131.507C118.871 131.617 119.091 131.771 119.267 131.969C119.465 132.167 119.597 132.398 119.663 132.662C119.729 132.926 119.718 133.223 119.63 133.553L117.419 150.02H99.6654C99.3574 150.02 99.0714 149.965 98.8074 149.855C98.5434 149.745 98.3124 149.591 98.1144 149.393C97.9384 149.195 97.8174 148.964 97.7514 148.7C97.6854 148.414 97.6964 148.117 97.7844 147.809L99.9954 131.342H117.749ZM105.704 134.51L104.12 146.852H111.413L113.294 134.51H105.704ZM124.708 131.342H131.341L134.212 136.721L138.007 131.969L137.38 131.342H144.97L136.753 140.516L142.429 150.02H136.093L133.255 144.311L128.503 150.02H122.167L130.417 140.516L125.665 132.266L124.708 131.342ZM189.737 131.342L188.78 138.932L186.866 140.186L188.45 141.473L187.493 147.809C187.339 148.447 187.042 148.975 186.602 149.393C186.162 149.811 185.623 150.02 184.985 150.02H167.231L169.442 132.596L168.485 131.342H189.737ZM175.481 134.51L175.151 138.602H182.444L183.071 134.51H175.481ZM174.524 141.77L173.897 146.852H181.487L182.114 141.77H174.524ZM201.269 131.342L199.058 146.852H211.4L211.103 150.02H194.636C193.998 150.02 193.514 149.811 193.184 149.393C192.876 148.975 192.722 148.447 192.722 147.809L194.636 132.596L193.679 131.342H201.269ZM222.905 131.342L220.034 150.02H214.028L216.239 132.596L215.282 131.342H222.905ZM234.922 131.342L241.555 143.057L243.139 131.342H248.551L246.01 150.02H239.674L233.338 138.602L231.754 150.02H226.045L228.586 132.596L227.299 131.342H234.922ZM274.042 131.342L271.798 147.809C271.798 148.447 271.534 148.975 271.006 149.393C270.5 149.811 269.928 150.02 269.29 150.02H251.536L253.747 132.596L252.79 131.342H274.042ZM260.083 134.51L258.202 146.852H265.792L267.706 134.51H260.083ZM319.32 131.342L318.363 138.932L316.449 140.186L318.033 141.473L317.076 147.809C316.922 148.447 316.625 148.975 316.185 149.393C315.745 149.811 315.206 150.02 314.568 150.02H296.814L299.025 132.596L298.068 131.342H319.32ZM305.064 134.51L304.734 138.602H312.027L312.654 134.51H305.064ZM304.107 141.77L303.48 146.852H311.07L311.697 141.77H304.107ZM342.336 131.342C342.644 131.342 342.93 131.397 343.194 131.507C343.458 131.617 343.678 131.771 343.854 131.969C344.052 132.167 344.184 132.398 344.25 132.662C344.316 132.926 344.305 133.223 344.217 133.553L342.006 150.02H324.252C323.944 150.02 323.658 149.965 323.394 149.855C323.13 149.745 322.899 149.591 322.701 149.393C322.525 149.195 322.404 148.964 322.338 148.7C322.272 148.414 322.283 148.117 322.371 147.809L324.582 131.342H342.336ZM330.291 134.51L328.707 146.852H336L337.881 134.51H330.291ZM349.295 131.342H355.928L358.799 136.721L362.594 131.969L361.967 131.342H369.557L361.34 140.516L367.016 150.02H360.68L357.842 144.311L353.09 150.02H346.754L355.004 140.516L350.252 132.266L349.295 131.342Z" fill="black"/>
<defs>
<linearGradient id="paint0_linear_138_215" x1="122.539" y1="123" x2="380" y2="123" gradientUnits="userSpaceOnUse">
<stop stop-color="white"/>
<stop offset="1" stop-color="white" stop-opacity="0"/>
</linearGradient>
</defs>
</svg>
