<svg id="图层_1" data-name="图层 1" xmlns="http://www.w3.org/2000/svg" xmlns:xlink="http://www.w3.org/1999/xlink" viewBox="0 0 100 30"><defs><style>.cls-1{fill:url(#未命名的渐变_3);}.cls-2{fill:url(#未命名的渐变_7);}.cls-3{fill:url(#未命名的渐变_7-5);}.cls-4{fill:#fff;}.cls-5{fill:url(#未命名的渐变_7-6);}</style><linearGradient id="未命名的渐变_3" x1="50" y1="30.24" x2="50" y2="-0.5" gradientUnits="userSpaceOnUse"><stop offset="0" stop-color="#fff501"/><stop offset="1" stop-color="#ffe0d9"/></linearGradient><linearGradient id="未命名的渐变_7" x1="50.05" y1="7.29" x2="50.05" y2="24.15" gradientUnits="userSpaceOnUse"><stop offset="0" stop-color="#9800bd"/><stop offset="1" stop-color="#010101"/></linearGradient><linearGradient id="未命名的渐变_7-5" x1="39.03" y1="23.54" x2="39.03" y2="4.79" xlink:href="#未命名的渐变_7"/><linearGradient id="未命名的渐变_7-6" x1="60.97" y1="23.04" x2="60.97" y2="5.82" xlink:href="#未命名的渐变_7"/></defs><path class="cls-1" d="M5,0h95a0,0,0,0,1,0,0V25a5,5,0,0,1-5,5H0a0,0,0,0,1,0,0V5A5,5,0,0,1,5,0Z"/><path class="cls-2" d="M37.72,6.88l-.35,2.48H34.89l-1.12,3h3.14l-1.5,10.71H28.9l.84-6H28.66L31.5,9.36H30.12l.36-2.48ZM33,20.9l.85-6.08h-.88l-.86,6.08Zm11.6-10.23.5-1.24H42l-.43.81H37.67l1.84-3.19-.31-.67h4.41l-.5.9h6.22L49,9.55,49,10l-.26.67h.71L47.83,22a2.58,2.58,0,0,1-.45,1.13.93.93,0,0,1-.74.44H43.83L44.4,22l.26-1.86h-.91l-.47,3.36h-3.1l.47-3.36H39.53l-.62,3.36H35.79l2.34-12.87Zm-4.62,7.25h1l.2-1.36h-1Zm.67-3.63h.88l.19-1.36h-.81Zm3.45,3.63H45l.19-1.36h-.91Zm.72-5-.19,1.36h.9l.2-1.36Z"/><path class="cls-2" d="M43.61,6.38l-.5.9h6.22L49,9.55,49,10l-.26.67h.71L47.83,22a2.58,2.58,0,0,1-.45,1.13.93.93,0,0,1-.74.44H43.83L44.4,22l.26-1.86h-.91l-.47,3.36h-3.1l.47-3.36H39.53l-.62,3.36H35.79l2.34-12.87h6.43l.5-1.24H42l-.43.81H37.67l1.84-3.19-.31-.67h4.41m2.08,6.55h-.91l-.19,1.36h.9l.2-1.36m-4,0h-.81l-.26,1.36h.88l.19-1.36m3.48,3.63h-.91l-.19,1.36H45l.19-1.36m-4,0h-1l-.26,1.36h1l.2-1.36M37.72,6.88l-.35,2.48H34.89l-1.12,3h3.14l-1.5,10.71H28.9l.84-6H28.66L31.5,9.36H30.12l.36-2.48h7.24m-3.91,7.94h-.88l-.86,6.08H33l.85-6.08M44.29,6H38.57l.27.57.22.48L37.79,9.25l.33-2.31.06-.46h-8l-.05.34L29.72,9.3l-.06.46h1.27L28.29,16.9l-.2.53h1.19L28.51,23l-.07.46h7l-.09.47h3.94l.06-.32.56-3h.32l-.41,2.91-.06.45h6.92a1.31,1.31,0,0,0,1.06-.6,2.94,2.94,0,0,0,.52-1.3L49.8,10.72l.06-.45h-.58l0-.12,0,0v0l.07-.46.31-2.27.06-.46h-6L44,6.57,44.29,6ZM35.16,9.76h2.33l-.16.28-.35.6h.75L37,14.74l.33-2.32.06-.46h-3l.82-2.2Zm7.05.07h2.26l-.18.44H42l.24-.44Zm2.92,3.5h.09l-.07.56h-.1l.08-.56Zm-3.93,0h0l-.08.56h0l.11-.56Zm-7.92,1.89h.07l-.74,5.28h-.08l.75-5.28ZM44.6,17h.1l-.08.56h-.1L44.6,17Zm-4.07,0h.17l-.08.56h-.2l.11-.56Zm3.57,3.62h.1L44,21.94l-.16.42.25-1.78Z"/><path class="cls-2" d="M70.5,12.05l-.31,2.27H63.4l-.29,2H69l-.33,2.27H62.78l-.29,2.05h7.7l-.33,2.48H59.23l-4.46-1.27-.31,1.27H50.38l1.77-6.89-.51-.81h4.8l-1,3.93,2.62.74.84-5.79h-6.8l.31-2.27ZM66.26,10H57.2L57,11.36H52l.5-3.62h7.24l.08-.48-.79-.88h5.43L64.3,7.74h7.25l-.5,3.62h-5Z"/><path class="cls-2" d="M64.49,6.38,64.3,7.74h7.25l-.5,3.62h-5L66.26,10H57.2L57,11.36H52l.5-3.62h7.24l.08-.48-.79-.88h5.43m6,5.67-.31,2.27H63.4l-.29,2H69l-.33,2.27H62.78l-.29,2.05h7.7l-.33,2.48H59.23l-4.46-1.27-.31,1.27H50.38l1.77-6.89-.51-.81h4.8l-1,3.93,2.62.74.84-5.79h-6.8l.31-2.27H70.5M65,6H58.17l.59.66.62.7h-7.2l0,.34-.5,3.63-.06.45H52L52,12l-.31,2.26-.06.46h6.79L57.7,19.6l-1.8-.51.92-3.55L57,15h-6l.37.61.42.66L50,23l-.12.5h4.9l.08-.31.21-.86,4.06,1.15.05,0h11l0-.35.34-2.48.06-.45H63L63.13,19H69l0-.34.33-2.27.07-.46H63.57l.17-1.22h6.8l0-.35.31-2.26,0-.35h.46l0-.34L72,7.79,72,7.34H64.76l.13-.91L65,6Zm-7.4,4.42H65.8l-.13.91,0,.34H57.37l0-.23.15-1Z"/><path class="cls-3" d="M37.72,6.88l-.35,2.48H34.89l-1.12,3h3.14l-1.5,10.71H28.9l.84-6H28.66L31.5,9.36H30.12l.36-2.48ZM33,20.9l.85-6.08h-.88l-.86,6.08Zm11.6-10.23.5-1.24H42l-.43.81H37.67l1.84-3.19-.31-.67h4.41l-.5.9h6.22L49,9.55,49,10l-.26.67h.71L47.83,22a2.58,2.58,0,0,1-.45,1.13.93.93,0,0,1-.74.44H43.83L44.4,22l.26-1.86h-.91l-.47,3.36h-3.1l.47-3.36H39.53l-.62,3.36H35.79l2.34-12.87Zm-4.62,7.25h1l.2-1.36h-1Zm.67-3.63h.88l.19-1.36h-.81Zm3.45,3.63H45l.19-1.36h-.91Zm.72-5-.19,1.36h.9l.2-1.36Z"/><path class="cls-4" d="M43.61,6.38l-.5.9h6.22L49,9.55,49,10l-.26.67h.71L47.83,22a2.58,2.58,0,0,1-.45,1.13.93.93,0,0,1-.74.44H43.83L44.4,22l.26-1.86h-.91l-.47,3.36h-3.1l.47-3.36H39.53l-.62,3.36H35.79l2.34-12.87h6.43l.5-1.24H42l-.43.81H37.67l1.84-3.19-.31-.67h4.41m2.08,6.55h-.91l-.19,1.36h.9l.2-1.36m-4,0h-.81l-.26,1.36h.88l.19-1.36m3.48,3.63h-.91l-.19,1.36H45l.19-1.36m-4,0h-1l-.26,1.36h1l.2-1.36M37.72,6.88l-.35,2.48H34.89l-1.12,3h3.14l-1.5,10.71H28.9l.84-6H28.66L31.5,9.36H30.12l.36-2.48h7.24m-3.91,7.94h-.88l-.86,6.08H33l.85-6.08M44.29,6H38.57l.27.57.22.48L37.79,9.25l.33-2.31.06-.46h-8l-.05.34L29.72,9.3l-.06.46h1.27L28.29,16.9l-.2.53h1.19L28.51,23l-.07.46h7l-.09.47h3.94l.06-.32.56-3h.32l-.41,2.91-.06.45h6.92a1.31,1.31,0,0,0,1.06-.6,2.94,2.94,0,0,0,.52-1.3L49.8,10.72l.06-.45h-.58l0-.12,0,0v0l.07-.46.31-2.27.06-.46h-6L44,6.57,44.29,6ZM35.16,9.76h2.33l-.16.28-.35.6h.75L37,14.74l.33-2.32.06-.46h-3l.82-2.2Zm7.05.07h2.26l-.18.44H42l.24-.44Zm2.92,3.5h.09l-.07.56h-.1l.08-.56Zm-3.93,0h0l-.08.56h0l.11-.56Zm-7.92,1.89h.07l-.74,5.28h-.08l.75-5.28ZM44.6,17h.1l-.08.56h-.1L44.6,17Zm-4.07,0h.17l-.08.56h-.2l.11-.56Zm3.57,3.62h.1L44,21.94l-.16.42.25-1.78Z"/><path class="cls-5" d="M70.5,12.05l-.31,2.27H63.4l-.29,2H69l-.33,2.27H62.78l-.29,2.05h7.7l-.33,2.48H59.23l-4.46-1.27-.31,1.27H50.38l1.77-6.89-.51-.81h4.8l-1,3.93,2.62.74.84-5.79h-6.8l.31-2.27ZM66.26,10H57.2L57,11.36H52l.5-3.62h7.24l.08-.48-.79-.88h5.43L64.3,7.74h7.25l-.5,3.62h-5Z"/><path class="cls-4" d="M64.49,6.38,64.3,7.74h7.25l-.5,3.62h-5L66.26,10H57.2L57,11.36H52l.5-3.62h7.24l.08-.48-.79-.88h5.43m6,5.67-.31,2.27H63.4l-.29,2H69l-.33,2.27H62.78l-.29,2.05h7.7l-.33,2.48H59.23l-4.46-1.27-.31,1.27H50.38l1.77-6.89-.51-.81h4.8l-1,3.93,2.62.74.84-5.79h-6.8l.31-2.27H70.5M65,6H58.17l.59.66.62.7h-7.2l0,.34-.5,3.63-.06.45H52L52,12l-.31,2.26-.06.46h6.79L57.7,19.6l-1.8-.51.92-3.55L57,15h-6l.37.61.42.66L50,23l-.12.5h4.9l.08-.31.21-.86,4.06,1.15.05,0h11l0-.35.34-2.48.06-.45H63L63.13,19H69l0-.34.33-2.27.07-.46H63.57l.17-1.22h6.8l0-.35.31-2.26,0-.35h.46l0-.34L72,7.79,72,7.34H64.76l.13-.91L65,6Zm-7.4,4.42H65.8l-.13.91,0,.34H57.37l0-.23.15-1Z"/></svg>