<svg xmlns="http://www.w3.org/2000/svg" xmlns:xlink="http://www.w3.org/1999/xlink" width="181" height="40.186126708984375" viewBox="0 0 181 40.186126708984375" fill="none"><g opacity="1"  transform="translate(0 1.186126708984375)  rotate(0)"><path id="Rectangle 2" fill-rule="evenodd" fill="url(#linear_0)" opacity="1" d="M0 23C0 14.716 6.716 8 15 8L181 8L181 24C181 32.284 174.284 39 166 39L0 39L0 23Z"></path><g opacity="1"  transform="translate(29.440185546875 0)  rotate(0)"><path  id="Line 1" style="fill:#000000; opacity:1;" d="M-5.24106,24.6591l27.19106,5.7796c0.5402,0.1148 0.885,0.6459 0.7702,1.1861c-0.1148,0.5402 -0.6458,0.885 -1.186,0.7702l-27.19109,-5.7796c-0.54021,-0.1148 -0.88506,-0.6459 -0.77023,-1.1861c0.11482,-0.5402 0.64584,-0.885 1.18606,-0.7702z"></path><path id="Rectangle 7" fill-rule="evenodd" fill="url(#linear_1)" opacity="1" d="M-1.95303 26.3803L18.637 30.7568L21.6061 14.3353C22.5536 9.10808 19.176 4.07588 13.9821 2.97187L13.9821 2.97187C8.76855 1.8637 3.60334 5.04941 2.26041 10.213L-1.95303 26.3803Z"></path><path  id="Rectangle 7" style="fill:#000000; opacity:1;" d="M-1.74512,25.4022l20.59002,4.3765l-0.2079,0.9781l-0.9841,-0.1779l2.9691,-16.4215c0.8509,-4.69409 -2.1819,-9.21562 -6.8478,-10.20738c-4.6915,-0.9972 -9.33876,1.87285 -10.54598,6.51468l-4.21357,16.1678l-0.96768,-0.2522zM-3.18464,27.1409l4.47725,-17.17956c1.47644,-5.67702 7.1597,-9.1872 12.89739,-7.96762c5.7234,1.21654 9.4437,6.76253 8.4001,12.51948l-3.1525,17.4362l-21.59854,-4.5909z"></path><path id="Rectangle 8" fill-rule="evenodd" style="fill:#000000" opacity="1" d="M7.70847 32.4926L7.70847 32.4926C9.85061 32.9479 11.9618 31.5769 12.4171 29.4348L12.4171 29.4348L4.65063 27.784L4.65063 27.784C4.19531 29.9261 5.56633 32.0373 7.70847 32.4926Z"></path><path  id="Rectangle 8" style="fill:#000000; opacity:1;" d="M7.91638,31.5145c1.60444,0.341 3.18152,-0.6832 3.52262,-2.2876l0.9781,0.2079l-0.2079,0.9781l-7.76648,-1.6508l0.20791,-0.9781l0.97815,0.2079c-0.34103,1.6044 0.68316,3.1815 2.2876,3.5226zM7.50056,33.4708c-2.68487,-0.5707 -4.39876,-3.2099 -3.82807,-5.8948l0.20791,-0.9781l9.7228,2.0666l-0.2079,0.9782c-0.5707,2.6849 -3.2099,4.3987 -5.89474,3.8281z"></path></g></g><defs><linearGradient id="linear_0" x1="32.24719221367566%" y1="0%" x2="100.0000060575736%" y2="0%" gradientUnits="objectBoundingBox"><stop offset="0" stop-color="#FFFFFF" stop-opacity="1" /><stop offset="1" stop-color="#FFFFFF" stop-opacity="0" /></linearGradient><linearGradient id="linear_1" x1="15.209772311050989" y1="6.175787597723409" x2="9.760402626650343" y2="31.813055819329296" gradientUnits="userSpaceOnUse"><stop offset="0" stop-color="#000000" stop-opacity="1" /><stop offset="1" stop-color="#FFFFFF" stop-opacity="1" /></linearGradient></defs></svg>