<svg xmlns="http://www.w3.org/2000/svg" xmlns:xlink="http://www.w3.org/1999/xlink" width="113.9951171875" height="19.280000686645508" viewBox="0 0 113.9951171875 19.280000686645508" fill="none"><g opacity="1"  transform="translate(0 0)  rotate(0)"><g opacity="1" transform="translate(24.9951171875 2)  rotate(0)"><a xlink:href="https://" xlink:title="跳转" target="_blank"><text><tspan x="0.3400000000000034" y="17.04" font-size="24" line-height="0" fill="#24292E" opacity="1" font-family="YouSheBiaoTiHei" font-weight="Regular" letter-spacing="0" >奖品一览</tspan></text></a></g><path id="Vector" fill-rule="evenodd" style="fill:#000000" opacity="1" d="M14,0c2.2091,0 4,1.79086 4,4c0,0.72903 -0.1951,1.41251 -0.5358,2.00111l4.5358,-0.00111v1.99997h-2v10.00003c0,0.5523 -0.4477,1 -1,1h-16c-0.55228,0 -1,-0.4477 -1,-1v-10.00003h-2v-1.99997l4.53577,0.00111c-0.34073,-0.5886 -0.53577,-1.27208 -0.53577,-2.00111c0,-2.20914 1.79086,-4 4,-4c1.19522,0 2.268,0.52421 3.0009,1.35526c0.7311,-0.83105 1.8039,-1.35526 2.9991,-1.35526zM12,7.99997h-2v10.00003h2zM8,2c-1.10457,0 -2,0.89543 -2,2c0,1.05436 0.81588,1.91816 1.85074,1.99451l0.14926,0.00549h2v-2c0,-1.00164 -0.73628,-1.83131 -1.69722,-1.97723l-0.15351,-0.01728zM14,2c-1.0544,0 -1.9182,0.81588 -1.9945,1.85074l-0.0055,0.14926v2h2c1.0543,0 1.9181,-0.81588 1.9945,-1.85074l0.0055,-0.14926c0,-1.10457 -0.8954,-2 -2,-2z"></path></g></svg>