<svg xmlns="http://www.w3.org/2000/svg" xmlns:xlink="http://www.w3.org/1999/xlink" width="291" height="124" viewBox="0 0 291 124" fill="none"><g opacity="1"  transform="translate(0 0)  rotate(0)"><path id="Rectangle 4" fill-rule="evenodd" fill="url(#linear_0)" opacity="1" d="M0 15C0 6.716 6.716 0 15 0L291 0L291 109C291 117.284 284.284 124 276 124L0 124L0 15Z"></path><g opacity="1" transform="translate(81 54)  rotate(0)"><a xlink:href="https://" xlink:title="跳转" target="_blank"><text><tspan x="0" y="50" font-size="50" line-height="0" fill="#00264D" opacity="1" font-family="YouSheBiaoTiHei" font-weight="Regular" letter-spacing="0" >随机开盒</tspan></text></a></g><path id="Rectangle 5" fill-rule="evenodd" fill="url(#linear_1)" opacity="1" d="M0 0L291 0L291 50L0 50L0 0Z"></path><g opacity="1"  transform="translate(11 47)  rotate(0)"><mask id="bg-mask-0" fill="white"><use transform="translate(0 0)  rotate(0)" xlink:href="#path_0"></use></mask><g mask="url(#bg-mask-0)" ><path id="Vector" fill-rule="evenodd" style="fill:#00264D" opacity="1" d="M33.0135,5.5c9.1127,0 16.5,7.3873 16.5,16.5v2.75h11v5.5h-3.2093l-2.0806,24.9782c-0.1188,1.4254 -1.3104,2.5218 -2.7407,2.5218h-38.9391c-1.4302,0 -2.6217,-1.0964 -2.7405,-2.5218l-2.08337,-24.9782h-3.2065v-5.5h10.99997v-2.75c0,-9.1127 7.3873,-16.5 16.5001,-16.5zM35.7635,35.75h-5.5v11h5.5zM24.7634,35.75h-5.5v11h5.5zM46.7635,35.75h-5.5v11h5.5zM33.0135,11c-5.8911,0 -10.7005,4.6309 -10.9866,10.451l-0.0135,0.549v2.75h22.0001v-2.75c0,-5.8911 -4.631,-10.7005 -10.4511,-10.9865z"></path></g></g></g><defs><linearGradient id="linear_0" x1="-6.938893903907228e-16%" y1="100.00000000000003%" x2="100%" y2="100.00000000000003%" gradientUnits="objectBoundingBox"><stop offset="0" stop-color="#C1F9FF" stop-opacity="1" /><stop offset="1" stop-color="#49EEFF" stop-opacity="1" /></linearGradient><linearGradient id="linear_1" x1="39.4039714528799%" y1="-0.00002628504807145049%" x2="99.99998555278442%" y2="-0.00002628504807145049%" gradientUnits="objectBoundingBox"><stop offset="0" stop-color="#FFFFFF" stop-opacity="0" /><stop offset="1" stop-color="#FFFFFF" stop-opacity="1" /></linearGradient><rect id="path_0" x="0" y="0" width="66" height="66" /></defs></svg>