<svg width="125" height="124" viewBox="0 0 125 124" fill="none" xmlns="http://www.w3.org/2000/svg">
<path d="M0 15C0 6.71573 6.71573 0 15 0H125V109C125 117.284 118.284 124 110 124H0V15Z" fill="white"/>
<g opacity="0.12">
<path d="M27.3398 23.9437C36.3084 16.0024 48.1036 11.1815 61.0249 11.1815C89.0991 11.1815 111.858 33.9404 111.858 62.0147C111.858 72.8168 108.489 82.8315 102.744 91.0659L88.9832 62.0147H101.692C101.692 39.5553 83.4846 21.3482 61.0249 21.3482C49.6163 21.3482 39.305 26.046 31.9199 33.6127L27.3398 23.9437ZM94.7096 100.086C85.7411 108.027 73.9462 112.848 61.0249 112.848C32.9504 112.848 10.1915 90.0894 10.1915 62.0147C10.1915 51.213 13.5607 41.1981 19.3054 32.9637L33.0665 62.0147H20.3581C20.3581 84.4744 38.5652 102.681 61.0249 102.681C72.4334 102.681 82.7445 97.9839 90.1295 90.4168L94.7096 100.086ZM68.2138 76.3929L53.8361 62.0147L39.458 76.3929L32.2691 69.2036L53.8361 47.637L68.2138 62.0147L82.5915 47.637L89.7803 54.8259L68.2138 76.3929Z" fill="black"/>
</g>
<path d="M49.7431 30.28L48.4631 39.32H34.2631L30.8631 58.28H25.5831L30.5431 31.72L29.4631 30.28H49.7431ZM41.4631 56.76L41.2231 58.44H36.4631L38.2631 45.56H37.1431L35.5831 56.76H31.7831L33.8231 42.24H38.7431L39.0231 40.28H43.7831L43.5031 42.24H48.5031L46.6631 55.28C46.6098 55.68 46.3431 56.0267 45.8631 56.32C45.4098 56.6133 44.9698 56.76 44.5431 56.76H41.4631ZM62.6631 30.28L59.0631 55.64C58.9565 56.4133 58.6098 57.0533 58.0231 57.56C57.4365 58.04 56.7565 58.28 55.9831 58.28H49.5831L53.1831 54.04L56.3431 31.52L55.4231 30.28H62.6631ZM55.3031 31.12L52.2231 53.04H47.7431L50.8231 31.12H55.3031ZM44.0231 33.68H35.3431L35.0231 35.96H43.7031L44.0231 33.68ZM43.0231 45.56L41.4631 56.76L42.8631 55.28L44.2231 45.56H43.0231ZM84.74 31.84L99.1 29.56L98.54 33.36L90.02 34.72L89.46 38.68H98.58L98.02 42.48H96.5L94.26 58.36H88.54L90.78 42.48H88.9L86.66 58.36H80.98L84.74 31.84ZM70.14 43.64L70.3 42.48H64.58L65.14 38.68H67.82L67.34 36.4H72.66L73.14 38.68H74.62L75.74 36.4H81.06L79.94 38.68H82.62L82.06 42.48H76.38L76.22 43.64H81.14L80.62 47.44H75.7L74.54 55.72C74.4067 56.4933 74.0333 57.1333 73.42 57.64C72.8333 58.12 72.1533 58.36 71.38 58.36H66.14L68.38 56.08L69.62 47.44H64.66L65.18 43.64H70.14ZM71.82 31.84L71.98 30.72L70.98 29.56H78.22L77.9 31.84H82.82L82.26 35.64H66.3L66.86 31.84H71.82ZM76.26 48.56H80.06L80.14 56.16H76.34L76.26 48.56ZM66.46 56.16H62.66L64.9 48.56H68.7L66.46 56.16ZM58.9031 81.64L56.6631 97.56H26.5431L28.7831 81.64H58.9031ZM29.2631 75.48H27.8231L28.4231 71.36H42.3831L42.4631 70.72L41.8631 69.6H51.1431L50.9031 71.36H61.6631L61.0631 75.48H36.9031L36.6631 77.28H59.3431L58.9031 80.52H28.5831L29.2631 75.48ZM35.2631 90.48H50.0231L50.2231 89.12H35.4631L35.2631 90.48ZM35.8631 86.08H50.6231L50.8231 84.84H36.0631L35.8631 86.08ZM49.4231 94.68L49.5831 93.44H34.8231L34.6631 94.68H49.4231ZM65.14 94.68L66.14 87.64H96.3L95.3 94.68H96.9L96.5 97.6H63.14L63.54 94.68H65.14ZM91.22 77.64L90.82 76.16L90.62 77.84H73.94L74.14 76.36L73.38 77.64H66.54L71.1 70.84L70.18 69.52H95.86L98.62 77.64H91.22ZM96.66 79.12L95.58 86.56H67.34L68.42 79.12H96.66ZM75.02 74.88H90.5L90.18 73.52H75.82L75.02 74.88ZM87.94 83.68L88.14 82.2H75.14L74.94 83.68H87.94ZM87.58 90.76L87.06 94.68H88.9L89.46 90.76H87.58ZM79.5 94.68H81.34L81.86 90.76H80.02L79.5 94.68ZM71.94 94.68H73.78L74.3 90.76H72.5L71.94 94.68Z" fill="#24292E"/>
</svg>
